<?xml version="1.0" encoding="UTF-8" standalone="no"?>
<svg xmlns:dc="http://purl.org/dc/elements/1.1/" xmlns:cc="http://creativecommons.org/ns#" xmlns:rdf="http://www.w3.org/1999/02/22-rdf-syntax-ns#" xmlns:svg="http://www.w3.org/2000/svg" xmlns="http://www.w3.org/2000/svg" xmlns:xlink="http://www.w3.org/1999/xlink" xmlns:sodipodi="http://sodipodi.sourceforge.net/DTD/sodipodi-0.dtd" xmlns:inkscape="http://www.inkscape.org/namespaces/inkscape" width="210.7016mm" height="165.02374mm" viewBox="0 0 746.58047 584.7298" id="svg4573" version="1.1" inkscape:version="0.91 r13725" sodipodi:docname="krita_HDR2.svg">
  <sodipodi:namedview pagecolor="#ffffff" bordercolor="#666666" borderopacity="1" objecttolerance="10" gridtolerance="10" guidetolerance="10" inkscape:pageopacity="0" inkscape:pageshadow="2" inkscape:window-width="1280" inkscape:window-height="965" id="namedview7739" showgrid="false" inkscape:zoom="1.141568" inkscape:cx="373.29023" inkscape:cy="292.3649" inkscape:window-x="0" inkscape:window-y="0" inkscape:window-maximized="1" inkscape:current-layer="g22119"/>
  <defs id="defs4575">
    <linearGradient id="linearGradient5161">
      <stop id="stop5163" offset="0" style="stop-color:#ffffff;stop-opacity:1;"/>
      <stop id="stop5165" offset="1" style="stop-color:#000000;stop-opacity:1"/>
    </linearGradient>
    <linearGradient gradientTransform="matrix(-1.5258013,0.58992474,-0.58992474,-1.5258013,777.22909,668.71294)" y2="237.56342" x2="356.74472" y1="265.12204" x1="284.35922" gradientUnits="userSpaceOnUse" id="linearGradient21917" xlink:href="#linearGradient21822"/>
    <linearGradient id="linearGradient21822">
      <stop id="stop21824" offset="0" style="stop-color:#0029be;stop-opacity:1"/>
      <stop id="stop21826" offset="1" style="stop-color:#3c66ff;stop-opacity:1"/>
    </linearGradient>
    <linearGradient gradientTransform="translate(0,162)" y2="506.70651" x2="168.60117" y1="507.5434" x1="458.56506" gradientUnits="userSpaceOnUse" id="linearGradient6669" xlink:href="#linearGradient5161"/>
    <linearGradient y2="506.70651" x2="168.60117" y1="507.5434" x1="458.56506" gradientTransform="translate(0,2)" gradientUnits="userSpaceOnUse" id="linearGradient6709" xlink:href="#linearGradient5161"/>
    <linearGradient inkscape:collect="always" xlink:href="#linearGradient5161" id="linearGradient7658" x1="29.628496" y1="550.34656" x2="197.48636" y2="430.14102" gradientUnits="userSpaceOnUse"/>
  </defs>
  <metadata id="metadata4578">
    <rdf:RDF>
      <cc:Work rdf:about="">
        <dc:format>image/svg+xml</dc:format>
        <dc:type rdf:resource="http://purl.org/dc/dcmitype/StillImage"/>
        <dc:title/>
      </cc:Work>
    </rdf:RDF>
  </metadata>
  <g transform="translate(1.5540942,-457.84856)" id="layer1"/>
  <g transform="translate(1.5540942,-457.84856)" id="g6598">
    <rect style="fill:url(#linearGradient6709);fill-opacity:1;stroke:#000000;stroke-width:2;stroke-linecap:round;stroke-linejoin:round;stroke-miterlimit:4;stroke-dasharray:none;stroke-opacity:1" id="rect6707" width="698.29022" height="70.292252" x="16.162441" y="477.56506"/>
    <rect y="481.62601" x="235.54607" height="56.568569" width="382.86011" id="rect5169" style="fill:none;fill-opacity:1;stroke:#717171;stroke-width:2;stroke-linecap:round;stroke-linejoin:round;stroke-miterlimit:4;stroke-dasharray:4,8;stroke-opacity:1;stroke-dashoffset:0"/>
    <text xml:space="preserve" style="font-style:normal;font-weight:normal;font-size:12.5px;line-height:125%;font-family:sans-serif;letter-spacing:0px;word-spacing:0px;fill:#000000;fill-opacity:1;stroke:none;stroke-width:1px;stroke-linecap:butt;stroke-linejoin:miter;stroke-opacity:1" x="427.35544" y="576.70215" id="text6561"><tspan x="427.35544" y="576.70215" id="tspan6565">1.0</tspan></text>
    <text xml:space="preserve" style="font-style:normal;font-weight:normal;font-size:12.5px;line-height:125%;font-family:sans-serif;letter-spacing:0px;word-spacing:0px;fill:#000000;fill-opacity:1;stroke:none;stroke-width:1px;stroke-linecap:butt;stroke-linejoin:miter;stroke-opacity:1" x="666.7616" y="575.71234" id="text6569"><tspan id="tspan6571" x="666.7616" y="575.71234">2.0</tspan></text>
    <text xml:space="preserve" style="font-style:normal;font-weight:normal;font-size:12.5px;line-height:125%;font-family:sans-serif;letter-spacing:0px;word-spacing:0px;fill:#000000;fill-opacity:1;stroke:none;stroke-width:1px;stroke-linecap:butt;stroke-linejoin:miter;stroke-opacity:1" x="185.86807" y="576.76306" id="text6573"><tspan id="tspan6575" x="185.86807" y="576.76306">0.0</tspan></text>
    <path id="path6557" d="M 18.182746,561.42805 713.1677,562.4382 m -694.984954,-1.01015 0.01017,-6.99999 m 19.989805,7.02906 0.01017,-6.99999 m 19.989805,7.02906 0.01017,-6.99999 m 19.989805,7.02906 0.01017,-6.99999 m 19.989804,7.02906 0.01018,-6.99999 m 19.989804,7.02906 0.0102,-6.99999 m 19.98981,7.02906 0.0102,-6.99999 m 19.98981,7.02906 0.0102,-6.99999 m 19.98981,7.02906 0.0102,-7 m 19.98981,7.02907 0.0203,-13.99999 m 19.97963,14.02906 0.0102,-7 m 19.9898,7.02907 0.0102,-7 m 19.9898,7.02907 0.0102,-7 m 19.9898,7.02907 0.0102,-7 m 19.9898,7.02907 0.0102,-7 m 19.98981,7.02906 0.0102,-6.99999 m 19.98981,7.02906 0.0102,-6.99999 m 19.98981,7.02906 0.0102,-6.99999 m 19.98981,7.02906 0.0102,-6.99999 m 19.9898,7.02906 0.0102,-6.99999 m 19.9898,7.02906 0.0102,-6.99999 m 19.9898,7.02906 0.0204,-13.99998 m 19.97963,14.02905 0.0102,-6.99999 m 19.9898,7.02906 0.0102,-6.99999 m 19.98981,7.02906 0.0102,-6.99999 m 19.98981,7.02906 0.0102,-6.99999 m 19.98981,7.02906 0.0102,-6.99999 m 19.98981,7.02906 0.0102,-6.99999 m 19.9898,7.02906 0.0102,-6.99999 m 19.9898,7.02906 0.0102,-6.99999 m 19.9898,7.02906 0.0102,-6.99999 m 19.9898,7.02906 0.0102,-6.99999 m 19.9898,7.02906 0.0102,-6.99999 m 19.98981,7.02906 0.0204,-13.99999 m 19.97963,14.02906 0.0102,-6.99999 m -680.009454,6.01162 0.02035,-13.99999 m 694.964605,15.01014 0.0204,-13.99999" style="fill:none;fill-rule:evenodd;stroke:#000000;stroke-width:1px;stroke-linecap:butt;stroke-linejoin:miter;stroke-opacity:1"/>
    <g id="text6641" style="font-style:normal;font-variant:normal;font-weight:normal;font-stretch:normal;font-size:40px;line-height:125%;font-family:Purisa;-inkscape-font-specification:Purisa;letter-spacing:0px;word-spacing:0px;fill:#515151;fill-opacity:1;stroke:none;stroke-width:1px;stroke-linecap:butt;stroke-linejoin:miter;stroke-opacity:1">
      <path id="path6678" style="fill:#515151;fill-opacity:1" d="m 356.11685,599.10509 q 0,3.24 -0.84,6.72 -0.8,3.44 -1.96,5.92 -1.12,2.48 -2.36,4.12 -1.2,1.6 -2,1.6 -0.64,0 -0.84,0.64 -0.12,0.36 -1.76,0.64 -1.6,0.32 -3.36,0.32 -1.08,0 -1.72,-0.28 -0.64,-0.24 -1.68,-1.04 -2.12,-1.68 -3.72,-5.24 -1.6,-3.6 -1.6,-6.76 0,-3.64 1.64,-7.24 1.64,-3.64 4.16,-5.44 2.4,-1.68 3.2,-1.68 0.52,0 1.64,-1.08 1.12,-1.08 1.8,-1.08 0.76,0 1.24,-0.52 0.52,-0.56 1.48,-0.56 3,0 4.84,3 1.84,2.96 1.84,7.96 z m -2.2,-0.76 q 0,-1.16 -1.16,-3.44 -1.12,-2.28 -1.56,-2.56 -0.48,-0.32 -1.52,-0.32 -1.76,0 -4.56,0.92 -6.08,1.92 -7.44,10.12 -0.4,2.48 -0.4,3.24 0,1.16 0.96,4 2.16,6.04 5.88,6.04 1.04,0 2.24,-0.48 1.4,-0.52 3.4,-3.48 2.04,-3 2.36,-4.96 0.2,-1.64 1,-4.96 0.8,-3.32 0.8,-4.12 z"/>
      <path id="path6680" style="fill:#515151;fill-opacity:1" d="m 384.04873,605.74509 q 0,0.48 -0.68,1.8 -0.64,1.32 -1.92,3.04 -1.24,1.72 -2.8,3.32 -1.52,1.56 -3.56,2.64 -2.04,1.08 -4,1.08 -4.84,0 -7.84,-6.16 -0.4,-0.8 -0.4,-5.44 0,-8.36 0.8,-11.16 1,-3.68 4.92,-6.44 3.92,-2.8 7.44,-2.8 1.84,0 3.36,1.2 1.56,1.16 1.56,2.6 0,0.52 -0.6,0.52 -0.44,0 -0.92,-0.28 -0.48,-0.28 -0.72,-0.72 -0.4,-0.88 -1.24,-0.88 -2.08,0 -5.04,1.4 -2.92,1.4 -4.48,3.12 -1.32,1.44 -2,4.44 -0.68,3 -0.68,9.08 0,2.88 0.76,4.68 0.76,1.8 2.2,2.92 1.44,1.12 2.96,1.12 1.04,0 2.92,-0.88 1.88,-0.88 2.64,-1.72 l 2.04,-2.04 q 0.96,-0.92 2,-2.36 1.08,-1.48 1.72,-2.36 0.68,-0.88 1.12,-0.88 0.44,0 0.44,1.16 z"/>
      <path id="path6682" style="fill:#515151;fill-opacity:1" d="m 402.67123,613.34509 q 0.04,0 0.24,-0.12 0.2,-0.16 0.52,-0.32 0.36,-0.16 0.76,-0.16 0.64,0 1.08,0.36 0.48,0.32 0.48,0.88 0,0.88 -1.32,1.68 -1.32,0.76 -5,2.16 -2.4,0.92 -3.44,0.92 -0.64,0 -1.72,-0.32 -1.16,-0.32 -1.6,-0.68 -0.44,-0.36 -0.44,-0.92 0,-0.6 0.32,-0.8 0.32,-0.2 1.24,-0.2 1.4,0 3.56,-0.92 l 2,-0.92 -0.36,-7.48 q -0.36,-7.48 -0.36,-11.84 l 0,-4.28 -1.16,0.32 q -1.96,0.56 -3.8,0.56 -2.32,0 -2.32,-0.88 0,-0.52 1.4,-1.12 1.4,-0.64 3.56,-1.32 2.2,-0.68 2.8,-0.92 0.44,-0.2 2.6,-0.2 2.76,0 3.52,0.28 0.28,0.12 0.52,0.52 0.24,0.4 0.24,0.76 0,0.72 -0.68,1.08 -0.68,0.32 -2.64,0.56 l -1.2,0.16 0.08,6.96 q 0.28,16.2 1.12,16.2 z"/>
      <path id="path6684" style="fill:#515151;fill-opacity:1" d="m 434.86685,599.10509 q 0,3.24 -0.84,6.72 -0.8,3.44 -1.96,5.92 -1.12,2.48 -2.36,4.12 -1.2,1.6 -2,1.6 -0.64,0 -0.84,0.64 -0.12,0.36 -1.76,0.64 -1.6,0.32 -3.36,0.32 -1.08,0 -1.72,-0.28 -0.64,-0.24 -1.68,-1.04 -2.12,-1.68 -3.72,-5.24 -1.6,-3.6 -1.6,-6.76 0,-3.64 1.64,-7.24 1.64,-3.64 4.16,-5.44 2.4,-1.68 3.2,-1.68 0.52,0 1.64,-1.08 1.12,-1.08 1.8,-1.08 0.76,0 1.24,-0.52 0.52,-0.56 1.48,-0.56 3,0 4.84,3 1.84,2.96 1.84,7.96 z m -2.2,-0.76 q 0,-1.16 -1.16,-3.44 -1.12,-2.28 -1.56,-2.56 -0.48,-0.32 -1.52,-0.32 -1.76,0 -4.56,0.92 -6.08,1.92 -7.44,10.12 -0.4,2.48 -0.4,3.24 0,1.16 0.96,4 2.16,6.04 5.88,6.04 1.04,0 2.24,-0.48 1.4,-0.52 3.4,-3.48 2.04,-3 2.36,-4.96 0.2,-1.64 1,-4.96 0.8,-3.32 0.8,-4.12 z"/>
    </g>
    <rect y="637.56506" x="16.162441" height="70.292252" width="698.29022" id="rect6649" style="fill:url(#linearGradient6669);fill-opacity:1;stroke:#000000;stroke-width:2;stroke-linecap:round;stroke-linejoin:round;stroke-miterlimit:4;stroke-dasharray:none;stroke-opacity:1"/>
    <path id="path6645" d="m 617.66942,561.23314 -177.36843,80.4112" style="fill:none;fill-rule:evenodd;stroke:#000000;stroke-width:1px;stroke-linecap:butt;stroke-linejoin:miter;stroke-opacity:1"/>
    <rect style="fill:none;fill-opacity:1;stroke:#717171;stroke-width:2;stroke-linecap:round;stroke-linejoin:round;stroke-miterlimit:4;stroke-dasharray:4, 8;stroke-opacity:1;stroke-dashoffset:0" id="rect6651" width="240.41629" height="56.568569" x="197.9899" y="643.62598"/>
    <path id="path6647" d="m 235.40104,562.24329 -38.79191,79.81947" style="fill:none;fill-rule:evenodd;stroke:#000000;stroke-width:1px;stroke-linecap:butt;stroke-linejoin:miter;stroke-opacity:1"/>
    <text id="text6653" y="738.70215" x="427.35544" style="font-style:normal;font-weight:normal;font-size:12.5px;line-height:125%;font-family:sans-serif;letter-spacing:0px;word-spacing:0px;fill:#000000;fill-opacity:1;stroke:none;stroke-width:1px;stroke-linecap:butt;stroke-linejoin:miter;stroke-opacity:1" xml:space="preserve"><tspan id="tspan6655" y="738.70215" x="427.35544">1.0</tspan></text>
    <text id="text6657" y="737.71234" x="666.7616" style="font-style:normal;font-weight:normal;font-size:12.5px;line-height:125%;font-family:sans-serif;letter-spacing:0px;word-spacing:0px;fill:#000000;fill-opacity:1;stroke:none;stroke-width:1px;stroke-linecap:butt;stroke-linejoin:miter;stroke-opacity:1" xml:space="preserve"><tspan y="737.71234" x="666.7616" id="tspan6659">2.0</tspan></text>
    <text id="text6661" y="738.76306" x="185.86807" style="font-style:normal;font-weight:normal;font-size:12.5px;line-height:125%;font-family:sans-serif;letter-spacing:0px;word-spacing:0px;fill:#000000;fill-opacity:1;stroke:none;stroke-width:1px;stroke-linecap:butt;stroke-linejoin:miter;stroke-opacity:1" xml:space="preserve"><tspan y="738.76306" x="185.86807" id="tspan6663">0.0</tspan></text>
    <path id="path6665" d="M 18.182746,723.42805 713.1677,724.4382 m -694.984954,-1.01015 0.01017,-6.99999 m 19.989805,7.02906 0.01017,-6.99999 m 19.989805,7.02906 0.01017,-6.99999 m 19.989805,7.02906 0.01017,-6.99999 m 19.989804,7.02906 0.01018,-6.99999 m 19.989804,7.02906 0.0102,-6.99999 m 19.98981,7.02906 0.0102,-6.99999 m 19.98981,7.02906 0.0102,-6.99999 m 19.98981,7.02906 0.0102,-7 m 19.98981,7.02907 0.0203,-13.99999 m 19.97963,14.02906 0.0102,-7 m 19.9898,7.02907 0.0102,-7 m 19.9898,7.02907 0.0102,-7 m 19.9898,7.02907 0.0102,-7 m 19.9898,7.02907 0.0102,-7 m 19.98981,7.02906 0.0102,-6.99999 m 19.98981,7.02906 0.0102,-6.99999 m 19.98981,7.02906 0.0102,-6.99999 m 19.98981,7.02906 0.0102,-6.99999 m 19.9898,7.02906 0.0102,-6.99999 m 19.9898,7.02906 0.0102,-6.99999 m 19.9898,7.02906 0.0204,-13.99998 m 19.97963,14.02905 0.0102,-6.99999 m 19.9898,7.02906 0.0102,-6.99999 m 19.98981,7.02906 0.0102,-6.99999 m 19.98981,7.02906 0.0102,-6.99999 m 19.98981,7.02906 0.0102,-6.99999 m 19.98981,7.02906 0.0102,-6.99999 m 19.9898,7.02906 0.0102,-6.99999 m 19.9898,7.02906 0.0102,-6.99999 m 19.9898,7.02906 0.0102,-6.99999 m 19.9898,7.02906 0.0102,-6.99999 m 19.9898,7.02906 0.0102,-6.99999 m 19.98981,7.02906 0.0204,-13.99999 m 19.97963,14.02906 0.0102,-6.99999 m -680.009454,6.01162 0.02035,-13.99999 m 694.964605,15.01014 0.0204,-13.99999" style="fill:none;fill-rule:evenodd;stroke:#000000;stroke-width:1px;stroke-linecap:butt;stroke-linejoin:miter;stroke-opacity:1"/>
    <path id="path6673" d="m 437.86227,723.44639 25.25381,114.14724" style="fill:none;fill-rule:evenodd;stroke:#000000;stroke-width:1px;stroke-linecap:butt;stroke-linejoin:miter;stroke-opacity:1"/>
    <path id="path6675" d="M 198.45611,724.45655 347.95869,837.59363" style="fill:none;fill-rule:evenodd;stroke:#000000;stroke-width:1px;stroke-linecap:butt;stroke-linejoin:miter;stroke-opacity:1"/>
    <g style="filter:url(#filter5155-6)" id="g22119" transform="matrix(0.96263685,0,0,0.96263685,224.07897,470.23709)">
      <path inkscape:connector-curvature="0" id="path4237" d="m 88.391781,520.01836 c 0,0 -11.08937,-21.38664 -40.396982,-22.17873 -29.307615,-0.79211 -39.6048827,24.55502 -39.6048827,24.55502" style="fill:none;fill-rule:evenodd;stroke:#323232;stroke-width:4.43574667;stroke-linecap:round;stroke-linejoin:miter;stroke-miterlimit:4;stroke-dasharray:none;stroke-opacity:1"/>
      <circle r="19.802441" cy="521.90045" cx="52.747383" id="path4239" style="fill:#6d6d6d;fill-opacity:1;stroke:#363636;stroke-width:2.21787333;stroke-linecap:round;stroke-linejoin:round;stroke-miterlimit:4;stroke-dasharray:none;stroke-dashoffset:0;stroke-opacity:1"/>
      <path style="fill:none;fill-rule:evenodd;stroke:#323232;stroke-width:2.21787333;stroke-linecap:round;stroke-linejoin:miter;stroke-miterlimit:4;stroke-dasharray:none;stroke-opacity:1" d="m 87.599691,529.53483 c 0,0 -11.08938,21.38664 -40.39699,22.17873 C 17.895087,552.50567 7.5978193,527.15854 7.5978193,527.15854" id="path4241" inkscape:connector-curvature="0"/>
      <ellipse ry="6.3367815" rx="7.5249276" cy="529.28662" cx="47.422718" id="path4243" style="fill:#ffffff;fill-opacity:1;stroke:none;stroke-width:2.21787333;stroke-linecap:round;stroke-linejoin:round;stroke-miterlimit:4;stroke-dasharray:none;stroke-dashoffset:0;stroke-opacity:1"/>
      <g transform="matrix(1.3271203,0,0,1.3271203,-24.542569,-161.10985)" style="fill:#686868;fill-opacity:1" id="g4271">
        <path inkscape:connector-curvature="0" style="fill:#686868;fill-opacity:1;fill-rule:evenodd;stroke:none;stroke-width:1px;stroke-linecap:butt;stroke-linejoin:miter;stroke-opacity:1" d="m 207.49805,454.51367 -91.14258,7.29102 -19.140626,87.49609 91.142576,29.16602 19.14063,-123.95313 z m -13.92578,11.41992 -15,97.14258 -71.42969,-22.85742 15,-68.57031 71.42969,-5.71485 z" transform="matrix(0.8355962,0,0,0.8355962,27.692137,33.545689)" id="path4245"/>
        <path style="fill:#686868;fill-opacity:1;fill-rule:evenodd;stroke:none;stroke-width:0.8355962px;stroke-linecap:butt;stroke-linejoin:miter;stroke-opacity:1" d="m 202.57048,413.92525 -14.92136,103.25581 9.54967,-0.59685 13.1308,-100.27155 z" id="path4251" inkscape:connector-curvature="0" sodipodi:nodetypes="ccccc"/>
        <path style="fill:#686868;fill-opacity:1;fill-rule:evenodd;stroke:none;stroke-width:0.8355962px;stroke-linecap:butt;stroke-linejoin:miter;stroke-opacity:1" d="m 151.83786,508.22825 -0.59686,15.51821 c 0,0 0.59686,3.58113 8.35597,4.17798 7.7591,0.59686 10.14652,-3.58112 10.14652,-3.58112 l -1.1937,-11.34024 z" id="path4253" inkscape:connector-curvature="0"/>
        <path style="fill:#686868;fill-opacity:1;fill-rule:evenodd;stroke:none;stroke-width:0.8355962px;stroke-linecap:butt;stroke-linejoin:miter;stroke-opacity:1" d="m 149.45044,517.77792 c -2.98427,-2.38742 -17.90564,0.59685 -22.68047,4.77483 -12.21415,20.23352 35.00783,24.8351 41.77982,24.47103 16.11506,-1.19371 21.48675,-7.7591 20.29304,-11.34023 -1.19371,-3.58113 -16.71192,-13.72765 -16.71192,-13.72765 0,0 -1.19371,6.56539 -5.37169,7.16225 -4.17799,0.59686 -12.53394,0.59685 -15.51822,-1.79056 -2.98427,-2.38742 -1.79056,-9.54967 -1.79056,-9.54967 z" id="path4255" inkscape:connector-curvature="0" sodipodi:nodetypes="cccscssc"/>
      </g>
      <path style="fill:#ffffff;fill-opacity:1;fill-rule:evenodd;stroke:url(#linearGradient7658);stroke-width:3.02615142;stroke-linecap:butt;stroke-linejoin:miter;stroke-miterlimit:4;stroke-dasharray:none;stroke-opacity:1" d="m 152.975,441.92921 -50.98506,42.68899 -9.79579,-11.69947 -3.204889,40.99739 40.768249,3.86594 -8.48453,-10.1334 50.98506,-42.68897 z" id="path21798" inkscape:connector-curvature="0" sodipodi:nodetypes="cccccccc"/>
    </g>
  </g>
</svg>