<?xml version="1.0" encoding="UTF-8" standalone="no"?>
<!-- Created with Inkscape (http://www.inkscape.org/) -->
<svg xmlns:dc="http://purl.org/dc/elements/1.1/" xmlns:cc="http://creativecommons.org/ns#" xmlns:rdf="http://www.w3.org/1999/02/22-rdf-syntax-ns#" xmlns:svg="http://www.w3.org/2000/svg" xmlns="http://www.w3.org/2000/svg" xmlns:xlink="http://www.w3.org/1999/xlink" xmlns:sodipodi="http://sodipodi.sourceforge.net/DTD/sodipodi-0.dtd" xmlns:inkscape="http://www.inkscape.org/namespaces/inkscape" inkscape:version="0.91 r13725" version="1.1" id="svg4573" viewBox="0 0 746.58047 584.7298" height="165.02374mm" width="210.7016mm" sodipodi:docname="krita_HDR_1.svg">
  <defs id="defs4575">
    <inkscape:path-effect border_marks="both" mark_dir="left" offset="0" shift="9" major_mark_steps="12" minor_mark_length="7" mark_length="14" mark_distance="20" unit="px" is_visible="true" id="path-effect6667" effect="ruler"/>
    <inkscape:path-effect effect="ruler" id="path-effect6559" is_visible="true" unit="px" mark_distance="20" mark_length="14" minor_mark_length="7" major_mark_steps="12" shift="9" offset="0" mark_dir="left" border_marks="both"/>
    <linearGradient inkscape:collect="always" id="linearGradient5161">
      <stop style="stop-color:#ffffff;stop-opacity:1;" offset="0" id="stop5163"/>
      <stop style="stop-color:#000000;stop-opacity:1" offset="1" id="stop5165"/>
    </linearGradient>
    <linearGradient inkscape:collect="always" xlink:href="#linearGradient5161" id="linearGradient6669" gradientUnits="userSpaceOnUse" x1="458.56506" y1="507.5434" x2="168.60117" y2="506.70651" gradientTransform="translate(0,162)"/>
    <clipPath clipPathUnits="userSpaceOnUse" id="clipPath6812">
      <circle r="27.510649" cy="537.34912" cx="91.345276" id="circle6814" style="fill:#ffffff;fill-opacity:1;stroke:none;stroke-width:1;stroke-linecap:round;stroke-linejoin:round;stroke-miterlimit:4;stroke-dasharray:none;stroke-dashoffset:0;stroke-opacity:1"/>
    </clipPath>
    <linearGradient inkscape:collect="always" xlink:href="#linearGradient5161" id="linearGradient7658" x1="29.628496" y1="550.34656" x2="197.48636" y2="430.14102" gradientUnits="userSpaceOnUse"/>
  </defs>
  <sodipodi:namedview inkscape:window-maximized="1" inkscape:window-y="0" inkscape:window-x="0" inkscape:window-height="965" inkscape:window-width="1280" showgrid="false" inkscape:current-layer="svg4573" inkscape:document-units="px" inkscape:cy="374.56923" inkscape:cx="400.54337" inkscape:zoom="1.4" inkscape:pageshadow="2" inkscape:pageopacity="0.0" borderopacity="1.0" bordercolor="#666666" pagecolor="#ffffff" id="base" fit-margin-top="5" fit-margin-left="5" fit-margin-right="5" fit-margin-bottom="5"/>
  <metadata id="metadata4578">
    <rdf:RDF>
      <cc:Work rdf:about="">
        <dc:format>image/svg+xml</dc:format>
        <dc:type rdf:resource="http://purl.org/dc/dcmitype/StillImage"/>
        <dc:title/>
      </cc:Work>
    </rdf:RDF>
  </metadata>
  <g inkscape:label="Layer 1" inkscape:groupmode="layer" id="layer1" transform="translate(1.5540942,-457.84856)"/>
  <g id="g6598" transform="translate(1.5540942,-457.84856)">
    <g style="filter:url(#filter5155)" id="g22119" transform="matrix(0.96263685,0,0,0.96263685,217.65532,464.00354)">
      <path inkscape:connector-curvature="0" id="path4237" d="m 88.391781,520.01836 c 0,0 -11.08937,-21.38664 -40.396982,-22.17873 -29.307615,-0.79211 -39.6048827,24.55502 -39.6048827,24.55502" style="fill:none;fill-rule:evenodd;stroke:#323232;stroke-width:4.43574667;stroke-linecap:round;stroke-linejoin:miter;stroke-miterlimit:4;stroke-dasharray:none;stroke-opacity:1"/>
      <circle r="19.802441" cy="521.90045" cx="52.747383" id="path4239" style="fill:#6d6d6d;fill-opacity:1;stroke:#363636;stroke-width:2.21787333;stroke-linecap:round;stroke-linejoin:round;stroke-miterlimit:4;stroke-dasharray:none;stroke-dashoffset:0;stroke-opacity:1"/>
      <path style="fill:none;fill-rule:evenodd;stroke:#323232;stroke-width:2.21787333;stroke-linecap:round;stroke-linejoin:miter;stroke-miterlimit:4;stroke-dasharray:none;stroke-opacity:1" d="m 87.599691,529.53483 c 0,0 -11.08938,21.38664 -40.39699,22.17873 C 17.895087,552.50567 7.5978193,527.15854 7.5978193,527.15854" id="path4241" inkscape:connector-curvature="0"/>
      <ellipse ry="6.3367815" rx="7.5249276" cy="529.28662" cx="47.422718" id="path4243" style="fill:#ffffff;fill-opacity:1;stroke:none;stroke-width:2.21787333;stroke-linecap:round;stroke-linejoin:round;stroke-miterlimit:4;stroke-dasharray:none;stroke-dashoffset:0;stroke-opacity:1"/>
      <g transform="matrix(1.3271203,0,0,1.3271203,-24.542569,-161.10985)" style="fill:#686868;fill-opacity:1" id="g4271">
        <path inkscape:connector-curvature="0" style="fill:#686868;fill-opacity:1;fill-rule:evenodd;stroke:none;stroke-width:1px;stroke-linecap:butt;stroke-linejoin:miter;stroke-opacity:1" d="m 207.49805,454.51367 -91.14258,7.29102 -19.140626,87.49609 91.142576,29.16602 19.14063,-123.95313 z m -13.92578,11.41992 -15,97.14258 -71.42969,-22.85742 15,-68.57031 71.42969,-5.71485 z" transform="matrix(0.8355962,0,0,0.8355962,27.692137,33.545689)" id="path4245"/>
        <path style="fill:#686868;fill-opacity:1;fill-rule:evenodd;stroke:none;stroke-width:0.8355962px;stroke-linecap:butt;stroke-linejoin:miter;stroke-opacity:1" d="m 202.57048,413.92525 -14.92136,103.25581 9.54967,-0.59685 13.1308,-100.27155 z" id="path4251" inkscape:connector-curvature="0" sodipodi:nodetypes="ccccc"/>
        <path style="fill:#686868;fill-opacity:1;fill-rule:evenodd;stroke:none;stroke-width:0.8355962px;stroke-linecap:butt;stroke-linejoin:miter;stroke-opacity:1" d="m 151.83786,508.22825 -0.59686,15.51821 c 0,0 0.59686,3.58113 8.35597,4.17798 7.7591,0.59686 10.14652,-3.58112 10.14652,-3.58112 l -1.1937,-11.34024 z" id="path4253" inkscape:connector-curvature="0"/>
        <path style="fill:#686868;fill-opacity:1;fill-rule:evenodd;stroke:none;stroke-width:0.8355962px;stroke-linecap:butt;stroke-linejoin:miter;stroke-opacity:1" d="m 149.45044,517.77792 c -2.98427,-2.38742 -17.90564,0.59685 -22.68047,4.77483 -12.21415,20.23352 35.00783,24.8351 41.77982,24.47103 16.11506,-1.19371 21.48675,-7.7591 20.29304,-11.34023 -1.19371,-3.58113 -16.71192,-13.72765 -16.71192,-13.72765 0,0 -1.19371,6.56539 -5.37169,7.16225 -4.17799,0.59686 -12.53394,0.59685 -15.51822,-1.79056 -2.98427,-2.38742 -1.79056,-9.54967 -1.79056,-9.54967 z" id="path4255" inkscape:connector-curvature="0" sodipodi:nodetypes="cccscssc"/>
      </g>
      <path style="fill:#ffffff;fill-opacity:1;fill-rule:evenodd;stroke:url(#linearGradient7658);stroke-width:3.02615142;stroke-linecap:butt;stroke-linejoin:miter;stroke-miterlimit:4;stroke-dasharray:none;stroke-opacity:1" d="m 152.975,441.92921 -50.98506,42.68899 -9.79579,-11.69947 -3.204889,40.99739 40.768249,3.86594 -8.48453,-10.1334 50.98506,-42.68897 z" id="path21798" inkscape:connector-curvature="0" sodipodi:nodetypes="cccccccc"/>
    </g>
    <rect style="fill:url(#linearGradient6669);fill-opacity:1;stroke:#000000;stroke-width:2;stroke-linecap:round;stroke-linejoin:round;stroke-miterlimit:4;stroke-dasharray:none;stroke-opacity:1" id="rect6649" width="698.29022" height="70.292252" x="16.162441" y="637.56506"/>
    <rect y="643.62598" x="197.9899" height="56.568569" width="240.41629" id="rect6651" style="fill:none;fill-opacity:1;stroke:#717171;stroke-width:2;stroke-linecap:round;stroke-linejoin:round;stroke-miterlimit:4;stroke-dasharray:4, 8;stroke-opacity:1;stroke-dashoffset:0"/>
    <g style="font-style:normal;font-weight:normal;font-size:12.5px;line-height:125%;font-family:sans-serif;letter-spacing:0px;word-spacing:0px;fill:#000000;fill-opacity:1;stroke:none;stroke-width:1px;stroke-linecap:butt;stroke-linejoin:miter;stroke-opacity:1" id="text6653">
      <path d="m 428.90573,737.66455 2.01416,0 0,-6.9519 -2.19116,0.43945 0,-1.12305 2.17895,-0.43945 1.23291,0 0,8.07495 2.01416,0 0,1.0376 -5.24902,0 0,-1.0376 z" style="" id="path7646"/>
      <path d="m 436.65109,737.15186 1.28784,0 0,1.55029 -1.28784,0 0,-1.55029 z" style="" id="path7648"/>
      <path d="m 443.2673,730.40137 q -0.95214,0 -1.43432,0.93994 -0.47608,0.93384 -0.47608,2.81372 0,1.87378 0.47608,2.81372 0.48218,0.93384 1.43432,0.93384 0.95826,0 1.43433,-0.93384 0.48218,-0.93994 0.48218,-2.81372 0,-1.87988 -0.48218,-2.81372 -0.47607,-0.93994 -1.43433,-0.93994 z m 0,-0.97657 q 1.53199,0 2.33765,1.2146 0.81177,1.2085 0.81177,3.51563 0,2.30102 -0.81177,3.51562 -0.80566,1.2085 -2.33765,1.2085 -1.53198,0 -2.34375,-1.2085 -0.80566,-1.2146 -0.80566,-3.51562 0,-2.30713 0.80566,-3.51563 0.81177,-1.2146 2.34375,-1.2146 z" style="" id="path7650"/>
    </g>
    <g style="font-style:normal;font-weight:normal;font-size:12.5px;line-height:125%;font-family:sans-serif;letter-spacing:0px;word-spacing:0px;fill:#000000;fill-opacity:1;stroke:none;stroke-width:1px;stroke-linecap:butt;stroke-linejoin:miter;stroke-opacity:1" id="text6657">
      <path d="m 669.16028,736.67474 4.30298,0 0,1.0376 -5.78614,0 0,-1.0376 q 0.70191,-0.72631 1.9104,-1.94702 1.2146,-1.2268 1.52588,-1.58081 0.59204,-0.66528 0.82398,-1.12305 0.23804,-0.46386 0.23804,-0.90942 0,-0.72632 -0.5127,-1.18408 -0.50659,-0.45776 -1.32446,-0.45776 -0.57984,0 -1.22681,0.20141 -0.64087,0.20142 -1.37329,0.61035 l 0,-1.24511 q 0.74463,-0.29908 1.3916,-0.45166 0.64697,-0.15259 1.18408,-0.15259 1.41602,0 2.2583,0.70801 0.84229,0.708 0.84229,1.89209 0,0.56152 -0.21362,1.06811 -0.20752,0.50049 -0.76294,1.18408 -0.15259,0.177 -0.97046,1.02539 -0.81787,0.84229 -2.30713,2.36206 z" style="" id="path7639"/>
      <path d="m 676.05725,736.16205 1.28784,0 0,1.55029 -1.28784,0 0,-1.55029 z" style="" id="path7641"/>
      <path d="m 682.67346,729.41156 q -0.95215,0 -1.43432,0.93994 -0.47608,0.93384 -0.47608,2.81372 0,1.87378 0.47608,2.81372 0.48217,0.93384 1.43432,0.93384 0.95825,0 1.43433,-0.93384 0.48218,-0.93994 0.48218,-2.81372 0,-1.87988 -0.48218,-2.81372 -0.47608,-0.93994 -1.43433,-0.93994 z m 0,-0.97656 q 1.53198,0 2.33765,1.2146 0.81177,1.20849 0.81177,3.51562 0,2.30103 -0.81177,3.51563 -0.80567,1.20849 -2.33765,1.20849 -1.53198,0 -2.34375,-1.20849 -0.80566,-1.2146 -0.80566,-3.51563 0,-2.30713 0.80566,-3.51562 0.81177,-1.2146 2.34375,-1.2146 z" style="" id="path7643"/>
    </g>
    <g style="font-style:normal;font-weight:normal;font-size:12.5px;line-height:125%;font-family:sans-serif;letter-spacing:0px;word-spacing:0px;fill:#000000;fill-opacity:1;stroke:none;stroke-width:1px;stroke-linecap:butt;stroke-linejoin:miter;stroke-opacity:1" id="text6661">
      <path d="m 189.84146,730.46228 q -0.95215,0 -1.43432,0.93994 -0.47608,0.93384 -0.47608,2.81372 0,1.87378 0.47608,2.81372 0.48217,0.93384 1.43432,0.93384 0.95825,0 1.43433,-0.93384 0.48218,-0.93994 0.48218,-2.81372 0,-1.87988 -0.48218,-2.81372 -0.47608,-0.93994 -1.43433,-0.93994 z m 0,-0.97656 q 1.53198,0 2.33765,1.2146 0.81177,1.20849 0.81177,3.51562 0,2.30103 -0.81177,3.51563 -0.80567,1.20849 -2.33765,1.20849 -1.53198,0 -2.34375,-1.20849 -0.80566,-1.2146 -0.80566,-3.51563 0,-2.30713 0.80566,-3.51562 0.81177,-1.2146 2.34375,-1.2146 z" style="" id="path7632"/>
      <path d="m 195.16373,737.21277 1.28784,0 0,1.55029 -1.28784,0 0,-1.55029 z" style="" id="path7634"/>
      <path d="m 201.77994,730.46228 q -0.95215,0 -1.43433,0.93994 -0.47607,0.93384 -0.47607,2.81372 0,1.87378 0.47607,2.81372 0.48218,0.93384 1.43433,0.93384 0.95825,0 1.43432,-0.93384 0.48218,-0.93994 0.48218,-2.81372 0,-1.87988 -0.48218,-2.81372 -0.47607,-0.93994 -1.43432,-0.93994 z m 0,-0.97656 q 1.53198,0 2.33764,1.2146 0.81177,1.20849 0.81177,3.51562 0,2.30103 -0.81177,3.51563 -0.80566,1.20849 -2.33764,1.20849 -1.53198,0 -2.34375,-1.20849 -0.80567,-1.2146 -0.80567,-3.51563 0,-2.30713 0.80567,-3.51562 0.81177,-1.2146 2.34375,-1.2146 z" style="" id="path7636"/>
    </g>
    <path style="fill:none;fill-rule:evenodd;stroke:#000000;stroke-width:1px;stroke-linecap:butt;stroke-linejoin:miter;stroke-opacity:1" d="M 18.182746,723.42805 713.1677,724.4382 m -694.984954,-1.01015 0.01017,-6.99999 m 19.989805,7.02906 0.01017,-6.99999 m 19.989805,7.02906 0.01017,-6.99999 m 19.989805,7.02906 0.01017,-6.99999 m 19.989804,7.02906 0.01018,-6.99999 m 19.989804,7.02906 0.0102,-6.99999 m 19.98981,7.02906 0.0102,-6.99999 m 19.98981,7.02906 0.0102,-6.99999 m 19.98981,7.02906 0.0102,-7 m 19.98981,7.02907 0.0203,-13.99999 m 19.97963,14.02906 0.0102,-7 m 19.9898,7.02907 0.0102,-7 m 19.9898,7.02907 0.0102,-7 m 19.9898,7.02907 0.0102,-7 m 19.9898,7.02907 0.0102,-7 m 19.98981,7.02906 0.0102,-6.99999 m 19.98981,7.02906 0.0102,-6.99999 m 19.98981,7.02906 0.0102,-6.99999 m 19.98981,7.02906 0.0102,-6.99999 m 19.9898,7.02906 0.0102,-6.99999 m 19.9898,7.02906 0.0102,-6.99999 m 19.9898,7.02906 0.0204,-13.99998 m 19.97963,14.02905 0.0102,-6.99999 m 19.9898,7.02906 0.0102,-6.99999 m 19.98981,7.02906 0.0102,-6.99999 m 19.98981,7.02906 0.0102,-6.99999 m 19.98981,7.02906 0.0102,-6.99999 m 19.98981,7.02906 0.0102,-6.99999 m 19.9898,7.02906 0.0102,-6.99999 m 19.9898,7.02906 0.0102,-6.99999 m 19.9898,7.02906 0.0102,-6.99999 m 19.9898,7.02906 0.0102,-6.99999 m 19.9898,7.02906 0.0102,-6.99999 m 19.98981,7.02906 0.0204,-13.99999 m 19.97963,14.02906 0.0102,-6.99999 m -680.009454,6.01162 0.02035,-13.99999 m 694.964605,15.01014 0.0204,-13.99999" id="path6665"/>
    <path style="fill:none;fill-rule:evenodd;stroke:#000000;stroke-width:1px;stroke-linecap:butt;stroke-linejoin:miter;stroke-opacity:1" d="m 437.86227,723.44639 25.25381,114.14724" id="path6673" inkscape:connector-curvature="0" sodipodi:nodetypes="cc"/>
    <path style="fill:none;fill-rule:evenodd;stroke:#000000;stroke-width:1px;stroke-linecap:butt;stroke-linejoin:miter;stroke-opacity:1" d="M 198.45611,724.45655 347.95869,837.59363" id="path6675" inkscape:connector-curvature="0"/>
    <g id="g6735" transform="matrix(-1,0,0,1,347.6061,2.1428571)">
      <path sodipodi:nodetypes="ccccc" inkscape:connector-curvature="0" id="path6727" d="m 127.73162,521.86407 -52.285714,9.42857 0.714286,24.85715 50.857148,1.42857 z" style="fill:#555555;fill-opacity:1;fill-rule:evenodd;stroke:none;stroke-width:1px;stroke-linecap:butt;stroke-linejoin:miter;stroke-opacity:1"/>
      <path inkscape:connector-curvature="0" id="path6729" d="m 130.58877,514.00693 -0.71429,52.14286 13.57143,0 -3.57143,-55.00001 z" style="fill:#555555;fill-opacity:1;fill-rule:evenodd;stroke:none;stroke-width:1px;stroke-linecap:butt;stroke-linejoin:miter;stroke-opacity:1"/>
      <path inkscape:connector-curvature="0" id="path6731" d="m 18.445906,537.57836 0,13.57143 -16.428571,-0.71429 2.142857,-12.85714 z" style="fill:#555555;fill-opacity:1;fill-rule:evenodd;stroke:none;stroke-width:1px;stroke-linecap:butt;stroke-linejoin:miter;stroke-opacity:1"/>
      <path inkscape:connector-curvature="0" id="path6733" d="m 71.303049,533.29264 1.428571,20 -49.285714,0 -0.714286,-17.85714 z" style="fill:#555555;fill-opacity:1;fill-rule:evenodd;stroke:none;stroke-width:1px;stroke-linecap:butt;stroke-linejoin:miter;stroke-opacity:1"/>
    </g>
    <g id="g6747" transform="matrix(0.46086956,0,0,0.46086956,48.702514,297.58883)">
      <path inkscape:connector-curvature="0" id="path6741" d="m 132.73162,544.00693 c 0,0 -21.42857,6.42857 -37.857142,7.14286 -16.428572,0.71428 -44.285715,-3.57143 -44.285715,-3.57143 0,0 17.857143,21.42857 25.714286,23.57143 7.857143,2.14285 40.000001,-1.42858 40.000001,-1.42858 z" style="fill:#555555;fill-opacity:1;fill-rule:evenodd;stroke:none;stroke-width:1px;stroke-linecap:butt;stroke-linejoin:miter;stroke-opacity:1"/>
      <path inkscape:connector-curvature="0" id="path6743" d="m 97.017335,548.29264 0.714285,-65.71428 -3.571428,-2.14286 0,68.57143 z" style="fill:#555555;fill-opacity:1;fill-rule:evenodd;stroke:none;stroke-width:1px;stroke-linecap:butt;stroke-linejoin:miter;stroke-opacity:1"/>
      <path inkscape:connector-curvature="0" id="path6745" d="m 91.303049,481.14978 c 0,0 -37.142857,48.57143 -34.285714,47.85715 2.857142,-0.71429 33.571428,0.71428 33.571428,0.71428 z" style="fill:#555555;fill-opacity:1;fill-rule:evenodd;stroke:none;stroke-width:1px;stroke-linecap:butt;stroke-linejoin:miter;stroke-opacity:1"/>
      <ellipse style="fill:#555555;fill-opacity:1;stroke:none;stroke-width:4;stroke-linecap:round;stroke-linejoin:round;stroke-miterlimit:4;stroke-dasharray:none;stroke-dashoffset:0;stroke-opacity:1" id="path6762" cx="81.025879" cy="536.55505" rx="5.177032" ry="4.8613591"/>
      <ellipse style="fill:#555555;fill-opacity:1;stroke:none;stroke-width:4;stroke-linecap:round;stroke-linejoin:round;stroke-miterlimit:4;stroke-dasharray:none;stroke-dashoffset:0;stroke-opacity:1" id="path6764" cx="81.025879" cy="549.93958" rx="5.8083773" ry="7.1973367"/>
      <path style="fill:#555555;fill-opacity:1;fill-rule:evenodd;stroke:none;stroke-width:1px;stroke-linecap:butt;stroke-linejoin:miter;stroke-opacity:1" d="m 77.742881,543.94181 c 0,0 -0.947018,-1.01016 -2.399112,-0.37881 -1.452095,0.63134 -3.030458,2.90419 -3.030458,2.90419 l -1.452094,-5.42957 -2.462247,0.44194 2.146574,8.27062 c 0,0 2.967323,-0.63134 3.977476,-1.51523 1.010152,-0.88388 2.146574,-0.56821 2.146574,-0.56821 z" id="path6770" inkscape:connector-curvature="0"/>
      <path style="fill:#555555;fill-opacity:1;fill-rule:evenodd;stroke:none;stroke-width:1px;stroke-linecap:butt;stroke-linejoin:miter;stroke-opacity:1" d="m 70.671813,539.9012 c 0,0 2.146574,-2.02031 2.08344,-3.21987 -0.06314,-1.19955 -0.441942,-2.2097 -0.69448,-1.8309 -0.252538,0.37881 -0.378807,1.57837 -0.757615,1.6415 -0.378807,0.0631 -0.757614,-0.37881 -0.757614,-0.37881 0,0 0.252538,-3.28299 -0.189404,-3.53553 -0.441941,-0.25254 -0.694479,0.0631 -0.694479,0.0631 l -0.378808,2.14658 c 0,0 -0.189403,-2.71479 -0.757614,-2.65166 -0.568211,0.0631 -0.568211,2.71479 -0.568211,2.71479 0,0 -0.631345,-2.39911 -1.262691,-1.8309 -0.631345,0.56821 0.505077,3.53553 0.505077,3.53553 0,0 -0.947018,-1.95717 -1.515229,-1.57836 -0.568211,0.3788 0.883883,3.03046 1.262691,3.85121 0.378807,0.82074 1.578363,1.70463 1.578363,1.70463 z" id="path6772" inkscape:connector-curvature="0"/>
      <path style="fill:#ffffff;fill-opacity:1;fill-rule:evenodd;stroke:none;stroke-width:1px;stroke-linecap:round;stroke-linejoin:miter;stroke-opacity:1" d="m 84.56141,537.18641 c 0,0 -1.325825,2.52538 -3.34613,2.65165 -2.020305,0.12627 -3.598668,-2.39911 -3.598668,-2.39911 2.104484,0.44485 4.840314,0.48007 6.944798,-0.25254 z" id="path6780" inkscape:connector-curvature="0" sodipodi:nodetypes="cscc"/>
      <ellipse style="fill:#ffffff;fill-opacity:1;stroke:none;stroke-width:1;stroke-linecap:round;stroke-linejoin:round;stroke-miterlimit:4;stroke-dasharray:none;stroke-dashoffset:0;stroke-opacity:1" id="path6782" cx="82.825211" cy="534.5979" rx="0.78918171" ry="0.82074893"/>
      <ellipse ry="0.82074893" rx="0.78918171" cy="534.78729" cx="78.784599" id="ellipse6784" style="fill:#ffffff;fill-opacity:1;stroke:none;stroke-width:1;stroke-linecap:round;stroke-linejoin:round;stroke-miterlimit:4;stroke-dasharray:none;stroke-dashoffset:0;stroke-opacity:1"/>
    </g>
    <g id="g6816" transform="translate(17.142857,-2.1428571)">
      <g clip-path="url(#clipPath6812)" transform="matrix(2.4535953,0,0,2.4535953,281.46441,-767.64454)" id="g6786">
        <path inkscape:connector-curvature="0" id="path6788" d="m 132.73162,544.00693 c 0,0 -21.42857,6.42857 -37.857142,7.14286 -16.428572,0.71428 -44.285715,-3.57143 -44.285715,-3.57143 0,0 17.857143,21.42857 25.714286,23.57143 7.857143,2.14285 40.000001,-1.42858 40.000001,-1.42858 z" style="fill:#555555;fill-opacity:1;fill-rule:evenodd;stroke:none;stroke-width:1px;stroke-linecap:butt;stroke-linejoin:miter;stroke-opacity:1"/>
        <path inkscape:connector-curvature="0" id="path6790" d="m 97.017335,548.29264 0.714285,-65.71428 -3.571428,-2.14286 0,68.57143 z" style="fill:#555555;fill-opacity:1;fill-rule:evenodd;stroke:none;stroke-width:1px;stroke-linecap:butt;stroke-linejoin:miter;stroke-opacity:1"/>
        <path inkscape:connector-curvature="0" id="path6792" d="m 91.303049,481.14978 c 0,0 -37.142857,48.57143 -34.285714,47.85715 2.857142,-0.71429 33.571428,0.71428 33.571428,0.71428 z" style="fill:#555555;fill-opacity:1;fill-rule:evenodd;stroke:none;stroke-width:1px;stroke-linecap:butt;stroke-linejoin:miter;stroke-opacity:1"/>
        <ellipse style="fill:#555555;fill-opacity:1;stroke:none;stroke-width:4;stroke-linecap:round;stroke-linejoin:round;stroke-miterlimit:4;stroke-dasharray:none;stroke-dashoffset:0;stroke-opacity:1" id="ellipse6794" cx="81.025879" cy="536.55505" rx="5.177032" ry="4.8613591"/>
        <ellipse style="fill:#555555;fill-opacity:1;stroke:none;stroke-width:4;stroke-linecap:round;stroke-linejoin:round;stroke-miterlimit:4;stroke-dasharray:none;stroke-dashoffset:0;stroke-opacity:1" id="ellipse6796" cx="81.025879" cy="549.93958" rx="5.8083773" ry="7.1973367"/>
        <path style="fill:#555555;fill-opacity:1;fill-rule:evenodd;stroke:none;stroke-width:1px;stroke-linecap:butt;stroke-linejoin:miter;stroke-opacity:1" d="m 77.742881,543.94181 c 0,0 -0.947018,-1.01016 -2.399112,-0.37881 -1.452095,0.63134 -3.030458,2.90419 -3.030458,2.90419 l -1.452094,-5.42957 -2.462247,0.44194 2.146574,8.27062 c 0,0 2.967323,-0.63134 3.977476,-1.51523 1.010152,-0.88388 2.146574,-0.56821 2.146574,-0.56821 z" id="path6798" inkscape:connector-curvature="0"/>
        <path style="fill:#555555;fill-opacity:1;fill-rule:evenodd;stroke:none;stroke-width:1px;stroke-linecap:butt;stroke-linejoin:miter;stroke-opacity:1" d="m 70.671813,539.9012 c 0,0 2.146574,-2.02031 2.08344,-3.21987 -0.06314,-1.19955 -0.441942,-2.2097 -0.69448,-1.8309 -0.252538,0.37881 -0.378807,1.57837 -0.757615,1.6415 -0.378807,0.0631 -0.757614,-0.37881 -0.757614,-0.37881 0,0 0.252538,-3.28299 -0.189404,-3.53553 -0.441941,-0.25254 -0.694479,0.0631 -0.694479,0.0631 l -0.378808,2.14658 c 0,0 -0.189403,-2.71479 -0.757614,-2.65166 -0.568211,0.0631 -0.568211,2.71479 -0.568211,2.71479 0,0 -0.631345,-2.39911 -1.262691,-1.8309 -0.631345,0.56821 0.505077,3.53553 0.505077,3.53553 0,0 -0.947018,-1.95717 -1.515229,-1.57836 -0.568211,0.3788 0.883883,3.03046 1.262691,3.85121 0.378807,0.82074 1.578363,1.70463 1.578363,1.70463 z" id="path6800" inkscape:connector-curvature="0"/>
        <path style="fill:#ffffff;fill-opacity:1;fill-rule:evenodd;stroke:none;stroke-width:1px;stroke-linecap:round;stroke-linejoin:miter;stroke-opacity:1" d="m 84.56141,537.18641 c 0,0 -1.325825,2.52538 -3.34613,2.65165 -2.020305,0.12627 -3.598668,-2.39911 -3.598668,-2.39911 2.104484,0.44485 4.840314,0.48007 6.944798,-0.25254 z" id="path6802" inkscape:connector-curvature="0" sodipodi:nodetypes="cscc"/>
        <ellipse style="fill:#ffffff;fill-opacity:1;stroke:none;stroke-width:1;stroke-linecap:round;stroke-linejoin:round;stroke-miterlimit:4;stroke-dasharray:none;stroke-dashoffset:0;stroke-opacity:1" id="ellipse6804" cx="82.825211" cy="534.5979" rx="0.78918171" ry="0.82074893"/>
        <ellipse ry="0.82074893" rx="0.78918171" cy="534.78729" cx="78.784599" id="ellipse6806" style="fill:#ffffff;fill-opacity:1;stroke:none;stroke-width:1;stroke-linecap:round;stroke-linejoin:round;stroke-miterlimit:4;stroke-dasharray:none;stroke-dashoffset:0;stroke-opacity:1"/>
      </g>
      <circle r="67.5" cy="550.79266" cx="505.58875" id="path6808" style="fill:none;fill-opacity:1;stroke:#000000;stroke-width:1;stroke-linecap:round;stroke-linejoin:round;stroke-miterlimit:4;stroke-dasharray:none;stroke-dashoffset:0;stroke-opacity:1"/>
    </g>
    <path style="fill:none;fill-rule:evenodd;stroke:#000000;stroke-width:1px;stroke-linecap:butt;stroke-linejoin:miter;stroke-opacity:1" d="M 344.87448,538.29264 500.58877,484.00693" id="path6830" inkscape:connector-curvature="0"/>
    <path style="fill:none;fill-rule:evenodd;stroke:#000000;stroke-width:1px;stroke-linecap:butt;stroke-linejoin:miter;stroke-opacity:1" d="m 499.13046,612.10918 c -2.85714,0 -152.11312,-58.10225 -152.11312,-58.10225" id="path6832" inkscape:connector-curvature="0" sodipodi:nodetypes="cc"/>
    <path style="fill:none;fill-rule:evenodd;stroke:#555555;stroke-width:1px;stroke-linecap:butt;stroke-linejoin:miter;stroke-opacity:1" d="m 123.44591,565.4355 c -0.3082,6.89238 -8.0724,0.21526 -8.57143,0.71429 -0.47619,0.47619 0.47619,2.38095 0,2.85714 -1.9409,1.9409 -5.99491,-1.42857 -7.85714,-1.42857" id="path6842" inkscape:connector-curvature="0"/>
    <path style="fill:none;fill-rule:evenodd;stroke:#555555;stroke-width:1px;stroke-linecap:butt;stroke-linejoin:miter;stroke-opacity:1" d="m 86.660192,580.79264 c -0.238095,0.59524 -0.427581,1.21231 -0.714286,1.78572 -0.619811,1.23962 -3.356618,1.17883 -4.285714,0.71428 -0.165434,-0.0827 -2.016307,-1.78571 -1.428572,-1.78571 0.08333,0 -0.357142,0.55952 -0.357142,0.71428 0,1.44053 -0.896221,3.21429 -2.5,3.21429 -3.022224,0 -5.18644,-2.85714 -7.5,-2.85714" id="path6844" inkscape:connector-curvature="0"/>
    <path style="fill:none;fill-rule:evenodd;stroke:#555555;stroke-width:1px;stroke-linecap:butt;stroke-linejoin:miter;stroke-opacity:1" d="m 68.803049,561.14979 c -0.595238,0.35714 -1.164838,0.76099 -1.785714,1.07142 -1.267501,0.63375 -3.074941,-0.21779 -3.928572,-1.07142 -0.0047,-0.005 -1.059292,-1.07143 -0.714285,-1.07143 0.338892,0 0.588065,1.84882 0,2.14285 -1.938902,0.96945 -4.198394,-0.62696 -5.357143,-1.78571 -0.402434,-0.40243 -1.071429,0.548 -1.071429,-0.35714" id="path6846" inkscape:connector-curvature="0"/>
    <path style="fill:none;fill-rule:evenodd;stroke:#555555;stroke-width:1px;stroke-linecap:butt;stroke-linejoin:miter;stroke-opacity:1" d="m 128.08877,555.4355 c -2.59786,2.5199 -4.94941,2.19345 -7.14286,0 -0.34044,-0.34044 -0.0215,0.75722 -0.35714,1.42857 -0.49421,0.98841 -1.59803,0.71429 -2.5,0.71429 -2.53308,0 -3.8901,-2.14286 -6.42857,-2.14286" id="path6850" inkscape:connector-curvature="0"/>
    <path style="fill:none;fill-rule:evenodd;stroke:#555555;stroke-width:1px;stroke-linecap:butt;stroke-linejoin:miter;stroke-opacity:1" d="m 38.088763,486.50693 c 2.666507,-2.11148 4.243857,-1.00819 6.071429,1.42857 3.833778,5.1117 2.567997,8.74492 -2.5,11.78571 -1.073781,0.64427 -2.4791,1.31301 -3.928572,1.07143 -1.36862,-0.2281 -2.515628,-1.351 -3.571428,-2.14286 -0.952381,-0.71428 -2.015349,-1.30106 -2.857143,-2.14285 -2.937916,-2.93792 -3.431214,-8.49912 1.071428,-10" id="path6852" inkscape:connector-curvature="0"/>
    <path style="fill:none;fill-rule:evenodd;stroke:#555555;stroke-width:1px;stroke-linecap:butt;stroke-linejoin:miter;stroke-opacity:1" d="m 47.73162,482.22121 c 2.703913,-2.60014 6.375383,-5.35714 10.357143,-5.35714" id="path6854" inkscape:connector-curvature="0"/>
    <path style="fill:none;fill-rule:evenodd;stroke:#555555;stroke-width:1px;stroke-linecap:butt;stroke-linejoin:miter;stroke-opacity:1" d="m 50.945906,487.57836 c 2.269576,-0.16156 4.867655,-1.45063 7.142857,-1.07143 1.20061,0.2001 2.369074,0.71428 3.571429,0.71428" id="path6856" inkscape:connector-curvature="0"/>
    <path style="fill:none;fill-rule:evenodd;stroke:#555555;stroke-width:1px;stroke-linecap:butt;stroke-linejoin:miter;stroke-opacity:1" d="m 50.945906,494.36407 c 1.742764,1.61692 7.254863,2.61201 8.571429,3.92857" id="path6858" inkscape:connector-curvature="0"/>
    <path style="fill:none;fill-rule:evenodd;stroke:#555555;stroke-width:1px;stroke-linecap:butt;stroke-linejoin:miter;stroke-opacity:1" d="m 46.660192,503.64978 c 2.68238,2.24945 2.673245,6.60182 5,8.92858" id="path6860" inkscape:connector-curvature="0"/>
    <path style="fill:none;fill-rule:evenodd;stroke:#555555;stroke-width:1px;stroke-linecap:butt;stroke-linejoin:miter;stroke-opacity:1" d="m 37.73162,507.57836 c -0.914746,3.06769 0,6.20439 0,9.28571" id="path6862" inkscape:connector-curvature="0"/>
    <path style="fill:none;fill-rule:evenodd;stroke:#555555;stroke-width:1px;stroke-linecap:butt;stroke-linejoin:miter;stroke-opacity:1" d="m 29.874477,504.36407 c -1.648974,1.69112 -2.086602,4.25759 -4.285714,5.35714" id="path6864" inkscape:connector-curvature="0"/>
    <path style="fill:none;fill-rule:evenodd;stroke:#555555;stroke-width:1px;stroke-linecap:butt;stroke-linejoin:miter;stroke-opacity:1" d="m 24.160192,494.72121 c -2.802768,1.13748 -5.400753,0.71429 -8.214286,0.71429" id="path6866" inkscape:connector-curvature="0"/>
    <path style="fill:none;fill-rule:evenodd;stroke:#555555;stroke-width:1px;stroke-linecap:butt;stroke-linejoin:miter;stroke-opacity:1" d="m 24.160192,487.9355 c -2.191966,-1.56192 -4.84412,-1.35063 -7.142857,-2.5" id="path6868" inkscape:connector-curvature="0"/>
    <path style="fill:none;fill-rule:evenodd;stroke:#555555;stroke-width:1px;stroke-linecap:butt;stroke-linejoin:miter;stroke-opacity:1" d="m 177.87448,489.36407 c -2.83951,-2.3269 -7.19495,-1.98039 -10,0.35714 -3.65951,3.0496 -1.21659,7.64517 0.35714,6.07143 0.54438,-0.54438 -3.10702,-0.57166 -4.28571,1.78572 -0.45386,0.90772 1.97924,2.66362 1.42857,3.21428 -0.11185,0.11185 -2.02914,-0.51409 -2.5,-0.35714 -1.82722,0.60907 0.6408,2.2864 -1.07143,2.85714 -1.43337,0.47779 -3.65552,-2.05876 -6.42857,0.71429 -0.39463,0.39463 -1.72668,2.55903 -1.07143,3.21428 0.16836,0.16836 0.71429,-0.23809 0.71429,0 0,0.66131 -3.00904,0.0534 -1.78572,2.5 0.14286,0.28572 -0.14285,0.78572 0,1.07143 0.12767,0.25534 1.44117,1.05884 1.07143,1.42857 -0.23809,0.2381 -1.19047,-0.23809 -1.42857,0 -0.54855,0.54856 0.68161,0.74697 0.35714,1.07143 -0.0479,0.0479 -4.56427,-1.11072 -5.35714,-0.71428 -1.23737,0.61868 0.12088,1.07143 0,1.07143 -1.64495,0 -3.55331,-0.58263 -5.35714,-0.35715 -3.88806,0.48601 -7.83668,0.35715 -11.78572,0.35715" id="path6870" inkscape:connector-curvature="0"/>
    <path style="fill:none;fill-rule:evenodd;stroke:#555555;stroke-width:1px;stroke-linecap:butt;stroke-linejoin:miter;stroke-opacity:1" d="m 143.08877,523.29264 c -2.47869,-1.63764 -4.81254,-1.12499 -7.5,-0.35714 -1.48351,0.42386 -2.90505,1.33277 -2.14286,2.85714 0.10648,0.21296 -0.16836,0.54593 0,0.71429 0.0842,0.0842 0.35714,-0.11905 0.35714,0 0,0.12946 -3.73388,-0.19469 -3.92857,0 -0.60032,0.60032 1.69347,1.65326 1.42857,1.78571 -0.17921,0.0896 -9.5495,-0.35714 -11.07143,-0.35714 -1.08039,0 -1.27235,0.20092 -1.78571,0.71429 -0.34004,0.34004 -13.87195,0.35714 -15.71429,0.35714" id="path6872" inkscape:connector-curvature="0"/>
    <path style="fill:none;fill-rule:evenodd;stroke:#555555;stroke-width:1px;stroke-linecap:butt;stroke-linejoin:miter;stroke-opacity:1" d="m 10.945906,515.07836 c 2.042789,-0.57648 3.646003,0.0447 5.357143,1.07143 2.982908,1.78974 1.645786,5.21721 3.214286,6.78571 0.331394,0.33139 2.255571,-1.79047 4.642857,0 1.840654,1.38049 1.740956,3.88381 2.142857,4.28571 0.346124,0.34613 0.895948,-0.29865 1.071428,-0.35714 0.638299,-0.21277 4.25546,-0.35714 5,-0.35714 1.51491,0 3.209869,1.66519 4.642858,2.14286 1.645855,0.54861 3.307305,-0.98339 4.642857,-1.42858 1.152274,-0.38409 5.9717,0.35715 7.5,0.35715" id="path6874" inkscape:connector-curvature="0"/>
    <path style="fill:none;fill-rule:evenodd;stroke:#555555;stroke-width:1px;stroke-linecap:butt;stroke-linejoin:miter;stroke-opacity:1" d="m 14.160192,543.29264 c 2.479276,0.18464 5.159353,-0.42307 7.5,0.35715 2.277031,0.75901 6.415157,-0.71429 8.928571,-0.71429 0.738734,0 2.75129,0.58864 3.214286,0.35714 1.36272,-0.68136 5.967373,-0.86802 7.5,-0.35714 1.000135,0.33338 1.266269,0 2.142857,0 0.168359,0 0.206558,0.28185 0.357143,0.35714 1.84582,0.92291 5.910483,-0.54159 7.5,-1.07143 2.100014,-0.7 4.822552,0.35715 6.785714,0.35715 6.989378,0 13.076027,0.35714 20,0.35714" id="path6876" inkscape:connector-curvature="0"/>
    <path style="fill:none;fill-rule:evenodd;stroke:#555555;stroke-width:1.16552448px;stroke-linecap:butt;stroke-linejoin:miter;stroke-opacity:1" d="m 95.593485,542.59917 c 11.492335,1.71439 26.148005,-1.23003 37.010515,0.70224 3.65034,0.64935 7.28001,-0.14599 10.85641,0.70226 2.18339,0.51786 5.84749,0.25014 8.38905,0.70225 1.6316,0.29023 8.39719,0.52379 9.86948,0 1.16067,-0.41294 2.02791,-0.70225 3.45431,-0.70225" id="path6878" inkscape:connector-curvature="0"/>
  </g>
</svg>