<?xml version="1.0" encoding="UTF-8" standalone="no"?>
<svg
   xmlns:osb="http://www.openswatchbook.org/uri/2009/osb"
   xmlns:dc="http://purl.org/dc/elements/1.1/"
   xmlns:cc="http://creativecommons.org/ns#"
   xmlns:rdf="http://www.w3.org/1999/02/22-rdf-syntax-ns#"
   xmlns:svg="http://www.w3.org/2000/svg"
   xmlns="http://www.w3.org/2000/svg"
   xmlns:xlink="http://www.w3.org/1999/xlink"
   version="1.1"
   id="svg9576"
   viewBox="0 0 1291.7323 417.73512"
   height="117.89413mm"
   width="364.55554mm">
  <defs
     id="defs9578">
    <linearGradient
       y2="567.36218"
       x2="580"
       y1="567.36218"
       x1="380"
       gradientTransform="translate(206.60616,-1365.9337)"
       gradientUnits="userSpaceOnUse"
       id="linearGradient5850"
       xlink:href="#side" />
    <linearGradient
       gradientTransform="matrix(0.9422018,-0.33504593,0.33504593,0.9422018,5215.8889,-2083.0982)"
       osb:paint="solid"
       id="side">
      <stop
         id="stop5530"
         offset="0"
         style="stop-color:#265998;stop-opacity:1;" />
    </linearGradient>
    <linearGradient
       gradientTransform="matrix(0.94220181,-0.33504593,0.33504593,0.94220181,26691.49,-10275.093)"
       osb:paint="solid"
       id="red">
      <stop
         id="stop5548"
         offset="0"
         style="stop-color:#e31616;stop-opacity:1;" />
    </linearGradient>
    <linearGradient
       y2="1092.722"
       x2="1934.082"
       y1="1092.722"
       x1="1734.1537"
       gradientTransform="translate(-1149.2158,-1790.8734)"
       gradientUnits="userSpaceOnUse"
       id="linearGradient5846"
       xlink:href="#side" />
    <linearGradient
       y2="1092.722"
       x2="1934.082"
       y1="1092.722"
       x1="1734.1537"
       gradientTransform="translate(-1150.3842,-1633.0451)"
       gradientUnits="userSpaceOnUse"
       id="linearGradient5840"
       xlink:href="#side" />
    <linearGradient
       gradientTransform="translate(-1147.4759,-1453.045)"
       y2="1092.722"
       x2="1934.082"
       y1="1092.722"
       x1="1734.1537"
       gradientUnits="userSpaceOnUse"
       id="linearGradient5834"
       xlink:href="#side" />
    <linearGradient
       gradientTransform="translate(-1398.7339,-881.38083)"
       y2="702.75647"
       x2="2185.3401"
       y1="702.75647"
       x1="1985.2437"
       gradientUnits="userSpaceOnUse"
       id="linearGradient5828"
       xlink:href="#side" />
    <linearGradient
       gradientTransform="translate(-1536.9115,-269.08119)"
       y2="262.7395"
       x2="2323.5178"
       y1="262.7395"
       x1="2123.4214"
       gradientUnits="userSpaceOnUse"
       id="linearGradient5822"
       xlink:href="#side" />
  </defs>
  <metadata
     id="metadata9581">
    <rdf:RDF>
      <cc:Work
         rdf:about="">
        <dc:format>image/svg+xml</dc:format>
        <dc:type
           rdf:resource="http://purl.org/dc/dcmitype/StillImage" />
        <dc:title></dc:title>
      </cc:Work>
    </rdf:RDF>
  </metadata>
  <g
     transform="translate(377.2947,-514.92323)"
     id="layer1">
    <rect
       ry="0"
       y="586.60626"
       x="-306.42856"
       height="200"
       width="140"
       id="rect5810"
       style="fill:url(#red);fill-opacity:1;stroke:none;stroke-width:1;stroke-linecap:round;stroke-linejoin:round;stroke-miterlimit:4;stroke-dasharray:none;stroke-dashoffset:0;stroke-opacity:1" />
    <rect
       transform="matrix(0,1,-1,0,0,0)"
       ry="0"
       y="-19.111986"
       x="586.50983"
       height="25.540545"
       width="200.09639"
       id="rect5818"
       style="fill:url(#linearGradient5822);fill-opacity:1;stroke:none;stroke-width:1;stroke-linecap:round;stroke-linejoin:round;stroke-miterlimit:4;stroke-dasharray:none;stroke-dashoffset:0;stroke-opacity:1" />
    <rect
       ry="0"
       y="586.60626"
       x="-149.19916"
       height="200"
       width="142.77057"
       id="rect5820"
       style="fill:url(#red);fill-opacity:1;stroke:none;stroke-width:1;stroke-linecap:round;stroke-linejoin:round;stroke-miterlimit:4;stroke-dasharray:none;stroke-dashoffset:0;stroke-opacity:1" />
    <rect
       style="fill:url(#linearGradient5828);fill-opacity:1;stroke:none;stroke-width:1;stroke-linecap:round;stroke-linejoin:round;stroke-miterlimit:4;stroke-dasharray:none;stroke-dashoffset:0;stroke-opacity:1"
       id="rect5824"
       width="200.09644"
       height="50.106018"
       x="586.50983"
       y="-203.67744"
       ry="0"
       transform="matrix(0,1,-1,0,0,0)" />
    <rect
       style="fill:url(#red);fill-opacity:1;stroke:none;stroke-width:1;stroke-linecap:round;stroke-linejoin:round;stroke-miterlimit:4;stroke-dasharray:none;stroke-dashoffset:0;stroke-opacity:1"
       id="rect5826"
       width="118.20508"
       height="200"
       x="35.366352"
       y="586.60626"
       ry="0" />
    <rect
       transform="matrix(0,1,-1,0,0,0)"
       ry="0"
       y="-393.57144"
       x="586.6778"
       height="66.496704"
       width="199.92834"
       id="rect5830"
       style="fill:url(#linearGradient5834);fill-opacity:1;stroke:none;stroke-width:1;stroke-linecap:round;stroke-linejoin:round;stroke-miterlimit:4;stroke-dasharray:none;stroke-dashoffset:0;stroke-opacity:1" />
    <rect
       ry="0"
       y="586.60626"
       x="227.07472"
       height="200"
       width="100"
       id="rect5832"
       style="fill:url(#red);fill-opacity:1;stroke:none;stroke-width:1;stroke-linecap:round;stroke-linejoin:round;stroke-miterlimit:4;stroke-dasharray:none;stroke-dashoffset:0;stroke-opacity:1" />
    <rect
       style="fill:url(#linearGradient5840);fill-opacity:1;stroke:none;stroke-width:1;stroke-linecap:round;stroke-linejoin:round;stroke-miterlimit:4;stroke-dasharray:none;stroke-dashoffset:0;stroke-opacity:1"
       id="rect5836"
       width="200.69382"
       height="82.96283"
       x="585.91217"
       y="-573.57141"
       ry="0"
       transform="matrix(0,1,-1,0,0,0)" />
    <rect
       style="fill:url(#red);fill-opacity:1;stroke:none;stroke-width:1;stroke-linecap:round;stroke-linejoin:round;stroke-miterlimit:4;stroke-dasharray:none;stroke-dashoffset:0;stroke-opacity:1"
       id="rect5838"
       width="68.82795"
       height="200.817"
       x="421.78073"
       y="585.78937"
       ry="0" />
    <rect
       transform="matrix(0,1,-1,0,0,0)"
       ry="0"
       y="-723.57141"
       x="586.60626"
       height="90.690735"
       width="200.18468"
       id="rect5842"
       style="fill:url(#linearGradient5846);fill-opacity:1;stroke:none;stroke-width:1;stroke-linecap:round;stroke-linejoin:round;stroke-miterlimit:4;stroke-dasharray:none;stroke-dashoffset:0;stroke-opacity:1" />
    <rect
       ry="0"
       y="585.9339"
       x="599.17932"
       height="200.67215"
       width="34.39209"
       id="rect5844"
       style="fill:url(#red);fill-opacity:1;stroke:none;stroke-width:1;stroke-linecap:round;stroke-linejoin:round;stroke-miterlimit:4;stroke-dasharray:none;stroke-dashoffset:0;stroke-opacity:1" />
    <rect
       transform="matrix(0,1,-1,0,0,0)"
       style="fill:url(#linearGradient5850);fill-opacity:1;stroke:none;stroke-width:1;stroke-linecap:round;stroke-linejoin:round;stroke-miterlimit:4;stroke-dasharray:none;stroke-dashoffset:0;stroke-opacity:1"
       id="rect5848"
       width="200"
       height="90"
       x="586.60626"
       y="-843.57141"
       ry="0" />
    <g
       id="flowRoot5852"
       style="font-style:normal;font-variant:normal;font-weight:normal;font-stretch:normal;font-size:40px;line-height:125%;font-family:Purisa;-inkscape-font-specification:Purisa;letter-spacing:0px;word-spacing:0px;fill:#000000;fill-opacity:1;stroke:none;stroke-width:1px;stroke-linecap:butt;stroke-linejoin:miter;stroke-opacity:1"
       transform="translate(-346.42857,-1885.756)">
      <path
         id="path10201"
         style=""
         d="m 102.28,2719.6282 q 0,-0.68 1.8,-2.72 1.8,-2.04 2.28,-2.04 1.56,0 6.68,0.64 5.12,0.64 6.08,0.96 2.68,0.76 2.68,3.64 0,1.36 -0.68,2.8 -0.64,1.4 -1.44,2.36 -0.8,0.92 -1.48,1.72 -0.64,0.8 -0.64,1 0,0.28 -2.32,1.8 -2.28,1.48 -4.04,2.4 -1.44,0.8 -1.44,1 0,0.08 1.48,0.6 1.52,0.48 3.64,1.32 2.12,0.84 3.28,1.64 1.84,1.28 2.24,1.28 0.56,0.04 1.8,1.36 1.28,1.28 1.28,1.84 0,1 -0.72,1 -0.64,0 -2.16,-0.8 -1.48,-0.8 -3.88,-2.08 -2.36,-1.32 -4.48,-2.12 l -3.12,-1.24 0.16,4.68 q 0.04,1.08 0.04,2.52 0,0.08 0,0.24 0,0.76 -0.04,1.08 -0.04,0.36 -0.28,0.64 -0.24,0.32 -0.76,0.32 -1.52,0 -1.52,-4.88 0,-5.12 -1.64,-5.88 -1.2,-0.52 -1.2,-1.44 0,-0.84 1.16,-1.4 l 1.32,-0.6 -0.32,-4.56 q -0.24,-3.64 -0.52,-5.04 -0.24,-1.44 -0.68,-1.44 -0.12,0 -0.48,0.28 -0.36,0.28 -0.88,0.28 -0.48,0 -0.84,-0.32 -0.36,-0.32 -0.36,-0.84 z m 17.16,0.2 q 0,-0.16 -0.08,-0.24 -0.08,-0.08 -0.76,-0.32 -0.64,-0.24 -2.12,-0.64 -2.72,-0.76 -5.52,-0.76 l -2.88,0 0.28,2.16 q 0.12,0.8 0.36,3.4 0.24,2.56 0.44,4.56 0.2,1.96 0.28,1.96 0.56,0 2.96,-1.32 2.4,-1.32 3.36,-2.2 1.04,-0.92 2.36,-3.32 1.32,-2.4 1.32,-3.28 z" />
      <path
         id="path10203"
         style=""
         d="m 131.58875,2726.5482 q 3.12,-2.92 5.24,-3.84 2.16,-0.96 5.44,-0.96 4.96,0 6.2,2.96 0.76,1.76 0.76,4.32 0,4.24 -1.88,8.6 -1.88,4.32 -4.64,6 -2.68,1.64 -5.64,1.64 -4.12,0 -6.6,-2.84 -1.72,-2 -2.24,-3.36 -0.52,-1.4 -0.52,-3.96 0,-4.84 3.88,-8.56 z m 6.44,16.44 q 3.36,0 6.08,-4.6 2.76,-4.64 2.76,-10.48 0,-0.88 -0.2,-1.32 -0.2,-0.44 -0.72,-0.88 -1.48,-1.24 -3.16,-1.24 -0.28,0 -0.64,0.08 -0.32,0.04 -1.08,0.16 -0.76,0.08 -1.8,0.2 -1.4,0.2 -2.24,0.64 -0.8,0.4 -2.04,1.56 -2.36,2.24 -3.36,4.16 -1,1.88 -1,4.12 0,3.32 2.04,5.44 2.08,2.12 5.36,2.16 z" />
      <path
         id="path10205"
         style=""
         d="m 160.84438,2716.7082 q 0,-1.48 -0.28001,-3.76 -0.28,-2.28 -0.28,-3.8 0,-0.76 0.04,-1 0.12,-0.64 0.44,-1 0.36,-0.4 0.72,-0.4 0.48,0 0.68,0.44 0.12,0.28 0.36,2.96 0.24,2.68 0.44,5.24 0.2,2.56 0.28,2.64 0.04,0.04 0.12,0.04 0.32,0 1.84,-0.32 1.56,-0.36 2.56,-0.36 2,0 2,0.88 0,0.88 -4.4,1.96 l -2,0.48 0.24,6.76 q 0.2,5.96 0.76,11.16 0.56,5.16 0.56,5.84 0,1.24 -0.92,1.24 -0.72,0 -1.2,-1.28 -0.44,-1.28 -0.44,-3.32 0,-1.48 -0.12,-3 -0.12,-1.56 -0.44,-4.8 -0.28,-3.28 -0.56,-6.72 -0.12,-1.84 -0.2,-2.84 -0.04,-1 -0.12,-1.48 -0.08,-0.48 -0.12,-0.56 -0.04,-0.12 -0.16,-0.12 -0.64,0 -3.08,0.44 -2.44,0.44 -3.04,0.44 -1.16,0 -1.16,-0.96 0,-0.68 1.44,-1.16 1.48,-0.48 3.32,-0.84 1.84,-0.4 2.28,-0.68 0.44001,-0.32 0.44001,-2.12 z" />
      <path
         id="path10207"
         style=""
         d="m 186.74562,2724.5882 q -1.84,0 -3.92,0.76 -2.04,0.76 -3.64,1.56 -1.6,0.76 -2.32,0.76 -0.48,0 -0.48,-0.4 0,-0.56 0.24001,-0.96 0.23999,-0.4 0.87999,-0.76 0.64,-0.36 1.2,-0.6 0.6,-0.24 1.88,-0.68 1.28,-0.48 2.2,-0.88 2.16,-0.84 3.64,-0.84 2.64,0 4.12,2.88 0.72,1.4 0.84,2.6 0.12,1.16 0.2,6.6 0.04,3.04 0.12,5.12 0.08,2.04 0.16,2.6 l 0.08,0.52 q 0,0.56 -0.52,1.2 -0.48,0.64 -0.72,0.64 -0.8,0 -1.24,-2.52 -0.44,-2.56 -0.48,-2.56 -0.12,0 -0.35999,0.44 -0.80001,1.32 -3.24001,2.92 -2.4,1.56 -4.04,1.56 -1,0 -2.36,-0.36 -1.32,-0.4 -1.92,-0.84 -0.43999,-0.36 -0.76,-1.44 -0.28,-1.08 -0.28,-2.2 0,-1.68 0.88,-2.88 0.92,-1.24 3.24,-2.52 2.52,-1.48 4.88,-1.48 0.96,0 1.60001,0.32 0.63999,0.32 0.95999,0.68 0.32,0.32 0.52,0.32 0.2,0 0.76,0.44 0.6,0.4 0.64,0.4 0.16,0 0.16,-0.88 0,-5.36 -0.76,-7.44 -0.71999,-2.08 -2.16,-2.08 z m 1.8,12.4 q 0,-0.16 -0.12,-0.36 -0.08,-0.24 -0.4,-0.52 -0.28,-0.32 -0.76,-0.56 -0.44,-0.28 -1.24,-0.44 -0.8,-0.2 -1.8,-0.2 -1.72,0 -3.04,0.6 -1.28,0.6 -1.92,1.52 -0.63999,0.92 -0.96,1.72 -0.28,0.76 -0.28,1.36 0,1 0.16,1.36 0.2,0.36 0.92,0.76 0.88,0.44 1.6,0.44 1.36,0 3.36,-0.96 2.04,-1 2.04,-1.44 0,-0.32 1.2,-1.52 1.24,-1.24 1.24,-1.76 z" />
      <path
         id="path10209"
         style=""
         d="m 203.89125,2716.7082 q 0,-1.48 -0.28,-3.76 -0.28,-2.28 -0.28,-3.8 0,-0.76 0.04,-1 0.12,-0.64 0.44,-1 0.36,-0.4 0.72,-0.4 0.48,0 0.68,0.44 0.12,0.28 0.36,2.96 0.24,2.68 0.44,5.24 0.2,2.56 0.28,2.64 0.04,0.04 0.12,0.04 0.32,0 1.84,-0.32 1.56,-0.36 2.56,-0.36 2,0 2,0.88 0,0.88 -4.4,1.96 l -2,0.48 0.24,6.76 q 0.2,5.96 0.76,11.16 0.56,5.16 0.56,5.84 0,1.24 -0.92,1.24 -0.72,0 -1.2,-1.28 -0.44,-1.28 -0.44,-3.32 0,-1.48 -0.12,-3 -0.12,-1.56 -0.44,-4.8 -0.28,-3.28 -0.56,-6.72 -0.12,-1.84 -0.2,-2.84 -0.04,-1 -0.12,-1.48 -0.08,-0.48 -0.12,-0.56 -0.04,-0.12 -0.16,-0.12 -0.64,0 -3.08,0.44 -2.44,0.44 -3.04,0.44 -1.16,0 -1.16,-0.96 0,-0.68 1.44,-1.16 1.48,-0.48 3.32,-0.84 1.84,-0.4 2.28,-0.68 0.44,-0.32 0.44,-2.12 z" />
      <path
         id="path10211"
         style=""
         d="m 219.8725,2721.7082 q 0.56,-0.48 0.96,-0.48 0.84,0 1.2,2.68 0.4,2.64 0.72,10.2 0.16,3.52 0.16,6.36 0,2.84 -0.24,3.12 -0.48,0.6 -1.2,0.6 -1,0 -1.24,-0.84 -0.2,-0.52 -0.6,-8.08 -0.4,-7.6 -0.4,-10.56 0,-2.48 0.64,-3 z m -0.24,-9.4 q 0,-0.56 0.44,-1.12 0.48,-0.56 0.84,-0.56 0.4,0 1.08,0.56 0.72,0.52 0.72,1.36 0,0.6 -0.36,1.04 -0.32,0.4 -0.88,0.4 -0.64,0 -1.24,-0.48 -0.6,-0.48 -0.6,-1.2 z" />
      <path
         id="path10213"
         style=""
         d="m 232.52625,2726.5482 q 3.12,-2.92 5.24,-3.84 2.16,-0.96 5.44,-0.96 4.96,0 6.2,2.96 0.76,1.76 0.76,4.32 0,4.24 -1.88,8.6 -1.88,4.32 -4.64,6 -2.68,1.64 -5.64,1.64 -4.12,0 -6.6,-2.84 -1.72,-2 -2.24,-3.36 -0.52,-1.4 -0.52,-3.96 0,-4.84 3.88,-8.56 z m 6.44,16.44 q 3.36,0 6.08,-4.6 2.76,-4.64 2.76,-10.48 0,-0.88 -0.2,-1.32 -0.2,-0.44 -0.72,-0.88 -1.48,-1.24 -3.16,-1.24 -0.28,0 -0.64,0.08 -0.32,0.04 -1.08,0.16 -0.76,0.08 -1.8,0.2 -1.4,0.2 -2.24,0.64 -0.8,0.4 -2.04,1.56 -2.36,2.24 -3.36,4.16 -1,1.88 -1,4.12 0,3.32 2.04,5.44 2.08,2.12 5.36,2.16 z" />
      <path
         id="path10215"
         style=""
         d="m 257.46188,2722.8682 q 0,-1.36 0.79999,-1.36 0.52001,0 0.76001,1.2 0.23999,1.16 0.88,6.96 0.79999,6.48 0.83999,6.56 0.04,0.04 0.32,-0.76 0.32,-0.84 0.84001,-2.48 0.79999,-2.64 1.35999,-3.8 0.56,-1.2 2,-3.28 2.92,-4.04 4.52001,-4.04 1.03999,0 1.95999,1.4 1.24,1.84 1.52,3.64 0.28,1.8 0.4,8.52 0.08,4.32 0.08,5.12 0,2 -0.15999,2.92 -0.12,0.88 -0.40001,1.08 -0.24,0.24 -0.88,0.28 -0.36,0 -0.48,-0.32 -0.12,-0.28 -0.12,-1.36 0,-0.6 0.08,-2.56 0.08,-2 0.08,-3.36 0,-3.4 -0.27999,-6.64 -0.24,-3.28 -0.60001,-4.2 -0.19999,-0.52 -0.63999,-1.08 -0.44,-0.56 -0.84001,-0.56 -0.84,0 -2.68,2.88 -1.84,2.84 -3.16,6 -1.24,2.88 -1.68,4.44 -0.39999,1.52 -0.68,4.16 -0.44,4.08 -0.64,4.08 -0.31999,0 -0.92,-0.68 -0.44,-0.44 -0.59999,-1.88 -0.16001,-1.48 -0.44001,-5.8 -0.28,-4.36 -0.76,-8.8 -0.47999,-4.6 -0.47999,-6.28 z" />
      <path
         id="path10217"
         style=""
         d="m 317.52688,2724.5882 q -1.84001,0 -3.92001,0.76 -2.04,0.76 -3.63999,1.56 -1.60001,0.76 -2.32,0.76 -0.48001,0 -0.48001,-0.4 0,-0.56 0.24001,-0.96 0.24,-0.4 0.87999,-0.76 0.64,-0.36 1.2,-0.6 0.60001,-0.24 1.88,-0.68 1.28001,-0.48 2.2,-0.88 2.16,-0.84 3.64001,-0.84 2.63999,0 4.11999,2.88 0.72,1.4 0.84,2.6 0.12,1.16 0.2,6.6 0.04,3.04 0.12,5.12 0.08,2.04 0.16001,2.6 l 0.08,0.52 q 0,0.56 -0.51999,1.2 -0.48001,0.64 -0.72001,0.64 -0.8,0 -1.24,-2.52 -0.44,-2.56 -0.47999,-2.56 -0.12,0 -0.36,0.44 -0.80001,1.32 -3.24001,2.92 -2.39999,1.56 -4.04,1.56 -1,0 -2.35999,-0.36 -1.32001,-0.4 -1.92001,-0.84 -0.43999,-0.36 -0.75999,-1.44 -0.28001,-1.08 -0.28001,-2.2 0,-1.68 0.88,-2.88 0.92,-1.24 3.24,-2.52 2.52,-1.48 4.88,-1.48 0.96001,0 1.60001,0.32 0.63999,0.32 0.95999,0.68 0.32,0.32 0.52,0.32 0.20001,0 0.76001,0.44 0.59999,0.4 0.63999,0.4 0.16,0 0.16,-0.88 0,-5.36 -0.76,-7.44 -0.71999,-2.08 -2.15999,-2.08 z m 1.79999,12.4 q 0,-0.16 -0.11999,-0.36 -0.08,-0.24 -0.40001,-0.52 -0.27999,-0.32 -0.76,-0.56 -0.44,-0.28 -1.24,-0.44 -0.8,-0.2 -1.8,-0.2 -1.72,0 -3.03999,0.6 -1.28001,0.6 -1.92001,1.52 -0.63999,0.92 -0.95999,1.72 -0.28001,0.76 -0.28001,1.36 0,1 0.16001,1.36 0.19999,0.36 0.91999,0.76 0.88001,0.44 1.6,0.44 1.36,0 3.36,-0.96 2.04,-1 2.04,-1.44 0,-0.32 1.20001,-1.52 1.23999,-1.24 1.23999,-1.76 z" />
      <path
         id="path10219"
         style=""
         d="m 330.3525,2722.8682 q 0,-1.36 0.8,-1.36 0.52,0 0.76,1.2 0.24,1.16 0.88,6.96 0.8,6.48 0.84,6.56 0.04,0.04 0.32,-0.76 0.32,-0.84 0.84,-2.48 0.8,-2.64 1.36,-3.8 0.56,-1.2 2,-3.28 2.92,-4.04 4.52,-4.04 1.04,0 1.96,1.4 1.24,1.84 1.52,3.64 0.28,1.8 0.4,8.52 0.08,4.32 0.08,5.12 0,2 -0.16,2.92 -0.12,0.88 -0.4,1.08 -0.24,0.24 -0.88,0.28 -0.36,0 -0.48,-0.32 -0.12,-0.28 -0.12,-1.36 0,-0.6 0.08,-2.56 0.08,-2 0.08,-3.36 0,-3.4 -0.28,-6.64 -0.24,-3.28 -0.6,-4.2 -0.2,-0.52 -0.64,-1.08 -0.44,-0.56 -0.84,-0.56 -0.84,0 -2.68,2.88 -1.84,2.84 -3.16,6 -1.24,2.88 -1.68,4.44 -0.4,1.52 -0.68,4.16 -0.44,4.08 -0.64,4.08 -0.32,0 -0.92,-0.68 -0.44,-0.44 -0.6,-1.88 -0.16,-1.48 -0.44,-5.8 -0.28,-4.36 -0.76,-8.8 -0.48,-4.6 -0.48,-6.28 z" />
      <path
         id="path10221"
         style=""
         d="m 354.63812,2721.7082 q 0.56,-0.48 0.96,-0.48 0.84001,0 1.20001,2.68 0.39999,2.64 0.71999,10.2 0.16001,3.52 0.16001,6.36 0,2.84 -0.24,3.12 -0.48001,0.6 -1.2,0.6 -1,0 -1.24,-0.84 -0.2,-0.52 -0.60001,-8.08 -0.39999,-7.6 -0.39999,-10.56 0,-2.48 0.63999,-3 z m -0.24,-9.4 q 0,-0.56 0.44,-1.12 0.48,-0.56 0.84001,-0.56 0.39999,0 1.07999,0.56 0.72,0.52 0.72,1.36 0,0.6 -0.35999,1.04 -0.32,0.4 -0.88,0.4 -0.64001,0 -1.24,-0.48 -0.60001,-0.48 -0.60001,-1.2 z" />
      <path
         id="path10223"
         style=""
         d="m 366.93187,2724.3882 q 0,-2.32 0.64,-2.32 0.52001,0 1.12,3.64 0.64001,3.64 0.88,3.64 0.08,0 0.28,-0.48 0.2,-0.52 0.44,-1.12 0.24001,-0.64 0.4,-0.8 0.40001,-0.52 1.08001,-1.96 0.83999,-1.72 1.27999,-2.08 0.44,-0.4 1.56,-0.4 1.24,0 2.72001,1.72 0.95999,1.12 1.27999,2.08 0.36,0.92 0.76,3.36 l 0.64,3.76 0.68,-2.4 q 1,-3.48 2.88,-6 1.88,-2.52 3.48,-2.52 1,0 1.84001,1.16 0.83999,1.12 1.2,2.88 0.35999,1.64 0.35999,7.24 0,4.2 -0.04,6.48 -0.04,2.28 -0.19999,3.32 -0.12,1 -0.24001,1.16 -0.12,0.2 -0.43999,0.24 -0.12001,0.04 -0.28001,0.04 -0.35999,0 -0.44,-1.12 -0.08,-1.12 -0.12,-6.28 0,-12.6 -1.91999,-12.6 -1.04001,0 -2.72001,3.44 -1.39999,2.84 -2.36,6.92 -0.96,4.08 -1.15999,8.24 -0.04,1 -0.24001,1.36 -0.16,0.36 -0.56,0.36 -0.48,0 -0.63999,-0.84 -0.12001,-0.8 -0.28001,-4.32 -0.27999,-6.48 -0.8,-9.08 -0.52,-2.64 -1.91999,-4.76 -1.04001,-1.48 -1.52001,-1.48 -0.56,0 -1.23999,1.4 -0.68,1.36 -2.24,5.24 -0.72001,1.88 -0.72001,3.44 0,0.92 -0.36,2.04 -0.32,1.08 -0.44,5.4 -0.08,4.04 -0.32,4.6 -0.15999,0.48 -0.64,0.48 -0.64,0 -0.88,-1.92 -0.19999,-1.92 -0.19999,-7.68 0,-4.64 -0.32,-8.52 -0.28001,-3.88 -0.28001,-4.96 z" />
      <path
         id="path10225"
         style=""
         d="m 409.40188,2724.5882 q -1.84001,0 -3.92001,0.76 -2.04,0.76 -3.63999,1.56 -1.60001,0.76 -2.32,0.76 -0.48001,0 -0.48001,-0.4 0,-0.56 0.24001,-0.96 0.24,-0.4 0.87999,-0.76 0.64,-0.36 1.2,-0.6 0.60001,-0.24 1.88,-0.68 1.28001,-0.48 2.2,-0.88 2.16,-0.84 3.64001,-0.84 2.63999,0 4.11999,2.88 0.72,1.4 0.84,2.6 0.12,1.16 0.2,6.6 0.04,3.04 0.12,5.12 0.08,2.04 0.16001,2.6 l 0.08,0.52 q 0,0.56 -0.51999,1.2 -0.48001,0.64 -0.72001,0.64 -0.8,0 -1.24,-2.52 -0.44,-2.56 -0.47999,-2.56 -0.12,0 -0.36,0.44 -0.80001,1.32 -3.24001,2.92 -2.39999,1.56 -4.04,1.56 -1,0 -2.35999,-0.36 -1.32001,-0.4 -1.92001,-0.84 -0.43999,-0.36 -0.75999,-1.44 -0.28001,-1.08 -0.28001,-2.2 0,-1.68 0.88,-2.88 0.92,-1.24 3.24,-2.52 2.52,-1.48 4.88,-1.48 0.96001,0 1.60001,0.32 0.63999,0.32 0.95999,0.68 0.32,0.32 0.52,0.32 0.20001,0 0.76001,0.44 0.59999,0.4 0.63999,0.4 0.16,0 0.16,-0.88 0,-5.36 -0.76,-7.44 -0.71999,-2.08 -2.15999,-2.08 z m 1.79999,12.4 q 0,-0.16 -0.11999,-0.36 -0.08,-0.24 -0.40001,-0.52 -0.27999,-0.32 -0.76,-0.56 -0.44,-0.28 -1.24,-0.44 -0.8,-0.2 -1.8,-0.2 -1.72,0 -3.03999,0.6 -1.28001,0.6 -1.92001,1.52 -0.63999,0.92 -0.95999,1.72 -0.28001,0.76 -0.28001,1.36 0,1 0.16001,1.36 0.19999,0.36 0.91999,0.76 0.88001,0.44 1.6,0.44 1.36,0 3.36,-0.96 2.04,-1 2.04,-1.44 0,-0.32 1.20001,-1.52 1.23999,-1.24 1.23999,-1.76 z" />
      <path
         id="path10227"
         style=""
         d="m 426.5475,2716.7082 q 0,-1.48 -0.28,-3.76 -0.28,-2.28 -0.28,-3.8 0,-0.76 0.04,-1 0.12,-0.64 0.44,-1 0.36,-0.4 0.72,-0.4 0.48,0 0.68,0.44 0.12,0.28 0.36,2.96 0.24,2.68 0.44,5.24 0.2,2.56 0.28,2.64 0.04,0.04 0.12,0.04 0.32,0 1.84,-0.32 1.56,-0.36 2.56,-0.36 2,0 2,0.88 0,0.88 -4.4,1.96 l -2,0.48 0.24,6.76 q 0.2,5.96 0.76,11.16 0.56,5.16 0.56,5.84 0,1.24 -0.92,1.24 -0.72,0 -1.2,-1.28 -0.44,-1.28 -0.44,-3.32 0,-1.48 -0.12,-3 -0.12,-1.56 -0.44,-4.8 -0.28,-3.28 -0.56,-6.72 -0.12,-1.84 -0.2,-2.84 -0.04,-1 -0.12,-1.48 -0.08,-0.48 -0.12,-0.56 -0.04,-0.12 -0.16,-0.12 -0.64,0 -3.08,0.44 -2.44,0.44 -3.04,0.44 -1.16,0 -1.16,-0.96 0,-0.68 1.44,-1.16 1.48,-0.48 3.32,-0.84 1.84,-0.4 2.28,-0.68 0.44,-0.32 0.44,-2.12 z" />
      <path
         id="path10229"
         style=""
         d="m 442.52875,2721.7082 q 0.56,-0.48 0.96,-0.48 0.84,0 1.2,2.68 0.4,2.64 0.72,10.2 0.16,3.52 0.16,6.36 0,2.84 -0.24,3.12 -0.48,0.6 -1.2,0.6 -1,0 -1.24,-0.84 -0.2,-0.52 -0.6,-8.08 -0.4,-7.6 -0.4,-10.56 0,-2.48 0.64,-3 z m -0.24,-9.4 q 0,-0.56 0.44,-1.12 0.48,-0.56 0.84,-0.56 0.4,0 1.08,0.56 0.72,0.52 0.72,1.36 0,0.6 -0.36,1.04 -0.32,0.4 -0.88,0.4 -0.64,0 -1.24,-0.48 -0.6,-0.48 -0.6,-1.2 z" />
      <path
         id="path10231"
         style=""
         d="m 455.1825,2726.5482 q 3.12,-2.92 5.24,-3.84 2.16,-0.96 5.44,-0.96 4.96,0 6.2,2.96 0.76,1.76 0.76,4.32 0,4.24 -1.88,8.6 -1.88,4.32 -4.64,6 -2.68,1.64 -5.64,1.64 -4.12,0 -6.6,-2.84 -1.72,-2 -2.24,-3.36 -0.52,-1.4 -0.52,-3.96 0,-4.84 3.88,-8.56 z m 6.44,16.44 q 3.36,0 6.08,-4.6 2.76,-4.64 2.76,-10.48 0,-0.88 -0.2,-1.32 -0.2,-0.44 -0.72,-0.88 -1.48,-1.24 -3.16,-1.24 -0.28,0 -0.64,0.08 -0.32,0.04 -1.08,0.16 -0.76,0.08 -1.8,0.2 -1.4,0.2 -2.24,0.64 -0.8,0.4 -2.04,1.56 -2.36,2.24 -3.36,4.16 -1,1.88 -1,4.12 0,3.32 2.04,5.44 2.08,2.12 5.36,2.16 z" />
      <path
         id="path10233"
         style=""
         d="m 480.11813,2722.8682 q 0,-1.36 0.79999,-1.36 0.52001,0 0.76001,1.2 0.23999,1.16 0.88,6.96 0.79999,6.48 0.83999,6.56 0.04,0.04 0.32,-0.76 0.32,-0.84 0.84001,-2.48 0.79999,-2.64 1.35999,-3.8 0.56,-1.2 2,-3.28 2.92,-4.04 4.52001,-4.04 1.03999,0 1.95999,1.4 1.24,1.84 1.52,3.64 0.28,1.8 0.4,8.52 0.08,4.32 0.08,5.12 0,2 -0.15999,2.92 -0.12,0.88 -0.40001,1.08 -0.24,0.24 -0.88,0.28 -0.36,0 -0.48,-0.32 -0.12,-0.28 -0.12,-1.36 0,-0.6 0.08,-2.56 0.08,-2 0.08,-3.36 0,-3.4 -0.27999,-6.64 -0.24,-3.28 -0.60001,-4.2 -0.19999,-0.52 -0.63999,-1.08 -0.44,-0.56 -0.84001,-0.56 -0.84,0 -2.68,2.88 -1.84,2.84 -3.16,6 -1.24,2.88 -1.68,4.44 -0.39999,1.52 -0.68,4.16 -0.44,4.08 -0.64,4.08 -0.31999,0 -0.92,-0.68 -0.44,-0.44 -0.59999,-1.88 -0.16001,-1.48 -0.44001,-5.8 -0.28,-4.36 -0.76,-8.8 -0.47999,-4.6 -0.47999,-6.28 z" />
      <path
         id="path10235"
         style=""
         d="m 510.80375,2744.4282 q -0.32,0 -1,-0.28 -0.64,-0.32 -0.8,-0.32 -0.36,0 -0.76,-0.44 -0.36,-0.44 -0.36,-0.88 0,-0.56 0.6,-1.56 0.64,-1 1.12,-1.2 0.32,-0.16 0.92,-0.16 2.08,0 2.08,1.6 0,0.92 -0.52,2.08 -0.48,1.16 -1.28,1.16 z m -2.48,-21.28 q 0,-0.48 0.16,-0.6 0.16,-0.12 0.64,-0.12 0.28,0 1.36,0.16 1.08,0.12 1.72,0.16 l 1.4,0.16 -0.12,1.48 q -0.08,1.04 -1.04,4.28 -0.96,3.2 -1.44,5.8 -0.2,1.08 -0.68,1.08 -0.32,0 -0.52,-0.24 -0.16,-0.28 -0.28,-1 -0.12,-0.76 -0.2,-1.52 -0.04,-0.8 -0.2,-2.4 -0.12,-1.6 -0.28,-3.04 -0.12,-0.68 -0.12,-1.56 0,-0.16 0.04,-0.68 0.04,-0.56 0,-0.84 0,-0.28 -0.16,-0.4 -0.28,-0.16 -0.28,-0.72 z" />
      <path
         id="path10237"
         style=""
         d="m 552.24437,2741.5082 q 0,-0.84 0.68001,-1.6 0.71999,-0.8 1.35999,-0.8 0.76,0 1.08,0.8 0.36,0.76 0.36,1.24 0,0.28 -0.27999,0.96 -0.28001,0.68 -0.40001,1.08 -0.35999,1.4 -1.16,1.4 -0.67999,0 -1.16,-1.08 -0.48,-1.08 -0.48,-2 z m -0.24,-14.76 q 0,-0.72 0.52,-1.84 0.52,-1.16 1.2,-1.16 0.52,0 1.28,0.88 0.72,0.88 0.72,2.12 0,0.76 -0.08,1 -0.08,0.24 -0.36,0.24 -0.47999,0 -0.68,0.88 -0.12,0.52 -0.32,0.72 -0.16,0.16 -0.56,0.16 -0.39999,0 -0.68,-0.28 -0.23999,-0.28 -0.59999,-1.12 -0.44001,-1.04 -0.44001,-1.6 z" />
      <path
         id="path10239"
         style=""
         d="m 564.82,2717.6682 q 0,-0.56 0.52,-1.36 0.52,-0.8 0.96,-0.8 0.52,0 1.2,-0.96 0.64,-0.96 3.92,-1.32 4.2,-0.4 5.52,-0.4 1.68,0 4.12,0.44 7,1.2 9.84,3.56 2.84,2.32 2.84,7.04 0,4.2 -1.44,7.96 -1.4,3.76 -3.64,6.28 -2.24,2.52 -4.72,4.2 -2.48,1.64 -4.84,2.2 -1,0.24 -1.48,0.76 -0.48,0.56 -0.52,1.04 -0.04,0.48 -0.4,0.84 -0.32,0.4 -1.08,0.4 -1.24,0 -1.24,-0.48 0,-0.28 -0.32,-0.48 -0.32,-0.2 -0.72,-0.32 -0.36,-0.12 -0.68,-0.52 -0.32,-0.4 -0.32,-1.04 0,-1.08 0.76,-1.36 0.76,-0.28 0.76,-3.4 0,-1.64 -0.2,-3.32 -0.2,-1.72 -0.68,-5.16 -0.44,-3.48 -0.84,-7.68 l -0.64,-6.92 -1.44,0.12 q -0.92,0.08 -1.76,0.68 -0.84,0.56 -1.36,1.08 -0.52,0.52 -0.8,0.52 -0.28,0 -0.8,-0.56 -0.52,-0.6 -0.52,-1.04 z m 9.56,0.12 q 0,1.24 1.12,9.4 1.16,8.16 1.16,10.64 0,0.8 -0.08,1.6 l -0.32,2.04 2.16,0 q 3.56,0 8.08,-5.04 2.56,-2.88 3.44,-5.8 0.92,-2.92 0.92,-7.12 0,-1.76 -0.28,-2.44 -0.24,-0.68 -1.16,-1.72 -0.92,-1 -2.08,-1.48 -1.16,-0.48 -3.8,-1 -4.8,-0.8 -7.24,-0.8 -1.12,0 -1.52,0.28 -0.4,0.28 -0.4,1.44 z" />
    </g>
  </g>
</svg>
