<?xml version="1.0" encoding="UTF-8" standalone="no"?>
<svg
   xmlns:osb="http://www.openswatchbook.org/uri/2009/osb"
   xmlns:dc="http://purl.org/dc/elements/1.1/"
   xmlns:cc="http://creativecommons.org/ns#"
   xmlns:rdf="http://www.w3.org/1999/02/22-rdf-syntax-ns#"
   xmlns:svg="http://www.w3.org/2000/svg"
   xmlns="http://www.w3.org/2000/svg"
   xmlns:xlink="http://www.w3.org/1999/xlink"
   version="1.1"
   id="svg5176"
   viewBox="0 0 401.73228 566.83138"
   height="159.97241mm"
   width="113.37778mm">
  <defs
     id="defs5178">
    <linearGradient
       gradientUnits="userSpaceOnUse"
       y2="-265"
       x2="392.36221"
       y1="-265"
       x1="192.3622"
       id="linearGradient5534"
       xlink:href="#side"
       gradientTransform="translate(174.70189,20)" />
    <linearGradient
       gradientTransform="matrix(0.9422018,-0.33504593,0.33504593,0.9422018,5215.8889,-2083.0982)"
       osb:paint="solid"
       id="side">
      <stop
         id="stop5530"
         offset="0"
         style="stop-color:#265998;stop-opacity:1;" />
    </linearGradient>
    <linearGradient
       gradientUnits="userSpaceOnUse"
       y2="127.76065"
       x2="191.01016"
       y1="127.76065"
       x1="50"
       id="linearGradient5598"
       xlink:href="#top"
       gradientTransform="translate(-20,174.70189)" />
    <linearGradient
       gradientTransform="matrix(0.9422018,-0.33504593,0.33504593,0.9422018,5203.2038,-2086.3603)"
       osb:paint="solid"
       id="top">
      <stop
         id="stop5590"
         offset="0"
         style="stop-color:#f9d455;stop-opacity:1;" />
    </linearGradient>
    <linearGradient
       gradientTransform="matrix(0.94220181,-0.33504593,0.33504593,0.94220181,28750.064,1214.1466)"
       osb:paint="solid"
       id="red">
      <stop
         id="stop5548"
         offset="0"
         style="stop-color:#e31616;stop-opacity:1;" />
    </linearGradient>
  </defs>
  <metadata
     id="metadata5181">
    <rdf:RDF>
      <cc:Work
         rdf:about="">
        <dc:format>image/svg+xml</dc:format>
        <dc:type
           rdf:resource="http://purl.org/dc/dcmitype/StillImage" />
        <dc:title></dc:title>
      </cc:Work>
    </rdf:RDF>
  </metadata>
  <g
     transform="translate(40.866142,-137.51795)"
     id="layer1">
    <rect
       ry="0"
       y="367.06409"
       x="30"
       height="200"
       width="140"
       id="rect4136"
       style="fill:url(#red);fill-opacity:1;stroke:none;stroke-width:1;stroke-linecap:round;stroke-linejoin:round;stroke-miterlimit:4;stroke-dasharray:none;stroke-dashoffset:0;stroke-opacity:1" />
    <rect
       style="fill:url(#linearGradient5598);fill-opacity:1;stroke:none;stroke-width:1;stroke-linecap:round;stroke-linejoin:round;stroke-miterlimit:4;stroke-dasharray:none;stroke-dashoffset:0;stroke-opacity:1"
       id="rect4140"
       width="141.01016"
       height="90.796883"
       x="30"
       y="257.06409"
       ry="0" />
    <rect
       transform="matrix(0,1,-1,0,0,0)"
       ry="0"
       y="-290"
       x="367.06409"
       height="90"
       width="200"
       id="rect4142"
       style="fill:url(#linearGradient5534);fill-opacity:1;stroke:none;stroke-width:1;stroke-linecap:round;stroke-linejoin:round;stroke-miterlimit:4;stroke-dasharray:none;stroke-dashoffset:0;stroke-opacity:1" />
    <g
       id="text4144"
       style="font-style:normal;font-variant:normal;font-weight:normal;font-stretch:normal;font-size:40px;line-height:125%;font-family:Purisa;-inkscape-font-specification:Purisa;letter-spacing:0px;word-spacing:0px;fill:#000000;fill-opacity:1;stroke:none;stroke-width:1px;stroke-linecap:butt;stroke-linejoin:miter;stroke-opacity:1">
      <path
         id="path6444"
         style=""
         d="m 68.941532,214.26409 q -1.32,0 -2.76,0.32 -1.44,0.32 -1.88,0.32 -1,0 -1.72,-0.36 -0.68,-0.36 -0.68,-0.92 0,-0.68 0.88,-0.92 0.92,-0.28 4.8,-0.88 7.88,-1.2 15.08,-2.6 4.44,-0.84 5.76,-0.84 1.24,0 2.52,0.52 1.28,0.52 1.28,1.16 0,0.6 -1.04,1.04 -1.04,0.4 -2.76,0.4 -2.68,0 -5.72,0.72 l -3.08,0.72 0.6,3.36 q 0.44,3.12 1.04,11.96 0.64,8.8 0.76,9.84 0.12,1.04 0.12,1.56 0,1.24 -1.08,1.24 -1.04,0 -1.56,-2.6 -0.48,-2.6 -0.92,-10.2 -0.8,-12.96 -2.08,-14.32 -0.32,-0.32 -1.04,-0.32 -0.32,0 -2.76,0.4 -2.4,0.4 -3.76,0.4 z" />
      <path
         id="path6446"
         style=""
         d="m 99.502782,221.10409 q 3.119998,-2.92 5.239998,-3.84 2.16,-0.96 5.44,-0.96 4.96,0 6.2,2.96 0.76,1.76 0.76,4.32 0,4.24 -1.88,8.6 -1.88,4.32 -4.64,6 -2.68,1.64 -5.64,1.64 -4.12,0 -6.599998,-2.84 -1.72,-2 -2.24,-3.36 -0.52,-1.4 -0.52,-3.96 0,-4.84 3.88,-8.56 z m 6.439998,16.44 q 3.36,0 6.08,-4.6 2.76,-4.64 2.76,-10.48 0,-0.88 -0.2,-1.32 -0.2,-0.44 -0.72,-0.88 -1.48,-1.24 -3.16,-1.24 -0.28,0 -0.64,0.08 -0.32,0.04 -1.08,0.16 -0.76,0.08 -1.8,0.2 -1.4,0.2 -2.24,0.64 -0.8,0.4 -2.04,1.56 -2.36,2.24 -3.359998,4.16 -1,1.88 -1,4.12 0,3.32 2.039998,5.44 2.08,2.12 5.36,2.16 z" />
      <path
         id="path6448"
         style=""
         d="m 122.91841,220.30409 q 1.12,-1 1.12,-1.72 0,-0.72 0.44,-1.72 0.48,-1.04 1.36,-1.04 0.56,0 0.96,0.64 0.44,0.6 0.92,0.6 0.36,0 2.96,-0.6 2.6,-0.64 4.56,-0.64 1.64,0 3.64,0.44 4.16,0.96 4.16,5.16 0,3.2 -2.48,8.52 -1.64,3.52 -4,5.44 -2.36,1.88 -5.04,1.88 -0.76,0 -1.16,-0.08 l -1.84,-0.28 0.44,2.16 q 1.44,6.8 1.44,8.52 0,0.8 -0.28,1.04 -0.28,0.28 -0.96,0.28 -0.72,0 -1.04,-0.36 -0.28,-0.32 -0.6,-1.4 -1.56,-5.6 -2.52,-16.72 -0.44,-5.48 -0.76,-6.68 -0.28,-1.24 -1.16,-1.24 -1.28,0 -1.28,-0.76 0,-0.44 1.12,-1.44 z m 5.96,13.28 q 0.6,0 1.4,0.52 0.8,0.48 1.36,0.48 1.6,0 3.68,-2.04 2.08,-2.08 3.52,-5 1.48,-2.92 1.48,-5.2 0,-1.24 -0.56,-2.24 -0.52,-1 -0.92,-1.12 -0.68,-0.28 -2.36,-0.28 -3.72,0 -6.6,0.92 l -2.68,0.88 0.08,2.56 q 0.08,2.56 0.44,6.52 0.2,2.36 0.44,3.16 0.24,0.8 0.72,0.84 z" />
    </g>
    <g
       id="text4148"
       style="font-style:normal;font-variant:normal;font-weight:normal;font-stretch:normal;font-size:40px;line-height:125%;font-family:Purisa;-inkscape-font-specification:Purisa;letter-spacing:0px;word-spacing:0px;fill:#000000;fill-opacity:1;stroke:none;stroke-width:1px;stroke-linecap:butt;stroke-linejoin:miter;stroke-opacity:1">
      <path
         id="path6433"
         style=""
         d="m 60.438166,597.37272 q 1.36,0 2.52,-0.48 1.2,-0.48 3.36,-0.48 1.72,0 2.36,0.28 0.68,0.24 0.68,1 0,0.68 -0.92,1 -0.88,0.28 -4.32,0.92 -2.68,0.52 -4.48,0.88 l -4.04,0.84 0,3.2 q 0,3.24 0.28,4.92 l 0.28,1.76 2.56,-0.28 q 2.28,-0.32 4.68,-0.32 3.08,0 3.08,0.6 0,0.56 -1.88,1.28 -1.88,0.72 -4.72,1.24 l -3.36,0.6 0.32,6.36 q 0.12,2.4 0.12,3.84 0,1.76 -0.24,2.4 -0.2,0.64 -0.76,0.64 -0.36,0 -0.8,-0.16 -0.6,-0.16 -0.76,-0.76 -0.16,-0.6 -0.16,-2.52 0,-1.84 -0.72,-7.12 -0.68,-5.32 -0.68,-10.8 l 0,-6.76 2.92,-1.04 q 2.96,-1.04 4.68,-1.04 z" />
      <path
         id="path6435"
         style=""
         d="m 88.500666,608.53272 q 0.68,0 1.2,0.44 0.52,0.4 0.52,0.68 0,0.48 -1.52,1.08 -2.48,1 -5.08,4.84 -2.56,3.8 -3.12,7.36 -0.64,4.04 -1.04,5.28 -0.4,1.28 -1.04,1.28 -0.56,0 -0.88,-0.4 -0.28,-0.4 -0.4,-0.88 -0.08,-0.48 -0.2,-1.76 -0.04,-0.24 -0.04,-0.36 -0.96,-10.08 -0.96,-15.92 0,-2.08 0.16,-2.56 0.44,-1.28 1.12,-1.28 0.64,0 0.64,1.08 0,1.8 0.56,5.8 0.56,4 0.84,4 0.36,0 1.48,-2.2 1.4,-2.6 3.72,-4.52 2.36,-1.96 4.04,-1.96 z" />
      <path
         id="path6437"
         style=""
         d="m 99.076291,610.01272 q 3.119999,-2.92 5.239999,-3.84 2.16,-0.96 5.44,-0.96 4.96,0 6.2,2.96 0.76,1.76 0.76,4.32 0,4.24 -1.88,8.6 -1.88,4.32 -4.64,6 -2.68,1.64 -5.64,1.64 -4.12,0 -6.599999,-2.84 -1.72,-2 -2.24,-3.36 -0.52,-1.4 -0.52,-3.96 0,-4.84 3.88,-8.56 z m 6.439999,16.44 q 3.36,0 6.08,-4.6 2.76,-4.64 2.76,-10.48 0,-0.88 -0.2,-1.32 -0.2,-0.44 -0.72,-0.88 -1.48,-1.24 -3.16,-1.24 -0.28,0 -0.64,0.08 -0.32,0.04 -1.08,0.16 -0.76,0.08 -1.8,0.2 -1.4,0.2 -2.24,0.64 -0.8,0.4 -2.04,1.56 -2.36,2.24 -3.359999,4.16 -1,1.88 -1,4.12 0,3.32 2.039999,5.44 2.08,2.12 5.36,2.16 z" />
      <path
         id="path6439"
         style=""
         d="m 124.01192,606.33272 q 0,-1.36 0.8,-1.36 0.52,0 0.76,1.2 0.24,1.16 0.88,6.96 0.8,6.48 0.84,6.56 0.04,0.04 0.32,-0.76 0.32,-0.84 0.84,-2.48 0.8,-2.64 1.36,-3.8 0.56,-1.2 2,-3.28 2.92,-4.04 4.52,-4.04 1.04,0 1.96,1.4 1.24,1.84 1.52,3.64 0.28,1.8 0.4,8.52 0.08,4.32 0.08,5.12 0,2 -0.16,2.92 -0.12,0.88 -0.4,1.08 -0.24,0.24 -0.88,0.28 -0.36,0 -0.48,-0.32 -0.12,-0.28 -0.12,-1.36 0,-0.6 0.08,-2.56 0.08,-2 0.08,-3.36 0,-3.4 -0.28,-6.64 -0.24,-3.28 -0.6,-4.2 -0.2,-0.52 -0.64,-1.08 -0.44,-0.56 -0.84,-0.56 -0.84,0 -2.68,2.88 -1.84,2.84 -3.16,6 -1.24,2.88 -1.68,4.44 -0.4,1.52 -0.68,4.16 -0.44,4.08 -0.64,4.08 -0.32,0 -0.92,-0.68 -0.44,-0.44 -0.6,-1.88 -0.16,-1.48 -0.44,-5.8 -0.28,-4.36 -0.76,-8.8 -0.48,-4.6 -0.48,-6.28 z" />
      <path
         id="path6441"
         style=""
         d="m 153.09754,600.17272 q 0,-1.48 -0.28,-3.76 -0.28,-2.28 -0.28,-3.8 0,-0.76 0.04,-1 0.12,-0.64 0.44,-1 0.36,-0.4 0.72,-0.4 0.48,0 0.68,0.44 0.12,0.28 0.36,2.96 0.24,2.68 0.44,5.24 0.2,2.56 0.28,2.64 0.04,0.04 0.12,0.04 0.32,0 1.84,-0.32 1.56,-0.36 2.56,-0.36 2,0 2,0.88 0,0.88 -4.4,1.96 l -2,0.48 0.24,6.76 q 0.2,5.96 0.76,11.16 0.56,5.16 0.56,5.84 0,1.24 -0.92,1.24 -0.72,0 -1.2,-1.28 -0.44,-1.28 -0.44,-3.32 0,-1.48 -0.12,-3 -0.12,-1.56 -0.44,-4.8 -0.28,-3.28 -0.56,-6.72 -0.12,-1.84 -0.2,-2.84 -0.04,-1 -0.12,-1.48 -0.08,-0.48 -0.12,-0.56 -0.04,-0.12 -0.16,-0.12 -0.64,0 -3.08,0.44 -2.44,0.44 -3.04,0.44 -1.16,0 -1.16,-0.96 0,-0.68 1.44,-1.16 1.48,-0.48 3.32,-0.84 1.84,-0.4 2.28,-0.68 0.44,-0.32 0.44,-2.12 z" />
    </g>
    <g
       id="text4152"
       style="font-style:normal;font-variant:normal;font-weight:normal;font-stretch:normal;font-size:40px;line-height:125%;font-family:Purisa;-inkscape-font-specification:Purisa;letter-spacing:0px;word-spacing:0px;fill:#000000;fill-opacity:1;stroke:none;stroke-width:1px;stroke-linecap:butt;stroke-linejoin:miter;stroke-opacity:1">
      <path
         id="path6424"
         style=""
         d="m 210.83755,623.48317 q 0,0.8 -0.6,1.44 -0.6,0.6 -0.6,1 0,0.44 0.28,1.04 0.4,0.88 1,1.08 0.64,0.2 3.08,0.2 2.08,0 3.12,-0.24 1.04,-0.24 2,-0.96 1.56,-1.12 1.92,-1.76 0.4,-0.68 0.4,-2.28 0,-1.2 -0.44,-1.68 -0.44,-0.52 -2.36,-1.4 -2.76,-1.28 -3.56,-1.28 -1.72,0 -5.28,-3 -3.52,-3 -3.52,-4.48 0,-2.12 2.16,-4.84 2.16,-2.76 4.84,-4.04 1.36,-0.68 5.16,-0.68 1.68,0 2.52,0.24 0.84,0.24 1.8,1.04 0.68,0.56 1.2,1.32 0.52,0.72 0.52,1.12 0,0.96 -0.32,0.96 -0.32,0 -0.84,-0.4 -0.52,-0.4 -1.08,-0.84 -0.56,-0.48 -1.6,-0.88 -1.04,-0.4 -2.28,-0.4 -3.36,0 -6.16,2.44 -2.76,2.44 -2.76,5.28 0,2.32 8.24,4.96 6.48,2.04 6.48,6.36 0,0.88 -0.32,2.04 -0.92,3.12 -3.12,4.32 -2.2,1.2 -7.68,1.56 l -3.6,0.24 -1.08,-2.24 q -0.84,-1.64 -0.84,-3.28 0,-1.36 0.64,-2.2 0.64,-0.84 1.8,-0.84 0.88,0 0.88,1.08 z" />
      <path
         id="path6426"
         style=""
         d="m 231.52255,608.20317 q 0.56,-0.48 0.96,-0.48 0.84,0 1.2,2.68 0.4,2.64 0.72,10.2 0.16,3.52 0.16,6.36 0,2.84 -0.24,3.12 -0.48,0.6 -1.2,0.6 -1,0 -1.24,-0.84 -0.2,-0.52 -0.6,-8.08 -0.4,-7.6 -0.4,-10.56 0,-2.48 0.64,-3 z m -0.24,-9.4 q 0,-0.56 0.44,-1.12 0.48,-0.56 0.84,-0.56 0.4,0 1.08,0.56 0.72,0.52 0.72,1.36 0,0.6 -0.36,1.04 -0.32,0.4 -0.88,0.4 -0.64,0 -1.24,-0.48 -0.6,-0.48 -0.6,-1.2 z" />
      <path
         id="path6428"
         style=""
         d="m 263.6963,631.40317 q 0,0.88 -0.36,1.36 -0.32,0.52 -0.6,0.6 -0.24,0.12 -0.44,0.12 -0.52,0 -0.88,-0.36 -0.36,-0.32 -0.56,-1.2 -0.2,-0.84 -0.28,-1.28 -0.04,-0.44 -0.16,-1.64 -0.28,-4.04 -0.64,-4.04 -0.44,0 -1.4,1.16 -4.48,5.28 -9.44,5.28 -1.48,0 -2.96,-0.56 -5.12,-1.92 -5.12,-7.84 0,-2.56 0.84,-4.88 0.88,-2.36 2.2,-3.96 1.36,-1.6 2.72,-2.68 1.36,-1.08 2.6,-1.52 1.56,-0.6 2.16,-0.6 1.04,0 3.48,1.36 2.48,1.36 3.44,2.64 1.08,1.44 1.64,1.44 0.04,0 0.04,0 0,-0.04 0.04,-0.04 0.44,-0.28 0.44,-10.44 0,-10.04 0.48,-11.4 0.52,-1.24 1.56,-1.24 l 1.08,0 -0.32,16.44 q -0.12,6.12 -0.12,10.92 0,6.52 0.28,9.32 0.28,2.8 0.28,3.04 z m -9.36,-17.72 q -2.36,-1.56 -3.28,-1.56 -0.8,0 -3.6,2.72 -2.8,2.72 -3.32,4 -0.4,0.96 -0.4,3.48 0,3.08 0.52,4 0.4,0.72 1.92,1.56 1.56,0.84 3.08,0.84 2.72,0 6.88,-4 3.28,-3.16 3.28,-4.12 0,-1.32 -1.68,-3.52 -1.64,-2.2 -3.4,-3.4 z" />
      <path
         id="path6430"
         style=""
         d="m 289.37005,622.40317 q 0.2,0 0.2,0.32 0,0.72 -1.08,2.32 -1.04,1.6 -2.24,2.64 -4.2,3.72 -8.4,3.72 -1.6,0 -3.2,-0.72 -1.56,-0.76 -2.92,-2.12 -1.36,-1.36 -2.2,-3.64 -0.84,-2.28 -0.84,-5.08 0,-1.72 0.4,-2.92 0.8,-2.44 3.4,-5.16 2.64,-2.72 4.96,-2.72 0.64,0 1.92,0.12 1.92,0.16 2.68,0.4 0.8,0.24 1.8,1 1.28,0.96 2.2,2.48 0.96,1.48 0.96,2.48 0,1.28 -1,1.96 -1,0.64 -3.88,1.28 -3.72,0.84 -7.36,1.04 l -3.72,0.2 0,1.6 q 0,2.96 2.76,5.6 2.08,2 4.32,2 1.72,0 3.64,-1.04 1.96,-1.08 3.32,-2.36 1.36,-1.28 2.6,-2.32 1.24,-1.08 1.68,-1.08 z m -6.44,-9.76 q -1.24,-1.12 -1.88,-1.4 -0.6,-0.32 -1.6,-0.32 -2,0 -3,0.4 -0.96,0.36 -1.96,1.52 -3.04,3.48 -3.04,4.64 0,0.52 0.96,0.52 3.64,0 10.32,-1.52 2,-0.48 2,-1.68 0,-0.56 -1.8,-2.16 z" />
    </g>
  </g>
</svg>
