<?xml version="1.0" encoding="UTF-8" standalone="no"?>
<svg
   xmlns:osb="http://www.openswatchbook.org/uri/2009/osb"
   xmlns:dc="http://purl.org/dc/elements/1.1/"
   xmlns:cc="http://creativecommons.org/ns#"
   xmlns:rdf="http://www.w3.org/1999/02/22-rdf-syntax-ns#"
   xmlns:svg="http://www.w3.org/2000/svg"
   xmlns="http://www.w3.org/2000/svg"
   xmlns:xlink="http://www.w3.org/1999/xlink"
   version="1.1"
   id="svg13394"
   viewBox="0 0 1397.2544 1108.5505"
   height="312.85757mm"
   width="394.33624mm">
  <defs
     id="defs13396">
    <marker
       orient="auto"
       refY="0"
       refX="0"
       id="marker24955"
       style="overflow:visible">
      <path
         id="path24957"
         d="M 0,0 5,-5 -12.5,0 5,5 0,0 Z"
         style="fill:#000000;fill-opacity:1;fill-rule:evenodd;stroke:#000000;stroke-width:1pt;stroke-opacity:1"
         transform="matrix(-0.8,0,0,-0.8,-10,0)" />
    </marker>
    <marker
       orient="auto"
       refY="0"
       refX="0"
       id="marker23269"
       style="overflow:visible">
      <path
         id="path23271"
         d="M 0,0 5,-5 -12.5,0 5,5 0,0 Z"
         style="fill:#000000;fill-opacity:1;fill-rule:evenodd;stroke:#000000;stroke-width:1pt;stroke-opacity:1"
         transform="matrix(-0.8,0,0,-0.8,-10,0)" />
    </marker>
    <marker
       style="overflow:visible"
       id="marker22859"
       refX="0"
       refY="0"
       orient="auto">
      <path
         transform="matrix(-0.8,0,0,-0.8,-10,0)"
         style="fill:#000000;fill-opacity:1;fill-rule:evenodd;stroke:#000000;stroke-width:1pt;stroke-opacity:1"
         d="M 0,0 5,-5 -12.5,0 5,5 0,0 Z"
         id="path22861" />
    </marker>
    <marker
       orient="auto"
       refY="0"
       refX="0"
       id="marker17339"
       style="overflow:visible">
      <path
         id="path17341"
         d="M 0,0 5,-5 -12.5,0 5,5 0,0 Z"
         style="fill:#000000;fill-opacity:1;fill-rule:evenodd;stroke:#000000;stroke-width:1pt;stroke-opacity:1"
         transform="matrix(-0.8,0,0,-0.8,-10,0)" />
    </marker>
    <marker
       style="overflow:visible"
       id="marker23061"
       refX="0"
       refY="0"
       orient="auto">
      <path
         transform="matrix(-0.8,0,0,-0.8,-10,0)"
         style="fill:#000000;fill-opacity:1;fill-rule:evenodd;stroke:#000000;stroke-width:1pt;stroke-opacity:1"
         d="M 0,0 5,-5 -12.5,0 5,5 0,0 Z"
         id="path23063" />
    </marker>
    <linearGradient
       gradientTransform="matrix(0.9422018,-0.33504593,0.33504593,0.9422018,15461.606,1105.2719)"
       osb:paint="solid"
       id="red">
      <stop
         id="stop5548"
         offset="0"
         style="stop-color:#e31616;stop-opacity:1;" />
    </linearGradient>
    <linearGradient
       y2="1092.722"
       x2="1934.082"
       y1="1092.722"
       x1="1734.1537"
       gradientTransform="translate(-785.48963,-1325.2942)"
       gradientUnits="userSpaceOnUse"
       id="linearGradient26691"
       xlink:href="#side" />
    <linearGradient
       gradientTransform="matrix(0.9422018,-0.33504593,0.33504593,0.9422018,692.24392,-1162.2416)"
       osb:paint="solid"
       id="side">
      <stop
         id="stop5530"
         offset="0"
         style="stop-color:#265998;stop-opacity:1;" />
    </linearGradient>
    <linearGradient
       y2="1092.722"
       x2="1934.082"
       y1="1092.722"
       x1="1734.1537"
       gradientTransform="translate(-1023.8856,-1225.2942)"
       gradientUnits="userSpaceOnUse"
       id="linearGradient26689"
       xlink:href="#side" />
    <linearGradient
       gradientTransform="matrix(0.9422018,-0.33504593,0.33504593,0.9422018,679.55882,-1165.5037)"
       osb:paint="solid"
       id="top">
      <stop
         id="stop5590"
         offset="0"
         style="stop-color:#f9d455;stop-opacity:1;" />
    </linearGradient>
    <marker
       orient="auto"
       refY="0"
       refX="0"
       id="marker22265"
       style="overflow:visible">
      <path
         id="path22267"
         d="M 0,0 5,-5 -12.5,0 5,5 0,0 Z"
         style="fill:#000000;fill-opacity:1;fill-rule:evenodd;stroke:#000000;stroke-width:1pt;stroke-opacity:1"
         transform="matrix(-0.8,0,0,-0.8,-10,0)" />
    </marker>
    <marker
       orient="auto"
       refY="0"
       refX="0"
       id="marker20527"
       style="overflow:visible">
      <path
         id="path20529"
         d="M 0,0 5,-5 -12.5,0 5,5 0,0 Z"
         style="fill:#000000;fill-opacity:1;fill-rule:evenodd;stroke:#000000;stroke-width:1pt;stroke-opacity:1"
         transform="matrix(-0.8,0,0,-0.8,-10,0)" />
    </marker>
    <marker
       style="overflow:visible"
       id="marker22571"
       refX="0"
       refY="0"
       orient="auto">
      <path
         transform="matrix(-0.8,0,0,-0.8,-10,0)"
         style="fill:#000000;fill-opacity:1;fill-rule:evenodd;stroke:#000000;stroke-width:1pt;stroke-opacity:1"
         d="M 0,0 5,-5 -12.5,0 5,5 0,0 Z"
         id="path22573" />
    </marker>
    <marker
       style="overflow:visible"
       id="marker21983"
       refX="0"
       refY="0"
       orient="auto">
      <path
         transform="matrix(-0.8,0,0,-0.8,-10,0)"
         style="fill:#000000;fill-opacity:1;fill-rule:evenodd;stroke:#000000;stroke-width:1pt;stroke-opacity:1"
         d="M 0,0 5,-5 -12.5,0 5,5 0,0 Z"
         id="path21985" />
    </marker>
    <linearGradient
       y2="1102.3622"
       x2="120"
       y1="972.36218"
       x1="120"
       gradientTransform="matrix(0.5970231,0.80222404,0.80222404,-0.5970231,-661.3154,921.51707)"
       gradientUnits="userSpaceOnUse"
       id="linearGradient26687"
       xlink:href="#blue_gradient-2" />
    <linearGradient
       osb:paint="gradient"
       id="blue_gradient-2">
      <stop
         id="stop4206"
         offset="0"
         style="stop-color:#2a7fff;stop-opacity:1;" />
      <stop
         id="stop4208"
         offset="1"
         style="stop-color:#2a7fff;stop-opacity:0;" />
    </linearGradient>
    <linearGradient
       y2="1092.722"
       x2="1934.082"
       y1="1092.722"
       x1="1734.1537"
       gradientTransform="translate(-1096.1882,-804.33872)"
       gradientUnits="userSpaceOnUse"
       id="linearGradient26685"
       xlink:href="#side" />
    <linearGradient
       y2="1092.722"
       x2="1934.082"
       y1="1092.722"
       x1="1734.1537"
       gradientTransform="translate(-1292.7104,-1184.9107)"
       gradientUnits="userSpaceOnUse"
       id="linearGradient26683"
       xlink:href="#side" />
  </defs>
  <metadata
     id="metadata13399">
    <rdf:RDF>
      <cc:Work
         rdf:about="">
        <dc:format>image/svg+xml</dc:format>
        <dc:type
           rdf:resource="http://purl.org/dc/dcmitype/StillImage" />
        <dc:title></dc:title>
      </cc:Work>
    </rdf:RDF>
  </metadata>
  <g
     transform="translate(461.48432,53.341617)"
     id="layer1">
    <path
       style="fill:url(#side);fill-rule:evenodd;stroke:none;stroke-width:1px;stroke-linecap:butt;stroke-linejoin:miter;stroke-opacity:1"
       d="m 164.7188,962.95597 -64.990901,-36.277 -2.343,-163.8412 66.996401,38.1798 z"
       id="path26573" />
    <path
       style="fill:url(#red);fill-rule:evenodd;stroke:none;stroke-width:1px;stroke-linecap:butt;stroke-linejoin:miter;stroke-opacity:1"
       d="m 164.3813,801.01757 99.2567,-58.0985 2.0598,158.5125 -100.9869,61.5191 z"
       id="path26575" />
    <path
       style="fill:url(#top);fill-rule:evenodd;stroke:none;stroke-width:1px;stroke-linecap:butt;stroke-linejoin:miter;stroke-opacity:1"
       d="m 263.638,742.91907 -68.0544,-38.2705 -98.198701,58.1892 66.996401,38.1798 z"
       id="path26577" />
    <path
       id="circle26579"
       d="m 200.00925,801.61353 a 36.211906,36.211906 0 0 1 -36.2119,36.2119 36.211906,36.211906 0 0 1 -36.21191,-36.2119 36.211906,36.211906 0 0 1 36.21191,-36.21191 36.211906,36.211906 0 0 1 36.2119,36.21191 z"
       style="opacity:1;fill:none;fill-opacity:1;stroke:#000000;stroke-width:1;stroke-linecap:round;stroke-linejoin:round;stroke-miterlimit:4;stroke-dasharray:8, 4;stroke-dashoffset:0;stroke-opacity:1" />
    <g
       id="text26581"
       style="font-style:normal;font-variant:normal;font-weight:normal;font-stretch:normal;font-size:40px;line-height:125%;font-family:Purisa;-inkscape-font-specification:Purisa;letter-spacing:0px;word-spacing:0px;fill:#000000;fill-opacity:1;stroke:none;stroke-width:1px;stroke-linecap:butt;stroke-linejoin:miter;stroke-opacity:1">
      <path
         id="path14198"
         style=""
         d="m 172.37797,815.53765 q -0.32,0 -0.6,-0.24 -0.28,-0.24 -0.28,-0.68 0,-0.44 0.2,-0.76 0.24,-0.36 0.84,-1 0.6,-0.68 1.12,-1.4 l 1.32,-1.76 q 0.28,-0.36 1,-1.6 0.72,-1.28 1.36,-2.12 0.68,-0.88 1.2,-0.88 0.84,0 1.12,2.56 0.24,2.16 0.48,8.52 0.24,6.32 0.24,10.48 0,2.64 -0.12,2.92 -0.32,0.68 -0.72,0.68 -0.56,0 -1.04,-1.4 -0.52,-1.48 -0.52,-10 -0.04,-8.64 -0.48,-8.64 -0.32,0 -1.28,1.36 -0.96,1.32 -2.08,2.64 -1.08,1.32 -1.76,1.32 z" />
      <path
         id="path14200"
         style=""
         d="m 207.20047,826.97765 q 1.56,0 2.24,0.16 0.72,0.16 0.84,0.4 0.16,0.2 0.16,0.72 0,0.64 -0.68,0.72 -0.64,0.08 -3.04,0.2 -2.4,0.12 -5.08,0.64 -1.88,0.36 -4.04,0.64 -2.16,0.32 -3.16,0.48 -1,0.2 -1.28,0.48 -0.32,0.28 -0.88,0.28 -0.64,0 -1.2,-0.36 -0.52,-0.36 -0.52,-0.84 0,-0.52 1.32,-2.24 1.32,-1.76 2.48,-2.76 1.44,-1.2 4,-6.32 2.6,-5.16 2.6,-8.4 0,-1.32 -0.76,-1.8 -0.72,-0.48 -2.52,-0.48 -4.32,0 -8.68,4.4 -2.72,2.64 -2.88,2.64 -0.2,0 -0.2,-1.36 0,-1.4 1.04,-1.96 1.08,-0.52 1.08,-1.08 0,-0.2 0.16,-0.44 0.2,-0.28 0.56,-0.56 0.4,-0.32 0.72,-0.56 0.36,-0.28 0.96,-0.68 0.6,-0.44 0.96,-0.72 0.8,-0.68 2.6,-1.36 1.84,-0.72 4,-0.72 3.64,0 4.72,2 0.44,0.76 0.44,2.56 0,3.28 -1.2,6.36 -0.88,2.08 -3.24,5.92 -2.32,3.8 -3.48,4.88 -0.44,0.44 -0.44,0.56 0,0.04 0.16,0.04 0.04,0 2,-0.36 1.96,-0.36 4.88,-0.72 2.96,-0.36 5.36,-0.36 z" />
      <path
         id="path14202"
         style=""
         d="m 221.61985,811.41765 q 0,-0.48 1.44,-1.96 1.44,-1.52 3.32,-2.84 1.88,-1.36 2.84,-1.36 1.4,0 3.04,2.12 1.64,2.08 1.64,5.64 0,5.08 -3.44,11.4 -1.4,2.6 -2.88,3.96 -1.44,1.32 -3.44,1.88 -0.92,0.24 -1.68,0.24 -2.84,0 -4.48,-3.56 -0.88,-1.8 -0.88,-2.68 0,-1.76 2.24,-6.92 2.28,-5.2 2.28,-5.92 z m 10.08,1.04 q 0,-4.12 -2.6,-4.12 -1.08,0 -2.12,0.68 -2.12,1.4 -4.6,6.8 -2.44,5.36 -2.44,8.72 0,1.44 0.92,2.48 0.96,1.04 2.28,1.04 0.88,0 1.6,-0.4 0.72,-0.44 1.96,-1.6 2.04,-1.96 2.04,-2.56 0,-0.32 0.72,-1.88 0.76,-1.56 1.48,-4.04 0.76,-2.52 0.76,-5.12 z" />
      <path
         id="path14204"
         style=""
         d="m 237.55797,803.05765 q 0,-1.84 1.2,-2.92 1.2,-1.12 2.72,-1.12 1.72,0 2.92,1.36 1.24,1.32 1.24,2.68 0,1.64 -1.84,2.88 -1.84,1.24 -3.04,1.24 -1.36,0 -2.28,-1.24 -0.92,-1.28 -0.92,-2.88 z m 2.72,-0.4 q 0,0.72 0.24,1.12 0.24,0.4 0.44,0.44 0.24,0.04 0.56,0.04 0.56,0 0.96,-0.24 0.44,-0.28 0.44,-0.68 0,-0.52 -0.84,-1.16 -0.8,-0.64 -1.28,-0.64 -0.52,0 -0.52,1.12 z" />
    </g>
    <g
       id="text26585"
       style="font-style:normal;font-variant:normal;font-weight:normal;font-stretch:normal;font-size:40px;line-height:125%;font-family:Purisa;-inkscape-font-specification:Purisa;letter-spacing:0px;word-spacing:0px;fill:#000000;fill-opacity:1;stroke:none;stroke-width:1px;stroke-linecap:butt;stroke-linejoin:miter;stroke-opacity:1">
      <path
         id="path14207"
         style=""
         d="m 83.449537,819.10894 q -0.32,0 -0.6,-0.24 -0.28,-0.24 -0.28,-0.68 0,-0.44 0.2,-0.76 0.24,-0.36 0.84,-1 0.6,-0.68 1.12,-1.4 l 1.32,-1.76 q 0.28,-0.36 1,-1.6 0.72,-1.28 1.36,-2.12 0.68,-0.88 1.2,-0.88 0.84,0 1.12,2.56 0.24,2.16 0.48,8.52 0.24,6.32 0.24,10.48 0,2.64 -0.12,2.92 -0.32,0.68 -0.72,0.68 -0.56,0 -1.04,-1.4 -0.52,-1.48 -0.52,-10 -0.04,-8.64 -0.48,-8.64 -0.32,0 -1.28,1.36 -0.96,1.32 -2.08,2.64 -1.08,1.32 -1.76,1.32 z" />
      <path
         id="path14209"
         style=""
         d="m 118.27204,830.54894 q 1.56,0 2.24,0.16 0.72,0.16 0.84,0.4 0.16,0.2 0.16,0.72 0,0.64 -0.68,0.72 -0.64,0.08 -3.04,0.2 -2.4,0.12 -5.08,0.64 -1.88,0.36 -4.04,0.64 -2.16,0.32 -3.16,0.48 -1,0.2 -1.28,0.48 -0.32,0.28 -0.88,0.28 -0.64,0 -1.2,-0.36 -0.52,-0.36 -0.52,-0.84 0,-0.52 1.32,-2.24 1.32,-1.76 2.48,-2.76 1.44,-1.2 4,-6.32 2.6,-5.16 2.6,-8.4 0,-1.32 -0.76,-1.8 -0.72,-0.48 -2.52,-0.48 -4.32,0 -8.68,4.4 -2.720003,2.64 -2.880003,2.64 -0.2,0 -0.2,-1.36 0,-1.4 1.04,-1.96 1.08,-0.52 1.08,-1.08 0,-0.2 0.16,-0.44 0.2,-0.28 0.56,-0.56 0.400003,-0.32 0.720003,-0.56 0.36,-0.28 0.96,-0.68 0.6,-0.44 0.96,-0.72 0.8,-0.68 2.6,-1.36 1.84,-0.72 4,-0.72 3.64,0 4.72,2 0.44,0.76 0.44,2.56 0,3.28 -1.2,6.36 -0.88,2.08 -3.24,5.92 -2.32,3.8 -3.48,4.88 -0.44,0.44 -0.44,0.56 0,0.04 0.16,0.04 0.04,0 2,-0.36 1.96,-0.36 4.88,-0.72 2.96,-0.36 5.36,-0.36 z" />
      <path
         id="path14211"
         style=""
         d="m 132.69141,814.98894 q 0,-0.48 1.44,-1.96 1.44,-1.52 3.32,-2.84 1.88,-1.36 2.84,-1.36 1.4,0 3.04,2.12 1.64,2.08 1.64,5.64 0,5.08 -3.44,11.4 -1.4,2.6 -2.88,3.96 -1.44,1.32 -3.44,1.88 -0.92,0.24 -1.68,0.24 -2.84,0 -4.48,-3.56 -0.88,-1.8 -0.88,-2.68 0,-1.76 2.24,-6.92 2.28,-5.2 2.28,-5.92 z m 10.08,1.04 q 0,-4.12 -2.6,-4.12 -1.08,0 -2.12,0.68 -2.12,1.4 -4.6,6.8 -2.44,5.36 -2.44,8.72 0,1.44 0.92,2.48 0.96,1.04 2.28,1.04 0.88,0 1.6,-0.4 0.72,-0.44 1.96,-1.6 2.04,-1.96 2.04,-2.56 0,-0.32 0.72,-1.88 0.76,-1.56 1.48,-4.04 0.76,-2.52 0.76,-5.12 z" />
      <path
         id="path14213"
         style=""
         d="m 148.62954,806.62894 q 0,-1.84 1.2,-2.92 1.2,-1.12 2.72,-1.12 1.72,0 2.92,1.36 1.24,1.32 1.24,2.68 0,1.64 -1.84,2.88 -1.84,1.24 -3.04,1.24 -1.36,0 -2.28,-1.24 -0.92,-1.28 -0.92,-2.88 z m 2.72,-0.4 q 0,0.72 0.24,1.12 0.24,0.4 0.44,0.44 0.24,0.04 0.56,0.04 0.56,0 0.96,-0.24 0.44,-0.28 0.44,-0.68 0,-0.52 -0.84,-1.16 -0.8,-0.64 -1.28,-0.64 -0.52,0 -0.52,1.12 z" />
    </g>
    <g
       id="text26589"
       style="font-style:normal;font-variant:normal;font-weight:normal;font-stretch:normal;font-size:40px;line-height:125%;font-family:Purisa;-inkscape-font-specification:Purisa;letter-spacing:0px;word-spacing:0px;fill:#000000;fill-opacity:1;stroke:none;stroke-width:1px;stroke-linecap:butt;stroke-linejoin:miter;stroke-opacity:1">
      <path
         id="path14216"
         style=""
         d="m 135.94926,757.68047 q -0.32,0 -0.6,-0.24 -0.28,-0.24 -0.28,-0.68 0,-0.44 0.2,-0.76 0.24,-0.36 0.84,-1 0.6,-0.68 1.12,-1.4 l 1.32,-1.76 q 0.28,-0.36 1,-1.6 0.72,-1.28 1.36,-2.12 0.68,-0.88 1.2,-0.88 0.84,0 1.12,2.56 0.24,2.16 0.48,8.52 0.24,6.32 0.24,10.48 0,2.64 -0.12,2.92 -0.32,0.68 -0.72,0.68 -0.56,0 -1.04,-1.4 -0.52,-1.48 -0.52,-10 -0.04,-8.64 -0.48,-8.64 -0.32,0 -1.28,1.36 -0.96,1.32 -2.08,2.64 -1.08,1.32 -1.76,1.32 z" />
      <path
         id="path14218"
         style=""
         d="m 170.77176,769.12047 q 1.56,0 2.24,0.16 0.72,0.16 0.84,0.4 0.16,0.2 0.16,0.72 0,0.64 -0.68,0.72 -0.64,0.08 -3.04,0.2 -2.4,0.12 -5.08,0.64 -1.88,0.36 -4.04,0.64 -2.16,0.32 -3.16,0.48 -1,0.2 -1.28,0.48 -0.32,0.28 -0.88,0.28 -0.64,0 -1.2,-0.36 -0.52,-0.36 -0.52,-0.84 0,-0.52 1.32,-2.24 1.32,-1.76 2.48,-2.76 1.44,-1.2 4,-6.32 2.6,-5.16 2.6,-8.4 0,-1.32 -0.76,-1.8 -0.72,-0.48 -2.52,-0.48 -4.32,0 -8.68,4.4 -2.72,2.64 -2.88,2.64 -0.2,0 -0.2,-1.36 0,-1.4 1.04,-1.96 1.08,-0.52 1.08,-1.08 0,-0.2 0.16,-0.44 0.2,-0.28 0.56,-0.56 0.4,-0.32 0.72,-0.56 0.36,-0.28 0.96,-0.68 0.6,-0.44 0.96,-0.72 0.8,-0.68 2.6,-1.36 1.84,-0.72 4,-0.72 3.64,0 4.72,2 0.44,0.76 0.44,2.56 0,3.28 -1.2,6.36 -0.88,2.08 -3.24,5.92 -2.32,3.8 -3.48,4.88 -0.44,0.44 -0.44,0.56 0,0.04 0.16,0.04 0.04,0 2,-0.36 1.96,-0.36 4.88,-0.72 2.96,-0.36 5.36,-0.36 z" />
      <path
         id="path14220"
         style=""
         d="m 185.19114,753.56047 q 0,-0.48 1.44,-1.96 1.44,-1.52 3.32,-2.84 1.88,-1.36 2.84,-1.36 1.4,0 3.04,2.12 1.64,2.08 1.64,5.64 0,5.08 -3.44,11.4 -1.4,2.6 -2.88,3.96 -1.44,1.32 -3.44,1.88 -0.92,0.24 -1.68,0.24 -2.84,0 -4.48,-3.56 -0.88,-1.8 -0.88,-2.68 0,-1.76 2.24,-6.92 2.28,-5.2 2.28,-5.92 z m 10.08,1.04 q 0,-4.12 -2.6,-4.12 -1.08,0 -2.12,0.68 -2.12,1.4 -4.6,6.8 -2.44,5.36 -2.44,8.72 0,1.44 0.92,2.48 0.96,1.04 2.28,1.04 0.88,0 1.6,-0.4 0.72,-0.44 1.96,-1.6 2.04,-1.96 2.04,-2.56 0,-0.32 0.72,-1.88 0.76,-1.56 1.48,-4.04 0.76,-2.52 0.76,-5.12 z" />
      <path
         id="path14222"
         style=""
         d="m 201.12926,745.20047 q 0,-1.84 1.2,-2.92 1.2,-1.12 2.72,-1.12 1.72,0 2.92,1.36 1.24,1.32 1.24,2.68 0,1.64 -1.84,2.88 -1.84,1.24 -3.04,1.24 -1.36,0 -2.28,-1.24 -0.92,-1.28 -0.92,-2.88 z m 2.72,-0.4 q 0,0.72 0.24,1.12 0.24,0.4 0.44,0.44 0.24,0.04 0.56,0.04 0.56,0 0.96,-0.24 0.44,-0.28 0.44,-0.68 0,-0.52 -0.84,-1.16 -0.8,-0.64 -1.28,-0.64 -0.52,0 -0.52,1.12 z" />
    </g>
    <g
       id="text26593"
       style="font-style:normal;font-variant:normal;font-weight:normal;font-stretch:normal;font-size:40px;line-height:125%;font-family:Purisa;-inkscape-font-specification:Purisa;letter-spacing:0px;word-spacing:0px;fill:#000000;fill-opacity:1;stroke:none;stroke-width:1px;stroke-linecap:butt;stroke-linejoin:miter;stroke-opacity:1">
      <path
         id="path14225"
         style=""
         d="m 101.74772,976.70275 q 0.04,0 0.24,-0.12 0.2,-0.16 0.52,-0.32 0.36,-0.16 0.76,-0.16 0.64,0 1.08,0.36 0.48,0.32 0.48,0.88 0,0.88 -1.32,1.68 -1.32,0.76 -5,2.16 -2.4,0.92 -3.44,0.92 -0.64,0 -1.72,-0.32 -1.16,-0.32 -1.6,-0.68 -0.44,-0.36 -0.44,-0.92 0,-0.6 0.32,-0.8 0.32,-0.2 1.24,-0.2 1.4,0 3.56,-0.92 l 2,-0.92 -0.36,-7.48 q -0.36,-7.48 -0.36,-11.84 l 0,-4.28 -1.16,0.32 q -1.96,0.56 -3.8,0.56 -2.32,0 -2.32,-0.88 0,-0.52 1.4,-1.12 1.4,-0.64 3.56,-1.32 2.2,-0.68 2.8,-0.92 0.44,-0.2 2.6,-0.2 2.76,0 3.52,0.28 0.28,0.12 0.52,0.52 0.24,0.4 0.24,0.76 0,0.72 -0.68,1.08 -0.68,0.32 -2.64,0.56 l -1.2,0.16 0.08,6.96 q 0.28,16.2 1.12,16.2 z" />
      <path
         id="path14227"
         style=""
         d="m 116.90335,971.98275 q -0.6,0 -2.56,-1.44 -1.96,-1.48 -1.96,-3 0,-1.44 2.04,-3.96 2.04,-2.56 4.92,-3.28 1.32,-0.36 3.48,-0.36 0.92,0 1.36,0.24 0.44,0.24 1.2,1.08 1.24,1.4 1.24,1.92 0,0.48 -0.52,0.48 -0.64,0 -1.08,-0.44 -0.44,-0.48 -1.08,-0.96 -0.64,-0.48 -1.72,-0.48 -1.4,0 -3,0.76 -1.6,0.76 -2.84,2.12 -1.76,1.88 -1.76,2.56 0,0.68 1.04,1.64 1.04,0.92 3.48,1.76 3.84,1.32 5.2,2.48 1.36,1.16 1.36,3.12 0,1.84 -0.64,3.36 -0.44,1.16 -1.88,2.6 -1.44,1.44 -2.84,1.44 -1.08,0 -2.8,-0.36 -1.72,-0.32 -2.6,-0.76 -0.72,-0.36 -1.32,-1.4 -0.6,-1.08 -0.6,-1.92 0,-0.44 0.2,-0.76 0.24,-0.36 0.56,-0.36 0.6,0 1.12,1.12 0.48,1 1.92,1.8 1.48,0.8 2.76,0.8 1.72,0 3.04,-2.04 1.32,-2.08 1.32,-3.24 0,-0.28 -0.16,-0.68 -0.12,-0.44 -0.68,-1.04 -0.56,-0.6 -1.44,-0.92 -0.84,-0.28 -1.96,-0.76 -1.12,-0.48 -1.88,-0.8 -0.72,-0.32 -0.92,-0.32 z" />
      <path
         id="path14229"
         style=""
         d="m 135.47085,963.42275 q 3.12,-2.92 5.24,-3.84 2.16,-0.96 5.44,-0.96 4.96,0 6.2,2.96 0.76,1.76 0.76,4.32 0,4.24 -1.88,8.6 -1.88,4.32 -4.64,6 -2.68,1.64 -5.64,1.64 -4.12,0 -6.6,-2.84 -1.72,-2 -2.24,-3.36 -0.52,-1.4 -0.52,-3.96 0,-4.84 3.88,-8.56 z m 6.44,16.44 q 3.36,0 6.08,-4.6 2.76,-4.64 2.76,-10.48 0,-0.88 -0.2,-1.32 -0.2,-0.44 -0.72,-0.88 -1.48,-1.24 -3.16,-1.24 -0.28,0 -0.64,0.08 -0.32,0.04 -1.08,0.16 -0.76,0.08 -1.8,0.2 -1.4,0.2 -2.24,0.64 -0.8,0.4 -2.04,1.56 -2.36,2.24 -3.36,4.16 -1,1.88 -1,4.12 0,3.32 2.04,5.44 2.08,2.12 5.36,2.16 z" />
      <path
         id="path14231"
         style=""
         d="m 161.12647,961.26275 q 0,-2.32 0.64,-2.32 0.52,0 1.12,3.64 0.64,3.64 0.88,3.64 0.08,0 0.28,-0.48 0.2,-0.52 0.44,-1.12 0.24,-0.64 0.4,-0.8 0.4,-0.52 1.08,-1.96 0.84,-1.72 1.28,-2.08 0.44,-0.4 1.56,-0.4 1.24,0 2.72,1.72 0.96,1.12 1.28,2.08 0.36,0.92 0.76,3.36 l 0.64,3.76 0.68,-2.4 q 1,-3.48 2.88,-6 1.88,-2.52 3.48,-2.52 1,0 1.84,1.16 0.84,1.12 1.2,2.88 0.36,1.64 0.36,7.24 0,4.2 -0.04,6.48 -0.04,2.28 -0.2,3.32 -0.12,1 -0.24,1.16 -0.12,0.2 -0.44,0.24 -0.12,0.04 -0.28,0.04 -0.36,0 -0.44,-1.12 -0.08,-1.12 -0.12,-6.28 0,-12.6 -1.92,-12.6 -1.04,0 -2.72,3.44 -1.4,2.84 -2.36,6.92 -0.96,4.08 -1.16,8.24 -0.04,1 -0.24,1.36 -0.16,0.36 -0.56,0.36 -0.48,0 -0.64,-0.84 -0.12,-0.8 -0.28,-4.32 -0.28,-6.48 -0.8,-9.08 -0.52,-2.64 -1.92,-4.76 -1.04,-1.48 -1.52,-1.48 -0.56,0 -1.24,1.4 -0.68,1.36 -2.24,5.24 -0.72,1.88 -0.72,3.44 0,0.92 -0.36,2.04 -0.32,1.08 -0.44,5.4 -0.08,4.04 -0.32,4.6 -0.16,0.48 -0.64,0.48 -0.64,0 -0.88,-1.92 -0.2,-1.92 -0.2,-7.68 0,-4.64 -0.32,-8.52 -0.28,-3.88 -0.28,-4.96 z" />
      <path
         id="path14233"
         style=""
         d="m 211.83647,972.78275 q 0.2,0 0.2,0.32 0,0.72 -1.08,2.32 -1.04,1.6 -2.24,2.64 -4.2,3.72 -8.4,3.72 -1.6,0 -3.2,-0.72 -1.56,-0.76 -2.92,-2.12 -1.36,-1.36 -2.2,-3.64 -0.84,-2.28 -0.84,-5.08 0,-1.72 0.4,-2.92 0.8,-2.44 3.4,-5.16 2.64,-2.72 4.96,-2.72 0.64,0 1.92,0.12 1.92,0.16 2.68,0.4 0.8,0.24 1.8,1 1.28,0.96 2.2,2.48 0.96,1.48 0.96,2.48 0,1.28 -1,1.96 -1,0.64 -3.88,1.28 -3.72,0.84 -7.36,1.04 l -3.72,0.2 0,1.6 q 0,2.96 2.76,5.6 2.08,2 4.32,2 1.72,0 3.64,-1.04 1.96,-1.08 3.32,-2.36 1.36,-1.28 2.6,-2.32 1.24,-1.08 1.68,-1.08 z m -6.44,-9.76 q -1.24,-1.12 -1.88,-1.4 -0.6,-0.32 -1.6,-0.32 -2,0 -3,0.4 -0.96,0.36 -1.96,1.52 -3.04,3.48 -3.04,4.64 0,0.52 0.96,0.52 3.64,0 10.32,-1.52 2,-0.48 2,-1.68 0,-0.56 -1.8,-2.16 z" />
      <path
         id="path14235"
         style=""
         d="m 223.16397,953.58275 q 0,-1.48 -0.28,-3.76 -0.28,-2.28 -0.28,-3.8 0,-0.76 0.04,-1 0.12,-0.64 0.44,-1 0.36,-0.4 0.72,-0.4 0.48,0 0.68,0.44 0.12,0.28 0.36,2.96 0.24,2.68 0.44,5.24 0.2,2.56 0.28,2.64 0.04,0.04 0.12,0.04 0.32,0 1.84,-0.32 1.56,-0.36 2.56,-0.36 2,0 2,0.88 0,0.88 -4.4,1.96 l -2,0.48 0.24,6.76 q 0.2,5.96 0.76,11.16 0.56,5.16 0.56,5.84 0,1.24 -0.92,1.24 -0.72,0 -1.2,-1.28 -0.44,-1.28 -0.44,-3.32 0,-1.48 -0.12,-3 -0.12,-1.56 -0.44,-4.8 -0.28,-3.28 -0.56,-6.72 -0.12,-1.84 -0.2,-2.84 -0.04,-1 -0.12,-1.48 -0.08,-0.48 -0.12,-0.56 -0.04,-0.12 -0.16,-0.12 -0.64,0 -3.08,0.44 -2.44,0.44 -3.04,0.44 -1.16,0 -1.16,-0.96 0,-0.68 1.44,-1.16 1.48,-0.48 3.32,-0.84 1.84,-0.4 2.28,-0.68 0.44,-0.32 0.44,-2.12 z" />
      <path
         id="path14237"
         style=""
         d="m 251.14522,961.94275 q 0.68,0 1.2,0.44 0.52,0.4 0.52,0.68 0,0.48 -1.52,1.08 -2.48,1 -5.08,4.84 -2.56,3.8 -3.12,7.36 -0.64,4.04 -1.04,5.28 -0.4,1.28 -1.04,1.28 -0.56,0 -0.88,-0.4 -0.28,-0.4 -0.4,-0.88 -0.08,-0.48 -0.2,-1.76 -0.04,-0.24 -0.04,-0.36 -0.96,-10.08 -0.96,-15.92 0,-2.08 0.16,-2.56 0.44,-1.28 1.12,-1.28 0.64,0 0.64,1.08 0,1.8 0.56,5.8 0.56,4 0.84,4 0.36,0 1.48,-2.2 1.4,-2.6 3.72,-4.52 2.36,-1.96 4.04,-1.96 z" />
      <path
         id="path14239"
         style=""
         d="m 260.16085,958.58275 q 0.56,-0.48 0.96,-0.48 0.84,0 1.2,2.68 0.4,2.64 0.72,10.2 0.16,3.52 0.16,6.36 0,2.84 -0.24,3.12 -0.48,0.6 -1.2,0.6 -1,0 -1.24,-0.84 -0.2,-0.52 -0.6,-8.08 -0.4,-7.6 -0.4,-10.56 0,-2.48 0.64,-3 z m -0.24,-9.4 q 0,-0.56 0.44,-1.12 0.48,-0.56 0.84,-0.56 0.4,0 1.08,0.56 0.72,0.52 0.72,1.36 0,0.6 -0.36,1.04 -0.32,0.4 -0.88,0.4 -0.64,0 -1.24,-0.48 -0.6,-0.48 -0.6,-1.2 z" />
      <path
         id="path14241"
         style=""
         d="m 286.8946,965.30275 q 0,0.68 -0.32,1.12 -0.28,0.44 -0.68,0.44 -0.76,0 -0.96,-1.16 -0.08,-0.92 -1.32,-2.32 -0.52,-0.56 -0.84,-0.8 -0.32,-0.24 -1.52,-0.52 -1.16,-0.28 -3.08,-0.28 -1.56,0 -2.4,0.56 -0.8,0.56 -2,2.28 -2.88,4.08 -2.88,7.36 0,1.68 0.36,2.84 0.36,1.12 0.68,1.52 0.36,0.36 1.16,1.16 1.16,1.12 1.76,1.44 0.64,0.28 1.76,0.28 3.48,0 7.6,-4.72 2.16,-2.4 3.12,-2.4 0.52,0 0.52,0.76 0,0.72 -1.92,3.08 -1.88,2.36 -3.24,3.32 -3.16,2.28 -5.64,2.28 -1.8,0 -3.96,-1.08 -2.2,-1.08 -3.2,-2.92 -0.96,-1.84 -1.16,-5.36 -0.12,-1.36 -0.12,-2.16 0,-1.56 1.08,-3.56 1.12,-2.16 3.24,-4.16 2.16,-2 3.72,-2.44 1.2,-0.28 2.6,-0.28 3.04,0 5.32,1.96 2.32,1.92 2.32,3.76 z" />
    </g>
    <path
       id="rect26597"
       d="m 441.4433,-125.437 199.92834,0 0,66.496708 -199.92834,0 z"
       style="fill:url(#linearGradient26683);fill-opacity:1;stroke:none;stroke-width:1;stroke-linecap:round;stroke-linejoin:round;stroke-miterlimit:4;stroke-dasharray:none;stroke-dashoffset:0;stroke-opacity:1"
       transform="matrix(0,1,-1,0,0,0)" />
    <path
       id="rect26599"
       d="m -41.059803,441.37177 100,0 0,200 -100,0 z"
       style="fill:url(#red);fill-opacity:1;stroke:none;stroke-width:1;stroke-linecap:round;stroke-linejoin:round;stroke-miterlimit:4;stroke-dasharray:none;stroke-dashoffset:0;stroke-opacity:1" />
    <path
       style="fill:none;fill-rule:evenodd;stroke:#000000;stroke-width:1;stroke-linecap:butt;stroke-linejoin:miter;stroke-miterlimit:4;stroke-dasharray:3, 1;stroke-dashoffset:0;stroke-opacity:1"
       d="M 726.98302,218.48147 -154.9785,838.51337"
       id="path26601" />
    <path
       id="path26603"
       d="m 172.457,299.90337 140.3827,209.9978"
       style="fill:none;fill-rule:evenodd;stroke:#000000;stroke-width:1px;stroke-linecap:butt;stroke-linejoin:miter;stroke-opacity:1" />
    <path
       id="rect26605"
       d="m -255.13501,637.89386 100,0 0,200 -100,0 z"
       style="fill:url(#red);fill-opacity:1;stroke:none;stroke-width:1;stroke-linecap:round;stroke-linejoin:round;stroke-miterlimit:4;stroke-dasharray:none;stroke-dashoffset:0;stroke-opacity:1" />
    <path
       id="rect26607"
       d="m 637.96552,255.13501 199.92834,0 0,66.4967 -199.92834,0 z"
       style="fill:url(#linearGradient26685);fill-opacity:1;stroke:none;stroke-width:1;stroke-linecap:round;stroke-linejoin:round;stroke-miterlimit:4;stroke-dasharray:none;stroke-dashoffset:0;stroke-opacity:1"
       transform="matrix(0,1,-1,0,0,0)" />
    <g
       id="flowRoot26609"
       style="font-style:normal;font-variant:normal;font-weight:normal;font-stretch:normal;font-size:40px;line-height:125%;font-family:Purisa;-inkscape-font-specification:Purisa;text-align:center;letter-spacing:0px;word-spacing:0px;text-anchor:middle;fill:#000000;fill-opacity:1;stroke:none;stroke-width:1px;stroke-linecap:butt;stroke-linejoin:miter;stroke-opacity:1"
       transform="translate(-1175.2747,-278.41243)">
      <path
         id="path14248"
         style=""
         d="m 817.33902,1125.7063 q -1.32,0 -2.76,0.32 -1.44,0.32 -1.88,0.32 -1,0 -1.72,-0.36 -0.68,-0.36 -0.68,-0.92 0,-0.68 0.88,-0.92 0.92,-0.28 4.8,-0.88 7.88,-1.2 15.08,-2.6 4.44,-0.84 5.76,-0.84 1.24,0 2.52,0.52 1.28,0.52 1.28,1.16 0,0.6 -1.04,1.04 -1.04,0.4 -2.76,0.4 -2.68,0 -5.72,0.72 l -3.08,0.72 0.6,3.36 q 0.44,3.12 1.04,11.96 0.64,8.8 0.76,9.84 0.12,1.04 0.12,1.56 0,1.24 -1.08,1.24 -1.04,0 -1.56,-2.6 -0.48,-2.6 -0.92,-10.2 -0.8,-12.96 -2.08,-14.32 -0.32,-0.32 -1.04,-0.32 -0.32,0 -2.76,0.4 -2.4,0.4 -3.76,0.4 z" />
      <path
         id="path14250"
         style=""
         d="m 845.58027,1147.0663 q 0,-3.2 -0.8,-12.88 -0.76,-9.72 -0.76,-13.4 0,-2.12 0.24,-2.56 0.48,-0.84 0.92,-0.84 0.72,0 0.92,1.4 0.24,1.4 0.64,7.08 0.32,4.56 0.56,7.64 l 0.36,4.72 0.72,-1.56 q 0.8,-1.8 3.92,-4.72 3.12,-2.92 4.2,-2.92 1,0 2.2,1.12 1.2,1.12 1.56,2.4 0.32,1.08 0.32,9.72 0,6.24 -0.12,7.4 -0.12,1.12 -0.76,1.12 -0.64,0 -0.84,-1.16 -0.16,-1.16 -0.32,-6.68 -0.24,-7.72 -0.96,-9.88 l -0.64,-2 -2.32,2.16 q -1.84,1.76 -3.4,4 -1.52,2.24 -2.08,3.96 -0.36,1.24 -0.6,3.96 -0.24,2.72 -0.6,4.48 -0.32,1.76 -0.96,1.76 -0.28,0 -0.68,-0.32 -0.72,-0.6 -0.72,-4 z" />
      <path
         id="path14252"
         style=""
         d="m 885.98465,1141.9063 q 0.2,0 0.2,0.32 0,0.72 -1.08,2.32 -1.04,1.6 -2.24,2.64 -4.2,3.72 -8.4,3.72 -1.6,0 -3.2,-0.72 -1.56,-0.76 -2.92,-2.12 -1.36,-1.36 -2.2,-3.64 -0.84,-2.28 -0.84,-5.08 0,-1.72 0.4,-2.92 0.8,-2.44 3.4,-5.16 2.64,-2.72 4.96,-2.72 0.64,0 1.92,0.12 1.92,0.16 2.68,0.4 0.8,0.24 1.8,1 1.28,0.96 2.2,2.48 0.96,1.48 0.96,2.48 0,1.28 -1,1.96 -1,0.64 -3.88,1.28 -3.72,0.84 -7.36,1.04 l -3.72,0.2 0,1.6 q 0,2.96 2.76,5.6 2.08,2 4.32,2 1.72,0 3.64,-1.04 1.96,-1.08 3.32,-2.36 1.36,-1.28 2.6,-2.32 1.24,-1.08 1.68,-1.08 z m -6.44,-9.76 q -1.24,-1.12 -1.88,-1.4 -0.6,-0.32 -1.6,-0.32 -2,0 -3,0.4 -0.96,0.36 -1.96,1.52 -3.04,3.48 -3.04,4.64 0,0.52 0.96,0.52 3.64,0 10.32,-1.52 2,-0.48 2,-1.68 0,-0.56 -1.8,-2.16 z" />
      <path
         id="path14254"
         style=""
         d="m 932.77152,1128.8263 q 0.56,0 1.28,0.36 0.76,0.32 1.6,1.04 0.84,0.68 1.4,2.12 0.56,1.4 0.56,3.28 0,2.8 -1.28,5.84 -1.24,3 -3.48,5.24 -1.68,1.68 -4.44,3.2 -2.72,1.52 -4.04,1.52 -1.32,0 -2.96,-0.92 -1.64,-0.92 -1.84,-1.72 -0.12,-0.44 -0.44,-8.08 -0.32,-7.68 -0.84,-10.88 -1.08,-6.8 -1.08,-10.88 0,-1.48 0.56,-2.04 0.6,-0.6 0.96,-0.6 0.6,0 0.8,1.48 0.24,1.48 0.48,4.88 0.24,3.4 0.64,5.96 0.52,3.36 0.72,5.52 l 0.2,2.2 3.12,-3.08 q 3.12,-3.12 5.24,-3.8 2.04,-0.64 2.84,-0.64 z m 2.52,7 q 0,-4.44 -2.64,-4.44 -0.72,0 -1.96,0.24 -0.84,0.16 -2.8,1.92 -1.96,1.72 -3.56,3.72 -1,1.28 -1.6,3.4 -0.56,2.12 -0.56,4.16 0,2.28 0.68,3.36 0.68,1.04 1.52,1.04 0.44,0 2,-0.48 1.76,-0.56 3.68,-2.24 1.96,-1.68 3.4,-3.88 1.84,-2.84 1.84,-6.8 z" />
      <path
         id="path14256"
         style=""
         d="m 954.4634,1130.5863 q -1.84,0 -3.92,0.76 -2.04,0.76 -3.64,1.56 -1.6,0.76 -2.32,0.76 -0.48,0 -0.48,-0.4 0,-0.56 0.24,-0.96 0.24,-0.4 0.88,-0.76 0.64,-0.36 1.2,-0.6 0.6,-0.24 1.88,-0.68 1.28,-0.48 2.2,-0.88 2.16,-0.84 3.64,-0.84 2.64,0 4.12,2.88 0.72,1.4 0.84,2.6 0.12,1.16 0.2,6.6 0.04,3.04 0.12,5.12 0.08,2.04 0.16,2.6 l 0.08,0.52 q 0,0.56 -0.52,1.2 -0.48,0.64 -0.72,0.64 -0.8,0 -1.24,-2.52 -0.44,-2.56 -0.48,-2.56 -0.12,0 -0.36,0.44 -0.8,1.32 -3.24,2.92 -2.4,1.56 -4.04,1.56 -1,0 -2.36,-0.36 -1.32,-0.4 -1.92,-0.84 -0.44,-0.36 -0.76,-1.44 -0.28,-1.08 -0.28,-2.2 0,-1.68 0.88,-2.88 0.92,-1.24 3.24,-2.52 2.52,-1.48 4.88,-1.48 0.96,0 1.6,0.32 0.64,0.32 0.96,0.68 0.32,0.32 0.52,0.32 0.2,0 0.76,0.44 0.6,0.4 0.64,0.4 0.16,0 0.16,-0.88 0,-5.36 -0.76,-7.44 -0.72,-2.08 -2.16,-2.08 z m 1.8,12.4 q 0,-0.16 -0.12,-0.36 -0.08,-0.24 -0.4,-0.52 -0.28,-0.32 -0.76,-0.56 -0.44,-0.28 -1.24,-0.44 -0.8,-0.2 -1.8,-0.2 -1.72,0 -3.04,0.6 -1.28,0.6 -1.92,1.52 -0.64,0.92 -0.96,1.72 -0.28,0.76 -0.28,1.36 0,1 0.16,1.36 0.2,0.36 0.92,0.76 0.88,0.44 1.6,0.44 1.36,0 3.36,-0.96 2.04,-1 2.04,-1.44 0,-0.32 1.2,-1.52 1.24,-1.24 1.24,-1.76 z" />
      <path
         id="path14258"
         style=""
         d="m 982.44902,1134.4263 q 0,0.68 -0.32,1.12 -0.28,0.44 -0.68,0.44 -0.76,0 -0.96,-1.16 -0.08,-0.92 -1.32,-2.32 -0.52,-0.56 -0.84,-0.8 -0.32,-0.24 -1.52,-0.52 -1.16,-0.28 -3.08,-0.28 -1.56,0 -2.4,0.56 -0.8,0.56 -2,2.28 -2.88,4.08 -2.88,7.36 0,1.68 0.36,2.84 0.36,1.12 0.68,1.52 0.36,0.36 1.16,1.16 1.16,1.12 1.76,1.44 0.64,0.28 1.76,0.28 3.48,0 7.6,-4.72 2.16,-2.4 3.12,-2.4 0.52,0 0.52,0.76 0,0.72 -1.92,3.08 -1.88,2.36 -3.24,3.32 -3.16,2.28 -5.64,2.28 -1.8,0 -3.96,-1.08 -2.2,-1.08 -3.2,-2.92 -0.96,-1.84 -1.16,-5.36 -0.12,-1.36 -0.12,-2.16 0,-1.56 1.08,-3.56 1.12,-2.16 3.24,-4.16 2.16,-2 3.72,-2.44 1.2,-0.28 2.6,-0.28 3.04,0 5.32,1.96 2.32,1.92 2.32,3.76 z" />
      <path
         id="path14260"
         style=""
         d="m 987.0234,1120.7063 q 0,-0.04 0,-0.24 0,-0.24 0,-0.36 0,-0.12 0,-0.36 0.04,-0.24 0.08,-0.36 0.08,-0.16 0.16,-0.28 0.12,-0.16 0.28,-0.24 0.16,-0.08 0.4,-0.08 0.76,0 1.12,0.92 0.24,0.56 0.52,3.44 0.32,2.88 0.64,6.48 0.36,3.6 0.6,5.12 l 0.32,2.32 4.56,-4.56 q 2.44,-2.44 3.44,-3.28 1,-0.88 1.48,-0.88 0.28,0 0.6,0.4 0.36,0.4 0.36,0.8 0,0.28 -0.16,0.48 -0.12,0.16 -0.36,0.32 -0.2,0.12 -0.68,0.64 -0.48,0.52 -1.04,1.28 -1.64,2.48 -6.32,6.24 -1.6,1.24 -1.6,2.08 0,0.56 0.72,0.92 l 4.28,2 q 2.96,1.4 4.92,2.8 1.96,1.4 1.96,2.16 0,0.84 -0.8,0.84 -0.72,0 -2.12,-0.96 -1.4,-1 -1.76,-1 -0.48,0 -0.48,-0.32 0,-0.44 -4.88,-2.24 l -2.12,-0.8 0.28,3.32 q 0.12,1.32 0.12,2.08 0,1.68 -0.84,1.68 -1.28,0 -1.64,-1.76 -0.32,-1.8 -0.6,-9.08 -0.24,-6.44 -0.6,-8.4 -0.32,-1.8 -0.6,-5.36 -0.24,-3.6 -0.24,-5.76 z" />
      <path
         id="path14262"
         style=""
         d="m 1046.104,1130.5863 q -1.84,0 -3.92,0.76 -2.04,0.76 -3.64,1.56 -1.6,0.76 -2.32,0.76 -0.48,0 -0.48,-0.4 0,-0.56 0.24,-0.96 0.24,-0.4 0.88,-0.76 0.64,-0.36 1.2,-0.6 0.6,-0.24 1.88,-0.68 1.28,-0.48 2.2,-0.88 2.16,-0.84 3.64,-0.84 2.64,0 4.12,2.88 0.72,1.4 0.84,2.6 0.12,1.16 0.2,6.6 0.04,3.04 0.12,5.12 0.08,2.04 0.16,2.6 l 0.08,0.52 q 0,0.56 -0.52,1.2 -0.48,0.64 -0.72,0.64 -0.8,0 -1.24,-2.52 -0.44,-2.56 -0.48,-2.56 -0.12,0 -0.36,0.44 -0.8,1.32 -3.24,2.92 -2.4,1.56 -4.04,1.56 -1,0 -2.36,-0.36 -1.32,-0.4 -1.92,-0.84 -0.44,-0.36 -0.76,-1.44 -0.28,-1.08 -0.28,-2.2 0,-1.68 0.88,-2.88 0.92,-1.24 3.24,-2.52 2.52,-1.48 4.88,-1.48 0.96,0 1.6,0.32 0.64,0.32 0.96,0.68 0.32,0.32 0.52,0.32 0.2,0 0.76,0.44 0.6,0.4 0.64,0.4 0.16,0 0.16,-0.88 0,-5.36 -0.76,-7.44 -0.72,-2.08 -2.16,-2.08 z m 1.8,12.4 q 0,-0.16 -0.12,-0.36 -0.08,-0.24 -0.4,-0.52 -0.28,-0.32 -0.76,-0.56 -0.44,-0.28 -1.24,-0.44 -0.8,-0.2 -1.8,-0.2 -1.72,0 -3.04,0.6 -1.28,0.6 -1.92,1.52 -0.64,0.92 -0.96,1.72 -0.28,0.76 -0.28,1.36 0,1 0.16,1.36 0.2,0.36 0.92,0.76 0.88,0.44 1.6,0.44 1.36,0 3.36,-0.96 2.04,-1 2.04,-1.44 0,-0.32 1.2,-1.52 1.24,-1.24 1.24,-1.76 z" />
      <path
         id="path14264"
         style=""
         d="m 1061.1296,1141.1063 q -0.6,0 -2.56,-1.44 -1.96,-1.48 -1.96,-3 0,-1.44 2.04,-3.96 2.04,-2.56 4.92,-3.28 1.32,-0.36 3.48,-0.36 0.92,0 1.36,0.24 0.44,0.24 1.2,1.08 1.24,1.4 1.24,1.92 0,0.48 -0.52,0.48 -0.64,0 -1.08,-0.44 -0.44,-0.48 -1.08,-0.96 -0.64,-0.48 -1.72,-0.48 -1.4,0 -3,0.76 -1.6,0.76 -2.84,2.12 -1.76,1.88 -1.76,2.56 0,0.68 1.04,1.64 1.04,0.92 3.48,1.76 3.84,1.32 5.2,2.48 1.36,1.16 1.36,3.12 0,1.84 -0.64,3.36 -0.44,1.16 -1.88,2.6 -1.44,1.44 -2.84,1.44 -1.08,0 -2.8,-0.36 -1.72,-0.32 -2.6,-0.76 -0.72,-0.36 -1.32,-1.4 -0.6,-1.08 -0.6,-1.92 0,-0.44 0.2,-0.76 0.24,-0.36 0.56,-0.36 0.6,0 1.12,1.12 0.48,1 1.92,1.8 1.48,0.8 2.76,0.8 1.72,0 3.04,-2.04 1.32,-2.08 1.32,-3.24 0,-0.28 -0.16,-0.68 -0.12,-0.44 -0.68,-1.04 -0.56,-0.6 -1.44,-0.92 -0.84,-0.28 -1.96,-0.76 -1.12,-0.48 -1.88,-0.8 -0.72,-0.32 -0.92,-0.32 z" />
      <path
         id="path14266"
         style=""
         d="m 789.17652,1191.1063 q -0.6,0 -2.56,-1.44 -1.96,-1.48 -1.96,-3 0,-1.44 2.04,-3.96 2.04,-2.56 4.92,-3.28 1.32,-0.36 3.48,-0.36 0.92,0 1.36,0.24 0.44,0.24 1.2,1.08 1.24,1.4 1.24,1.92 0,0.48 -0.52,0.48 -0.64,0 -1.08,-0.44 -0.44,-0.48 -1.08,-0.96 -0.64,-0.48 -1.72,-0.48 -1.4,0 -3,0.76 -1.6,0.76 -2.84,2.12 -1.76,1.88 -1.76,2.56 0,0.68 1.04,1.64 1.04,0.92 3.48,1.76 3.84,1.32 5.2,2.48 1.36,1.16 1.36,3.12 0,1.84 -0.64,3.36 -0.44,1.16 -1.88,2.6 -1.44,1.44 -2.84,1.44 -1.08,0 -2.8,-0.36 -1.72,-0.32 -2.6,-0.76 -0.72,-0.36 -1.32,-1.4 -0.6,-1.08 -0.6,-1.92 0,-0.44 0.2,-0.76 0.24,-0.36 0.56,-0.36 0.6,0 1.12,1.12 0.48,1 1.92,1.8 1.48,0.8 2.76,0.8 1.72,0 3.04,-2.04 1.32,-2.08 1.32,-3.24 0,-0.28 -0.16,-0.68 -0.12,-0.44 -0.68,-1.04 -0.56,-0.6 -1.44,-0.92 -0.84,-0.28 -1.96,-0.76 -1.12,-0.48 -1.88,-0.8 -0.72,-0.32 -0.92,-0.32 z" />
      <path
         id="path14268"
         style=""
         d="m 824.34402,1191.9063 q 0.2,0 0.2,0.32 0,0.72 -1.08,2.32 -1.04,1.6 -2.24,2.64 -4.2,3.72 -8.4,3.72 -1.6,0 -3.2,-0.72 -1.56,-0.76 -2.92,-2.12 -1.36,-1.36 -2.2,-3.64 -0.84,-2.28 -0.84,-5.08 0,-1.72 0.4,-2.92 0.8,-2.44 3.4,-5.16 2.64,-2.72 4.96,-2.72 0.64,0 1.92,0.12 1.92,0.16 2.68,0.4 0.8,0.24 1.8,1 1.28,0.96 2.2,2.48 0.96,1.48 0.96,2.48 0,1.28 -1,1.96 -1,0.64 -3.88,1.28 -3.72,0.84 -7.36,1.04 l -3.72,0.2 0,1.6 q 0,2.96 2.76,5.6 2.08,2 4.32,2 1.72,0 3.64,-1.04 1.96,-1.08 3.32,-2.36 1.36,-1.28 2.6,-2.32 1.24,-1.08 1.68,-1.08 z m -6.44,-9.76 q -1.24,-1.12 -1.88,-1.4 -0.6,-0.32 -1.6,-0.32 -2,0 -3,0.4 -0.96,0.36 -1.96,1.52 -3.04,3.48 -3.04,4.64 0,0.52 0.96,0.52 3.64,0 10.32,-1.52 2,-0.48 2,-1.68 0,-0.56 -1.8,-2.16 z" />
      <path
         id="path14270"
         style=""
         d="m 849.03152,1191.9063 q 0.2,0 0.2,0.32 0,0.72 -1.08,2.32 -1.04,1.6 -2.24,2.64 -4.2,3.72 -8.4,3.72 -1.6,0 -3.2,-0.72 -1.56,-0.76 -2.92,-2.12 -1.36,-1.36 -2.2,-3.64 -0.84,-2.28 -0.84,-5.08 0,-1.72 0.4,-2.92 0.8,-2.44 3.4,-5.16 2.64,-2.72 4.96,-2.72 0.64,0 1.92,0.12 1.92,0.16 2.68,0.4 0.8,0.24 1.8,1 1.28,0.96 2.2,2.48 0.96,1.48 0.96,2.48 0,1.28 -1,1.96 -1,0.64 -3.88,1.28 -3.72,0.84 -7.36,1.04 l -3.72,0.2 0,1.6 q 0,2.96 2.76,5.6 2.08,2 4.32,2 1.72,0 3.64,-1.04 1.96,-1.08 3.32,-2.36 1.36,-1.28 2.6,-2.32 1.24,-1.08 1.68,-1.08 z m -6.44,-9.76 q -1.24,-1.12 -1.88,-1.4 -0.6,-0.32 -1.6,-0.32 -2,0 -3,0.4 -0.96,0.36 -1.96,1.52 -3.04,3.48 -3.04,4.64 0,0.52 0.96,0.52 3.64,0 10.32,-1.52 2,-0.48 2,-1.68 0,-0.56 -1.8,-2.16 z" />
      <path
         id="path14272"
         style=""
         d="m 856.03902,1178.8663 q 0,-1.36 0.8,-1.36 0.52,0 0.76,1.2 0.24,1.16 0.88,6.96 0.8,6.48 0.84,6.56 0.04,0.04 0.32,-0.76 0.32,-0.84 0.84,-2.48 0.8,-2.64 1.36,-3.8 0.56,-1.2 2,-3.28 2.92,-4.04 4.52,-4.04 1.04,0 1.96,1.4 1.24,1.84 1.52,3.64 0.28,1.8 0.4,8.52 0.08,4.32 0.08,5.12 0,2 -0.16,2.92 -0.12,0.88 -0.4,1.08 -0.24,0.24 -0.88,0.28 -0.36,0 -0.48,-0.32 -0.12,-0.28 -0.12,-1.36 0,-0.6 0.08,-2.56 0.08,-2 0.08,-3.36 0,-3.4 -0.28,-6.64 -0.24,-3.28 -0.6,-4.2 -0.2,-0.52 -0.64,-1.08 -0.44,-0.56 -0.84,-0.56 -0.84,0 -2.68,2.88 -1.84,2.84 -3.16,6 -1.24,2.88 -1.68,4.44 -0.4,1.52 -0.68,4.16 -0.44,4.08 -0.64,4.08 -0.32,0 -0.92,-0.68 -0.44,-0.44 -0.6,-1.88 -0.16,-1.48 -0.44,-5.8 -0.28,-4.36 -0.76,-8.8 -0.48,-4.6 -0.48,-6.28 z" />
      <path
         id="path14274"
         style=""
         d="m 910.54402,1182.5063 q -0.48,0 -2.04,0.44 -1.52,0.4 -2.44,0.4 -1.76,0 -1.76,-1.12 0,-0.44 0.64,-0.8 0.68,-0.36 2.6,-0.92 l 3.24,-0.96 0.08,-3.48 q 0.08,-3.72 0.56,-8.2 0.36,-3.32 0.64,-4.2 0.28,-0.88 1.24,-1.84 0.8,-0.8 1.28,-1.04 0.52,-0.24 1.44,-0.24 0.68,0 2.88,0.2 1.68,0.16 2.4,0.48 0.72,0.28 1.64,1.2 1.36,1.36 1.36,2.48 0,0.8 -0.64,1.68 -0.6,0.84 -0.92,0.84 -0.48,0 -0.48,-1.36 0,-1.28 -0.72,-1.96 -0.68,-0.72 -2.68,-1.36 -1.32,-0.4 -2.04,-0.4 -1.72,0 -2.68,2 -0.36,0.8 -0.68,4.6 -0.28,3.76 -0.28,6.92 0,2.28 0.16,2.88 0.2,0.56 1,0.56 0.48,0 2,-0.28 1.52,-0.28 2.52,-0.28 0.56,0 0.92,0.2 0.36,0.16 0.36,0.4 0,0.68 -3.44,1.72 l -3.44,1 -0.12,6.36 q 0,0.48 -0.04,1.32 0,0.8 0,1.12 0,3 0.28,4.64 0.28,1.64 0.56,2.36 0.28,0.72 0.28,1.56 0,1.2 -1.12,1.2 -2.12,0 -2.12,-11.16 0,-6.68 -0.24,-6.92 -0.04,-0.04 -0.2,-0.04 z" />
      <path
         id="path14276"
         style=""
         d="m 943.1059,1181.0663 q 0.68,0 1.2,0.44 0.52,0.4 0.52,0.68 0,0.48 -1.52,1.08 -2.48,1 -5.08,4.84 -2.56,3.8 -3.12,7.36 -0.64,4.04 -1.04,5.28 -0.4,1.28 -1.04,1.28 -0.56,0 -0.88,-0.4 -0.28,-0.4 -0.4,-0.88 -0.08,-0.48 -0.2,-1.76 -0.04,-0.24 -0.04,-0.36 -0.96,-10.08 -0.96,-15.92 0,-2.08 0.16,-2.56 0.44,-1.28 1.12,-1.28 0.64,0 0.64,1.08 0,1.8 0.56,5.8 0.56,4 0.84,4 0.36,0 1.48,-2.2 1.4,-2.6 3.72,-4.52 2.36,-1.96 4.04,-1.96 z" />
      <path
         id="path14278"
         style=""
         d="m 953.68152,1182.5463 q 3.12,-2.92 5.24,-3.84 2.16,-0.96 5.44,-0.96 4.96,0 6.2,2.96 0.76,1.76 0.76,4.32 0,4.24 -1.88,8.6 -1.88,4.32 -4.64,6 -2.68,1.64 -5.64,1.64 -4.12,0 -6.6,-2.84 -1.72,-2 -2.24,-3.36 -0.52,-1.4 -0.52,-3.96 0,-4.84 3.88,-8.56 z m 6.44,16.44 q 3.36,0 6.08,-4.6 2.76,-4.64 2.76,-10.48 0,-0.88 -0.2,-1.32 -0.2,-0.44 -0.72,-0.88 -1.48,-1.24 -3.16,-1.24 -0.28,0 -0.64,0.08 -0.32,0.04 -1.08,0.16 -0.76,0.08 -1.8,0.2 -1.4,0.2 -2.24,0.64 -0.8,0.4 -2.04,1.56 -2.36,2.24 -3.36,4.16 -1,1.88 -1,4.12 0,3.32 2.04,5.44 2.08,2.12 5.36,2.16 z" />
      <path
         id="path14280"
         style=""
         d="m 979.33715,1180.3863 q 0,-2.32 0.64,-2.32 0.52,0 1.12,3.64 0.64,3.64 0.88,3.64 0.08,0 0.28,-0.48 0.2,-0.52 0.44,-1.12 0.24,-0.64 0.4,-0.8 0.4,-0.52 1.08,-1.96 0.84,-1.72 1.28,-2.08 0.44,-0.4 1.56,-0.4 1.24,0 2.72,1.72 0.96,1.12 1.28,2.08 0.36,0.92 0.76,3.36 l 0.64,3.76 0.68,-2.4 q 1,-3.48 2.88,-6 1.88,-2.52 3.48,-2.52 0.99995,0 1.83995,1.16 0.84,1.12 1.2,2.88 0.36,1.64 0.36,7.24 0,4.2 -0.04,6.48 -0.04,2.28 -0.2,3.32 -0.12,1 -0.24,1.16 -0.12,0.2 -0.44,0.24 -0.12,0.04 -0.28,0.04 -0.36,0 -0.44,-1.12 -0.08,-1.12 -0.12,-6.28 0,-12.6 -1.91995,-12.6 -1.04,0 -2.72,3.44 -1.4,2.84 -2.36,6.92 -0.96,4.08 -1.16,8.24 -0.04,1 -0.24,1.36 -0.16,0.36 -0.56,0.36 -0.48,0 -0.64,-0.84 -0.12,-0.8 -0.28,-4.32 -0.28,-6.48 -0.8,-9.08 -0.52,-2.64 -1.92,-4.76 -1.04,-1.48 -1.52,-1.48 -0.56,0 -1.24,1.4 -0.68,1.36 -2.24,5.24 -0.72,1.88 -0.72,3.44 0,0.92 -0.36,2.04 -0.32,1.08 -0.44,5.4 -0.08,4.04 -0.32,4.6 -0.16,0.48 -0.64,0.48 -0.64,0 -0.88,-1.92 -0.2,-1.92 -0.2,-7.68 0,-4.64 -0.32,-8.52 -0.28,-3.88 -0.28,-4.96 z" />
      <path
         id="path14282"
         style=""
         d="m 1042.5465,1172.7063 q 0,-1.48 -0.28,-3.76 -0.28,-2.28 -0.28,-3.8 0,-0.76 0.04,-1 0.12,-0.64 0.44,-1 0.36,-0.4 0.72,-0.4 0.48,0 0.68,0.44 0.12,0.28 0.36,2.96 0.24,2.68 0.44,5.24 0.2,2.56 0.28,2.64 0.04,0.04 0.12,0.04 0.32,0 1.84,-0.32 1.56,-0.36 2.56,-0.36 2,0 2,0.88 0,0.88 -4.4,1.96 l -2,0.48 0.24,6.76 q 0.2,5.96 0.76,11.16 0.56,5.16 0.56,5.84 0,1.24 -0.92,1.24 -0.72,0 -1.2,-1.28 -0.44,-1.28 -0.44,-3.32 0,-1.48 -0.12,-3 -0.12,-1.56 -0.44,-4.8 -0.28,-3.28 -0.56,-6.72 -0.12,-1.84 -0.2,-2.84 -0.04,-1 -0.12,-1.48 -0.08,-0.48 -0.12,-0.56 -0.04,-0.12 -0.16,-0.12 -0.64,0 -3.08,0.44 -2.44,0.44 -3.04,0.44 -1.16,0 -1.16,-0.96 0,-0.68 1.44,-1.16 1.48,-0.48 3.32,-0.84 1.84,-0.4 2.28,-0.68 0.44,-0.32 0.44,-2.12 z" />
      <path
         id="path14284"
         style=""
         d="m 1057.7678,1197.0663 q 0,-3.2 -0.8,-12.88 -0.76,-9.72 -0.76,-13.4 0,-2.12 0.24,-2.56 0.48,-0.84 0.92,-0.84 0.72,0 0.92,1.4 0.24,1.4 0.64,7.08 0.32,4.56 0.56,7.64 l 0.36,4.72 0.72,-1.56 q 0.8,-1.8 3.92,-4.72 3.12,-2.92 4.2,-2.92 1,0 2.2,1.12 1.2,1.12 1.56,2.4 0.32,1.08 0.32,9.72 0,6.24 -0.12,7.4 -0.12,1.12 -0.76,1.12 -0.64,0 -0.84,-1.16 -0.16,-1.16 -0.32,-6.68 -0.24,-7.72 -0.96,-9.88 l -0.64,-2 -2.32,2.16 q -1.84,1.76 -3.4,4 -1.52,2.24 -2.08,3.96 -0.36,1.24 -0.6,3.96 -0.24,2.72 -0.6,4.48 -0.32,1.76 -0.96,1.76 -0.28,0 -0.68,-0.32 -0.72,-0.6 -0.72,-4 z" />
      <path
         id="path14286"
         style=""
         d="m 1098.1721,1191.9063 q 0.2,0 0.2,0.32 0,0.72 -1.08,2.32 -1.04,1.6 -2.24,2.64 -4.2,3.72 -8.4,3.72 -1.6,0 -3.2,-0.72 -1.56,-0.76 -2.92,-2.12 -1.36,-1.36 -2.2,-3.64 -0.84,-2.28 -0.84,-5.08 0,-1.72 0.4,-2.92 0.8,-2.44 3.4,-5.16 2.64,-2.72 4.96,-2.72 0.64,0 1.92,0.12 1.92,0.16 2.68,0.4 0.8,0.24 1.8,1 1.28,0.96 2.2,2.48 0.96,1.48 0.96,2.48 0,1.28 -1,1.96 -1,0.64 -3.88,1.28 -3.72,0.84 -7.36,1.04 l -3.72,0.2 0,1.6 q 0,2.96 2.76,5.6 2.08,2 4.32,2 1.72,0 3.64,-1.04 1.96,-1.08 3.32,-2.36 1.36,-1.28 2.6,-2.32 1.24,-1.08 1.68,-1.08 z m -6.44,-9.76 q -1.24,-1.12 -1.88,-1.4 -0.6,-0.32 -1.6,-0.32 -2,0 -3,0.4 -0.96,0.36 -1.96,1.52 -3.04,3.48 -3.04,4.64 0,0.52 0.96,0.52 3.64,0 10.32,-1.52 2,-0.48 2,-1.68 0,-0.56 -1.8,-2.16 z" />
      <path
         id="path14288"
         style=""
         d="m 891.20809,1232.5063 q -0.48,0 -2.04,0.44 -1.52,0.4 -2.44,0.4 -1.76,0 -1.76,-1.12 0,-0.44 0.64,-0.8 0.68,-0.36 2.6,-0.92 l 3.24,-0.96 0.08,-3.48 q 0.08,-3.72 0.56,-8.2 0.36,-3.32 0.64,-4.2 0.28,-0.88 1.24,-1.84 0.8,-0.8 1.28,-1.04 0.52,-0.24 1.44,-0.24 0.68,0 2.88,0.2 1.68,0.16 2.4,0.48 0.72,0.28 1.64,1.2 1.36,1.36 1.36,2.48 0,0.8 -0.64,1.68 -0.6,0.84 -0.92,0.84 -0.48,0 -0.48,-1.36 0,-1.28 -0.72,-1.96 -0.68,-0.72 -2.68,-1.36 -1.32,-0.4 -2.04,-0.4 -1.72,0 -2.68,2 -0.36,0.8 -0.68,4.6 -0.28,3.76 -0.28,6.92 0,2.28 0.16,2.88 0.2,0.56 1,0.56 0.48,0 2,-0.28 1.52,-0.28 2.52,-0.28 0.56,0 0.92,0.2 0.36,0.16 0.36,0.4 0,0.68 -3.44,1.72 l -3.44,1 -0.12,6.36 q 0,0.48 -0.04,1.32 0,0.8 0,1.12 0,3 0.28,4.64 0.28,1.64 0.56,2.36 0.28,0.72 0.28,1.56 0,1.2 -1.12,1.2 -2.12,0 -2.12,-11.16 0,-6.68 -0.24,-6.92 -0.04,-0.04 -0.2,-0.04 z" />
      <path
         id="path14290"
         style=""
         d="m 923.76996,1231.0663 q 0.68,0 1.2,0.44 0.52,0.4 0.52,0.68 0,0.48 -1.52,1.08 -2.48,1 -5.08,4.84 -2.56,3.8 -3.12,7.36 -0.64,4.04 -1.04,5.28 -0.4,1.28 -1.04,1.28 -0.56,0 -0.88,-0.4 -0.28,-0.4 -0.4,-0.88 -0.08,-0.48 -0.2,-1.76 -0.04,-0.24 -0.04,-0.36 -0.96,-10.08 -0.96,-15.92 0,-2.08 0.16,-2.56 0.44,-1.28 1.12,-1.28 0.64,0 0.64,1.08 0,1.8 0.56,5.8 0.56,4 0.84,4 0.36,0 1.48,-2.2 1.4,-2.6 3.72,-4.52 2.36,-1.96 4.04,-1.96 z" />
      <path
         id="path14292"
         style=""
         d="m 934.34559,1232.5463 q 3.12,-2.92 5.24,-3.84 2.16,-0.96 5.44,-0.96 4.96,0 6.2,2.96 0.76,1.76 0.76,4.32 0,4.24 -1.88,8.6 -1.88,4.32 -4.64,6 -2.68,1.64 -5.64,1.64 -4.12,0 -6.6,-2.84 -1.72,-2 -2.24,-3.36 -0.52,-1.4 -0.52,-3.96 0,-4.84 3.88,-8.56 z m 6.44,16.44 q 3.36,0 6.08,-4.6 2.76,-4.64 2.76,-10.48 0,-0.88 -0.2,-1.32 -0.2,-0.44 -0.72,-0.88 -1.48,-1.24 -3.16,-1.24 -0.28,0 -0.64,0.08 -0.32,0.04 -1.08,0.16 -0.76,0.08 -1.8,0.2 -1.4,0.2 -2.24,0.64 -0.8,0.4 -2.04,1.56 -2.36,2.24 -3.36,4.16 -1,1.88 -1,4.12 0,3.32 2.04,5.44 2.08,2.12 5.36,2.16 z" />
      <path
         id="path14294"
         style=""
         d="m 959.28121,1228.8663 q 0,-1.36 0.8,-1.36 0.52,0 0.76,1.2 0.24,1.16 0.88,6.96 0.8,6.48 0.84,6.56 0.04,0.04 0.32,-0.76 0.32,-0.84 0.84,-2.48 0.8,-2.64 1.36,-3.8 0.56,-1.2 2,-3.28 2.92,-4.04 4.52,-4.04 1.04,0 1.96,1.4 1.24,1.84 1.52,3.64 0.28,1.8 0.4,8.52 0.08,4.32 0.08,5.12 0,2 -0.16,2.92 -0.12,0.88 -0.4,1.08 -0.24,0.24 -0.88,0.28 -0.36,0 -0.48,-0.32 -0.12,-0.28 -0.12,-1.36 0,-0.6 0.08,-2.56 0.08,-2 0.08,-3.36 0,-3.4 -0.28,-6.64 -0.24,-3.28 -0.6,-4.2 -0.2,-0.52 -0.64,-1.08 -0.44,-0.56 -0.84,-0.56 -0.84,0 -2.68,2.88 -1.84,2.84 -3.16,6 -1.24,2.88 -1.68,4.44 -0.4,1.52 -0.68,4.16 -0.44,4.08 -0.64,4.08 -0.32,0 -0.92,-0.68 -0.44,-0.44 -0.6,-1.88 -0.16,-1.48 -0.44,-5.8 -0.28,-4.36 -0.76,-8.8 -0.48,-4.6 -0.48,-6.28 z" />
      <path
         id="path14296"
         style=""
         d="m 988.36684,1222.7063 q 0,-1.48 -0.28,-3.76 -0.28,-2.28 -0.28,-3.8 0,-0.76 0.04,-1 0.12,-0.64 0.44,-1 0.36,-0.4 0.72,-0.4 0.48,0 0.68,0.44 0.12,0.28 0.36,2.96 0.24,2.68 0.44,5.24 0.2,2.56 0.28,2.64 0.04,0.04 0.12,0.04 0.32,0 1.84,-0.32 1.56,-0.36 2.56,-0.36 2,0 2,0.88 0,0.88 -4.4,1.96 l -2,0.48 0.24,6.76 q 0.2,5.96 0.76,11.16 0.56,5.16 0.56,5.84 0,1.24 -0.92,1.24 -0.72,0 -1.2,-1.28 -0.44,-1.28 -0.44,-3.32 0,-1.48 -0.12,-3 -0.12,-1.56 -0.44,-4.8 -0.28,-3.28 -0.56,-6.72 -0.12,-1.84 -0.2,-2.84 -0.04,-1 -0.12,-1.48 -0.08,-0.48 -0.12,-0.56 -0.04,-0.12 -0.16,-0.12 -0.64,0 -3.08,0.44 -2.44,0.44 -3.04,0.44 -1.16,0 -1.16,-0.96 0,-0.68 1.44,-1.16 1.48,-0.48 3.32,-0.84 1.84,-0.4 2.28,-0.68 0.44,-0.32 0.44,-2.12 z" />
    </g>
    <g
       id="flowRoot26617"
       style="font-style:normal;font-variant:normal;font-weight:normal;font-stretch:normal;font-size:40px;line-height:125%;font-family:Purisa;-inkscape-font-specification:Purisa;letter-spacing:0px;word-spacing:0px;fill:#000000;fill-opacity:1;stroke:none;stroke-width:1px;stroke-linecap:butt;stroke-linejoin:miter;stroke-opacity:1"
       transform="translate(-992.8597,-283.17463)">
      <path
         id="path14299"
         style=""
         d="m 948.84,939.70626 q -1.32,0 -2.76,0.32 -1.44,0.32 -1.88,0.32 -1,0 -1.72,-0.36 -0.68,-0.36 -0.68,-0.92 0,-0.68 0.88,-0.92 0.92,-0.28 4.8,-0.88 7.88,-1.2 15.08,-2.6 4.44,-0.84 5.76,-0.84 1.24,0 2.52,0.52 1.28,0.52 1.28,1.16 0,0.6 -1.04,1.04 -1.04,0.4 -2.76,0.4 -2.68,0 -5.72,0.72 l -3.08,0.72 0.6,3.36 q 0.44,3.12 1.04,11.96 0.64,8.8 0.76,9.84 0.12,1.04 0.12,1.56 0,1.24 -1.08,1.24 -1.04,0 -1.56,-2.6 -0.48,-2.6 -0.92,-10.2 -0.8,-12.96 -2.08,-14.32 -0.32,-0.32 -1.04,-0.32 -0.32,0 -2.76,0.4 -2.4,0.4 -3.76,0.4 z" />
      <path
         id="path14301"
         style=""
         d="m 977.08125,961.06626 q 0,-3.2 -0.8,-12.88 -0.76,-9.72 -0.76,-13.4 0,-2.12 0.24,-2.56 0.48,-0.84 0.92,-0.84 0.72,0 0.92,1.4 0.24,1.4 0.64,7.08 0.32,4.56 0.56,7.64 l 0.36,4.72 0.72,-1.56 q 0.8,-1.8 3.92,-4.72 3.12,-2.92 4.2,-2.92 1,0 2.2,1.12 1.2,1.12 1.56,2.4 0.32,1.08 0.32,9.72 0,6.24 -0.12,7.4 -0.12,1.12 -0.76,1.12 -0.64,0 -0.84,-1.16 -0.16,-1.16 -0.32,-6.68 -0.24,-7.72 -0.96,-9.88 l -0.64,-2 -2.32,2.16 q -1.84,1.76 -3.4,4 -1.52,2.24 -2.08,3.96 -0.36,1.24 -0.6,3.96 -0.24,2.72 -0.6,4.48 -0.32,1.76 -0.96,1.76 -0.28,0 -0.68,-0.32 -0.72,-0.6 -0.72,-4 z" />
      <path
         id="path14303"
         style=""
         d="m 1017.4856,955.90626 q 0.2,0 0.2,0.32 0,0.72 -1.08,2.32 -1.04,1.6 -2.24,2.64 -4.2,3.72 -8.4,3.72 -1.6,0 -3.2,-0.72 -1.56,-0.76 -2.91997,-2.12 -1.36,-1.36 -2.20001,-3.64 -0.84,-2.28 -0.84,-5.08 0,-1.72 0.40001,-2.92 0.79999,-2.44 3.39997,-5.16 2.64,-2.72 4.96,-2.72 0.64,0 1.92,0.12 1.92,0.16 2.68,0.4 0.8,0.24 1.8,1 1.28,0.96 2.2,2.48 0.96,1.48 0.96,2.48 0,1.28 -1,1.96 -1,0.64 -3.88,1.28 -3.72,0.84 -7.36,1.04 l -3.71998,0.2 0,1.6 q 0,2.96 2.75998,5.6 2.08,2 4.32,2 1.72,0 3.64,-1.04 1.96,-1.08 3.32,-2.36 1.36,-1.28 2.6,-2.32 1.24,-1.08 1.68,-1.08 z m -6.44,-9.76 q -1.24,-1.12 -1.88,-1.4 -0.6,-0.32 -1.6,-0.32 -2,0 -3,0.4 -0.96,0.36 -1.96,1.52 -3.03998,3.48 -3.03998,4.64 0,0.52 0.95998,0.52 3.64,0 10.32,-1.52 2,-0.48 2,-1.68 0,-0.56 -1.8,-2.16 z" />
      <path
         id="path14305"
         style=""
         d="m 1054.2325,946.50626 q -0.48,0 -2.04,0.44 -1.52,0.4 -2.44,0.4 -1.76,0 -1.76,-1.12 0,-0.44 0.64,-0.8 0.68,-0.36 2.6,-0.92 l 3.24,-0.96 0.08,-3.48 q 0.08,-3.72 0.56,-8.2 0.36,-3.32 0.64,-4.2 0.28,-0.88 1.24,-1.84 0.8,-0.8 1.28,-1.04 0.52,-0.24 1.44,-0.24 0.68,0 2.88,0.2 1.68,0.16 2.4,0.48 0.72,0.28 1.64,1.2 1.36,1.36 1.36,2.48 0,0.8 -0.64,1.68 -0.6,0.84 -0.92,0.84 -0.48,0 -0.48,-1.36 0,-1.28 -0.72,-1.96 -0.68,-0.72 -2.68,-1.36 -1.32,-0.4 -2.04,-0.4 -1.72,0 -2.68,2 -0.36,0.8 -0.68,4.6 -0.28,3.76 -0.28,6.92 0,2.28 0.16,2.88 0.2,0.56 1,0.56 0.48,0 2,-0.28 1.52,-0.28 2.52,-0.28 0.56,0 0.92,0.2 0.36,0.16 0.36,0.4 0,0.68 -3.44,1.72 l -3.44,1 -0.12,6.36 q 0,0.48 -0.04,1.32 0,0.8 0,1.12 0,3 0.28,4.64 0.28,1.64 0.56,2.36 0.28,0.72 0.28,1.56 0,1.2 -1.12,1.2 -2.12,0 -2.12,-11.16 0,-6.68 -0.24,-6.92 -0.04,-0.04 -0.2,-0.04 z" />
      <path
         id="path14307"
         style=""
         d="m 1086.7944,945.06626 q 0.68,0 1.2,0.44 0.52,0.4 0.52,0.68 0,0.48 -1.52,1.08 -2.48,1 -5.08,4.84 -2.56,3.8 -3.12,7.36 -0.64,4.04 -1.04,5.28 -0.4,1.28 -1.04,1.28 -0.56,0 -0.88,-0.4 -0.28,-0.4 -0.4,-0.88 -0.08,-0.48 -0.2,-1.76 -0.04,-0.24 -0.04,-0.36 -0.96,-10.08 -0.96,-15.92 0,-2.08 0.16,-2.56 0.44,-1.28 1.12,-1.28 0.64,0 0.64,1.08 0,1.8 0.56,5.8 0.56,4 0.84,4 0.36,0 1.48,-2.2 1.4,-2.6 3.72,-4.52 2.36,-1.96 4.04,-1.96 z" />
      <path
         id="path14309"
         style=""
         d="m 1097.37,946.54626 q 3.12,-2.92 5.24,-3.84 2.16,-0.96 5.44,-0.96 4.96,0 6.2,2.96 0.76,1.76 0.76,4.32 0,4.24 -1.88,8.6 -1.88,4.32 -4.64,6 -2.68,1.64 -5.64,1.64 -4.12,0 -6.6,-2.84 -1.72,-2 -2.24,-3.36 -0.52,-1.4 -0.52,-3.96 0,-4.84 3.88,-8.56 z m 6.44,16.44 q 3.36,0 6.08,-4.6 2.76,-4.64 2.76,-10.48 0,-0.88 -0.2,-1.32 -0.2,-0.44 -0.72,-0.88 -1.48,-1.24 -3.16,-1.24 -0.28,0 -0.64,0.08 -0.32,0.04 -1.08,0.16 -0.76,0.08 -1.8,0.2 -1.4,0.2 -2.24,0.64 -0.8,0.4 -2.04,1.56 -2.36,2.24 -3.36,4.16 -1,1.88 -1,4.12 0,3.32 2.04,5.44 2.08,2.12 5.36,2.16 z" />
      <path
         id="path14311"
         style=""
         d="m 1122.3056,942.86626 q 0,-1.36 0.8,-1.36 0.52,0 0.76,1.2 0.24,1.16 0.88,6.96 0.8,6.48 0.84,6.56 0.04,0.04 0.32,-0.76 0.32,-0.84 0.84,-2.48 0.8,-2.64 1.36,-3.8 0.56,-1.2 2,-3.28 2.92,-4.04 4.52,-4.04 1.04,0 1.96,1.4 1.24,1.84 1.52,3.64 0.28,1.8 0.4,8.52 0.08,4.32 0.08,5.12 0,2 -0.16,2.92 -0.12,0.88 -0.4,1.08 -0.24,0.24 -0.88,0.28 -0.36,0 -0.48,-0.32 -0.12,-0.28 -0.12,-1.36 0,-0.6 0.08,-2.56 0.08,-2 0.08,-3.36 0,-3.4 -0.28,-6.64 -0.24,-3.28 -0.6,-4.2 -0.2,-0.52 -0.64,-1.08 -0.44,-0.56 -0.84,-0.56 -0.84,0 -2.68,2.88 -1.84,2.84 -3.16,6 -1.24,2.88 -1.68,4.44 -0.4,1.52 -0.68,4.16 -0.44,4.08 -0.64,4.08 -0.32,0 -0.92,-0.68 -0.44,-0.44 -0.6,-1.88 -0.16,-1.48 -0.44,-5.8 -0.28,-4.36 -0.76,-8.8 -0.48,-4.6 -0.48,-6.28 z" />
      <path
         id="path14313"
         style=""
         d="m 1151.3913,936.70626 q 0,-1.48 -0.28,-3.76 -0.28,-2.28 -0.28,-3.8 0,-0.76 0.04,-1 0.12,-0.64 0.44,-1 0.36,-0.4 0.72,-0.4 0.48,0 0.68,0.44 0.12,0.28 0.36,2.96 0.24,2.68 0.44,5.24 0.2,2.56 0.28,2.64 0.04,0.04 0.12,0.04 0.32,0 1.84,-0.32 1.56,-0.36 2.56,-0.36 2,0 2,0.88 0,0.88 -4.4,1.96 l -2,0.48 0.2399,6.76 q 0.2001,5.96 0.7601,11.16 0.56,5.16 0.56,5.84 0,1.24 -0.92,1.24 -0.72,0 -1.2,-1.28 -0.44,-1.28 -0.44,-3.32 0,-1.48 -0.12,-3 -0.12,-1.56 -0.44,-4.8 -0.28,-3.28 -0.56,-6.72 -0.12,-1.84 -0.2,-2.84 -0.04,-1 -0.12,-1.48 -0.08,-0.48 -0.12,-0.56 -0.04,-0.12 -0.16,-0.12 -0.64,0 -3.08,0.44 -2.44,0.44 -3.04,0.44 -1.16,0 -1.16,-0.96 0,-0.68 1.44,-1.16 1.48,-0.48 3.32,-0.84 1.84,-0.4 2.28,-0.68 0.44,-0.32 0.44,-2.12 z" />
    </g>
    <path
       style="fill:url(#linearGradient26687);fill-opacity:1;fill-rule:evenodd;stroke:none;stroke-width:1px;stroke-linecap:butt;stroke-linejoin:miter;stroke-opacity:1"
       d="m 178.4392,421.21697 72.2001,-53.7322 -17.9107,-24.0667 61.9401,16.2304 -2.2378,63.9922 -17.9106,-24.0669 -72.2001,53.7321 z"
       id="path26625" />
    <g
       id="flowRoot26627"
       style="font-style:normal;font-variant:normal;font-weight:normal;font-stretch:normal;font-size:40px;line-height:125%;font-family:Purisa;-inkscape-font-specification:Purisa;text-align:center;letter-spacing:0px;word-spacing:0px;text-anchor:middle;fill:#000000;fill-opacity:1;stroke:none;stroke-width:1px;stroke-linecap:butt;stroke-linejoin:miter;stroke-opacity:1"
       transform="translate(-459.709,-331.95793)">
      <path
         id="path14316"
         style=""
         d="m 780.11246,1125.7063 q -1.32,0 -2.76,0.32 -1.44,0.32 -1.88,0.32 -1,0 -1.72,-0.36 -0.68,-0.36 -0.68,-0.92 0,-0.68 0.88,-0.92 0.92,-0.28 4.8,-0.88 7.88,-1.2 15.08,-2.6 4.44,-0.84 5.76,-0.84 1.24,0 2.52,0.52 1.28,0.52 1.28,1.16 0,0.6 -1.04,1.04 -1.04,0.4 -2.76,0.4 -2.68,0 -5.72,0.72 l -3.08,0.72 0.6,3.36 q 0.44,3.12 1.04,11.96 0.64,8.8 0.76,9.84 0.12,1.04 0.12,1.56 0,1.24 -1.08,1.24 -1.04,0 -1.56,-2.6 -0.48,-2.6 -0.92,-10.2 -0.8,-12.96 -2.08,-14.32 -0.32,-0.32 -1.04,-0.32 -0.32,0 -2.76,0.4 -2.4,0.4 -3.76,0.4 z" />
      <path
         id="path14318"
         style=""
         d="m 808.35371,1147.0663 q 0,-3.2 -0.8,-12.88 -0.76,-9.72 -0.76,-13.4 0,-2.12 0.24,-2.56 0.48,-0.84 0.92,-0.84 0.72,0 0.92,1.4 0.24,1.4 0.64,7.08 0.32,4.56 0.56,7.64 l 0.36,4.72 0.72,-1.56 q 0.8,-1.8 3.92,-4.72 3.12,-2.92 4.2,-2.92 1,0 2.2,1.12 1.2,1.12 1.56,2.4 0.32,1.08 0.32,9.72 0,6.24 -0.12,7.4 -0.12,1.12 -0.76,1.12 -0.64,0 -0.84,-1.16 -0.16,-1.16 -0.32,-6.68 -0.24,-7.72 -0.96,-9.88 l -0.64,-2 -2.32,2.16 q -1.84,1.76 -3.4,4 -1.52,2.24 -2.08,3.96 -0.36,1.24 -0.6,3.96 -0.24,2.72 -0.6,4.48 -0.32,1.76 -0.96,1.76 -0.28,0 -0.68,-0.32 -0.72,-0.6 -0.72,-4 z" />
      <path
         id="path14320"
         style=""
         d="m 848.75809,1141.9063 q 0.2,0 0.2,0.32 0,0.72 -1.08,2.32 -1.04,1.6 -2.24,2.64 -4.2,3.72 -8.4,3.72 -1.6,0 -3.2,-0.72 -1.56,-0.76 -2.92,-2.12 -1.36,-1.36 -2.2,-3.64 -0.84,-2.28 -0.84,-5.08 0,-1.72 0.4,-2.92 0.8,-2.44 3.4,-5.16 2.64,-2.72 4.96,-2.72 0.64,0 1.92,0.12 1.92,0.16 2.68,0.4 0.8,0.24 1.8,1 1.28,0.96 2.2,2.48 0.96,1.48 0.96,2.48 0,1.28 -1,1.96 -1,0.64 -3.88,1.28 -3.72,0.84 -7.36,1.04 l -3.72,0.2 0,1.6 q 0,2.96 2.76,5.6 2.08,2 4.32,2 1.72,0 3.64,-1.04 1.96,-1.08 3.32,-2.36 1.36,-1.28 2.6,-2.32 1.24,-1.08 1.68,-1.08 z m -6.44,-9.76 q -1.24,-1.12 -1.88,-1.4 -0.6,-0.32 -1.6,-0.32 -2,0 -3,0.4 -0.96,0.36 -1.96,1.52 -3.04,3.48 -3.04,4.64 0,0.52 0.96,0.52 3.64,0 10.32,-1.52 2,-0.48 2,-1.68 0,-0.56 -1.8,-2.16 z" />
      <path
         id="path14322"
         style=""
         d="m 880.70496,1124.1863 q -0.24,-2.56 -0.24,-5.64 0,-3.08 0.16,-4.68 0.16,-1.64 0.4,-2.08 0.24,-0.44 0.68,-0.44 0.4,0 0.64,0.36 0.24,0.4 1.44,18.52 1.24,18.12 1.24,18.84 0,0.52 -0.24,0.72 -0.24,0.16 -0.8,0.16 -0.96,0 -1.24,-1.36 -0.28,-1.4 -0.8,-8.68 -0.64,-8.8 -1.24,-15.72 z" />
      <path
         id="path14324"
         style=""
         d="m 911.25809,1141.9063 q 0.2,0 0.2,0.32 0,0.72 -1.08,2.32 -1.04,1.6 -2.24,2.64 -4.2,3.72 -8.4,3.72 -1.6,0 -3.2,-0.72 -1.56,-0.76 -2.92,-2.12 -1.36,-1.36 -2.2,-3.64 -0.84,-2.28 -0.84,-5.08 0,-1.72 0.4,-2.92 0.8,-2.44 3.4,-5.16 2.64,-2.72 4.96,-2.72 0.64,0 1.92,0.12 1.92,0.16 2.68,0.4 0.8,0.24 1.8,1 1.28,0.96 2.2,2.48 0.96,1.48 0.96,2.48 0,1.28 -1,1.96 -1,0.64 -3.88,1.28 -3.72,0.84 -7.36,1.04 l -3.72,0.2 0,1.6 q 0,2.96 2.76,5.6 2.08,2 4.32,2 1.72,0 3.64,-1.04 1.96,-1.08 3.32,-2.36 1.36,-1.28 2.6,-2.32 1.24,-1.08 1.68,-1.08 z m -6.44,-9.76 q -1.24,-1.12 -1.88,-1.4 -0.6,-0.32 -1.6,-0.32 -2,0 -3,0.4 -0.96,0.36 -1.96,1.52 -3.04,3.48 -3.04,4.64 0,0.52 0.96,0.52 3.64,0 10.32,-1.52 2,-0.48 2,-1.68 0,-0.56 -1.8,-2.16 z" />
      <path
         id="path14326"
         style=""
         d="m 922.14559,1132.5063 q -0.48,0 -2.04,0.44 -1.52,0.4 -2.44,0.4 -1.76,0 -1.76,-1.12 0,-0.44 0.64,-0.8 0.68,-0.36 2.6,-0.92 l 3.24,-0.96 0.08,-3.48 q 0.08,-3.72 0.56,-8.2 0.36,-3.32 0.64,-4.2 0.28,-0.88 1.24,-1.84 0.8,-0.8 1.28,-1.04 0.52,-0.24 1.44,-0.24 0.68,0 2.88,0.2 1.68,0.16 2.4,0.48 0.72,0.28 1.64,1.2 1.36,1.36 1.36,2.48 0,0.8 -0.64,1.68 -0.6,0.84 -0.92,0.84 -0.48,0 -0.48,-1.36 0,-1.28 -0.72,-1.96 -0.68,-0.72 -2.68,-1.36 -1.32,-0.4 -2.04,-0.4 -1.72,0 -2.68,2 -0.36,0.8 -0.68,4.6 -0.28,3.76 -0.28,6.92 0,2.28 0.16,2.88 0.2,0.56 1,0.56 0.48,0 2,-0.28 1.52,-0.28 2.52,-0.28 0.56,0 0.92,0.2 0.36,0.16 0.36,0.4 0,0.68 -3.44,1.72 l -3.44,1 -0.12,6.36 q 0,0.48 -0.04,1.32 0,0.8 0,1.12 0,3 0.28,4.64 0.28,1.64 0.56,2.36 0.28,0.72 0.28,1.56 0,1.2 -1.12,1.2 -2.12,0 -2.12,-11.16 0,-6.68 -0.24,-6.92 -0.04,-0.04 -0.2,-0.04 z" />
      <path
         id="path14328"
         style=""
         d="m 947.50746,1122.7063 q 0,-1.48 -0.28,-3.76 -0.28,-2.28 -0.28,-3.8 0,-0.76 0.04,-1 0.12,-0.64 0.44,-1 0.36,-0.4 0.72,-0.4 0.48,0 0.68,0.44 0.12,0.28 0.36,2.96 0.24,2.68 0.44,5.24 0.2,2.56 0.28,2.64 0.04,0.04 0.12,0.04 0.32,0 1.84,-0.32 1.56,-0.36 2.56,-0.36 2,0 2,0.88 0,0.88 -4.4,1.96 l -2,0.48 0.24,6.76 q 0.2,5.96 0.76,11.16 0.56,5.16 0.56,5.84 0,1.24 -0.92,1.24 -0.72,0 -1.2,-1.28 -0.44,-1.28 -0.44,-3.32 0,-1.48 -0.12,-3 -0.12,-1.56 -0.44,-4.8 -0.28,-3.28 -0.56,-6.72 -0.12,-1.84 -0.2,-2.84 -0.04,-1 -0.12,-1.48 -0.08,-0.48 -0.12,-0.56 -0.04,-0.12 -0.16,-0.12 -0.64,0 -3.08,0.44 -2.44,0.44 -3.04,0.44 -1.16,0 -1.16,-0.96 0,-0.68 1.44,-1.16 1.48,-0.48 3.32,-0.84 1.84,-0.4 2.28,-0.68 0.44,-0.32 0.44,-2.12 z" />
      <path
         id="path14330"
         style=""
         d="m 966.16871,1141.1063 q -0.6,0 -2.56,-1.44 -1.96,-1.48 -1.96,-3 0,-1.44 2.04,-3.96 2.04,-2.56 4.92,-3.28 1.32,-0.36 3.48,-0.36 0.92,0 1.36,0.24 0.44,0.24 1.2,1.08 1.24,1.4 1.24,1.92 0,0.48 -0.52,0.48 -0.64,0 -1.08,-0.44 -0.44,-0.48 -1.08,-0.96 -0.64,-0.48 -1.72,-0.48 -1.4,0 -3,0.76 -1.6,0.76 -2.84,2.12 -1.76,1.88 -1.76,2.56 0,0.68 1.04,1.64 1.04,0.92 3.48,1.76 3.84,1.32 5.2,2.48 1.36,1.16 1.36,3.12 0,1.84 -0.64,3.36 -0.44,1.16 -1.88,2.6 -1.44,1.44 -2.84,1.44 -1.08,0 -2.8,-0.36 -1.72,-0.32 -2.6,-0.76 -0.72,-0.36 -1.32,-1.4 -0.6,-1.08 -0.6,-1.92 0,-0.44 0.2,-0.76 0.24,-0.36 0.56,-0.36 0.6,0 1.12,1.12 0.48,1 1.92,1.8 1.48,0.8 2.76,0.8 1.72,0 3.04,-2.04 1.32,-2.08 1.32,-3.24 0,-0.28 -0.16,-0.68 -0.12,-0.44 -0.68,-1.04 -0.56,-0.6 -1.44,-0.92 -0.84,-0.28 -1.96,-0.76 -1.12,-0.48 -1.88,-0.8 -0.72,-0.32 -0.92,-0.32 z" />
      <path
         id="path14332"
         style=""
         d="m 983.17621,1127.7063 q 0.56,-0.48 0.96,-0.48 0.84,0 1.2,2.68 0.4,2.64 0.72,10.2 0.16,3.52 0.16,6.36 0,2.84 -0.24,3.12 -0.48,0.6 -1.2,0.6 -1,0 -1.24,-0.84 -0.2,-0.52 -0.6,-8.08 -0.4,-7.6 -0.4,-10.56 0,-2.48 0.64,-3 z m -0.24,-9.4 q 0,-0.56 0.44,-1.12 0.48,-0.56 0.84,-0.56 0.4,0 1.08,0.56 0.72,0.52 0.72,1.36 0,0.6 -0.36,1.04 -0.32,0.4 -0.88,0.4 -0.64,0 -1.24,-0.48 -0.6,-0.48 -0.6,-1.2 z" />
      <path
         id="path14334"
         style=""
         d="m 1015.35,1150.9063 q 0,0.88 -0.36,1.36 -0.32,0.52 -0.6,0.6 -0.24,0.12 -0.44,0.12 -0.52,0 -0.88,-0.36 -0.36,-0.32 -0.56,-1.2 -0.2,-0.84 -0.28,-1.28 -0.04,-0.44 -0.16,-1.64 -0.28,-4.04 -0.64,-4.04 -0.44,0 -1.4,1.16 -4.48,5.28 -9.44,5.28 -1.48004,0 -2.96004,-0.56 -5.12,-1.92 -5.12,-7.84 0,-2.56 0.84,-4.88 0.88,-2.36 2.2,-3.96 1.36,-1.6 2.72,-2.68 1.36,-1.08 2.60004,-1.52 1.56,-0.6 2.16,-0.6 1.04,0 3.48,1.36 2.48,1.36 3.44,2.64 1.08,1.44 1.64,1.44 0.04,0 0.04,0 0,-0.04 0.04,-0.04 0.44,-0.28 0.44,-10.44 0,-10.04 0.48,-11.4 0.52,-1.24 1.56,-1.24 l 1.08,0 -0.32,16.44 q -0.12,6.12 -0.12,10.92 0,6.52 0.28,9.32 0.28,2.8 0.28,3.04 z m -9.36,-17.72 q -2.36,-1.56 -3.28,-1.56 -0.8,0 -3.60004,2.72 -2.8,2.72 -3.32,4 -0.4,0.96 -0.4,3.48 0,3.08 0.52,4 0.4,0.72 1.92,1.56 1.56,0.84 3.08004,0.84 2.72,0 6.88,-4 3.28,-3.16 3.28,-4.12 0,-1.32 -1.68,-3.52 -1.64,-2.2 -3.4,-3.4 z" />
      <path
         id="path14336"
         style=""
         d="m 1041.0237,1141.9063 q 0.2,0 0.2,0.32 0,0.72 -1.08,2.32 -1.04,1.6 -2.24,2.64 -4.2,3.72 -8.4,3.72 -1.6,0 -3.2,-0.72 -1.56,-0.76 -2.92,-2.12 -1.36,-1.36 -2.2,-3.64 -0.84,-2.28 -0.84,-5.08 0,-1.72 0.4,-2.92 0.8,-2.44 3.4,-5.16 2.64,-2.72 4.96,-2.72 0.64,0 1.92,0.12 1.92,0.16 2.68,0.4 0.8,0.24 1.8,1 1.28,0.96 2.2,2.48 0.96,1.48 0.96,2.48 0,1.28 -1,1.96 -1,0.64 -3.88,1.28 -3.72,0.84 -7.36,1.04 l -3.72,0.2 0,1.6 q 0,2.96 2.76,5.6 2.08,2 4.32,2 1.72,0 3.64,-1.04 1.96,-1.08 3.32,-2.36 1.36,-1.28 2.6,-2.32 1.24,-1.08 1.68,-1.08 z m -6.44,-9.76 q -1.24,-1.12 -1.88,-1.4 -0.6,-0.32 -1.6,-0.32 -2,0 -3,0.4 -0.96,0.36 -1.96,1.52 -3.04,3.48 -3.04,4.64 0,0.52 0.96,0.52 3.64,0 10.32,-1.52 2,-0.48 2,-1.68 0,-0.56 -1.8,-2.16 z" />
      <path
         id="path14338"
         style=""
         d="m 1083.3306,1130.5863 q -1.84,0 -3.92,0.76 -2.04,0.76 -3.64,1.56 -1.6,0.76 -2.32,0.76 -0.48,0 -0.48,-0.4 0,-0.56 0.24,-0.96 0.24,-0.4 0.88,-0.76 0.64,-0.36 1.2,-0.6 0.6,-0.24 1.88,-0.68 1.28,-0.48 2.2,-0.88 2.16,-0.84 3.64,-0.84 2.64,0 4.12,2.88 0.72,1.4 0.84,2.6 0.12,1.16 0.2,6.6 0.04,3.04 0.12,5.12 0.08,2.04 0.16,2.6 l 0.08,0.52 q 0,0.56 -0.52,1.2 -0.48,0.64 -0.72,0.64 -0.8,0 -1.24,-2.52 -0.44,-2.56 -0.48,-2.56 -0.12,0 -0.36,0.44 -0.8,1.32 -3.24,2.92 -2.4,1.56 -4.04,1.56 -1,0 -2.36,-0.36 -1.32,-0.4 -1.92,-0.84 -0.44,-0.36 -0.76,-1.44 -0.28,-1.08 -0.28,-2.2 0,-1.68 0.88,-2.88 0.92,-1.24 3.24,-2.52 2.52,-1.48 4.88,-1.48 0.96,0 1.6,0.32 0.64,0.32 0.96,0.68 0.32,0.32 0.52,0.32 0.2,0 0.76,0.44 0.6,0.4 0.64,0.4 0.16,0 0.16,-0.88 0,-5.36 -0.76,-7.44 -0.72,-2.08 -2.16,-2.08 z m 1.8,12.4 q 0,-0.16 -0.12,-0.36 -0.08,-0.24 -0.4,-0.52 -0.28,-0.32 -0.76,-0.56 -0.44,-0.28 -1.24,-0.44 -0.8,-0.2 -1.8,-0.2 -1.72,0 -3.04,0.6 -1.28,0.6 -1.92,1.52 -0.64,0.92 -0.96,1.72 -0.28,0.76 -0.28,1.36 0,1 0.16,1.36 0.2,0.36 0.92,0.76 0.88,0.44 1.6,0.44 1.36,0 3.36,-0.96 2.04,-1 2.04,-1.44 0,-0.32 1.2,-1.52 1.24,-1.24 1.24,-1.76 z" />
      <path
         id="path14340"
         style=""
         d="m 1098.3562,1141.1063 q -0.6,0 -2.56,-1.44 -1.96,-1.48 -1.96,-3 0,-1.44 2.04,-3.96 2.04,-2.56 4.92,-3.28 1.32,-0.36 3.48,-0.36 0.92,0 1.36,0.24 0.44,0.24 1.2,1.08 1.24,1.4 1.24,1.92 0,0.48 -0.52,0.48 -0.64,0 -1.08,-0.44 -0.44,-0.48 -1.08,-0.96 -0.64,-0.48 -1.72,-0.48 -1.4,0 -3,0.76 -1.6,0.76 -2.84,2.12 -1.76,1.88 -1.76,2.56 0,0.68 1.04,1.64 1.04,0.92 3.48,1.76 3.84,1.32 5.2,2.48 1.36,1.16 1.36,3.12 0,1.84 -0.64,3.36 -0.44,1.16 -1.88,2.6 -1.44,1.44 -2.84,1.44 -1.08,0 -2.8,-0.36 -1.72,-0.32 -2.6,-0.76 -0.72,-0.36 -1.32,-1.4 -0.6,-1.08 -0.6,-1.92 0,-0.44 0.2,-0.76 0.24,-0.36 0.56,-0.36 0.6,0 1.12,1.12 0.48,1 1.92,1.8 1.48,0.8 2.76,0.8 1.72,0 3.04,-2.04 1.32,-2.08 1.32,-3.24 0,-0.28 -0.16,-0.68 -0.12,-0.44 -0.68,-1.04 -0.56,-0.6 -1.44,-0.92 -0.84,-0.28 -1.96,-0.76 -1.12,-0.48 -1.88,-0.8 -0.72,-0.32 -0.92,-0.32 z" />
      <path
         id="path14342"
         style=""
         d="m 789.17652,1191.1063 q -0.6,0 -2.56,-1.44 -1.96,-1.48 -1.96,-3 0,-1.44 2.04,-3.96 2.04,-2.56 4.92,-3.28 1.32,-0.36 3.48,-0.36 0.92,0 1.36,0.24 0.44,0.24 1.2,1.08 1.24,1.4 1.24,1.92 0,0.48 -0.52,0.48 -0.64,0 -1.08,-0.44 -0.44,-0.48 -1.08,-0.96 -0.64,-0.48 -1.72,-0.48 -1.4,0 -3,0.76 -1.6,0.76 -2.84,2.12 -1.76,1.88 -1.76,2.56 0,0.68 1.04,1.64 1.04,0.92 3.48,1.76 3.84,1.32 5.2,2.48 1.36,1.16 1.36,3.12 0,1.84 -0.64,3.36 -0.44,1.16 -1.88,2.6 -1.44,1.44 -2.84,1.44 -1.08,0 -2.8,-0.36 -1.72,-0.32 -2.6,-0.76 -0.72,-0.36 -1.32,-1.4 -0.6,-1.08 -0.6,-1.92 0,-0.44 0.2,-0.76 0.24,-0.36 0.56,-0.36 0.6,0 1.12,1.12 0.48,1 1.92,1.8 1.48,0.8 2.76,0.8 1.72,0 3.04,-2.04 1.32,-2.08 1.32,-3.24 0,-0.28 -0.16,-0.68 -0.12,-0.44 -0.68,-1.04 -0.56,-0.6 -1.44,-0.92 -0.84,-0.28 -1.96,-0.76 -1.12,-0.48 -1.88,-0.8 -0.72,-0.32 -0.92,-0.32 z" />
      <path
         id="path14344"
         style=""
         d="m 824.34402,1191.9063 q 0.2,0 0.2,0.32 0,0.72 -1.08,2.32 -1.04,1.6 -2.24,2.64 -4.2,3.72 -8.4,3.72 -1.6,0 -3.2,-0.72 -1.56,-0.76 -2.92,-2.12 -1.36,-1.36 -2.2,-3.64 -0.84,-2.28 -0.84,-5.08 0,-1.72 0.4,-2.92 0.8,-2.44 3.4,-5.16 2.64,-2.72 4.96,-2.72 0.64,0 1.92,0.12 1.92,0.16 2.68,0.4 0.8,0.24 1.8,1 1.28,0.96 2.2,2.48 0.96,1.48 0.96,2.48 0,1.28 -1,1.96 -1,0.64 -3.88,1.28 -3.72,0.84 -7.36,1.04 l -3.72,0.2 0,1.6 q 0,2.96 2.76,5.6 2.08,2 4.32,2 1.72,0 3.64,-1.04 1.96,-1.08 3.32,-2.36 1.36,-1.28 2.6,-2.32 1.24,-1.08 1.68,-1.08 z m -6.44,-9.76 q -1.24,-1.12 -1.88,-1.4 -0.6,-0.32 -1.6,-0.32 -2,0 -3,0.4 -0.96,0.36 -1.96,1.52 -3.04,3.48 -3.04,4.64 0,0.52 0.96,0.52 3.64,0 10.32,-1.52 2,-0.48 2,-1.68 0,-0.56 -1.8,-2.16 z" />
      <path
         id="path14346"
         style=""
         d="m 849.03152,1191.9063 q 0.2,0 0.2,0.32 0,0.72 -1.08,2.32 -1.04,1.6 -2.24,2.64 -4.2,3.72 -8.4,3.72 -1.6,0 -3.2,-0.72 -1.56,-0.76 -2.92,-2.12 -1.36,-1.36 -2.2,-3.64 -0.84,-2.28 -0.84,-5.08 0,-1.72 0.4,-2.92 0.8,-2.44 3.4,-5.16 2.64,-2.72 4.96,-2.72 0.64,0 1.92,0.12 1.92,0.16 2.68,0.4 0.8,0.24 1.8,1 1.28,0.96 2.2,2.48 0.96,1.48 0.96,2.48 0,1.28 -1,1.96 -1,0.64 -3.88,1.28 -3.72,0.84 -7.36,1.04 l -3.72,0.2 0,1.6 q 0,2.96 2.76,5.6 2.08,2 4.32,2 1.72,0 3.64,-1.04 1.96,-1.08 3.32,-2.36 1.36,-1.28 2.6,-2.32 1.24,-1.08 1.68,-1.08 z m -6.44,-9.76 q -1.24,-1.12 -1.88,-1.4 -0.6,-0.32 -1.6,-0.32 -2,0 -3,0.4 -0.96,0.36 -1.96,1.52 -3.04,3.48 -3.04,4.64 0,0.52 0.96,0.52 3.64,0 10.32,-1.52 2,-0.48 2,-1.68 0,-0.56 -1.8,-2.16 z" />
      <path
         id="path14348"
         style=""
         d="m 856.03902,1178.8663 q 0,-1.36 0.8,-1.36 0.52,0 0.76,1.2 0.24,1.16 0.88,6.96 0.8,6.48 0.84,6.56 0.04,0.04 0.32,-0.76 0.32,-0.84 0.84,-2.48 0.8,-2.64 1.36,-3.8 0.56,-1.2 2,-3.28 2.92,-4.04 4.52,-4.04 1.04,0 1.96,1.4 1.24,1.84 1.52,3.64 0.28,1.8 0.4,8.52 0.08,4.32 0.08,5.12 0,2 -0.16,2.92 -0.12,0.88 -0.4,1.08 -0.24,0.24 -0.88,0.28 -0.36,0 -0.48,-0.32 -0.12,-0.28 -0.12,-1.36 0,-0.6 0.08,-2.56 0.08,-2 0.08,-3.36 0,-3.4 -0.28,-6.64 -0.24,-3.28 -0.6,-4.2 -0.2,-0.52 -0.64,-1.08 -0.44,-0.56 -0.84,-0.56 -0.84,0 -2.68,2.88 -1.84,2.84 -3.16,6 -1.24,2.88 -1.68,4.44 -0.4,1.52 -0.68,4.16 -0.44,4.08 -0.64,4.08 -0.32,0 -0.92,-0.68 -0.44,-0.44 -0.6,-1.88 -0.16,-1.48 -0.44,-5.8 -0.28,-4.36 -0.76,-8.8 -0.48,-4.6 -0.48,-6.28 z" />
      <path
         id="path14350"
         style=""
         d="m 910.54402,1182.5063 q -0.48,0 -2.04,0.44 -1.52,0.4 -2.44,0.4 -1.76,0 -1.76,-1.12 0,-0.44 0.64,-0.8 0.68,-0.36 2.6,-0.92 l 3.24,-0.96 0.08,-3.48 q 0.08,-3.72 0.56,-8.2 0.36,-3.32 0.64,-4.2 0.28,-0.88 1.24,-1.84 0.8,-0.8 1.28,-1.04 0.52,-0.24 1.44,-0.24 0.68,0 2.88,0.2 1.68,0.16 2.4,0.48 0.72,0.28 1.64,1.2 1.36,1.36 1.36,2.48 0,0.8 -0.64,1.68 -0.6,0.84 -0.92,0.84 -0.48,0 -0.48,-1.36 0,-1.28 -0.72,-1.96 -0.68,-0.72 -2.68,-1.36 -1.32,-0.4 -2.04,-0.4 -1.72,0 -2.68,2 -0.36,0.8 -0.68,4.6 -0.28,3.76 -0.28,6.92 0,2.28 0.16,2.88 0.2,0.56 1,0.56 0.48,0 2,-0.28 1.52,-0.28 2.52,-0.28 0.56,0 0.92,0.2 0.36,0.16 0.36,0.4 0,0.68 -3.44,1.72 l -3.44,1 -0.12,6.36 q 0,0.48 -0.04,1.32 0,0.8 0,1.12 0,3 0.28,4.64 0.28,1.64 0.56,2.36 0.28,0.72 0.28,1.56 0,1.2 -1.12,1.2 -2.12,0 -2.12,-11.16 0,-6.68 -0.24,-6.92 -0.04,-0.04 -0.2,-0.04 z" />
      <path
         id="path14352"
         style=""
         d="m 943.1059,1181.0663 q 0.68,0 1.2,0.44 0.52,0.4 0.52,0.68 0,0.48 -1.52,1.08 -2.48,1 -5.08,4.84 -2.56,3.8 -3.12,7.36 -0.64,4.04 -1.04,5.28 -0.4,1.28 -1.04,1.28 -0.56,0 -0.88,-0.4 -0.28,-0.4 -0.4,-0.88 -0.08,-0.48 -0.2,-1.76 -0.04,-0.24 -0.04,-0.36 -0.96,-10.08 -0.96,-15.92 0,-2.08 0.16,-2.56 0.44,-1.28 1.12,-1.28 0.64,0 0.64,1.08 0,1.8 0.56,5.8 0.56,4 0.84,4 0.36,0 1.48,-2.2 1.4,-2.6 3.72,-4.52 2.36,-1.96 4.04,-1.96 z" />
      <path
         id="path14354"
         style=""
         d="m 953.68152,1182.5463 q 3.12,-2.92 5.24,-3.84 2.16,-0.96 5.44,-0.96 4.96,0 6.2,2.96 0.76,1.76 0.76,4.32 0,4.24 -1.88,8.6 -1.88,4.32 -4.64,6 -2.68,1.64 -5.64,1.64 -4.12,0 -6.6,-2.84 -1.72,-2 -2.24,-3.36 -0.52,-1.4 -0.52,-3.96 0,-4.84 3.88,-8.56 z m 6.44,16.44 q 3.36,0 6.08,-4.6 2.76,-4.64 2.76,-10.48 0,-0.88 -0.2,-1.32 -0.2,-0.44 -0.72,-0.88 -1.48,-1.24 -3.16,-1.24 -0.28,0 -0.64,0.08 -0.32,0.04 -1.08,0.16 -0.76,0.08 -1.8,0.2 -1.4,0.2 -2.24,0.64 -0.8,0.4 -2.04,1.56 -2.36,2.24 -3.36,4.16 -1,1.88 -1,4.12 0,3.32 2.04,5.44 2.08,2.12 5.36,2.16 z" />
      <path
         id="path14356"
         style=""
         d="m 979.33715,1180.3863 q 0,-2.32 0.64,-2.32 0.52,0 1.12,3.64 0.64,3.64 0.88,3.64 0.08,0 0.28,-0.48 0.2,-0.52 0.44,-1.12 0.24,-0.64 0.4,-0.8 0.4,-0.52 1.08,-1.96 0.84,-1.72 1.28,-2.08 0.44,-0.4 1.56,-0.4 1.24,0 2.72,1.72 0.96,1.12 1.28,2.08 0.36,0.92 0.76,3.36 l 0.64,3.76 0.68,-2.4 q 1,-3.48 2.88,-6 1.88,-2.52 3.48,-2.52 0.99995,0 1.83995,1.16 0.84,1.12 1.2,2.88 0.36,1.64 0.36,7.24 0,4.2 -0.04,6.48 -0.04,2.28 -0.2,3.32 -0.12,1 -0.24,1.16 -0.12,0.2 -0.44,0.24 -0.12,0.04 -0.28,0.04 -0.36,0 -0.44,-1.12 -0.08,-1.12 -0.12,-6.28 0,-12.6 -1.91995,-12.6 -1.04,0 -2.72,3.44 -1.4,2.84 -2.36,6.92 -0.96,4.08 -1.16,8.24 -0.04,1 -0.24,1.36 -0.16,0.36 -0.56,0.36 -0.48,0 -0.64,-0.84 -0.12,-0.8 -0.28,-4.32 -0.28,-6.48 -0.8,-9.08 -0.52,-2.64 -1.92,-4.76 -1.04,-1.48 -1.52,-1.48 -0.56,0 -1.24,1.4 -0.68,1.36 -2.24,5.24 -0.72,1.88 -0.72,3.44 0,0.92 -0.36,2.04 -0.32,1.08 -0.44,5.4 -0.08,4.04 -0.32,4.6 -0.16,0.48 -0.64,0.48 -0.64,0 -0.88,-1.92 -0.2,-1.92 -0.2,-7.68 0,-4.64 -0.32,-8.52 -0.28,-3.88 -0.28,-4.96 z" />
      <path
         id="path14358"
         style=""
         d="m 1042.5465,1172.7063 q 0,-1.48 -0.28,-3.76 -0.28,-2.28 -0.28,-3.8 0,-0.76 0.04,-1 0.12,-0.64 0.44,-1 0.36,-0.4 0.72,-0.4 0.48,0 0.68,0.44 0.12,0.28 0.36,2.96 0.24,2.68 0.44,5.24 0.2,2.56 0.28,2.64 0.04,0.04 0.12,0.04 0.32,0 1.84,-0.32 1.56,-0.36 2.56,-0.36 2,0 2,0.88 0,0.88 -4.4,1.96 l -2,0.48 0.24,6.76 q 0.2,5.96 0.76,11.16 0.56,5.16 0.56,5.84 0,1.24 -0.92,1.24 -0.72,0 -1.2,-1.28 -0.44,-1.28 -0.44,-3.32 0,-1.48 -0.12,-3 -0.12,-1.56 -0.44,-4.8 -0.28,-3.28 -0.56,-6.72 -0.12,-1.84 -0.2,-2.84 -0.04,-1 -0.12,-1.48 -0.08,-0.48 -0.12,-0.56 -0.04,-0.12 -0.16,-0.12 -0.64,0 -3.08,0.44 -2.44,0.44 -3.04,0.44 -1.16,0 -1.16,-0.96 0,-0.68 1.44,-1.16 1.48,-0.48 3.32,-0.84 1.84,-0.4 2.28,-0.68 0.44,-0.32 0.44,-2.12 z" />
      <path
         id="path14360"
         style=""
         d="m 1057.7678,1197.0663 q 0,-3.2 -0.8,-12.88 -0.76,-9.72 -0.76,-13.4 0,-2.12 0.24,-2.56 0.48,-0.84 0.92,-0.84 0.72,0 0.92,1.4 0.24,1.4 0.64,7.08 0.32,4.56 0.56,7.64 l 0.36,4.72 0.72,-1.56 q 0.8,-1.8 3.92,-4.72 3.12,-2.92 4.2,-2.92 1,0 2.2,1.12 1.2,1.12 1.56,2.4 0.32,1.08 0.32,9.72 0,6.24 -0.12,7.4 -0.12,1.12 -0.76,1.12 -0.64,0 -0.84,-1.16 -0.16,-1.16 -0.32,-6.68 -0.24,-7.72 -0.96,-9.88 l -0.64,-2 -2.32,2.16 q -1.84,1.76 -3.4,4 -1.52,2.24 -2.08,3.96 -0.36,1.24 -0.6,3.96 -0.24,2.72 -0.6,4.48 -0.32,1.76 -0.96,1.76 -0.28,0 -0.68,-0.32 -0.72,-0.6 -0.72,-4 z" />
      <path
         id="path14362"
         style=""
         d="m 1098.1721,1191.9063 q 0.2,0 0.2,0.32 0,0.72 -1.08,2.32 -1.04,1.6 -2.24,2.64 -4.2,3.72 -8.4,3.72 -1.6,0 -3.2,-0.72 -1.56,-0.76 -2.92,-2.12 -1.36,-1.36 -2.2,-3.64 -0.84,-2.28 -0.84,-5.08 0,-1.72 0.4,-2.92 0.8,-2.44 3.4,-5.16 2.64,-2.72 4.96,-2.72 0.64,0 1.92,0.12 1.92,0.16 2.68,0.4 0.8,0.24 1.8,1 1.28,0.96 2.2,2.48 0.96,1.48 0.96,2.48 0,1.28 -1,1.96 -1,0.64 -3.88,1.28 -3.72,0.84 -7.36,1.04 l -3.72,0.2 0,1.6 q 0,2.96 2.76,5.6 2.08,2 4.32,2 1.72,0 3.64,-1.04 1.96,-1.08 3.32,-2.36 1.36,-1.28 2.6,-2.32 1.24,-1.08 1.68,-1.08 z m -6.44,-9.76 q -1.24,-1.12 -1.88,-1.4 -0.6,-0.32 -1.6,-0.32 -2,0 -3,0.4 -0.96,0.36 -1.96,1.52 -3.04,3.48 -3.04,4.64 0,0.52 0.96,0.52 3.64,0 10.32,-1.52 2,-0.48 2,-1.68 0,-0.56 -1.8,-2.16 z" />
      <path
         id="path14364"
         style=""
         d="m 906.34809,1231.0663 q 0.68,0 1.2,0.44 0.52,0.4 0.52,0.68 0,0.48 -1.52,1.08 -2.48,1 -5.08,4.84 -2.56,3.8 -3.12,7.36 -0.64,4.04 -1.04,5.28 -0.4,1.28 -1.04,1.28 -0.56,0 -0.88,-0.4 -0.28,-0.4 -0.4,-0.88 -0.08,-0.48 -0.2,-1.76 -0.04,-0.24 -0.04,-0.36 -0.96,-10.08 -0.96,-15.92 0,-2.08 0.16,-2.56 0.44,-1.28 1.12,-1.28 0.64,0 0.64,1.08 0,1.8 0.56,5.8 0.56,4 0.84,4 0.36,0 1.48,-2.2 1.4,-2.6 3.72,-4.52 2.36,-1.96 4.04,-1.96 z" />
      <path
         id="path14366"
         style=""
         d="m 915.36371,1227.7063 q 0.56,-0.48 0.96,-0.48 0.84,0 1.2,2.68 0.4,2.64 0.72,10.2 0.16,3.52 0.16,6.36 0,2.84 -0.24,3.12 -0.48,0.6 -1.2,0.6 -1,0 -1.24,-0.84 -0.2,-0.52 -0.6,-8.08 -0.4,-7.6 -0.4,-10.56 0,-2.48 0.64,-3 z m -0.24,-9.4 q 0,-0.56 0.44,-1.12 0.48,-0.56 0.84,-0.56 0.4,0 1.08,0.56 0.72,0.52 0.72,1.36 0,0.6 -0.36,1.04 -0.32,0.4 -0.88,0.4 -0.64,0 -1.24,-0.48 -0.6,-0.48 -0.6,-1.2 z" />
      <path
         id="path14368"
         style=""
         d="m 942.37746,1258.0663 q 0.36,0 0.64,-0.08 0.32,-0.04 0.52,-0.16 0.2,-0.12 0.36,-0.24 0.16,-0.12 0.24,-0.32 0.08,-0.16 0.12,-0.32 0.08,-0.12 0.08,-0.32 0,-0.16 0,-0.28 0,-0.08 0,-0.2 l 0,-0.12 q 0,-3.84 -0.52,-7.28 l -0.56,-3.48 q -0.28,-4.08 -0.56,-4.08 -0.16,0 -0.6,0.72 -1,1.48 -3.24,3.32 -2.24,1.84 -3.72,2.4 -1.68,0.68 -3.8,0.68 -1.28,0 -2.04,-0.32 -0.72,-0.32 -1.92,-1.36 -1.16,-1.04 -1.64,-1.84 -0.48,-0.8 -0.76,-2.28 -0.28,-1.48 -0.28,-2.52 0,-0.76 0.12,-1.12 0.28,-1.08 1.48,-3.36 1.2,-2.28 2.2,-3.56 0.84,-1.12 3.12,-2.6 2.32,-1.52 4.08,-2.08 1.84,-0.6 4.2,-0.6 2.96,0 4.92,1.04 1.96,1 1.96,3.12 0,1.2 -0.6,2.96 -0.56,1.76 -0.56,3.08 0,1.44 0.92,13.24 l 0.6,8.28 -1.4,1.12 q -1.12,0.92 -2.28,0.92 -2.12,0 -5.16,-1.08 -3.04,-1.04 -5.24,-2.44 -2.2,-1.36 -2.2,-2.24 0,-1.04 1.08,-2.56 1.12,-1.52 1.88,-1.52 0.88,0 0.88,0.6 0,0.36 -0.36,1.08 -0.36,0.72 -0.36,1.4 0,1.12 1.48,1.96 1.48,0.84 2.52,0.84 0.6,0 1.96,0.8 1.4,0.8 2.44,0.8 z m -15.2,-18.16 q 0,2.32 1.2,4.24 1.2,1.92 3,1.92 2.44,0 5.24,-2.2 2.84,-2.24 4.6,-5.56 0.96,-1.88 1.64,-4.28 0.72,-2.44 0.72,-3.84 0,-0.8 -0.28,-0.96 -0.88,-0.48 -2.92,-0.48 -1.84,0 -3.16,0.4 -3.48,1 -6.76,4.68 -3.28,3.68 -3.28,6.08 z" />
      <path
         id="path14370"
         style=""
         d="m 953.82246,1247.0663 q 0,-3.2 -0.8,-12.88 -0.76,-9.72 -0.76,-13.4 0,-2.12 0.24,-2.56 0.48,-0.84 0.92,-0.84 0.72,0 0.92,1.4 0.24,1.4 0.64,7.08 0.32,4.56 0.56,7.64 l 0.36,4.72 0.72,-1.56 q 0.8,-1.8 3.92,-4.72 3.12,-2.92 4.2,-2.92 1,0 2.2,1.12 1.2,1.12 1.56,2.4 0.32,1.08 0.32,9.72 0,6.24 -0.12,7.4 -0.12,1.12 -0.76,1.12 -0.64,0 -0.84,-1.16 -0.16,-1.16 -0.32,-6.68 -0.24,-7.72 -0.96,-9.88 l -0.64,-2 -2.32,2.16 q -1.84,1.76 -3.4,4 -1.52,2.24 -2.08,3.96 -0.36,1.24 -0.6,3.96 -0.24,2.72 -0.6,4.48 -0.32,1.76 -0.96,1.76 -0.28,0 -0.68,-0.32 -0.72,-0.6 -0.72,-4 z" />
      <path
         id="path14372"
         style=""
         d="m 980.86684,1222.7063 q 0,-1.48 -0.28,-3.76 -0.28,-2.28 -0.28,-3.8 0,-0.76 0.04,-1 0.12,-0.64 0.44,-1 0.36,-0.4 0.72,-0.4 0.48,0 0.68,0.44 0.12,0.28 0.36,2.96 0.24,2.68 0.44,5.24 0.2,2.56 0.28,2.64 0.04,0.04 0.12,0.04 0.32,0 1.84,-0.32 1.56,-0.36 2.56,-0.36 2,0 2,0.88 0,0.88 -4.4,1.96 l -2,0.48 0.24,6.76 q 0.2,5.96 0.76,11.16 0.56,5.16 0.56,5.84 0,1.24 -0.92,1.24 -0.72,0 -1.2,-1.28 -0.44,-1.28 -0.44,-3.32 0,-1.48 -0.12,-3 -0.12,-1.56 -0.44,-4.8 -0.28,-3.28 -0.56,-6.72 -0.12,-1.84 -0.2,-2.84 -0.04,-1 -0.12,-1.48 -0.08,-0.48 -0.12,-0.56 -0.04,-0.12 -0.16,-0.12 -0.64,0 -3.08,0.44 -2.44,0.44 -3.04,0.44 -1.16,0 -1.16,-0.96 0,-0.68 1.44,-1.16 1.48,-0.48 3.32,-0.84 1.84,-0.4 2.28,-0.68 0.44,-0.32 0.44,-2.12 z" />
    </g>
    <g
       id="flowRoot26635"
       style="font-style:normal;font-variant:normal;font-weight:normal;font-stretch:normal;font-size:40px;line-height:125%;font-family:Purisa;-inkscape-font-specification:Purisa;text-align:center;letter-spacing:0px;word-spacing:0px;text-anchor:middle;fill:#000000;fill-opacity:1;stroke:none;stroke-width:1px;stroke-linecap:butt;stroke-linejoin:miter;stroke-opacity:1"
       transform="matrix(0.98922973,-0.14637127,0.14637127,0.98922973,-801.5086,-148.88063)">
      <path
         id="path14375"
         style=""
         d="m 992.50406,939.70626 q -1.32,0 -2.76,0.32 -1.44,0.32 -1.88,0.32 -1,0 -1.72,-0.36 -0.68,-0.36 -0.68,-0.92 0,-0.68 0.88,-0.92 0.92,-0.28 4.8,-0.88 7.88,-1.2 15.08004,-2.6 4.44,-0.84 5.76,-0.84 1.24,0 2.52,0.52 1.28,0.52 1.28,1.16 0,0.6 -1.04,1.04 -1.04,0.4 -2.76,0.4 -2.68,0 -5.72,0.72 l -3.08,0.72 0.6,3.36 q 0.44,3.12 1.04,11.96 0.64,8.8 0.76,9.84 0.12,1.04 0.12,1.56 0,1.24 -1.08,1.24 -1.04,0 -1.56,-2.6 -0.48,-2.6 -0.92,-10.2 -0.8,-12.96 -2.08,-14.32 -0.32004,-0.32 -1.04004,-0.32 -0.32,0 -2.76,0.4 -2.4,0.4 -3.76,0.4 z" />
      <path
         id="path14377"
         style=""
         d="m 1020.7453,961.06626 q 0,-3.2 -0.8,-12.88 -0.76,-9.72 -0.76,-13.4 0,-2.12 0.24,-2.56 0.48,-0.84 0.92,-0.84 0.72,0 0.92,1.4 0.24,1.4 0.64,7.08 0.32,4.56 0.56,7.64 l 0.36,4.72 0.72,-1.56 q 0.8,-1.8 3.92,-4.72 3.12,-2.92 4.2,-2.92 1,0 2.2,1.12 1.2,1.12 1.56,2.4 0.32,1.08 0.32,9.72 0,6.24 -0.12,7.4 -0.12,1.12 -0.76,1.12 -0.64,0 -0.84,-1.16 -0.16,-1.16 -0.32,-6.68 -0.24,-7.72 -0.96,-9.88 l -0.64,-2 -2.32,2.16 q -1.84,1.76 -3.4,4 -1.52,2.24 -2.08,3.96 -0.36,1.24 -0.6,3.96 -0.24,2.72 -0.6,4.48 -0.32,1.76 -0.96,1.76 -0.28,0 -0.68,-0.32 -0.72,-0.6 -0.72,-4 z" />
      <path
         id="path14379"
         style=""
         d="m 1061.1497,955.90626 q 0.2,0 0.2,0.32 0,0.72 -1.08,2.32 -1.04,1.6 -2.24,2.64 -4.2,3.72 -8.4,3.72 -1.6,0 -3.2,-0.72 -1.56,-0.76 -2.92,-2.12 -1.36,-1.36 -2.2,-3.64 -0.84,-2.28 -0.84,-5.08 0,-1.72 0.4,-2.92 0.8,-2.44 3.4,-5.16 2.64,-2.72 4.96,-2.72 0.64,0 1.92,0.12 1.92,0.16 2.68,0.4 0.8,0.24 1.8,1 1.28,0.96 2.2,2.48 0.96,1.48 0.96,2.48 0,1.28 -1,1.96 -1,0.64 -3.88,1.28 -3.72,0.84 -7.36,1.04 l -3.72,0.2 0,1.6 q 0,2.96 2.76,5.6 2.08,2 4.32,2 1.72,0 3.64,-1.04 1.96,-1.08 3.32,-2.36 1.36,-1.28 2.6,-2.32 1.24,-1.08 1.68,-1.08 z m -6.44,-9.76 q -1.24,-1.12 -1.88,-1.4 -0.6,-0.32 -1.6,-0.32 -2,0 -3,0.4 -0.96,0.36 -1.96,1.52 -3.04,3.48 -3.04,4.64 0,0.52 0.96,0.52 3.64,0 10.32,-1.52 2,-0.48 2,-1.68 0,-0.56 -1.8,-2.16 z" />
      <path
         id="path14381"
         style=""
         d="m 1105.5366,945.06626 q 0.68,0 1.2,0.44 0.52,0.4 0.52,0.68 0,0.48 -1.52,1.08 -2.48,1 -5.08,4.84 -2.56,3.8 -3.12,7.36 -0.64,4.04 -1.04,5.28 -0.4,1.28 -1.04,1.28 -0.56,0 -0.88,-0.4 -0.28,-0.4 -0.4,-0.88 -0.08,-0.48 -0.2,-1.76 -0.04,-0.24 -0.04,-0.36 -0.96,-10.08 -0.96,-15.92 0,-2.08 0.16,-2.56 0.44,-1.28 1.12,-1.28 0.64,0 0.64,1.08 0,1.8 0.56,5.8 0.56,4 0.84,4 0.36,0 1.48,-2.2 1.4,-2.6 3.72,-4.52 2.36,-1.96 4.04,-1.96 z" />
      <path
         id="path14383"
         style=""
         d="m 1114.5522,941.70626 q 0.56,-0.48 0.96,-0.48 0.84,0 1.2,2.68 0.4,2.64 0.72,10.2 0.16,3.52 0.16,6.36 0,2.84 -0.24,3.12 -0.48,0.6 -1.2,0.6 -1,0 -1.24,-0.84 -0.2,-0.52 -0.6,-8.08 -0.4,-7.6 -0.4,-10.56 0,-2.48 0.64,-3 z m -0.24,-9.4 q 0,-0.56 0.44,-1.12 0.48,-0.56 0.84,-0.56 0.4,0 1.08,0.56 0.72,0.52 0.72,1.36 0,0.6 -0.36,1.04 -0.32,0.4 -0.88,0.4 -0.64,0 -1.24,-0.48 -0.6,-0.48 -0.6,-1.2 z" />
      <path
         id="path14385"
         style=""
         d="m 1141.5659,972.06626 q 0.36,0 0.64,-0.08 0.32,-0.04 0.52,-0.16 0.2,-0.12 0.36,-0.24 0.16,-0.12 0.24,-0.32 0.08,-0.16 0.12,-0.32 0.08,-0.12 0.08,-0.32 0,-0.16 0,-0.28 0,-0.08 0,-0.2 l 0,-0.12 q 0,-3.84 -0.52,-7.28 l -0.56,-3.48 q -0.28,-4.08 -0.56,-4.08 -0.16,0 -0.6,0.72 -1,1.48 -3.24,3.32 -2.24,1.84 -3.72,2.4 -1.68,0.68 -3.8,0.68 -1.28,0 -2.04,-0.32 -0.72,-0.32 -1.92,-1.36 -1.16,-1.04 -1.64,-1.84 -0.48,-0.8 -0.76,-2.28 -0.28,-1.48 -0.28,-2.52 0,-0.76 0.12,-1.12 0.28,-1.08 1.48,-3.36 1.2,-2.28 2.2,-3.56 0.84,-1.12 3.12,-2.6 2.32,-1.52 4.08,-2.08 1.84,-0.6 4.2,-0.6 2.96,0 4.92,1.04 1.96,1 1.96,3.12 0,1.2 -0.6,2.96 -0.56,1.76 -0.56,3.08 0,1.44 0.92,13.24 l 0.6,8.28 -1.4,1.12 q -1.12,0.92 -2.28,0.92 -2.12,0 -5.16,-1.08 -3.04,-1.04 -5.24,-2.44 -2.2,-1.36 -2.2,-2.24 0,-1.04 1.08,-2.56 1.12,-1.52 1.88,-1.52 0.88,0 0.88,0.6 0,0.36 -0.36,1.08 -0.36,0.72 -0.36,1.4 0,1.12 1.48,1.96 1.48,0.84 2.52,0.84 0.6,0 1.96,0.8 1.4,0.8 2.44,0.8 z m -15.2,-18.16 q 0,2.32 1.2,4.24 1.2,1.92 3,1.92 2.44,0 5.24,-2.2 2.84,-2.24 4.6,-5.56 0.96,-1.88 1.64,-4.28 0.72,-2.44 0.72,-3.84 0,-0.8 -0.28,-0.96 -0.88,-0.48 -2.92,-0.48 -1.84,0 -3.16,0.4 -3.48,1 -6.76,4.68 -3.28,3.68 -3.28,6.08 z" />
      <path
         id="path14387"
         style=""
         d="m 1153.0109,961.06626 q 0,-3.2 -0.8,-12.88 -0.76,-9.72 -0.76,-13.4 0,-2.12 0.24,-2.56 0.48,-0.84 0.92,-0.84 0.72,0 0.92,1.4 0.24,1.4 0.64,7.08 0.32,4.56 0.56,7.64 l 0.36,4.72 0.72,-1.56 q 0.8,-1.8 3.92,-4.72 3.12,-2.92 4.2,-2.92 1,0 2.2,1.12 1.2,1.12 1.56,2.4 0.32,1.08 0.32,9.72 0,6.24 -0.12,7.4 -0.12,1.12 -0.76,1.12 -0.64,0 -0.84,-1.16 -0.16,-1.16 -0.32,-6.68 -0.24,-7.72 -0.96,-9.88 l -0.64,-2 -2.32,2.16 q -1.84,1.76 -3.4,4 -1.52,2.24 -2.08,3.96 -0.36,1.24 -0.6,3.96 -0.24,2.72 -0.6,4.48 -0.32,1.76 -0.96,1.76 -0.28,0 -0.68,-0.32 -0.72,-0.6 -0.72,-4 z" />
      <path
         id="path14389"
         style=""
         d="m 1180.0553,936.70626 q 0,-1.48 -0.28,-3.76 -0.28,-2.28 -0.28,-3.8 0,-0.76 0.04,-1 0.12,-0.64 0.44,-1 0.36,-0.4 0.72,-0.4 0.48,0 0.68,0.44 0.12,0.28 0.36,2.96 0.24,2.68 0.44,5.24 0.2,2.56 0.28,2.64 0.04,0.04 0.12,0.04 0.32,0 1.84,-0.32 1.56,-0.36 2.56,-0.36 2,0 2,0.88 0,0.88 -4.4,1.96 l -2,0.48 0.24,6.76 q 0.2,5.96 0.76,11.16 0.56,5.16 0.56,5.84 0,1.24 -0.92,1.24 -0.72,0 -1.2,-1.28 -0.44,-1.28 -0.44,-3.32 0,-1.48 -0.12,-3 -0.12,-1.56 -0.44,-4.8 -0.28,-3.28 -0.56,-6.72 -0.12,-1.84 -0.2,-2.84 -0.04,-1 -0.12,-1.48 -0.08,-0.48 -0.12,-0.56 -0.04,-0.12 -0.16,-0.12 -0.64,0 -3.08,0.44 -2.44,0.44 -3.04,0.44 -1.16,0 -1.16,-0.96 0,-0.68 1.44,-1.16 1.48,-0.48 3.32,-0.84 1.84,-0.4 2.28,-0.68 0.44,-0.32 0.44,-2.12 z" />
      <path
         id="path14391"
         style=""
         d="m 1052.7791,1005.1063 q -0.6,0 -2.56,-1.44 -1.96,-1.48 -1.96,-3 0,-1.44004 2.04,-3.96004 2.04,-2.56 4.92,-3.28 1.32,-0.36 3.48,-0.36 0.92,0 1.36,0.24 0.44,0.24 1.2,1.08 1.24,1.4 1.24,1.92 0,0.48 -0.52,0.48 -0.64,0 -1.08,-0.44 -0.44,-0.48 -1.08,-0.96 -0.64,-0.48 -1.72,-0.48 -1.4,0 -3,0.76 -1.6,0.76 -2.84,2.12 -1.76,1.88 -1.76,2.56004 0,0.68 1.04,1.64 1.04,0.92 3.48,1.76 3.84,1.32 5.2,2.48 1.36,1.16 1.36,3.12 0,1.84 -0.64,3.36 -0.44,1.16 -1.88,2.6 -1.44,1.44 -2.84,1.44 -1.08,0 -2.8,-0.36 -1.72,-0.32 -2.6,-0.76 -0.72,-0.36 -1.32,-1.4 -0.6,-1.08 -0.6,-1.92 0,-0.44 0.2,-0.76 0.24,-0.36 0.56,-0.36 0.6,0 1.12,1.12 0.48,1 1.92,1.8 1.48,0.8 2.76,0.8 1.72,0 3.04,-2.04 1.32,-2.08 1.32,-3.24 0,-0.28 -0.16,-0.68 -0.12,-0.44 -0.68,-1.04 -0.56,-0.6 -1.44,-0.92 -0.84,-0.28 -1.96,-0.76 -1.12,-0.48 -1.88,-0.8 -0.72,-0.32 -0.92,-0.32 z" />
      <path
         id="path14393"
         style=""
         d="m 1069.7866,991.70626 q 0.56,-0.48 0.96,-0.48 0.84,0 1.2,2.68 0.4,2.64 0.72,10.20004 0.16,3.52 0.16,6.36 0,2.84 -0.24,3.12 -0.48,0.6 -1.2,0.6 -1,0 -1.24,-0.84 -0.2,-0.52 -0.6,-8.08 -0.4,-7.60004 -0.4,-10.56004 0,-2.48 0.64,-3 z m -0.24,-9.4 q 0,-0.56 0.44,-1.12 0.48,-0.56 0.84,-0.56 0.4,0 1.08,0.56 0.72,0.52 0.72,1.36 0,0.6 -0.36,1.04 -0.32,0.4 -0.88,0.4 -0.64,0 -1.24,-0.48 -0.6,-0.48 -0.6,-1.2 z" />
      <path
         id="path14395"
         style=""
         d="m 1101.9603,1014.9063 q 0,0.88 -0.36,1.36 -0.32,0.52 -0.6,0.6 -0.24,0.12 -0.44,0.12 -0.52,0 -0.88,-0.36 -0.36,-0.32 -0.56,-1.2 -0.2,-0.84 -0.28,-1.28 -0.04,-0.44 -0.16,-1.64 -0.28,-4.04 -0.64,-4.04 -0.44,0 -1.4,1.16 -4.48,5.28 -9.44,5.28 -1.48,0 -2.96,-0.56 -5.12,-1.92 -5.12,-7.84 0,-2.56 0.84,-4.88 0.88,-2.36004 2.2,-3.96004 1.36,-1.6 2.72,-2.68 1.36,-1.08 2.6,-1.52 1.56,-0.6 2.16,-0.6 1.04,0 3.48,1.36 2.48,1.36 3.44,2.64 1.08,1.44 1.64,1.44 0.04,0 0.04,0 0,-0.04 0.04,-0.04 0.44,-0.28 0.44,-10.44 0,-10.04 0.48,-11.4 0.52,-1.24 1.56,-1.24 l 1.08,0 -0.32,16.44 q -0.12,6.12 -0.12,10.92004 0,6.52 0.28,9.32 0.28,2.8 0.28,3.04 z m -9.36,-17.72004 q -2.36,-1.56 -3.28,-1.56 -0.8,0 -3.6,2.72 -2.8,2.72004 -3.32,4.00004 -0.4,0.96 -0.4,3.48 0,3.08 0.52,4 0.4,0.72 1.92,1.56 1.56,0.84 3.08,0.84 2.72,0 6.88,-4 3.28,-3.16 3.28,-4.12 0,-1.32 -1.68,-3.52 -1.64,-2.20004 -3.4,-3.40004 z" />
      <path
         id="path14397"
         style=""
         d="m 1127.6341,1005.9063 q 0.2,0 0.2,0.32 0,0.72 -1.08,2.32 -1.04,1.6 -2.24,2.64 -4.2,3.72 -8.4,3.72 -1.6,0 -3.2,-0.72 -1.56,-0.76 -2.92,-2.12 -1.36,-1.36 -2.2,-3.64 -0.84,-2.28 -0.84,-5.08 0,-1.72 0.4,-2.92 0.8,-2.44004 3.4,-5.16004 2.64,-2.72 4.96,-2.72 0.64,0 1.92,0.12 1.92,0.16 2.68,0.4 0.8,0.24 1.8,1 1.28,0.96 2.2,2.48 0.96,1.48 0.96,2.48 0,1.28004 -1,1.96004 -1,0.64 -3.88,1.28 -3.72,0.84 -7.36,1.04 l -3.72,0.2 0,1.6 q 0,2.96 2.76,5.6 2.08,2 4.32,2 1.72,0 3.64,-1.04 1.96,-1.08 3.32,-2.36 1.36,-1.28 2.6,-2.32 1.24,-1.08 1.68,-1.08 z m -6.44,-9.76004 q -1.24,-1.12 -1.88,-1.4 -0.6,-0.32 -1.6,-0.32 -2,0 -3,0.4 -0.96,0.36 -1.96,1.52 -3.04,3.48 -3.04,4.64004 0,0.52 0.96,0.52 3.64,0 10.32,-1.52004 2,-0.48 2,-1.68 0,-0.56 -1.8,-2.16 z" />
    </g>
    <path
       id="rect26643"
       d="m 568.82043,33.240101 28.47576,0 0,32.35881 -28.47576,0 z"
       style="opacity:1;fill:none;fill-opacity:1;stroke:#000000;stroke-width:1;stroke-linecap:round;stroke-linejoin:round;stroke-miterlimit:4;stroke-dasharray:8, 4;stroke-dashoffset:0;stroke-opacity:1"
       transform="matrix(0.56950392,0.82198861,-0.82198861,0.56950392,0,0)" />
    <path
       id="path26645"
       d="M 560.3298,17.933561 -321.6317,637.96547"
       style="fill:none;fill-rule:evenodd;stroke:#000000;stroke-width:1;stroke-linecap:butt;stroke-linejoin:miter;stroke-miterlimit:4;stroke-dasharray:3, 1;stroke-dashoffset:0;stroke-opacity:1" />
    <path
       style="fill:none;fill-rule:evenodd;stroke:#000000;stroke-width:1px;stroke-linecap:butt;stroke-linejoin:miter;stroke-opacity:1;marker-end:url(#marker21983)"
       d="M 58.940299,441.44327 303.6357,269.60197"
       id="path26647" />
    <path
       style="fill:none;fill-rule:evenodd;stroke:#000000;stroke-width:1px;stroke-linecap:butt;stroke-linejoin:miter;stroke-opacity:1;marker-end:url(#marker22571)"
       d="M 58.940299,641.37167 394.9535,405.42207"
       id="path26649" />
    <path
       id="path26651"
       d="m 469.1989,400.17767 -74.2451,5.2448 -91.6984,-135.797 76.9652,-4.7512 z"
       style="fill:url(#side);fill-rule:evenodd;stroke:none;stroke-width:1px;stroke-linecap:butt;stroke-linejoin:miter;stroke-opacity:1" />
    <path
       id="path26653"
       d="m 380.2206,264.87427 51.2232,-102.9734 88.543,131.4938 -50.7974,106.7829 z"
       style="fill:url(#red);fill-rule:evenodd;stroke:none;stroke-width:1px;stroke-linecap:butt;stroke-linejoin:miter;stroke-opacity:1" />
    <path
       id="path26655"
       d="m -254.8477,837.48467 774.8345,-544.09"
       style="fill:none;fill-rule:evenodd;stroke:#000000;stroke-width:1px;stroke-linecap:butt;stroke-linejoin:miter;stroke-opacity:1;marker-end:url(#marker20527)" />
    <path
       id="path26657"
       d="m 125.437,441.44327 254.7836,-176.569"
       style="fill:none;fill-rule:evenodd;stroke:#000000;stroke-width:1px;stroke-linecap:butt;stroke-linejoin:miter;stroke-opacity:1;marker-end:url(#marker22265)" />
    <path
       id="path26659"
       d="m 431.4438,161.90087 -77.9,5.2549 -50.2884,102.4697 76.9652,-4.7512 z"
       style="fill:url(#top);fill-rule:evenodd;stroke:none;stroke-width:1px;stroke-linecap:butt;stroke-linejoin:miter;stroke-opacity:1" />
    <path
       id="rect26661"
       d="m 165.8205,710.19672 100,0 0,200 -100,0 z"
       style="fill:url(#red);fill-opacity:1;stroke:none;stroke-width:1;stroke-linecap:round;stroke-linejoin:round;stroke-miterlimit:4;stroke-dasharray:none;stroke-dashoffset:0;stroke-opacity:1"
       transform="matrix(0.82776041,-0.56108172,0.56108172,0.82776041,0,0)" />
    <path
       id="rect26663"
       d="m 710.26849,-165.8205 199.92835,0 0,66.496708 -199.92835,0 z"
       style="fill:url(#linearGradient26689);fill-opacity:1;stroke:none;stroke-width:1;stroke-linecap:round;stroke-linejoin:round;stroke-miterlimit:4;stroke-dasharray:none;stroke-dashoffset:0;stroke-opacity:1"
       transform="matrix(0.56108172,0.82776041,-0.82776041,0.56108172,0,0)" />
    <path
       id="rect26665"
       d="m 948.66443,-265.8205 199.92837,0 0,66.49671 -199.92837,0 z"
       style="fill:url(#linearGradient26691);fill-opacity:1;stroke:none;stroke-width:1;stroke-linecap:round;stroke-linejoin:round;stroke-miterlimit:4;stroke-dasharray:none;stroke-dashoffset:0;stroke-opacity:1"
       transform="matrix(0.56108172,0.82776041,-0.82776041,0.56108172,0,0)" />
    <path
       id="rect26667"
       d="m 99.323669,948.66443 100.000001,0 0,199.99997 -100.000001,0 z"
       style="fill:url(#red);fill-opacity:1;stroke:none;stroke-width:1;stroke-linecap:round;stroke-linejoin:round;stroke-miterlimit:4;stroke-dasharray:none;stroke-dashoffset:0;stroke-opacity:1"
       transform="matrix(0.82776041,-0.56108172,0.56108172,0.82776041,0,0)" />
    <path
       style="fill:none;fill-rule:evenodd;stroke:#000000;stroke-width:1px;stroke-linecap:butt;stroke-linejoin:miter;stroke-opacity:1;marker-end:url(#marker23061)"
       d="M 809.48702,838.98187 353.5438,167.15577"
       id="path26669" />
    <path
       id="path26671"
       d="M 647.95432,660.38577 380.2206,264.87427"
       style="fill:none;fill-rule:evenodd;stroke:#000000;stroke-width:1px;stroke-linecap:butt;stroke-linejoin:miter;stroke-opacity:1;marker-end:url(#marker17339)" />
    <path
       style="fill:none;fill-rule:evenodd;stroke:#000000;stroke-width:1px;stroke-linecap:butt;stroke-linejoin:miter;stroke-opacity:1;marker-end:url(#marker22859)"
       d="M 726.71102,895.08987 395.0859,405.41317"
       id="path26673" />
    <path
       id="path26675"
       d="M 864.49002,801.61237 519.9868,293.39467"
       style="fill:none;fill-rule:evenodd;stroke:#000000;stroke-width:1px;stroke-linecap:butt;stroke-linejoin:miter;stroke-opacity:1;marker-end:url(#marker23269)" />
    <path
       id="path26677"
       d="m -255.135,637.89387 686.5788,-475.993"
       style="fill:none;fill-rule:evenodd;stroke:#000000;stroke-width:1px;stroke-linecap:butt;stroke-linejoin:miter;stroke-opacity:1;marker-end:url(#marker24955)" />
    <g
       id="text26679"
       style="font-style:normal;font-variant:normal;font-weight:normal;font-stretch:normal;font-size:40px;line-height:125%;font-family:Purisa;-inkscape-font-specification:Purisa;letter-spacing:0px;word-spacing:0px;fill:#000000;fill-opacity:1;stroke:none;stroke-width:1px;stroke-linecap:butt;stroke-linejoin:miter;stroke-opacity:1">
      <path
         id="path14405"
         style=""
         d="m -132.31048,809.34894 q -0.84,0 -3.36,0.4 -2.48,0.36 -4.68,0.76 -2.16,0.4 -2.24,0.4 -0.52,0 -0.52,-0.52 0,-0.72 -0.48,-0.72 -0.44,0 -0.44,-0.4 0,-0.28 1.28,-0.68 1.32,-0.4 3.28,-0.8 1.96,-0.4 3.84,-0.76 1.92,-0.36 3.48,-0.6 1.6,-0.28 1.76,-0.32 0.44,-0.08 0.88,-0.16 0.48,-0.12 0.68,-0.16 0.24,-0.04 0.32,-0.04 0.4,0 0.84,0.6 0.48,0.6 0.48,1.08 0,0.48 -2.76,3.6 -2.72,3.08 -2.72,3.24 0,0.24 1.32,0.24 1.12,0 2.6,1.44 1.48,1.4 1.84,2.8 0.16,0.6 0.16,1.52 0,3.36 -1.72,6.08 -1.4,2.2 -4,3.6 -2.6,1.36 -4.92,1.36 -2.6,0 -3.32,-1.64 -0.56,-1.12 -0.56,-2.48 0,-1.64 0.76,-1.64 0.68,0 1.28,0.8 0.64,0.8 0.64,1.72 0.04,0.68 0.32,0.84 0.32,0.16 1.52,0.16 1.64,0 3.44,-0.96 1.8,-1 2.88,-2.48 0.96,-1.32 0.96,-4.12 0,-2.48 -0.64,-3.48 -0.6,-1.04 -2.16,-1.04 -1.48,0 -2.52,0.44 -1,0.44 -1.64,0.92 -0.64,0.44 -1.2,0.44 -0.6,0 -0.96,-0.36 -0.36,-0.36 -0.36,-0.96 0,-0.76 0.48,-0.76 0.52,0 1.64,-1.2 4.76,-5.48 4.76,-6.08 0,-0.08 -0.24,-0.08 z" />
      <path
         id="path14407"
         style=""
         d="m -110.0561,820.50894 q 0,-1.92 -0.48,-3.12 -0.48,-1.2 -1.28,-1.2 -0.88,0 -2.52,0.88 -1.6,0.88 -2.4,1.8 -1,1.12 -1.4,1.12 -0.32,0 -0.92,-0.6 -0.68,-0.68 -0.68,-6.28 0,-4.72 0.56,-5.08 0.4,-0.24 4.88,-0.44 4.48,-0.2 5.72,-0.48 1.16,-0.28 1.92,-0.28 0.96,0 0.96,0.56 0,0.64 -3.28,1.56 -3.24,0.92 -5.48,0.92 l -0.64,0 q -2.72,0 -2.72,2 0,0.32 0.16,1.04 0.2,0.68 0.2,1.48 0,0.36 -0.08,0.92 l -0.24,1.24 1.36,-0.84 q 2.48,-1.56 4.8,-1.56 0.84,0 1.24,0.2 1.08,0.48 1.84,2.4 0.76,1.88 0.76,4.08 0,0.92 -0.2,2 -0.84,4.48 -3,6.52 -2.12,2.04 -5.96,2.04 -1.28,0 -1.8,-0.28 -0.52,-0.24 -1.36,-1.28 -1.6,-1.96 -1.6,-3.36 0,-1 0.28,-1 0.2,0 0.64,0.92 0.8,1.48 1.96,2.08 1.2,0.6 3.28,0.6 1.84,0 2.84,-0.84 1.04,-0.88 1.88,-3.2 0.76,-2.04 0.76,-4.52 z" />
      <path
         id="path14409"
         style=""
         d="m -98.932354,830.26894 q 0,-1.44 2,-3.52 2.04,-2.12 2.72,-2.12 0.84,0 0.84,-0.64 0,-0.24 0.28,-0.44 0.32,-0.2 0.72,-0.2 0.4,0 0.68,0.2 0.28,0.2 0.28,0.44 0,0.64 1.16,0.64 1.04,0 1.72,1 0.72,1 0.72,2.36 0,2.2 -2.08,4.4 -2.08,2.24 -4.68,2.24 -2.24,0 -3.32,-1.56 -1.04,-1.56 -1.04,-2.8 z m 5.16,0.16 q 0.72,0 1.4,-0.64 0.72,-0.64 0.72,-0.92 0,-0.2 -0.52,-0.2 -0.96,0 -1.56,0.4 -0.6,0.4 -0.6,0.92 0,0.44 0.56,0.44 z" />
      <path
         id="path14411"
         style=""
         d="m -58.415479,827.54894 q 1.56,0 2.24,0.16 0.72,0.16 0.84,0.4 0.16,0.2 0.16,0.72 0,0.64 -0.68,0.72 -0.64,0.08 -3.04,0.2 -2.4,0.12 -5.08,0.64 -1.88,0.36 -4.04,0.64 -2.16,0.32 -3.16,0.48 -1,0.2 -1.28,0.48 -0.32,0.28 -0.88,0.28 -0.64,0 -1.2,-0.36 -0.52,-0.36 -0.52,-0.84 0,-0.52 1.32,-2.24 1.32,-1.76 2.48,-2.76 1.44,-1.2 4,-6.32 2.6,-5.16 2.6,-8.4 0,-1.32 -0.76,-1.8 -0.72,-0.48 -2.52,-0.48 -4.32,0 -8.68,4.4 -2.72,2.64 -2.88,2.64 -0.2,0 -0.2,-1.36 0,-1.4 1.04,-1.96 1.08,-0.52 1.08,-1.08 0,-0.2 0.16,-0.44 0.2,-0.28 0.56,-0.56 0.4,-0.32 0.72,-0.56 0.36,-0.28 0.96,-0.68 0.6,-0.44 0.96,-0.72 0.8,-0.68 2.6,-1.36 1.84,-0.72 4,-0.72 3.64,0 4.72,2 0.44,0.76 0.44,2.56 0,3.28 -1.2,6.36 -0.88,2.08 -3.24,5.92 -2.32,3.8 -3.48,4.88 -0.44,0.44 -0.44,0.56 0,0.04 0.16,0.04 0.04,0 2,-0.36 1.96,-0.36 4.88,-0.72 2.96,-0.36 5.36,-0.36 z" />
      <path
         id="path14413"
         style=""
         d="m -45.356104,820.02894 q 0.24,0 1.44,-0.8 1.2,-0.8 2.08,-0.8 1.04,0 2.4,0.6 1.36,0.6 2.04,1.32 0.92,1.04 0.92,2.76 0,0.72 -0.16,1.16 -0.16,0.44 -0.56,1.12 -0.4,0.64 -0.64,1.2 -0.36,0.84 -2.04,2.36 -1.68,1.52 -2.6,1.88 -1,0.36 -2.48,0.36 -1.84,0 -3.12,-1.84 -1.28,-1.88 -1.28,-4.48 0,-1.36 1.04,-5.52 1.04,-4.16 2.08,-7.64 l 1.04,-3.44 q 0.52,-2.12 1.6,-2.12 0.84,0 0.84,0.76 0,1.16 -1.52,6.28 -1.52,5.08 -1.52,6.2 0,0.64 0.44,0.64 z m -1.56,4.68 q 0,1.04 0.16,1.84 0.2,0.8 0.44,1.28 0.24,0.44 0.52,0.76 0.32,0.28 0.52,0.4 0.2,0.08 0.36,0.08 0.6,0 3.44,-1.64 0.88,-0.48 1.8,-2.04 0.96,-1.56 0.96,-2.52 0,-0.72 -0.24,-1.08 -0.24,-0.4 -0.92,-0.72 -1.08,-0.64 -1.88,-0.64 -0.8,0.04 -2.04,0.68 -1.2,0.64 -2.12,1.52 -0.6,0.6 -0.8,1 -0.2,0.4 -0.2,1.08 z" />
      <path
         id="path14415"
         style=""
         d="m -20.781729,807.54894 q 0.48,0 0.8,-0.56 0.36,-0.56 0.76,-0.56 0.4,0 0.68,0.36 0.32,0.32 0.32,0.64 0,0.84 -0.88,1.72 -0.68,0.76 -0.84,1.52 -0.12,0.76 -0.12,3.56 0,2.28 0.12,3.36 0.12,1.04 0.24,1.24 0.16,0.16 0.52,0.16 0.56,0 1.72,-0.4 1.16,-0.4 1.44,-0.6 0.16,-0.16 0.56,-0.16 0.64,0 1.24,0.4 0.64,0.36 0.64,0.92 0,0.4 -0.36,0.76 -0.36,0.32 -1,0.36 -1.2,0.16 -2.96,0.72 l -1.8,0.6 0.16,3.36 q 0.08,1.84 0.32,3.04 0.24,1.2 0.44,1.68 0.2,0.48 0.2,0.68 0,0.4 -0.44,0.8 -0.44,0.44 -0.84,0.44 -1.4,0 -1.92,-6.32 -0.2,-1.88 -0.32,-2.4 -0.12,-0.52 -0.44,-0.52 l -3.16,0.68 q -3.2,0.68 -4.4,0.68 -1.44,0 -1.44,-0.88 0,-0.88 1.52,-3.2 2.92,-4.36 5.84,-8.2 2.96,-3.84 3.4,-3.88 z m -4.4,13.24 q 2.24,-0.48 2.72,-0.76 0.48,-0.32 0.48,-1.32 0,-0.88 -0.24,-3.2 l -0.28,-2.68 -1.68,2.04 q -1.16,1.44 -2.64,3.76 -1.48,2.28 -1.48,2.68 0,0.04 0.04,0.04 0.4,0 3.08,-0.56 z" />
      <path
         id="path14417"
         style=""
         d="m -10.323604,803.62894 q 0,-1.84 1.2000005,-2.92 1.2,-1.12 2.72,-1.12 1.72,0 2.92,1.36 1.24,1.32 1.24,2.68 0,1.64 -1.84,2.88 -1.84,1.24 -3.04,1.24 -1.36,0 -2.28,-1.24 -0.9200005,-1.28 -0.9200005,-2.88 z m 2.7200005,-0.4 q 0,0.72 0.24,1.12 0.24,0.4 0.44,0.44 0.24,0.04 0.56,0.04 0.56,0 0.96,-0.24 0.44,-0.28 0.44,-0.68 0,-0.52 -0.84,-1.16 -0.8,-0.64 -1.28,-0.64 -0.52,0 -0.52,1.12 z" />
    </g>
  </g>
</svg>
