<?xml version="1.0" encoding="UTF-8" standalone="no"?>
<svg
   xmlns:osb="http://www.openswatchbook.org/uri/2009/osb"
   xmlns:dc="http://purl.org/dc/elements/1.1/"
   xmlns:cc="http://creativecommons.org/ns#"
   xmlns:rdf="http://www.w3.org/1999/02/22-rdf-syntax-ns#"
   xmlns:svg="http://www.w3.org/2000/svg"
   xmlns="http://www.w3.org/2000/svg"
   xmlns:xlink="http://www.w3.org/1999/xlink"
   version="1.1"
   id="svg11167"
   viewBox="0 0 1535.3185 989.17805"
   height="279.16803mm"
   width="433.30099mm">
  <defs
     id="defs11169">
    <linearGradient
       y2="1102.3622"
       x2="120"
       y1="972.36218"
       x1="120"
       gradientTransform="matrix(0.70710678,0.70710678,0.70710678,-0.70710678,-884.87062,1088.9945)"
       gradientUnits="userSpaceOnUse"
       id="linearGradient6453"
       xlink:href="#blue_gradient-2" />
    <linearGradient
       osb:paint="gradient"
       id="blue_gradient-2">
      <stop
         id="stop4206"
         offset="0"
         style="stop-color:#2a7fff;stop-opacity:1;" />
      <stop
         id="stop4208"
         offset="1"
         style="stop-color:#2a7fff;stop-opacity:0;" />
    </linearGradient>
    <linearGradient
       gradientTransform="matrix(0.9422018,-0.33504593,0.33504593,0.9422018,2643.1616,-2513.0883)"
       osb:paint="solid"
       id="top">
      <stop
         id="stop5590"
         offset="0"
         style="stop-color:#f9d455;stop-opacity:1;" />
    </linearGradient>
    <linearGradient
       gradientTransform="matrix(0.94220181,-0.33504593,0.33504593,0.94220181,22141.498,-1925.9767)"
       osb:paint="solid"
       id="red">
      <stop
         id="stop5548"
         offset="0"
         style="stop-color:#e31616;stop-opacity:1;" />
    </linearGradient>
    <linearGradient
       gradientTransform="matrix(0.9422018,-0.33504593,0.33504593,0.9422018,2655.8467,-2509.8262)"
       osb:paint="solid"
       id="side">
      <stop
         id="stop5530"
         offset="0"
         style="stop-color:#265998;stop-opacity:1;" />
    </linearGradient>
    <marker
       orient="auto"
       refY="0"
       refX="0"
       id="marker13605"
       style="overflow:visible">
      <path
         id="path13607"
         d="M 0,0 5,-5 -12.5,0 5,5 0,0 Z"
         style="fill:#000000;fill-opacity:1;fill-rule:evenodd;stroke:#000000;stroke-width:1pt;stroke-opacity:1"
         transform="matrix(-0.8,0,0,-0.8,-10,0)" />
    </marker>
    <linearGradient
       y2="1092.722"
       x2="1934.082"
       y1="1092.722"
       x1="1734.1537"
       gradientTransform="translate(-1029.0839,-599.45262)"
       gradientUnits="userSpaceOnUse"
       id="linearGradient15173"
       xlink:href="#side" />
    <marker
       style="overflow:visible"
       id="marker14931"
       refX="0"
       refY="0"
       orient="auto">
      <path
         transform="matrix(-0.8,0,0,-0.8,-10,0)"
         style="fill:#000000;fill-opacity:1;fill-rule:evenodd;stroke:#000000;stroke-width:1pt;stroke-opacity:1"
         d="M 0,0 5,-5 -12.5,0 5,5 0,0 Z"
         id="path14933" />
    </marker>
    <marker
       orient="auto"
       refY="0"
       refX="0"
       id="marker14307"
       style="overflow:visible">
      <path
         id="path14309"
         d="M 0,0 5,-5 -12.5,0 5,5 0,0 Z"
         style="fill:#000000;fill-opacity:1;fill-rule:evenodd;stroke:#000000;stroke-width:1pt;stroke-opacity:1"
         transform="matrix(-0.8,0,0,-0.8,-10,0)" />
    </marker>
    <marker
       style="overflow:visible"
       id="marker14031"
       refX="0"
       refY="0"
       orient="auto">
      <path
         transform="matrix(-0.8,0,0,-0.8,-10,0)"
         style="fill:#000000;fill-opacity:1;fill-rule:evenodd;stroke:#000000;stroke-width:1pt;stroke-opacity:1"
         d="M 0,0 5,-5 -12.5,0 5,5 0,0 Z"
         id="path14033" />
    </marker>
    <marker
       orient="auto"
       refY="0"
       refX="0"
       id="marker10023"
       style="overflow:visible">
      <path
         id="path10025"
         d="M 0,0 5,-5 -12.5,0 5,5 0,0 Z"
         style="fill:#000000;fill-opacity:1;fill-rule:evenodd;stroke:#000000;stroke-width:1pt;stroke-opacity:1"
         transform="matrix(-0.8,0,0,-0.8,-10,0)" />
    </marker>
    <linearGradient
       y2="1092.722"
       x2="1934.082"
       y1="1092.722"
       x1="1734.1537"
       gradientTransform="translate(-987.29255,-948.24348)"
       gradientUnits="userSpaceOnUse"
       id="linearGradient10003"
       xlink:href="#side" />
    <linearGradient
       y2="1092.722"
       x2="1934.082"
       y1="1092.722"
       x1="1734.1537"
       gradientTransform="translate(-1225.6886,-848.24348)"
       gradientUnits="userSpaceOnUse"
       id="linearGradient9997"
       xlink:href="#side" />
    <marker
       style="overflow:visible"
       id="marker7041"
       refX="0"
       refY="0"
       orient="auto">
      <path
         transform="matrix(-0.8,0,0,-0.8,-10,0)"
         style="fill:#000000;fill-opacity:1;fill-rule:evenodd;stroke:#000000;stroke-width:1pt;stroke-opacity:1"
         d="M 0,0 5,-5 -12.5,0 5,5 0,0 Z"
         id="path7043" />
    </marker>
    <marker
       style="overflow:visible"
       id="marker6743"
       refX="0"
       refY="0"
       orient="auto">
      <path
         transform="matrix(-0.8,0,0,-0.8,-10,0)"
         style="fill:#000000;fill-opacity:1;fill-rule:evenodd;stroke:#000000;stroke-width:1pt;stroke-opacity:1"
         d="M 0,0 5,-5 -12.5,0 5,5 0,0 Z"
         id="path6745" />
    </marker>
    <marker
       style="overflow:visible"
       id="marker6455"
       refX="0"
       refY="0"
       orient="auto">
      <path
         transform="matrix(-0.8,0,0,-0.8,-10,0)"
         style="fill:#000000;fill-opacity:1;fill-rule:evenodd;stroke:#000000;stroke-width:1pt;stroke-opacity:1"
         d="M 0,0 5,-5 -12.5,0 5,5 0,0 Z"
         id="path6457" />
    </marker>
    <marker
       orient="auto"
       refY="0"
       refX="0"
       id="marker6539"
       style="overflow:visible">
      <path
         id="path6541"
         d="M 0,0 5,-5 -12.5,0 5,5 0,0 Z"
         style="fill:#000000;fill-opacity:1;fill-rule:evenodd;stroke:#000000;stroke-width:1pt;stroke-opacity:1"
         transform="matrix(-0.8,0,0,-0.8,-10,0)" />
    </marker>
    <linearGradient
       y2="1092.722"
       x2="1934.082"
       y1="1092.722"
       x1="1734.1537"
       gradientTransform="translate(-1215.084,-885.94922)"
       gradientUnits="userSpaceOnUse"
       id="linearGradient6435"
       xlink:href="#side" />
  </defs>
  <metadata
     id="metadata11172">
    <rdf:RDF>
      <cc:Work
         rdf:about="">
        <dc:format>image/svg+xml</dc:format>
        <dc:type
           rdf:resource="http://purl.org/dc/dcmitype/StillImage" />
        <dc:title></dc:title>
      </cc:Work>
    </rdf:RDF>
  </metadata>
  <g
     transform="translate(664.80212,-129.20177)"
     id="layer1">
    <rect
       style="fill:url(#linearGradient6435);fill-opacity:1;stroke:none;stroke-width:1;stroke-linecap:round;stroke-linejoin:round;stroke-miterlimit:4;stroke-dasharray:none;stroke-dashoffset:0;stroke-opacity:1"
       id="rect6431"
       width="199.92834"
       height="66.496704"
       x="519.0697"
       y="173.52437"
       ry="0"
       transform="matrix(0,1,-1,0,0,0)" />
    <rect
       style="fill:url(#red);fill-opacity:1;stroke:none;stroke-width:1;stroke-linecap:round;stroke-linejoin:round;stroke-miterlimit:4;stroke-dasharray:none;stroke-dashoffset:0;stroke-opacity:1"
       id="rect6433"
       width="100"
       height="200"
       x="-340.02109"
       y="518.99817"
       ry="0" />
    <path
       style="fill:none;fill-rule:evenodd;stroke:#000000;stroke-width:1;stroke-linecap:butt;stroke-linejoin:miter;stroke-miterlimit:4;stroke-dasharray:3, 1;stroke-dashoffset:0;stroke-opacity:1"
       d="m 320.32443,225.20157 -680.3455,679.79661"
       id="path6445" />
    <path
       id="path6447"
       d="M -147.16557,324.01425 66.829226,538.71614"
       style="fill:none;fill-rule:evenodd;stroke:#000000;stroke-width:1px;stroke-linecap:butt;stroke-linejoin:miter;stroke-opacity:1" />
    <path
       style="fill:none;fill-rule:evenodd;stroke:#000000;stroke-width:1px;stroke-linecap:butt;stroke-linejoin:miter;stroke-opacity:1;marker-end:url(#marker6539)"
       d="M -240.02107,519.0697 -56.866474,335.84352"
       id="path6537" />
    <path
       id="path7023"
       d="m 123.40463,422.12905 -80.298604,13.74188 -99.9805,-99.98054 80.285,-13.75552 z"
       style="fill:url(#side);fill-rule:evenodd;stroke:none;stroke-width:1px;stroke-linecap:butt;stroke-linejoin:miter;stroke-opacity:1" />
    <path
       id="path9973"
       d="m 23.410426,322.13484 20.6409,-120.78049 100.034004,100.03407 -20.6899,120.74221 z"
       style="fill:url(#red);fill-rule:evenodd;stroke:none;stroke-width:1px;stroke-linecap:butt;stroke-linejoin:miter;stroke-opacity:1" />
    <path
       id="path6451"
       d="M -173.17077,518.71614 23.410426,322.13484"
       style="fill:none;fill-rule:evenodd;stroke:#000000;stroke-width:1px;stroke-linecap:butt;stroke-linejoin:miter;stroke-opacity:1;marker-end:url(#marker6455)" />
    <rect
       transform="matrix(0.70710678,-0.70710678,0.70710678,0.70710678,0,0)"
       ry="0"
       y="508.39346"
       x="-211.23007"
       height="200"
       width="100"
       id="rect9975"
       style="fill:url(#red);fill-opacity:1;stroke:none;stroke-width:1;stroke-linecap:round;stroke-linejoin:round;stroke-miterlimit:4;stroke-dasharray:none;stroke-dashoffset:0;stroke-opacity:1" />
    <path
       id="path9991"
       d="m 44.051326,201.35437 -80.2346,13.80596 -20.6912,120.73006 80.285,-13.75552 z"
       style="fill:url(#top);fill-rule:evenodd;stroke:none;stroke-width:1px;stroke-linecap:butt;stroke-linejoin:miter;stroke-opacity:1" />
    <path
       id="path6741"
       d="M -240.02107,718.99816 43.058826,435.82376"
       style="fill:none;fill-rule:evenodd;stroke:#000000;stroke-width:1px;stroke-linecap:butt;stroke-linejoin:miter;stroke-opacity:1;marker-end:url(#marker6743)" />
    <path
       id="path7039"
       d="M -460.02107,705.06982 44.051326,201.35438"
       style="fill:none;fill-rule:evenodd;stroke:#000000;stroke-width:1px;stroke-linecap:butt;stroke-linejoin:miter;stroke-opacity:1;marker-end:url(#marker7041)" />
    <rect
       transform="matrix(0.70710678,0.70710678,-0.70710678,0.70710678,0,0)"
       ry="0"
       y="211.23007"
       x="508.46512"
       height="66.496704"
       width="199.92834"
       id="rect9995"
       style="fill:url(#linearGradient9997);fill-opacity:1;stroke:none;stroke-width:1;stroke-linecap:round;stroke-linejoin:round;stroke-miterlimit:4;stroke-dasharray:none;stroke-dashoffset:0;stroke-opacity:1" />
    <rect
       style="fill:url(#linearGradient10003);fill-opacity:1;stroke:none;stroke-width:1;stroke-linecap:round;stroke-linejoin:round;stroke-miterlimit:4;stroke-dasharray:none;stroke-dashoffset:0;stroke-opacity:1"
       id="rect10001"
       width="199.92834"
       height="66.496704"
       x="746.86115"
       y="111.23006"
       ry="0"
       transform="matrix(0.70710678,0.70710678,-0.70710678,0.70710678,0,0)" />
    <rect
       style="fill:url(#red);fill-opacity:1;stroke:none;stroke-width:1;stroke-linecap:round;stroke-linejoin:round;stroke-miterlimit:4;stroke-dasharray:none;stroke-dashoffset:0;stroke-opacity:1"
       id="rect10005"
       width="100"
       height="200"
       x="-277.72678"
       y="746.86115"
       ry="0"
       transform="matrix(0.70710678,-0.70710678,0.70710678,0.70710678,0,0)" />
    <path
       style="fill:none;fill-rule:evenodd;stroke:#000000;stroke-width:1px;stroke-linecap:butt;stroke-linejoin:miter;stroke-opacity:1;marker-end:url(#marker10023)"
       d="M 543.86012,795.20378 -36.183174,215.16032"
       id="path10021" />
    <path
       id="path14029"
       d="M 351.54763,650.27203 23.410426,322.13484"
       style="fill:none;fill-rule:evenodd;stroke:#000000;stroke-width:1px;stroke-linecap:butt;stroke-linejoin:miter;stroke-opacity:1;marker-end:url(#marker14031)" />
    <path
       style="fill:none;fill-rule:evenodd;stroke:#000000;stroke-width:1px;stroke-linecap:butt;stroke-linejoin:miter;stroke-opacity:1;marker-end:url(#marker14307)"
       d="M 473.14952,865.91438 43.058826,435.82376"
       id="path14305" />
    <path
       id="path14929"
       d="M 590.82972,748.1328 144.08533,301.38847"
       style="fill:none;fill-rule:evenodd;stroke:#000000;stroke-width:1px;stroke-linecap:butt;stroke-linejoin:miter;stroke-opacity:1;marker-end:url(#marker14931)" />
    <rect
       style="fill:url(#red);fill-opacity:1;stroke:none;stroke-width:1;stroke-linecap:round;stroke-linejoin:round;stroke-miterlimit:4;stroke-dasharray:none;stroke-dashoffset:0;stroke-opacity:1"
       id="rect15169"
       width="100"
       height="200"
       x="-460.02109"
       y="704.99817"
       ry="0" />
    <rect
       style="fill:url(#linearGradient15173);fill-opacity:1;stroke:none;stroke-width:1;stroke-linecap:round;stroke-linejoin:round;stroke-miterlimit:4;stroke-dasharray:none;stroke-dashoffset:0;stroke-opacity:1"
       id="rect15171"
       width="199.92834"
       height="66.496704"
       x="705.06982"
       y="460.02109"
       ry="0"
       transform="matrix(0,1,-1,0,0,0)" />
    <path
       style="fill:none;fill-rule:evenodd;stroke:#000000;stroke-width:1px;stroke-linecap:butt;stroke-linejoin:miter;stroke-opacity:1;marker-end:url(#marker13605)"
       d="M -460.02107,904.99818 144.08533,301.38847"
       id="path13603" />
    <g
       id="flowRoot16417"
       style="font-style:normal;font-variant:normal;font-weight:normal;font-stretch:normal;font-size:40px;line-height:125%;font-family:Purisa;-inkscape-font-specification:Purisa;text-align:center;letter-spacing:0px;word-spacing:0px;text-anchor:middle;fill:#000000;fill-opacity:1;stroke:none;stroke-width:1px;stroke-linecap:butt;stroke-linejoin:miter;stroke-opacity:1"
       transform="translate(-1378.5925,-204.79259)">
      <path
         id="path12090"
         style=""
         d="m 817.33902,1125.7063 q -1.32,0 -2.76,0.32 -1.44,0.32 -1.88,0.32 -1,0 -1.72,-0.36 -0.68,-0.36 -0.68,-0.92 0,-0.68 0.88,-0.92 0.92,-0.28 4.8,-0.88 7.88,-1.2 15.08,-2.6 4.44,-0.84 5.76,-0.84 1.24,0 2.52,0.52 1.28,0.52 1.28,1.16 0,0.6 -1.04,1.04 -1.04,0.4 -2.76,0.4 -2.68,0 -5.72,0.72 l -3.08,0.72 0.6,3.36 q 0.44,3.12 1.04,11.96 0.64,8.8 0.76,9.84 0.12,1.04 0.12,1.56 0,1.24 -1.08,1.24 -1.04,0 -1.56,-2.6 -0.48,-2.6 -0.92,-10.2 -0.8,-12.96 -2.08,-14.32 -0.32,-0.32 -1.04,-0.32 -0.32,0 -2.76,0.4 -2.4,0.4 -3.76,0.4 z" />
      <path
         id="path12092"
         style=""
         d="m 845.58027,1147.0663 q 0,-3.2 -0.8,-12.88 -0.76,-9.72 -0.76,-13.4 0,-2.12 0.24,-2.56 0.48,-0.84 0.92,-0.84 0.72,0 0.92,1.4 0.24,1.4 0.64,7.08 0.32,4.56 0.56,7.64 l 0.36,4.72 0.72,-1.56 q 0.8,-1.8 3.92,-4.72 3.12,-2.92 4.2,-2.92 1,0 2.2,1.12 1.2,1.12 1.56,2.4 0.32,1.08 0.32,9.72 0,6.24 -0.12,7.4 -0.12,1.12 -0.76,1.12 -0.64,0 -0.84,-1.16 -0.16,-1.16 -0.32,-6.68 -0.24,-7.72 -0.96,-9.88 l -0.64,-2 -2.32,2.16 q -1.84,1.76 -3.4,4 -1.52,2.24 -2.08,3.96 -0.36,1.24 -0.6,3.96 -0.24,2.72 -0.6,4.48 -0.32,1.76 -0.96,1.76 -0.28,0 -0.68,-0.32 -0.72,-0.6 -0.72,-4 z" />
      <path
         id="path12094"
         style=""
         d="m 885.98465,1141.9063 q 0.2,0 0.2,0.32 0,0.72 -1.08,2.32 -1.04,1.6 -2.24,2.64 -4.2,3.72 -8.4,3.72 -1.6,0 -3.2,-0.72 -1.56,-0.76 -2.92,-2.12 -1.36,-1.36 -2.2,-3.64 -0.84,-2.28 -0.84,-5.08 0,-1.72 0.4,-2.92 0.8,-2.44 3.4,-5.16 2.64,-2.72 4.96,-2.72 0.64,0 1.92,0.12 1.92,0.16 2.68,0.4 0.8,0.24 1.8,1 1.28,0.96 2.2,2.48 0.96,1.48 0.96,2.48 0,1.28 -1,1.96 -1,0.64 -3.88,1.28 -3.72,0.84 -7.36,1.04 l -3.72,0.2 0,1.6 q 0,2.96 2.76,5.6 2.08,2 4.32,2 1.72,0 3.64,-1.04 1.96,-1.08 3.32,-2.36 1.36,-1.28 2.6,-2.32 1.24,-1.08 1.68,-1.08 z m -6.44,-9.76 q -1.24,-1.12 -1.88,-1.4 -0.6,-0.32 -1.6,-0.32 -2,0 -3,0.4 -0.96,0.36 -1.96,1.52 -3.04,3.48 -3.04,4.64 0,0.52 0.96,0.52 3.64,0 10.32,-1.52 2,-0.48 2,-1.68 0,-0.56 -1.8,-2.16 z" />
      <path
         id="path12096"
         style=""
         d="m 932.77152,1128.8263 q 0.56,0 1.28,0.36 0.76,0.32 1.6,1.04 0.84,0.68 1.4,2.12 0.56,1.4 0.56,3.28 0,2.8 -1.28,5.84 -1.24,3 -3.48,5.24 -1.68,1.68 -4.44,3.2 -2.72,1.52 -4.04,1.52 -1.32,0 -2.96,-0.92 -1.64,-0.92 -1.84,-1.72 -0.12,-0.44 -0.44,-8.08 -0.32,-7.68 -0.84,-10.88 -1.08,-6.8 -1.08,-10.88 0,-1.48 0.56,-2.04 0.6,-0.6 0.96,-0.6 0.6,0 0.8,1.48 0.24,1.48 0.48,4.88 0.24,3.4 0.64,5.96 0.52,3.36 0.72,5.52 l 0.2,2.2 3.12,-3.08 q 3.12,-3.12 5.24,-3.8 2.04,-0.64 2.84,-0.64 z m 2.52,7 q 0,-4.44 -2.64,-4.44 -0.72,0 -1.96,0.24 -0.84,0.16 -2.8,1.92 -1.96,1.72 -3.56,3.72 -1,1.28 -1.6,3.4 -0.56,2.12 -0.56,4.16 0,2.28 0.68,3.36 0.68,1.04 1.52,1.04 0.44,0 2,-0.48 1.76,-0.56 3.68,-2.24 1.96,-1.68 3.4,-3.88 1.84,-2.84 1.84,-6.8 z" />
      <path
         id="path12098"
         style=""
         d="m 954.4634,1130.5863 q -1.84,0 -3.92,0.76 -2.04,0.76 -3.64,1.56 -1.6,0.76 -2.32,0.76 -0.48,0 -0.48,-0.4 0,-0.56 0.24,-0.96 0.24,-0.4 0.88,-0.76 0.64,-0.36 1.2,-0.6 0.6,-0.24 1.88,-0.68 1.28,-0.48 2.2,-0.88 2.16,-0.84 3.64,-0.84 2.64,0 4.12,2.88 0.72,1.4 0.84,2.6 0.12,1.16 0.2,6.6 0.04,3.04 0.12,5.12 0.08,2.04 0.16,2.6 l 0.08,0.52 q 0,0.56 -0.52,1.2 -0.48,0.64 -0.72,0.64 -0.8,0 -1.24,-2.52 -0.44,-2.56 -0.48,-2.56 -0.12,0 -0.36,0.44 -0.8,1.32 -3.24,2.92 -2.4,1.56 -4.04,1.56 -1,0 -2.36,-0.36 -1.32,-0.4 -1.92,-0.84 -0.44,-0.36 -0.76,-1.44 -0.28,-1.08 -0.28,-2.2 0,-1.68 0.88,-2.88 0.92,-1.24 3.24,-2.52 2.52,-1.48 4.88,-1.48 0.96,0 1.6,0.32 0.64,0.32 0.96,0.68 0.32,0.32 0.52,0.32 0.2,0 0.76,0.44 0.6,0.4 0.64,0.4 0.16,0 0.16,-0.88 0,-5.36 -0.76,-7.44 -0.72,-2.08 -2.16,-2.08 z m 1.8,12.4 q 0,-0.16 -0.12,-0.36 -0.08,-0.24 -0.4,-0.52 -0.28,-0.32 -0.76,-0.56 -0.44,-0.28 -1.24,-0.44 -0.8,-0.2 -1.8,-0.2 -1.72,0 -3.04,0.6 -1.28,0.6 -1.92,1.52 -0.64,0.92 -0.96,1.72 -0.28,0.76 -0.28,1.36 0,1 0.16,1.36 0.2,0.36 0.92,0.76 0.88,0.44 1.6,0.44 1.36,0 3.36,-0.96 2.04,-1 2.04,-1.44 0,-0.32 1.2,-1.52 1.24,-1.24 1.24,-1.76 z" />
      <path
         id="path12100"
         style=""
         d="m 982.44902,1134.4263 q 0,0.68 -0.32,1.12 -0.28,0.44 -0.68,0.44 -0.76,0 -0.96,-1.16 -0.08,-0.92 -1.32,-2.32 -0.52,-0.56 -0.84,-0.8 -0.32,-0.24 -1.52,-0.52 -1.16,-0.28 -3.08,-0.28 -1.56,0 -2.4,0.56 -0.8,0.56 -2,2.28 -2.88,4.08 -2.88,7.36 0,1.68 0.36,2.84 0.36,1.12 0.68,1.52 0.36,0.36 1.16,1.16 1.16,1.12 1.76,1.44 0.64,0.28 1.76,0.28 3.48,0 7.6,-4.72 2.16,-2.4 3.12,-2.4 0.52,0 0.52,0.76 0,0.72 -1.92,3.08 -1.88,2.36 -3.24,3.32 -3.16,2.28 -5.64,2.28 -1.8,0 -3.96,-1.08 -2.2,-1.08 -3.2,-2.92 -0.96,-1.84 -1.16,-5.36 -0.12,-1.36 -0.12,-2.16 0,-1.56 1.08,-3.56 1.12,-2.16 3.24,-4.16 2.16,-2 3.72,-2.44 1.2,-0.28 2.6,-0.28 3.04,0 5.32,1.96 2.32,1.92 2.32,3.76 z" />
      <path
         id="path12102"
         style=""
         d="m 987.0234,1120.7063 q 0,-0.04 0,-0.24 0,-0.24 0,-0.36 0,-0.12 0,-0.36 0.04,-0.24 0.08,-0.36 0.08,-0.16 0.16,-0.28 0.12,-0.16 0.28,-0.24 0.16,-0.08 0.4,-0.08 0.76,0 1.12,0.92 0.24,0.56 0.52,3.44 0.32,2.88 0.64,6.48 0.36,3.6 0.6,5.12 l 0.32,2.32 4.56,-4.56 q 2.44,-2.44 3.44,-3.28 1,-0.88 1.48,-0.88 0.28,0 0.6,0.4 0.36,0.4 0.36,0.8 0,0.28 -0.16,0.48 -0.12,0.16 -0.36,0.32 -0.2,0.12 -0.68,0.64 -0.48,0.52 -1.04,1.28 -1.64,2.48 -6.32,6.24 -1.6,1.24 -1.6,2.08 0,0.56 0.72,0.92 l 4.28,2 q 2.96,1.4 4.92,2.8 1.96,1.4 1.96,2.16 0,0.84 -0.8,0.84 -0.72,0 -2.12,-0.96 -1.4,-1 -1.76,-1 -0.48,0 -0.48,-0.32 0,-0.44 -4.88,-2.24 l -2.12,-0.8 0.28,3.32 q 0.12,1.32 0.12,2.08 0,1.68 -0.84,1.68 -1.28,0 -1.64,-1.76 -0.32,-1.8 -0.6,-9.08 -0.24,-6.44 -0.6,-8.4 -0.32,-1.8 -0.6,-5.36 -0.24,-3.6 -0.24,-5.76 z" />
      <path
         id="path12104"
         style=""
         d="m 1046.104,1130.5863 q -1.84,0 -3.92,0.76 -2.04,0.76 -3.64,1.56 -1.6,0.76 -2.32,0.76 -0.48,0 -0.48,-0.4 0,-0.56 0.24,-0.96 0.24,-0.4 0.88,-0.76 0.64,-0.36 1.2,-0.6 0.6,-0.24 1.88,-0.68 1.28,-0.48 2.2,-0.88 2.16,-0.84 3.64,-0.84 2.64,0 4.12,2.88 0.72,1.4 0.84,2.6 0.12,1.16 0.2,6.6 0.04,3.04 0.12,5.12 0.08,2.04 0.16,2.6 l 0.08,0.52 q 0,0.56 -0.52,1.2 -0.48,0.64 -0.72,0.64 -0.8,0 -1.24,-2.52 -0.44,-2.56 -0.48,-2.56 -0.12,0 -0.36,0.44 -0.8,1.32 -3.24,2.92 -2.4,1.56 -4.04,1.56 -1,0 -2.36,-0.36 -1.32,-0.4 -1.92,-0.84 -0.44,-0.36 -0.76,-1.44 -0.28,-1.08 -0.28,-2.2 0,-1.68 0.88,-2.88 0.92,-1.24 3.24,-2.52 2.52,-1.48 4.88,-1.48 0.96,0 1.6,0.32 0.64,0.32 0.96,0.68 0.32,0.32 0.52,0.32 0.2,0 0.76,0.44 0.6,0.4 0.64,0.4 0.16,0 0.16,-0.88 0,-5.36 -0.76,-7.44 -0.72,-2.08 -2.16,-2.08 z m 1.8,12.4 q 0,-0.16 -0.12,-0.36 -0.08,-0.24 -0.4,-0.52 -0.28,-0.32 -0.76,-0.56 -0.44,-0.28 -1.24,-0.44 -0.8,-0.2 -1.8,-0.2 -1.72,0 -3.04,0.6 -1.28,0.6 -1.92,1.52 -0.64,0.92 -0.96,1.72 -0.28,0.76 -0.28,1.36 0,1 0.16,1.36 0.2,0.36 0.92,0.76 0.88,0.44 1.6,0.44 1.36,0 3.36,-0.96 2.04,-1 2.04,-1.44 0,-0.32 1.2,-1.52 1.24,-1.24 1.24,-1.76 z" />
      <path
         id="path12106"
         style=""
         d="m 1061.1296,1141.1063 q -0.6,0 -2.56,-1.44 -1.96,-1.48 -1.96,-3 0,-1.44 2.04,-3.96 2.04,-2.56 4.92,-3.28 1.32,-0.36 3.48,-0.36 0.92,0 1.36,0.24 0.44,0.24 1.2,1.08 1.24,1.4 1.24,1.92 0,0.48 -0.52,0.48 -0.64,0 -1.08,-0.44 -0.44,-0.48 -1.08,-0.96 -0.64,-0.48 -1.72,-0.48 -1.4,0 -3,0.76 -1.6,0.76 -2.84,2.12 -1.76,1.88 -1.76,2.56 0,0.68 1.04,1.64 1.04,0.92 3.48,1.76 3.84,1.32 5.2,2.48 1.36,1.16 1.36,3.12 0,1.84 -0.64,3.36 -0.44,1.16 -1.88,2.6 -1.44,1.44 -2.84,1.44 -1.08,0 -2.8,-0.36 -1.72,-0.32 -2.6,-0.76 -0.72,-0.36 -1.32,-1.4 -0.6,-1.08 -0.6,-1.92 0,-0.44 0.2,-0.76 0.24,-0.36 0.56,-0.36 0.6,0 1.12,1.12 0.48,1 1.92,1.8 1.48,0.8 2.76,0.8 1.72,0 3.04,-2.04 1.32,-2.08 1.32,-3.24 0,-0.28 -0.16,-0.68 -0.12,-0.44 -0.68,-1.04 -0.56,-0.6 -1.44,-0.92 -0.84,-0.28 -1.96,-0.76 -1.12,-0.48 -1.88,-0.8 -0.72,-0.32 -0.92,-0.32 z" />
      <path
         id="path12108"
         style=""
         d="m 789.17652,1191.1063 q -0.6,0 -2.56,-1.44 -1.96,-1.48 -1.96,-3 0,-1.44 2.04,-3.96 2.04,-2.56 4.92,-3.28 1.32,-0.36 3.48,-0.36 0.92,0 1.36,0.24 0.44,0.24 1.2,1.08 1.24,1.4 1.24,1.92 0,0.48 -0.52,0.48 -0.64,0 -1.08,-0.44 -0.44,-0.48 -1.08,-0.96 -0.64,-0.48 -1.72,-0.48 -1.4,0 -3,0.76 -1.6,0.76 -2.84,2.12 -1.76,1.88 -1.76,2.56 0,0.68 1.04,1.64 1.04,0.92 3.48,1.76 3.84,1.32 5.2,2.48 1.36,1.16 1.36,3.12 0,1.84 -0.64,3.36 -0.44,1.16 -1.88,2.6 -1.44,1.44 -2.84,1.44 -1.08,0 -2.8,-0.36 -1.72,-0.32 -2.6,-0.76 -0.72,-0.36 -1.32,-1.4 -0.6,-1.08 -0.6,-1.92 0,-0.44 0.2,-0.76 0.24,-0.36 0.56,-0.36 0.6,0 1.12,1.12 0.48,1 1.92,1.8 1.48,0.8 2.76,0.8 1.72,0 3.04,-2.04 1.32,-2.08 1.32,-3.24 0,-0.28 -0.16,-0.68 -0.12,-0.44 -0.68,-1.04 -0.56,-0.6 -1.44,-0.92 -0.84,-0.28 -1.96,-0.76 -1.12,-0.48 -1.88,-0.8 -0.72,-0.32 -0.92,-0.32 z" />
      <path
         id="path12110"
         style=""
         d="m 824.34402,1191.9063 q 0.2,0 0.2,0.32 0,0.72 -1.08,2.32 -1.04,1.6 -2.24,2.64 -4.2,3.72 -8.4,3.72 -1.6,0 -3.2,-0.72 -1.56,-0.76 -2.92,-2.12 -1.36,-1.36 -2.2,-3.64 -0.84,-2.28 -0.84,-5.08 0,-1.72 0.4,-2.92 0.8,-2.44 3.4,-5.16 2.64,-2.72 4.96,-2.72 0.64,0 1.92,0.12 1.92,0.16 2.68,0.4 0.8,0.24 1.8,1 1.28,0.96 2.2,2.48 0.96,1.48 0.96,2.48 0,1.28 -1,1.96 -1,0.64 -3.88,1.28 -3.72,0.84 -7.36,1.04 l -3.72,0.2 0,1.6 q 0,2.96 2.76,5.6 2.08,2 4.32,2 1.72,0 3.64,-1.04 1.96,-1.08 3.32,-2.36 1.36,-1.28 2.6,-2.32 1.24,-1.08 1.68,-1.08 z m -6.44,-9.76 q -1.24,-1.12 -1.88,-1.4 -0.6,-0.32 -1.6,-0.32 -2,0 -3,0.4 -0.96,0.36 -1.96,1.52 -3.04,3.48 -3.04,4.64 0,0.52 0.96,0.52 3.64,0 10.32,-1.52 2,-0.48 2,-1.68 0,-0.56 -1.8,-2.16 z" />
      <path
         id="path12112"
         style=""
         d="m 849.03152,1191.9063 q 0.2,0 0.2,0.32 0,0.72 -1.08,2.32 -1.04,1.6 -2.24,2.64 -4.2,3.72 -8.4,3.72 -1.6,0 -3.2,-0.72 -1.56,-0.76 -2.92,-2.12 -1.36,-1.36 -2.2,-3.64 -0.84,-2.28 -0.84,-5.08 0,-1.72 0.4,-2.92 0.8,-2.44 3.4,-5.16 2.64,-2.72 4.96,-2.72 0.64,0 1.92,0.12 1.92,0.16 2.68,0.4 0.8,0.24 1.8,1 1.28,0.96 2.2,2.48 0.96,1.48 0.96,2.48 0,1.28 -1,1.96 -1,0.64 -3.88,1.28 -3.72,0.84 -7.36,1.04 l -3.72,0.2 0,1.6 q 0,2.96 2.76,5.6 2.08,2 4.32,2 1.72,0 3.64,-1.04 1.96,-1.08 3.32,-2.36 1.36,-1.28 2.6,-2.32 1.24,-1.08 1.68,-1.08 z m -6.44,-9.76 q -1.24,-1.12 -1.88,-1.4 -0.6,-0.32 -1.6,-0.32 -2,0 -3,0.4 -0.96,0.36 -1.96,1.52 -3.04,3.48 -3.04,4.64 0,0.52 0.96,0.52 3.64,0 10.32,-1.52 2,-0.48 2,-1.68 0,-0.56 -1.8,-2.16 z" />
      <path
         id="path12114"
         style=""
         d="m 856.03902,1178.8663 q 0,-1.36 0.8,-1.36 0.52,0 0.76,1.2 0.24,1.16 0.88,6.96 0.8,6.48 0.84,6.56 0.04,0.04 0.32,-0.76 0.32,-0.84 0.84,-2.48 0.8,-2.64 1.36,-3.8 0.56,-1.2 2,-3.28 2.92,-4.04 4.52,-4.04 1.04,0 1.96,1.4 1.24,1.84 1.52,3.64 0.28,1.8 0.4,8.52 0.08,4.32 0.08,5.12 0,2 -0.16,2.92 -0.12,0.88 -0.4,1.08 -0.24,0.24 -0.88,0.28 -0.36,0 -0.48,-0.32 -0.12,-0.28 -0.12,-1.36 0,-0.6 0.08,-2.56 0.08,-2 0.08,-3.36 0,-3.4 -0.28,-6.64 -0.24,-3.28 -0.6,-4.2 -0.2,-0.52 -0.64,-1.08 -0.44,-0.56 -0.84,-0.56 -0.84,0 -2.68,2.88 -1.84,2.84 -3.16,6 -1.24,2.88 -1.68,4.44 -0.4,1.52 -0.68,4.16 -0.44,4.08 -0.64,4.08 -0.32,0 -0.92,-0.68 -0.44,-0.44 -0.6,-1.88 -0.16,-1.48 -0.44,-5.8 -0.28,-4.36 -0.76,-8.8 -0.48,-4.6 -0.48,-6.28 z" />
      <path
         id="path12116"
         style=""
         d="m 910.54402,1182.5063 q -0.48,0 -2.04,0.44 -1.52,0.4 -2.44,0.4 -1.76,0 -1.76,-1.12 0,-0.44 0.64,-0.8 0.68,-0.36 2.6,-0.92 l 3.24,-0.96 0.08,-3.48 q 0.08,-3.72 0.56,-8.2 0.36,-3.32 0.64,-4.2 0.28,-0.88 1.24,-1.84 0.8,-0.8 1.28,-1.04 0.52,-0.24 1.44,-0.24 0.68,0 2.88,0.2 1.68,0.16 2.4,0.48 0.72,0.28 1.64,1.2 1.36,1.36 1.36,2.48 0,0.8 -0.64,1.68 -0.6,0.84 -0.92,0.84 -0.48,0 -0.48,-1.36 0,-1.28 -0.72,-1.96 -0.68,-0.72 -2.68,-1.36 -1.32,-0.4 -2.04,-0.4 -1.72,0 -2.68,2 -0.36,0.8 -0.68,4.6 -0.28,3.76 -0.28,6.92 0,2.28 0.16,2.88 0.2,0.56 1,0.56 0.48,0 2,-0.28 1.52,-0.28 2.52,-0.28 0.56,0 0.92,0.2 0.36,0.16 0.36,0.4 0,0.68 -3.44,1.72 l -3.44,1 -0.12,6.36 q 0,0.48 -0.04,1.32 0,0.8 0,1.12 0,3 0.28,4.64 0.28,1.64 0.56,2.36 0.28,0.72 0.28,1.56 0,1.2 -1.12,1.2 -2.12,0 -2.12,-11.16 0,-6.68 -0.24,-6.92 -0.04,-0.04 -0.2,-0.04 z" />
      <path
         id="path12118"
         style=""
         d="m 943.1059,1181.0663 q 0.68,0 1.2,0.44 0.52,0.4 0.52,0.68 0,0.48 -1.52,1.08 -2.48,1 -5.08,4.84 -2.56,3.8 -3.12,7.36 -0.64,4.04 -1.04,5.28 -0.4,1.28 -1.04,1.28 -0.56,0 -0.88,-0.4 -0.28,-0.4 -0.4,-0.88 -0.08,-0.48 -0.2,-1.76 -0.04,-0.24 -0.04,-0.36 -0.96,-10.08 -0.96,-15.92 0,-2.08 0.16,-2.56 0.44,-1.28 1.12,-1.28 0.64,0 0.64,1.08 0,1.8 0.56,5.8 0.56,4 0.84,4 0.36,0 1.48,-2.2 1.4,-2.6 3.72,-4.52 2.36,-1.96 4.04,-1.96 z" />
      <path
         id="path12120"
         style=""
         d="m 953.68152,1182.5463 q 3.12,-2.92 5.24,-3.84 2.16,-0.96 5.44,-0.96 4.96,0 6.2,2.96 0.76,1.76 0.76,4.32 0,4.24 -1.88,8.6 -1.88,4.32 -4.64,6 -2.68,1.64 -5.64,1.64 -4.12,0 -6.6,-2.84 -1.72,-2 -2.24,-3.36 -0.52,-1.4 -0.52,-3.96 0,-4.84 3.88,-8.56 z m 6.44,16.44 q 3.36,0 6.08,-4.6 2.76,-4.64 2.76,-10.48 0,-0.88 -0.2,-1.32 -0.2,-0.44 -0.72,-0.88 -1.48,-1.24 -3.16,-1.24 -0.28,0 -0.64,0.08 -0.32,0.04 -1.08,0.16 -0.76,0.08 -1.8,0.2 -1.4,0.2 -2.24,0.64 -0.8,0.4 -2.04,1.56 -2.36,2.24 -3.36,4.16 -1,1.88 -1,4.12 0,3.32 2.04,5.44 2.08,2.12 5.36,2.16 z" />
      <path
         id="path12122"
         style=""
         d="m 979.33715,1180.3863 q 0,-2.32 0.64,-2.32 0.52,0 1.12,3.64 0.64,3.64 0.88,3.64 0.08,0 0.28,-0.48 0.2,-0.52 0.44,-1.12 0.24,-0.64 0.4,-0.8 0.4,-0.52 1.08,-1.96 0.84,-1.72 1.28,-2.08 0.44,-0.4 1.56,-0.4 1.24,0 2.72,1.72 0.96,1.12 1.28,2.08 0.36,0.92 0.76,3.36 l 0.64,3.76 0.68,-2.4 q 1,-3.48 2.88,-6 1.88,-2.52 3.48,-2.52 0.99995,0 1.83995,1.16 0.84,1.12 1.2,2.88 0.36,1.64 0.36,7.24 0,4.2 -0.04,6.48 -0.04,2.28 -0.2,3.32 -0.12,1 -0.24,1.16 -0.12,0.2 -0.44,0.24 -0.12,0.04 -0.28,0.04 -0.36,0 -0.44,-1.12 -0.08,-1.12 -0.12,-6.28 0,-12.6 -1.91995,-12.6 -1.04,0 -2.72,3.44 -1.4,2.84 -2.36,6.92 -0.96,4.08 -1.16,8.24 -0.04,1 -0.24,1.36 -0.16,0.36 -0.56,0.36 -0.48,0 -0.64,-0.84 -0.12,-0.8 -0.28,-4.32 -0.28,-6.48 -0.8,-9.08 -0.52,-2.64 -1.92,-4.76 -1.04,-1.48 -1.52,-1.48 -0.56,0 -1.24,1.4 -0.68,1.36 -2.24,5.24 -0.72,1.88 -0.72,3.44 0,0.92 -0.36,2.04 -0.32,1.08 -0.44,5.4 -0.08,4.04 -0.32,4.6 -0.16,0.48 -0.64,0.48 -0.64,0 -0.88,-1.92 -0.2,-1.92 -0.2,-7.68 0,-4.64 -0.32,-8.52 -0.28,-3.88 -0.28,-4.96 z" />
      <path
         id="path12124"
         style=""
         d="m 1042.5465,1172.7063 q 0,-1.48 -0.28,-3.76 -0.28,-2.28 -0.28,-3.8 0,-0.76 0.04,-1 0.12,-0.64 0.44,-1 0.36,-0.4 0.72,-0.4 0.48,0 0.68,0.44 0.12,0.28 0.36,2.96 0.24,2.68 0.44,5.24 0.2,2.56 0.28,2.64 0.04,0.04 0.12,0.04 0.32,0 1.84,-0.32 1.56,-0.36 2.56,-0.36 2,0 2,0.88 0,0.88 -4.4,1.96 l -2,0.48 0.24,6.76 q 0.2,5.96 0.76,11.16 0.56,5.16 0.56,5.84 0,1.24 -0.92,1.24 -0.72,0 -1.2,-1.28 -0.44,-1.28 -0.44,-3.32 0,-1.48 -0.12,-3 -0.12,-1.56 -0.44,-4.8 -0.28,-3.28 -0.56,-6.72 -0.12,-1.84 -0.2,-2.84 -0.04,-1 -0.12,-1.48 -0.08,-0.48 -0.12,-0.56 -0.04,-0.12 -0.16,-0.12 -0.64,0 -3.08,0.44 -2.44,0.44 -3.04,0.44 -1.16,0 -1.16,-0.96 0,-0.68 1.44,-1.16 1.48,-0.48 3.32,-0.84 1.84,-0.4 2.28,-0.68 0.44,-0.32 0.44,-2.12 z" />
      <path
         id="path12126"
         style=""
         d="m 1057.7678,1197.0663 q 0,-3.2 -0.8,-12.88 -0.76,-9.72 -0.76,-13.4 0,-2.12 0.24,-2.56 0.48,-0.84 0.92,-0.84 0.72,0 0.92,1.4 0.24,1.4 0.64,7.08 0.32,4.56 0.56,7.64 l 0.36,4.72 0.72,-1.56 q 0.8,-1.8 3.92,-4.72 3.12,-2.92 4.2,-2.92 1,0 2.2,1.12 1.2,1.12 1.56,2.4 0.32,1.08 0.32,9.72 0,6.24 -0.12,7.4 -0.12,1.12 -0.76,1.12 -0.64,0 -0.84,-1.16 -0.16,-1.16 -0.32,-6.68 -0.24,-7.72 -0.96,-9.88 l -0.64,-2 -2.32,2.16 q -1.84,1.76 -3.4,4 -1.52,2.24 -2.08,3.96 -0.36,1.24 -0.6,3.96 -0.24,2.72 -0.6,4.48 -0.32,1.76 -0.96,1.76 -0.28,0 -0.68,-0.32 -0.72,-0.6 -0.72,-4 z" />
      <path
         id="path12128"
         style=""
         d="m 1098.1721,1191.9063 q 0.2,0 0.2,0.32 0,0.72 -1.08,2.32 -1.04,1.6 -2.24,2.64 -4.2,3.72 -8.4,3.72 -1.6,0 -3.2,-0.72 -1.56,-0.76 -2.92,-2.12 -1.36,-1.36 -2.2,-3.64 -0.84,-2.28 -0.84,-5.08 0,-1.72 0.4,-2.92 0.8,-2.44 3.4,-5.16 2.64,-2.72 4.96,-2.72 0.64,0 1.92,0.12 1.92,0.16 2.68,0.4 0.8,0.24 1.8,1 1.28,0.96 2.2,2.48 0.96,1.48 0.96,2.48 0,1.28 -1,1.96 -1,0.64 -3.88,1.28 -3.72,0.84 -7.36,1.04 l -3.72,0.2 0,1.6 q 0,2.96 2.76,5.6 2.08,2 4.32,2 1.72,0 3.64,-1.04 1.96,-1.08 3.32,-2.36 1.36,-1.28 2.6,-2.32 1.24,-1.08 1.68,-1.08 z m -6.44,-9.76 q -1.24,-1.12 -1.88,-1.4 -0.6,-0.32 -1.6,-0.32 -2,0 -3,0.4 -0.96,0.36 -1.96,1.52 -3.04,3.48 -3.04,4.64 0,0.52 0.96,0.52 3.64,0 10.32,-1.52 2,-0.48 2,-1.68 0,-0.56 -1.8,-2.16 z" />
      <path
         id="path12130"
         style=""
         d="m 891.20809,1232.5063 q -0.48,0 -2.04,0.44 -1.52,0.4 -2.44,0.4 -1.76,0 -1.76,-1.12 0,-0.44 0.64,-0.8 0.68,-0.36 2.6,-0.92 l 3.24,-0.96 0.08,-3.48 q 0.08,-3.72 0.56,-8.2 0.36,-3.32 0.64,-4.2 0.28,-0.88 1.24,-1.84 0.8,-0.8 1.28,-1.04 0.52,-0.24 1.44,-0.24 0.68,0 2.88,0.2 1.68,0.16 2.4,0.48 0.72,0.28 1.64,1.2 1.36,1.36 1.36,2.48 0,0.8 -0.64,1.68 -0.6,0.84 -0.92,0.84 -0.48,0 -0.48,-1.36 0,-1.28 -0.72,-1.96 -0.68,-0.72 -2.68,-1.36 -1.32,-0.4 -2.04,-0.4 -1.72,0 -2.68,2 -0.36,0.8 -0.68,4.6 -0.28,3.76 -0.28,6.92 0,2.28 0.16,2.88 0.2,0.56 1,0.56 0.48,0 2,-0.28 1.52,-0.28 2.52,-0.28 0.56,0 0.92,0.2 0.36,0.16 0.36,0.4 0,0.68 -3.44,1.72 l -3.44,1 -0.12,6.36 q 0,0.48 -0.04,1.32 0,0.8 0,1.12 0,3 0.28,4.64 0.28,1.64 0.56,2.36 0.28,0.72 0.28,1.56 0,1.2 -1.12,1.2 -2.12,0 -2.12,-11.16 0,-6.68 -0.24,-6.92 -0.04,-0.04 -0.2,-0.04 z" />
      <path
         id="path12132"
         style=""
         d="m 923.76996,1231.0663 q 0.68,0 1.2,0.44 0.52,0.4 0.52,0.68 0,0.48 -1.52,1.08 -2.48,1 -5.08,4.84 -2.56,3.8 -3.12,7.36 -0.64,4.04 -1.04,5.28 -0.4,1.28 -1.04,1.28 -0.56,0 -0.88,-0.4 -0.28,-0.4 -0.4,-0.88 -0.08,-0.48 -0.2,-1.76 -0.04,-0.24 -0.04,-0.36 -0.96,-10.08 -0.96,-15.92 0,-2.08 0.16,-2.56 0.44,-1.28 1.12,-1.28 0.64,0 0.64,1.08 0,1.8 0.56,5.8 0.56,4 0.84,4 0.36,0 1.48,-2.2 1.4,-2.6 3.72,-4.52 2.36,-1.96 4.04,-1.96 z" />
      <path
         id="path12134"
         style=""
         d="m 934.34559,1232.5463 q 3.12,-2.92 5.24,-3.84 2.16,-0.96 5.44,-0.96 4.96,0 6.2,2.96 0.76,1.76 0.76,4.32 0,4.24 -1.88,8.6 -1.88,4.32 -4.64,6 -2.68,1.64 -5.64,1.64 -4.12,0 -6.6,-2.84 -1.72,-2 -2.24,-3.36 -0.52,-1.4 -0.52,-3.96 0,-4.84 3.88,-8.56 z m 6.44,16.44 q 3.36,0 6.08,-4.6 2.76,-4.64 2.76,-10.48 0,-0.88 -0.2,-1.32 -0.2,-0.44 -0.72,-0.88 -1.48,-1.24 -3.16,-1.24 -0.28,0 -0.64,0.08 -0.32,0.04 -1.08,0.16 -0.76,0.08 -1.8,0.2 -1.4,0.2 -2.24,0.64 -0.8,0.4 -2.04,1.56 -2.36,2.24 -3.36,4.16 -1,1.88 -1,4.12 0,3.32 2.04,5.44 2.08,2.12 5.36,2.16 z" />
      <path
         id="path12136"
         style=""
         d="m 959.28121,1228.8663 q 0,-1.36 0.8,-1.36 0.52,0 0.76,1.2 0.24,1.16 0.88,6.96 0.8,6.48 0.84,6.56 0.04,0.04 0.32,-0.76 0.32,-0.84 0.84,-2.48 0.8,-2.64 1.36,-3.8 0.56,-1.2 2,-3.28 2.92,-4.04 4.52,-4.04 1.04,0 1.96,1.4 1.24,1.84 1.52,3.64 0.28,1.8 0.4,8.52 0.08,4.32 0.08,5.12 0,2 -0.16,2.92 -0.12,0.88 -0.4,1.08 -0.24,0.24 -0.88,0.28 -0.36,0 -0.48,-0.32 -0.12,-0.28 -0.12,-1.36 0,-0.6 0.08,-2.56 0.08,-2 0.08,-3.36 0,-3.4 -0.28,-6.64 -0.24,-3.28 -0.6,-4.2 -0.2,-0.52 -0.64,-1.08 -0.44,-0.56 -0.84,-0.56 -0.84,0 -2.68,2.88 -1.84,2.84 -3.16,6 -1.24,2.88 -1.68,4.44 -0.4,1.52 -0.68,4.16 -0.44,4.08 -0.64,4.08 -0.32,0 -0.92,-0.68 -0.44,-0.44 -0.6,-1.88 -0.16,-1.48 -0.44,-5.8 -0.28,-4.36 -0.76,-8.8 -0.48,-4.6 -0.48,-6.28 z" />
      <path
         id="path12138"
         style=""
         d="m 988.36684,1222.7063 q 0,-1.48 -0.28,-3.76 -0.28,-2.28 -0.28,-3.8 0,-0.76 0.04,-1 0.12,-0.64 0.44,-1 0.36,-0.4 0.72,-0.4 0.48,0 0.68,0.44 0.12,0.28 0.36,2.96 0.24,2.68 0.44,5.24 0.2,2.56 0.28,2.64 0.04,0.04 0.12,0.04 0.32,0 1.84,-0.32 1.56,-0.36 2.56,-0.36 2,0 2,0.88 0,0.88 -4.4,1.96 l -2,0.48 0.24,6.76 q 0.2,5.96 0.76,11.16 0.56,5.16 0.56,5.84 0,1.24 -0.92,1.24 -0.72,0 -1.2,-1.28 -0.44,-1.28 -0.44,-3.32 0,-1.48 -0.12,-3 -0.12,-1.56 -0.44,-4.8 -0.28,-3.28 -0.56,-6.72 -0.12,-1.84 -0.2,-2.84 -0.04,-1 -0.12,-1.48 -0.08,-0.48 -0.12,-0.56 -0.04,-0.12 -0.16,-0.12 -0.64,0 -3.08,0.44 -2.44,0.44 -3.04,0.44 -1.16,0 -1.16,-0.96 0,-0.68 1.44,-1.16 1.48,-0.48 3.32,-0.84 1.84,-0.4 2.28,-0.68 0.44,-0.32 0.44,-2.12 z" />
    </g>
    <g
       id="flowRoot16425"
       style="font-style:normal;font-variant:normal;font-weight:normal;font-stretch:normal;font-size:40px;line-height:125%;font-family:Purisa;-inkscape-font-specification:Purisa;letter-spacing:0px;word-spacing:0px;fill:#000000;fill-opacity:1;stroke:none;stroke-width:1px;stroke-linecap:butt;stroke-linejoin:miter;stroke-opacity:1"
       transform="translate(-1281.8211,-205.5481)">
      <path
         id="path12073"
         style=""
         d="m 948.84,939.70626 q -1.32,0 -2.76,0.32 -1.44,0.32 -1.88,0.32 -1,0 -1.72,-0.36 -0.68,-0.36 -0.68,-0.92 0,-0.68 0.88,-0.92 0.92,-0.28 4.8,-0.88 7.88,-1.2 15.08,-2.6 4.44,-0.84 5.76,-0.84 1.24,0 2.52,0.52 1.28,0.52 1.28,1.16 0,0.6 -1.04,1.04 -1.04,0.4 -2.76,0.4 -2.68,0 -5.72,0.72 l -3.08,0.72 0.6,3.36 q 0.44,3.12 1.04,11.96 0.64,8.8 0.76,9.84 0.12,1.04 0.12,1.56 0,1.24 -1.08,1.24 -1.04,0 -1.56,-2.6 -0.48,-2.6 -0.92,-10.2 -0.8,-12.96 -2.08,-14.32 -0.32,-0.32 -1.04,-0.32 -0.32,0 -2.76,0.4 -2.4,0.4 -3.76,0.4 z" />
      <path
         id="path12075"
         style=""
         d="m 977.08125,961.06626 q 0,-3.2 -0.8,-12.88 -0.76,-9.72 -0.76,-13.4 0,-2.12 0.24,-2.56 0.48,-0.84 0.92,-0.84 0.72,0 0.92,1.4 0.24,1.4 0.64,7.08 0.32,4.56 0.56,7.64 l 0.36,4.72 0.72,-1.56 q 0.8,-1.8 3.92,-4.72 3.12,-2.92 4.2,-2.92 1,0 2.2,1.12 1.2,1.12 1.56,2.4 0.32,1.08 0.32,9.72 0,6.24 -0.12,7.4 -0.12,1.12 -0.76,1.12 -0.64,0 -0.84,-1.16 -0.16,-1.16 -0.32,-6.68 -0.24,-7.72 -0.96,-9.88 l -0.64,-2 -2.32,2.16 q -1.84,1.76 -3.4,4 -1.52,2.24 -2.08,3.96 -0.36,1.24 -0.6,3.96 -0.24,2.72 -0.6,4.48 -0.32,1.76 -0.96,1.76 -0.28,0 -0.68,-0.32 -0.72,-0.6 -0.72,-4 z" />
      <path
         id="path12077"
         style=""
         d="m 1017.4856,955.90626 q 0.2,0 0.2,0.32 0,0.72 -1.08,2.32 -1.04,1.6 -2.24,2.64 -4.2,3.72 -8.4,3.72 -1.6,0 -3.2,-0.72 -1.56,-0.76 -2.91997,-2.12 -1.36,-1.36 -2.20001,-3.64 -0.84,-2.28 -0.84,-5.08 0,-1.72 0.40001,-2.92 0.79999,-2.44 3.39997,-5.16 2.64,-2.72 4.96,-2.72 0.64,0 1.92,0.12 1.92,0.16 2.68,0.4 0.8,0.24 1.8,1 1.28,0.96 2.2,2.48 0.96,1.48 0.96,2.48 0,1.28 -1,1.96 -1,0.64 -3.88,1.28 -3.72,0.84 -7.36,1.04 l -3.71998,0.2 0,1.6 q 0,2.96 2.75998,5.6 2.08,2 4.32,2 1.72,0 3.64,-1.04 1.96,-1.08 3.32,-2.36 1.36,-1.28 2.6,-2.32 1.24,-1.08 1.68,-1.08 z m -6.44,-9.76 q -1.24,-1.12 -1.88,-1.4 -0.6,-0.32 -1.6,-0.32 -2,0 -3,0.4 -0.96,0.36 -1.96,1.52 -3.03998,3.48 -3.03998,4.64 0,0.52 0.95998,0.52 3.64,0 10.32,-1.52 2,-0.48 2,-1.68 0,-0.56 -1.8,-2.16 z" />
      <path
         id="path12079"
         style=""
         d="m 1054.2325,946.50626 q -0.48,0 -2.04,0.44 -1.52,0.4 -2.44,0.4 -1.76,0 -1.76,-1.12 0,-0.44 0.64,-0.8 0.68,-0.36 2.6,-0.92 l 3.24,-0.96 0.08,-3.48 q 0.08,-3.72 0.56,-8.2 0.36,-3.32 0.64,-4.2 0.28,-0.88 1.24,-1.84 0.8,-0.8 1.28,-1.04 0.52,-0.24 1.44,-0.24 0.68,0 2.88,0.2 1.68,0.16 2.4,0.48 0.72,0.28 1.64,1.2 1.36,1.36 1.36,2.48 0,0.8 -0.64,1.68 -0.6,0.84 -0.92,0.84 -0.48,0 -0.48,-1.36 0,-1.28 -0.72,-1.96 -0.68,-0.72 -2.68,-1.36 -1.32,-0.4 -2.04,-0.4 -1.72,0 -2.68,2 -0.36,0.8 -0.68,4.6 -0.28,3.76 -0.28,6.92 0,2.28 0.16,2.88 0.2,0.56 1,0.56 0.48,0 2,-0.28 1.52,-0.28 2.52,-0.28 0.56,0 0.92,0.2 0.36,0.16 0.36,0.4 0,0.68 -3.44,1.72 l -3.44,1 -0.12,6.36 q 0,0.48 -0.04,1.32 0,0.8 0,1.12 0,3 0.28,4.64 0.28,1.64 0.56,2.36 0.28,0.72 0.28,1.56 0,1.2 -1.12,1.2 -2.12,0 -2.12,-11.16 0,-6.68 -0.24,-6.92 -0.04,-0.04 -0.2,-0.04 z" />
      <path
         id="path12081"
         style=""
         d="m 1086.7944,945.06626 q 0.68,0 1.2,0.44 0.52,0.4 0.52,0.68 0,0.48 -1.52,1.08 -2.48,1 -5.08,4.84 -2.56,3.8 -3.12,7.36 -0.64,4.04 -1.04,5.28 -0.4,1.28 -1.04,1.28 -0.56,0 -0.88,-0.4 -0.28,-0.4 -0.4,-0.88 -0.08,-0.48 -0.2,-1.76 -0.04,-0.24 -0.04,-0.36 -0.96,-10.08 -0.96,-15.92 0,-2.08 0.16,-2.56 0.44,-1.28 1.12,-1.28 0.64,0 0.64,1.08 0,1.8 0.56,5.8 0.56,4 0.84,4 0.36,0 1.48,-2.2 1.4,-2.6 3.72,-4.52 2.36,-1.96 4.04,-1.96 z" />
      <path
         id="path12083"
         style=""
         d="m 1097.37,946.54626 q 3.12,-2.92 5.24,-3.84 2.16,-0.96 5.44,-0.96 4.96,0 6.2,2.96 0.76,1.76 0.76,4.32 0,4.24 -1.88,8.6 -1.88,4.32 -4.64,6 -2.68,1.64 -5.64,1.64 -4.12,0 -6.6,-2.84 -1.72,-2 -2.24,-3.36 -0.52,-1.4 -0.52,-3.96 0,-4.84 3.88,-8.56 z m 6.44,16.44 q 3.36,0 6.08,-4.6 2.76,-4.64 2.76,-10.48 0,-0.88 -0.2,-1.32 -0.2,-0.44 -0.72,-0.88 -1.48,-1.24 -3.16,-1.24 -0.28,0 -0.64,0.08 -0.32,0.04 -1.08,0.16 -0.76,0.08 -1.8,0.2 -1.4,0.2 -2.24,0.64 -0.8,0.4 -2.04,1.56 -2.36,2.24 -3.36,4.16 -1,1.88 -1,4.12 0,3.32 2.04,5.44 2.08,2.12 5.36,2.16 z" />
      <path
         id="path12085"
         style=""
         d="m 1122.3056,942.86626 q 0,-1.36 0.8,-1.36 0.52,0 0.76,1.2 0.24,1.16 0.88,6.96 0.8,6.48 0.84,6.56 0.04,0.04 0.32,-0.76 0.32,-0.84 0.84,-2.48 0.8,-2.64 1.36,-3.8 0.56,-1.2 2,-3.28 2.92,-4.04 4.52,-4.04 1.04,0 1.96,1.4 1.24,1.84 1.52,3.64 0.28,1.8 0.4,8.52 0.08,4.32 0.08,5.12 0,2 -0.16,2.92 -0.12,0.88 -0.4,1.08 -0.24,0.24 -0.88,0.28 -0.36,0 -0.48,-0.32 -0.12,-0.28 -0.12,-1.36 0,-0.6 0.08,-2.56 0.08,-2 0.08,-3.36 0,-3.4 -0.28,-6.64 -0.24,-3.28 -0.6,-4.2 -0.2,-0.52 -0.64,-1.08 -0.44,-0.56 -0.84,-0.56 -0.84,0 -2.68,2.88 -1.84,2.84 -3.16,6 -1.24,2.88 -1.68,4.44 -0.4,1.52 -0.68,4.16 -0.44,4.08 -0.64,4.08 -0.32,0 -0.92,-0.68 -0.44,-0.44 -0.6,-1.88 -0.16,-1.48 -0.44,-5.8 -0.28,-4.36 -0.76,-8.8 -0.48,-4.6 -0.48,-6.28 z" />
      <path
         id="path12087"
         style=""
         d="m 1151.3913,936.70626 q 0,-1.48 -0.28,-3.76 -0.28,-2.28 -0.28,-3.8 0,-0.76 0.04,-1 0.12,-0.64 0.44,-1 0.36,-0.4 0.72,-0.4 0.48,0 0.68,0.44 0.12,0.28 0.36,2.96 0.24,2.68 0.44,5.24 0.2,2.56 0.28,2.64 0.04,0.04 0.12,0.04 0.32,0 1.84,-0.32 1.56,-0.36 2.56,-0.36 2,0 2,0.88 0,0.88 -4.4,1.96 l -2,0.48 0.2399,6.76 q 0.2001,5.96 0.7601,11.16 0.56,5.16 0.56,5.84 0,1.24 -0.92,1.24 -0.72,0 -1.2,-1.28 -0.44,-1.28 -0.44,-3.32 0,-1.48 -0.12,-3 -0.12,-1.56 -0.44,-4.8 -0.28,-3.28 -0.56,-6.72 -0.12,-1.84 -0.2,-2.84 -0.04,-1 -0.12,-1.48 -0.08,-0.48 -0.12,-0.56 -0.04,-0.12 -0.16,-0.12 -0.64,0 -3.08,0.44 -2.44,0.44 -3.04,0.44 -1.16,0 -1.16,-0.96 0,-0.68 1.44,-1.16 1.48,-0.48 3.32,-0.84 1.84,-0.4 2.28,-0.68 0.44,-0.32 0.44,-2.12 z" />
    </g>
    <path
       style="fill:url(#side);fill-rule:evenodd;stroke:none;stroke-width:1px;stroke-linecap:butt;stroke-linejoin:miter;stroke-opacity:1"
       d="m 45.346326,917.64598 -66.4967,-47.0627 0,-141.39375 66.4968,47.0434 z"
       id="path16529" />
    <path
       style="fill:url(#red);fill-rule:evenodd;stroke:none;stroke-width:1px;stroke-linecap:butt;stroke-linejoin:miter;stroke-opacity:1"
       d="m 45.346326,776.23293 100.000004,-70.80943 0,141.46948 -100.007604,70.7476 z"
       id="path16531" />
    <path
       style="fill:url(#top);fill-rule:evenodd;stroke:none;stroke-width:1px;stroke-linecap:butt;stroke-linejoin:miter;stroke-opacity:1"
       d="m 145.34633,705.42351 -66.496704,-46.97214 -100,70.73816 66.4968,47.0434 z"
       id="path16533" />
    <circle
       r="36.211906"
       cy="775.63129"
       cx="45.195484"
       id="path16535"
       style="opacity:1;fill:none;fill-opacity:1;stroke:#000000;stroke-width:1;stroke-linecap:round;stroke-linejoin:round;stroke-miterlimit:4;stroke-dasharray:8, 4;stroke-dashoffset:0;stroke-opacity:1" />
    <g
       id="text16537"
       style="font-style:normal;font-variant:normal;font-weight:normal;font-stretch:normal;font-size:40px;line-height:125%;font-family:Purisa;-inkscape-font-specification:Purisa;letter-spacing:0px;word-spacing:0px;fill:#000000;fill-opacity:1;stroke:none;stroke-width:1px;stroke-linecap:butt;stroke-linejoin:miter;stroke-opacity:1">
      <path
         id="path12159"
         style=""
         d="m 53.776109,789.55529 q -0.32,0 -0.6,-0.24 -0.28,-0.24 -0.28,-0.68 0,-0.44 0.2,-0.76 0.24,-0.36 0.84,-1 0.6,-0.68 1.12,-1.4 l 1.32,-1.76 q 0.28,-0.36 1,-1.6 0.72,-1.28 1.36,-2.12 0.68,-0.88 1.2,-0.88 0.84,0 1.12,2.56 0.24,2.16 0.48,8.52 0.24,6.32 0.24,10.48 0,2.64 -0.12,2.92 -0.32,0.68 -0.72,0.68 -0.56,0 -1.04,-1.4 -0.52,-1.48 -0.52,-10 -0.04,-8.64 -0.48,-8.64 -0.32,0 -1.28,1.36 -0.96,1.32 -2.08,2.64 -1.08,1.32 -1.76,1.32 z" />
      <path
         id="path12161"
         style=""
         d="m 88.598609,800.99529 q 1.56,0 2.24,0.16 0.72,0.16 0.84,0.4 0.16,0.2 0.16,0.72 0,0.64 -0.68,0.72 -0.64,0.08 -3.04,0.2 -2.4,0.12 -5.08,0.64 -1.88,0.36 -4.04,0.64 -2.16,0.32 -3.16,0.48 -1,0.2 -1.28,0.48 -0.32,0.28 -0.88,0.28 -0.64,0 -1.2,-0.36 -0.52,-0.36 -0.52,-0.84 0,-0.52 1.32,-2.24 1.32,-1.76 2.48,-2.76 1.44,-1.2 4,-6.32 2.6,-5.16 2.6,-8.4 0,-1.32 -0.76,-1.8 -0.72,-0.48 -2.52,-0.48 -4.32,0 -8.68,4.4 -2.72,2.64 -2.88,2.64 -0.2,0 -0.2,-1.36 0,-1.4 1.04,-1.96 1.08,-0.52 1.08,-1.08 0,-0.2 0.16,-0.44 0.2,-0.28 0.56,-0.56 0.4,-0.32 0.72,-0.56 0.36,-0.28 0.96,-0.68 0.6,-0.44 0.96,-0.72 0.8,-0.68 2.6,-1.36 1.84,-0.72 4,-0.72 3.64,0 4.72,2 0.44,0.76 0.44,2.56 0,3.28 -1.2,6.36 -0.88,2.08 -3.24,5.92 -2.32,3.8 -3.48,4.88 -0.44,0.44 -0.44,0.56 0,0.04 0.16,0.04 0.04,0 2,-0.36 1.96,-0.36 4.88,-0.72 2.96,-0.36 5.36,-0.36 z" />
      <path
         id="path12163"
         style=""
         d="m 109.45798,793.95529 q 0,-1.92 -0.48,-3.12 -0.48,-1.2 -1.28,-1.2 -0.88,0 -2.52,0.88 -1.6,0.88 -2.4,1.8 -1,1.12 -1.4,1.12 -0.32,0 -0.92,-0.6 -0.679996,-0.68 -0.679996,-6.28 0,-4.72 0.559996,-5.08 0.4,-0.24 4.88,-0.44 4.48,-0.2 5.72,-0.48 1.16,-0.28 1.92,-0.28 0.96,0 0.96,0.56 0,0.64 -3.28,1.56 -3.24,0.92 -5.48,0.92 l -0.64,0 q -2.72,0 -2.72,2 0,0.32 0.16,1.04 0.2,0.68 0.2,1.48 0,0.36 -0.08,0.92 l -0.24,1.24 1.36,-0.84 q 2.48,-1.56 4.8,-1.56 0.84,0 1.24,0.2 1.08,0.48 1.84,2.4 0.76,1.88 0.76,4.08 0,0.92 -0.2,2 -0.84,4.48 -3,6.52 -2.12,2.04 -5.96,2.04 -1.28,0 -1.8,-0.28 -0.52,-0.24 -1.359996,-1.28 -1.6,-1.96 -1.6,-3.36 0,-1 0.28,-1 0.2,0 0.64,0.92 0.8,1.48 1.959996,2.08 1.2,0.6 3.28,0.6 1.84,0 2.84,-0.84 1.04,-0.88 1.88,-3.2 0.76,-2.04 0.76,-4.52 z" />
      <path
         id="path12165"
         style=""
         d="m 116.22173,777.07529 q 0,-1.84 1.2,-2.92 1.2,-1.12 2.72,-1.12 1.72,0 2.92,1.36 1.24,1.32 1.24,2.68 0,1.64 -1.84,2.88 -1.84,1.24 -3.04,1.24 -1.36,0 -2.28,-1.24 -0.92,-1.28 -0.92,-2.88 z m 2.72,-0.4 q 0,0.72 0.24,1.12 0.24,0.4 0.44,0.44 0.24,0.04 0.56,0.04 0.56,0 0.96,-0.24 0.44,-0.28 0.44,-0.68 0,-0.52 -0.84,-1.16 -0.8,-0.64 -1.28,-0.64 -0.52,0 -0.52,1.12 z" />
    </g>
    <g
       id="text16541"
       style="font-style:normal;font-variant:normal;font-weight:normal;font-stretch:normal;font-size:40px;line-height:125%;font-family:Purisa;-inkscape-font-specification:Purisa;letter-spacing:0px;word-spacing:0px;fill:#000000;fill-opacity:1;stroke:none;stroke-width:1px;stroke-linecap:butt;stroke-linejoin:miter;stroke-opacity:1">
      <path
         id="path12141"
         style=""
         d="m -35.15248,793.1267 q -0.32,0 -0.6,-0.24 -0.28,-0.24 -0.28,-0.68 0,-0.44 0.2,-0.76 0.24,-0.36 0.84,-1 0.6,-0.68 1.12,-1.4 l 1.32,-1.76 q 0.28,-0.36 1,-1.6 0.72,-1.28 1.36,-2.12 0.68,-0.88 1.2,-0.88 0.84,0 1.12,2.56 0.24,2.16 0.48,8.52 0.24,6.32 0.24,10.48 0,2.64 -0.12,2.92 -0.32,0.68 -0.72,0.68 -0.56,0 -1.04,-1.4 -0.52,-1.48 -0.52,-10 -0.04,-8.64 -0.48,-8.64 -0.32,0 -1.28,1.36 -0.96,1.32 -2.08,2.64 -1.08,1.32 -1.76,1.32 z" />
      <path
         id="path12143"
         style=""
         d="m -0.32997971,804.5667 q 1.56000001,0 2.24000001,0.16 0.72,0.16 0.84,0.4 0.16,0.2 0.16,0.72 0,0.64 -0.68,0.72 -0.64,0.08 -3.04000001,0.2 -2.39999999,0.12 -5.07999999,0.64 -1.88,0.36 -4.04,0.64 -2.1600003,0.32 -3.1600003,0.48 -1,0.2 -1.28,0.48 -0.32,0.28 -0.88,0.28 -0.64,0 -1.2,-0.36 -0.52,-0.36 -0.52,-0.84 0,-0.52 1.32,-2.24 1.32,-1.76 2.48,-2.76 1.44,-1.2 4.0000003,-6.32 2.6,-5.16 2.6,-8.4 0,-1.32 -0.76,-1.8 -0.72,-0.48 -2.52,-0.48 -4.3200003,0 -8.6800003,4.4 -2.72,2.64 -2.88,2.64 -0.2,0 -0.2,-1.36 0,-1.4 1.04,-1.96 1.08,-0.52 1.08,-1.08 0,-0.2 0.16,-0.44 0.2,-0.28 0.56,-0.56 0.4,-0.32 0.72,-0.56 0.36,-0.28 0.96,-0.68 0.6,-0.44 0.96,-0.72 0.8,-0.68 2.6,-1.36 1.84,-0.72 4.0000003,-0.72 3.64,0 4.72,2 0.44,0.76 0.44,2.56 0,3.28 -1.2,6.36 -0.88,2.08 -3.24,5.92 -2.3200003,3.8 -3.4800003,4.88 -0.44,0.44 -0.44,0.56 0,0.04 0.16,0.04 0.04,0 2,-0.36 1.9600003,-0.36 4.8800003,-0.72 2.96,-0.36 5.35999999,-0.36 z" />
      <path
         id="path12145"
         style=""
         d="m 20.529395,797.5267 q 0,-1.92 -0.48,-3.12 -0.48,-1.2 -1.28,-1.2 -0.88,0 -2.52,0.88 -1.6,0.88 -2.4,1.8 -1,1.12 -1.4,1.12 -0.32,0 -0.92,-0.6 -0.68,-0.68 -0.68,-6.28 0,-4.72 0.56,-5.08 0.4,-0.24 4.88,-0.44 4.48,-0.2 5.72,-0.48 1.16,-0.28 1.92,-0.28 0.96,0 0.96,0.56 0,0.64 -3.28,1.56 -3.24,0.92 -5.48,0.92 l -0.64,0 q -2.72,0 -2.72,2 0,0.32 0.16,1.04 0.2,0.68 0.2,1.48 0,0.36 -0.08,0.92 l -0.24,1.24 1.36,-0.84 q 2.48,-1.56 4.8,-1.56 0.84,0 1.24,0.2 1.08,0.48 1.84,2.4 0.76,1.88 0.76,4.08 0,0.92 -0.2,2 -0.84,4.48 -3,6.52 -2.12,2.04 -5.96,2.04 -1.28,0 -1.8,-0.28 -0.52,-0.24 -1.36,-1.28 -1.5999997,-1.96 -1.5999997,-3.36 0,-1 0.28,-1 0.2,0 0.64,0.92 0.7999997,1.48 1.9599997,2.08 1.2,0.6 3.28,0.6 1.84,0 2.84,-0.84 1.04,-0.88 1.88,-3.2 0.76,-2.04 0.76,-4.52 z" />
      <path
         id="path12147"
         style=""
         d="m 27.293145,780.6467 q 0,-1.84 1.2,-2.92 1.2,-1.12 2.72,-1.12 1.72,0 2.92,1.36 1.24,1.32 1.24,2.68 0,1.64 -1.84,2.88 -1.84,1.24 -3.04,1.24 -1.36,0 -2.28,-1.24 -0.92,-1.28 -0.92,-2.88 z m 2.72,-0.4 q 0,0.72 0.24,1.12 0.24,0.4 0.44,0.44 0.24,0.04 0.56,0.04 0.56,0 0.96,-0.24 0.44,-0.28 0.44,-0.68 0,-0.52 -0.84,-1.16 -0.8,-0.64 -1.28,-0.64 -0.52,0 -0.52,1.12 z" />
    </g>
    <g
       id="text16545"
       style="font-style:normal;font-variant:normal;font-weight:normal;font-stretch:normal;font-size:40px;line-height:125%;font-family:Purisa;-inkscape-font-specification:Purisa;letter-spacing:0px;word-spacing:0px;fill:#000000;fill-opacity:1;stroke:none;stroke-width:1px;stroke-linecap:butt;stroke-linejoin:miter;stroke-opacity:1">
      <path
         id="path12150"
         style=""
         d="m 17.347521,731.69811 q -0.32,0 -0.6,-0.24 -0.28,-0.24 -0.28,-0.68 0,-0.44 0.2,-0.76 0.24,-0.36 0.84,-1 0.6,-0.68 1.12,-1.4 l 1.32,-1.76 q 0.28,-0.36 1,-1.6 0.72,-1.28 1.36,-2.12 0.68,-0.88 1.2,-0.88 0.84,0 1.12,2.56 0.24,2.16 0.48,8.52 0.24,6.32 0.24,10.48 0,2.64 -0.12,2.92 -0.32,0.68 -0.72,0.68 -0.56,0 -1.04,-1.4 -0.52,-1.48 -0.52,-10 -0.04,-8.64 -0.48,-8.64 -0.32,0 -1.28,1.36 -0.96,1.32 -2.08,2.64 -1.08,1.32 -1.76,1.32 z" />
      <path
         id="path12152"
         style=""
         d="m 31.410021,731.69811 q -0.32,0 -0.6,-0.24 -0.28,-0.24 -0.28,-0.68 0,-0.44 0.2,-0.76 0.24,-0.36 0.84,-1 0.6,-0.68 1.12,-1.4 l 1.32,-1.76 q 0.28,-0.36 1,-1.6 0.72,-1.28 1.36,-2.12 0.68,-0.88 1.2,-0.88 0.84,0 1.12,2.56 0.24,2.16 0.48,8.52 0.24,6.32 0.24,10.48 0,2.64 -0.12,2.92 -0.32,0.68 -0.72,0.68 -0.56,0 -1.04,-1.4 -0.52,-1.48 -0.52,-10 -0.04,-8.64 -0.48,-8.64 -0.32,0 -1.28,1.36 -0.96,1.32 -2.08,2.64 -1.08,1.32 -1.76,1.32 z" />
      <path
         id="path12154"
         style=""
         d="m 49.792521,727.57811 q 0,-0.48 1.44,-1.96 1.44,-1.52 3.32,-2.84 1.88,-1.36 2.84,-1.36 1.4,0 3.04,2.12 1.64,2.08 1.64,5.64 0,5.08 -3.44,11.4 -1.4,2.6 -2.88,3.96 -1.44,1.32 -3.44,1.88 -0.92,0.24 -1.68,0.24 -2.84,0 -4.48,-3.56 -0.88,-1.8 -0.88,-2.68 0,-1.76 2.24,-6.92 2.28,-5.2 2.28,-5.92 z m 10.08,1.04 q 0,-4.12 -2.6,-4.12 -1.08,0 -2.12,0.68 -2.12,1.4 -4.6,6.8 -2.44,5.36 -2.44,8.72 0,1.44 0.92,2.48 0.96,1.04 2.28,1.04 0.88,0 1.6,-0.4 0.72,-0.44 1.96,-1.6 2.04,-1.96 2.04,-2.56 0,-0.32 0.72,-1.88 0.76,-1.56 1.48,-4.04 0.76,-2.52 0.76,-5.12 z" />
      <path
         id="path12156"
         style=""
         d="m 65.730646,719.21811 q 0,-1.84 1.2,-2.92 1.2,-1.12 2.72,-1.12 1.72,0 2.92,1.36 1.24,1.32 1.24,2.68 0,1.64 -1.84,2.88 -1.84,1.24 -3.04,1.24 -1.36,0 -2.28,-1.24 -0.92,-1.28 -0.92,-2.88 z m 2.72,-0.4 q 0,0.72 0.24,1.12 0.24,0.4 0.44,0.44 0.24,0.04 0.56,0.04 0.56,0 0.96,-0.24 0.44,-0.28 0.44,-0.68 0,-0.52 -0.84,-1.16 -0.8,-0.64 -1.28,-0.64 -0.52,0 -0.52,1.12 z" />
    </g>
    <g
       id="text16557"
       style="font-style:normal;font-variant:normal;font-weight:normal;font-stretch:normal;font-size:40px;line-height:125%;font-family:Purisa;-inkscape-font-specification:Purisa;letter-spacing:0px;word-spacing:0px;fill:#000000;fill-opacity:1;stroke:none;stroke-width:1px;stroke-linecap:butt;stroke-linejoin:miter;stroke-opacity:1">
      <path
         id="path12046"
         style=""
         d="m -136.1343,928.56063 q 0,-0.56 0.52,-1.36 0.52,-0.8 0.96,-0.8 0.52,0 1.2,-0.96 0.64,-0.96 3.92,-1.32 4.2,-0.4 5.52,-0.4 1.68,0 4.12,0.44 7,1.2 9.84,3.56 2.84,2.32 2.84,7.04 0,4.2 -1.44,7.96 -1.4,3.76 -3.64,6.28 -2.24,2.52 -4.72,4.2 -2.48,1.64 -4.84,2.2 -1,0.24 -1.48,0.76 -0.48,0.56 -0.52,1.04 -0.04,0.48 -0.4,0.84 -0.32,0.4 -1.08,0.4 -1.24,0 -1.24,-0.48 0,-0.28 -0.32,-0.48 -0.32,-0.2 -0.72,-0.32 -0.36,-0.12 -0.68,-0.52 -0.32,-0.4 -0.32,-1.04 0,-1.08 0.76,-1.36 0.76,-0.28 0.76,-3.4 0,-1.64 -0.2,-3.32 -0.2,-1.72 -0.68,-5.16 -0.44,-3.48 -0.84,-7.68 l -0.64,-6.92 -1.44,0.12 q -0.92,0.08 -1.76,0.68 -0.84,0.56 -1.36,1.08 -0.52,0.52 -0.8,0.52 -0.28,0 -0.8,-0.56 -0.52,-0.6 -0.52,-1.04 z m 9.56,0.12 q 0,1.24 1.12,9.4 1.16,8.16 1.16,10.64 0,0.8 -0.08,1.6 l -0.32,2.04 2.16,0 q 3.56,0 8.08,-5.04 2.56,-2.88 3.44,-5.8 0.92,-2.92 0.92,-7.12 0,-1.76 -0.28,-2.44 -0.24,-0.68 -1.16,-1.72 -0.92,-1 -2.08,-1.48 -1.16,-0.48 -3.8,-1 -4.8,-0.8 -7.24,-0.8 -1.12,0 -1.52,0.28 -0.4,0.28 -0.4,1.44 z" />
      <path
         id="path12048"
         style=""
         d="m -99.67555,932.60063 q 0.56,-0.48 0.96,-0.48 0.84,0 1.2,2.68 0.4,2.64 0.72,10.2 0.16,3.52 0.16,6.36 0,2.84 -0.24,3.12 -0.48,0.6 -1.2,0.6 -1,0 -1.24,-0.84 -0.2,-0.52 -0.6,-8.08 -0.4,-7.6 -0.4,-10.56 0,-2.48 0.64,-3 z m -0.24,-9.4 q 0,-0.56 0.44,-1.12 0.48,-0.56 0.84,-0.56 0.4,0 1.08,0.56 0.72,0.52 0.72,1.36 0,0.6 -0.36,1.04 -0.32,0.4 -0.88,0.4 -0.64,0 -1.24,-0.48 -0.6,-0.48 -0.6,-1.2 z" />
      <path
         id="path12050"
         style=""
         d="m -87.3818,935.28063 q 0,-2.32 0.64,-2.32 0.52,0 1.12,3.64 0.64,3.64 0.88,3.64 0.08,0 0.28,-0.48 0.2,-0.52 0.44,-1.12 0.24,-0.64 0.4,-0.8 0.4,-0.52 1.08,-1.96 0.84,-1.72 1.28,-2.08 0.44,-0.4 1.56,-0.4 1.24,0 2.72,1.72 0.96,1.12 1.28,2.08 0.36,0.92 0.76,3.36 l 0.64,3.76 0.68,-2.4 q 1,-3.48 2.88,-6 1.88,-2.52 3.48,-2.52 1,0 1.84,1.16 0.84,1.12 1.2,2.88 0.36,1.64 0.36,7.24 0,4.2 -0.04,6.48 -0.04,2.28 -0.2,3.32 -0.12,1 -0.24,1.16 -0.12,0.2 -0.44,0.24 -0.12,0.04 -0.28,0.04 -0.36,0 -0.44,-1.12 -0.08,-1.12 -0.12,-6.28 0,-12.6 -1.92,-12.6 -1.04,0 -2.72,3.44 -1.4,2.84 -2.36,6.92 -0.96,4.08 -1.16,8.24 -0.04,1 -0.24,1.36 -0.16,0.36 -0.56,0.36 -0.48,0 -0.64,-0.84 -0.12,-0.8 -0.28,-4.32 -0.28,-6.48 -0.8,-9.08 -0.52,-2.64 -1.92,-4.76 -1.04,-1.48 -1.52,-1.48 -0.56,0 -1.24,1.4 -0.68,1.36 -2.24,5.24 -0.72,1.88 -0.72,3.44 0,0.92 -0.36,2.04 -0.32,1.08 -0.44,5.4 -0.08,4.04 -0.32,4.6 -0.16,0.48 -0.64,0.48 -0.64,0 -0.88,-1.92 -0.2,-1.92 -0.2,-7.68 0,-4.64 -0.32,-8.52 -0.28,-3.88 -0.28,-4.96 z" />
      <path
         id="path12052"
         style=""
         d="m -36.6718,946.80063 q 0.2,0 0.2,0.32 0,0.72 -1.08,2.32 -1.04,1.6 -2.24,2.64 -4.2,3.72 -8.4,3.72 -1.6,0 -3.2,-0.72 -1.56,-0.76 -2.92,-2.12 -1.36,-1.36 -2.2,-3.64 -0.84,-2.28 -0.84,-5.08 0,-1.72 0.4,-2.92 0.8,-2.44 3.4,-5.16 2.64,-2.72 4.96,-2.72 0.64,0 1.92,0.12 1.92,0.16 2.68,0.4 0.8,0.24 1.8,1 1.28,0.96 2.2,2.48 0.96,1.48 0.96,2.48 0,1.28 -1,1.96 -1,0.64 -3.88,1.28 -3.72,0.84 -7.36,1.04 l -3.72,0.2 0,1.6 q 0,2.96 2.76,5.6 2.08,2 4.32,2 1.72,0 3.64,-1.04 1.96,-1.08 3.32,-2.36 1.36,-1.28 2.6,-2.32 1.24,-1.08 1.68,-1.08 z m -6.44,-9.76 q -1.24,-1.12 -1.88,-1.4 -0.6,-0.32 -1.6,-0.32 -2,0 -3,0.4 -0.96,0.36 -1.96,1.52 -3.04,3.48 -3.04,4.64 0,0.52 0.96,0.52 3.64,0 10.32,-1.52 2,-0.48 2,-1.68 0,-0.56 -1.8,-2.16 z" />
      <path
         id="path12054"
         style=""
         d="m -25.3443,927.60063 q 0,-1.48 -0.28,-3.76 -0.28,-2.28 -0.28,-3.8 0,-0.76 0.04,-1 0.12,-0.64 0.44,-1 0.36,-0.4 0.72,-0.4 0.48,0 0.68,0.44 0.12,0.28 0.36,2.96 0.24,2.68 0.44,5.24 0.2,2.56 0.28,2.64 0.04,0.04 0.12,0.04 0.32,0 1.84,-0.32 1.56,-0.36 2.56,-0.36 2,0 2,0.88 0,0.88 -4.4,1.96 l -2,0.48 0.24,6.76 q 0.2,5.96 0.76,11.16 0.56,5.16 0.56,5.84 0,1.24 -0.92,1.24 -0.72,0 -1.2,-1.28 -0.44,-1.28 -0.44,-3.32 0,-1.48 -0.12,-3 -0.12,-1.56 -0.44,-4.8 -0.28,-3.28 -0.56,-6.72 -0.12,-1.84 -0.2,-2.84 -0.04,-1 -0.12,-1.48 -0.08,-0.48 -0.12,-0.56 -0.04,-0.12 -0.16,-0.12 -0.64,0 -3.08,0.44 -2.44,0.44 -3.04,0.44 -1.16,0 -1.16,-0.96 0,-0.68 1.44,-1.16 1.48,-0.48 3.32,-0.84 1.84,-0.4 2.28,-0.68 0.44,-0.32 0.44,-2.12 z" />
      <path
         id="path12056"
         style=""
         d="m 2.6369501,935.96063 q 0.68,0 1.2,0.44 0.52,0.4 0.52,0.68 0,0.48 -1.52,1.08 -2.48000003,1 -5.08,4.84 -2.56,3.8 -3.12,7.36 -0.64,4.04 -1.04,5.28 -0.4,1.28 -1.04,1.28 -0.56,0 -0.88,-0.4 -0.28,-0.4 -0.4,-0.88 -0.08,-0.48 -0.2,-1.76 -0.04,-0.24 -0.04,-0.36 -0.96,-10.08 -0.96,-15.92 0,-2.08 0.16,-2.56 0.44,-1.28 1.12,-1.28 0.64,0 0.64,1.08 0,1.8 0.56,5.8 0.56,4 0.84,4 0.36,0 1.48,-2.2 1.4,-2.6 3.72,-4.52 2.35999997,-1.96 4.04,-1.96 z" />
      <path
         id="path12058"
         style=""
         d="m 11.652575,932.60063 q 0.56,-0.48 0.96,-0.48 0.84,0 1.2,2.68 0.4,2.64 0.72,10.2 0.16,3.52 0.16,6.36 0,2.84 -0.24,3.12 -0.48,0.6 -1.2,0.6 -1,0 -1.24,-0.84 -0.2,-0.52 -0.6,-8.08 -0.4,-7.6 -0.4,-10.56 0,-2.48 0.64,-3 z m -0.24,-9.4 q 0,-0.56 0.44,-1.12 0.48,-0.56 0.84,-0.56 0.4,0 1.08,0.56 0.72,0.52 0.72,1.36 0,0.6 -0.36,1.04 -0.32,0.4 -0.88,0.4 -0.64,0 -1.24,-0.48 -0.6,-0.48 -0.6,-1.2 z" />
      <path
         id="path12060"
         style=""
         d="m 38.386325,939.32063 q 0,0.68 -0.32,1.12 -0.28,0.44 -0.68,0.44 -0.76,0 -0.96,-1.16 -0.08,-0.92 -1.32,-2.32 -0.52,-0.56 -0.84,-0.8 -0.32,-0.24 -1.52,-0.52 -1.16,-0.28 -3.08,-0.28 -1.56,0 -2.4,0.56 -0.8,0.56 -2,2.28 -2.88,4.08 -2.88,7.36 0,1.68 0.36,2.84 0.36,1.12 0.68,1.52 0.36,0.36 1.16,1.16 1.16,1.12 1.76,1.44 0.64,0.28 1.76,0.28 3.48,0 7.6,-4.72 2.16,-2.4 3.12,-2.4 0.52,0 0.52,0.76 0,0.72 -1.92,3.08 -1.88,2.36 -3.24,3.32 -3.16,2.28 -5.64,2.28 -1.8,0 -3.96,-1.08 -2.2,-1.08 -3.2,-2.92 -0.96,-1.84 -1.16,-5.36 -0.12,-1.36 -0.12,-2.16 0,-1.56 1.08,-3.56 1.12,-2.16 3.24,-4.16 2.16,-2 3.72,-2.44 1.2,-0.28 2.6,-0.28 3.04,0 5.32,1.96 2.32,1.92 2.32,3.76 z" />
      <path
         id="path12062"
         style=""
         d="m 81.260075,935.48063 q -1.84,0 -3.92,0.76 -2.04,0.76 -3.64,1.56 -1.6,0.76 -2.32,0.76 -0.48,0 -0.48,-0.4 0,-0.56 0.24,-0.96 0.24,-0.4 0.88,-0.76 0.64,-0.36 1.2,-0.6 0.6,-0.24 1.88,-0.68 1.28,-0.48 2.2,-0.88 2.16,-0.84 3.64,-0.84 2.64,0 4.12,2.88 0.72,1.4 0.84,2.6 0.12,1.16 0.2,6.6 0.04,3.04 0.12,5.12 0.08,2.04 0.16,2.6 l 0.08,0.52 q 0,0.56 -0.52,1.2 -0.48,0.64 -0.72,0.64 -0.8,0 -1.24,-2.52 -0.44,-2.56 -0.48,-2.56 -0.12,0 -0.36,0.44 -0.8,1.32 -3.24,2.92 -2.4,1.56 -4.04,1.56 -1,0 -2.36,-0.36 -1.32,-0.4 -1.92,-0.84 -0.44,-0.36 -0.76,-1.44 -0.28,-1.08 -0.28,-2.2 0,-1.68 0.88,-2.88 0.92,-1.24 3.24,-2.52 2.52,-1.48 4.88,-1.48 0.96,0 1.6,0.32 0.64,0.32 0.96,0.68 0.32,0.32 0.52,0.32 0.2,0 0.76,0.44 0.6,0.4 0.64,0.4 0.16,0 0.16,-0.88 0,-5.36 -0.76,-7.44 -0.72,-2.08 -2.16,-2.08 z m 1.8,12.4 q 0,-0.16 -0.12,-0.36 -0.08,-0.24 -0.4,-0.52 -0.28,-0.32 -0.76,-0.56 -0.44,-0.28 -1.24,-0.44 -0.8,-0.2 -1.8,-0.2 -1.72,0 -3.04,0.6 -1.28,0.6 -1.92,1.52 -0.64,0.92 -0.96,1.72 -0.28,0.76 -0.28,1.36 0,1 0.16,1.36 0.2,0.36 0.92,0.76 0.88,0.44 1.6,0.44 1.36,0 3.36,-0.96 2.04,-1 2.04,-1.44 0,-0.32 1.2,-1.52 1.24,-1.24 1.24,-1.76 z" />
      <path
         id="path12064"
         style=""
         d="m 98.4057,927.60063 q 0,-1.48 -0.28,-3.76 -0.28,-2.28 -0.28,-3.8 0,-0.76 0.04,-1 0.12,-0.64 0.44,-1 0.36,-0.4 0.72,-0.4 0.48,0 0.68,0.44 0.12,0.28 0.36,2.96 0.24,2.68 0.44,5.24 0.2,2.56 0.28,2.64 0.04,0.04 0.12,0.04 0.32,0 1.84,-0.32 1.56,-0.36 2.56,-0.36 2,0 2,0.88 0,0.88 -4.4,1.96 l -2,0.48 0.24,6.76 q 0.2,5.96 0.76,11.16 0.56,5.16 0.56,5.84 0,1.24 -0.92,1.24 -0.72,0 -1.2,-1.28 -0.44,-1.28 -0.44,-3.32 0,-1.48 -0.12,-3 -0.12,-1.56 -0.44,-4.8 -0.28,-3.28 -0.56,-6.72 -0.12,-1.84 -0.2,-2.84 -0.04,-1 -0.12,-1.48 -0.08,-0.48 -0.12,-0.56 -0.04,-0.12 -0.16,-0.12 -0.64,0 -3.08,0.44 -2.44,0.44 -3.04,0.44 -1.16,0 -1.16,-0.96 0,-0.68 1.44,-1.16 1.48,-0.48 3.32,-0.84 1.84,-0.4 2.28,-0.68 0.44,-0.32 0.44,-2.12 z" />
      <path
         id="path12066"
         style=""
         d="m 148.92633,932.04063 q 0.48,0 0.8,-0.56 0.36,-0.56 0.76,-0.56 0.4,0 0.68,0.36 0.32,0.32 0.32,0.64 0,0.84 -0.88,1.72 -0.68,0.76 -0.84,1.52 -0.12,0.76 -0.12,3.56 0,2.28 0.12,3.36 0.12,1.04 0.24,1.24 0.16,0.16 0.52,0.16 0.56,0 1.72,-0.4 1.16,-0.4 1.44,-0.6 0.16,-0.16 0.56,-0.16 0.64,0 1.24,0.4 0.64,0.36 0.64,0.92 0,0.4 -0.36,0.76 -0.36,0.32 -1,0.36 -1.2,0.16 -2.96,0.72 l -1.8,0.6 0.16,3.36 q 0.08,1.84 0.32,3.04 0.24,1.2 0.44,1.68 0.2,0.48 0.2,0.68 0,0.4 -0.44,0.8 -0.44,0.44 -0.84,0.44 -1.4,0 -1.92,-6.32 -0.2,-1.88 -0.32,-2.4 -0.12,-0.52 -0.44,-0.52 l -3.16,0.68 q -3.2,0.68 -4.4,0.68 -1.44,0 -1.44,-0.88 0,-0.88 1.52,-3.2 2.92,-4.36 5.84,-8.2 2.96,-3.84 3.4,-3.88 z m -4.4,13.24 q 2.24,-0.48 2.72,-0.76 0.48,-0.32 0.48,-1.32 0,-0.88 -0.24,-3.2 l -0.28,-2.68 -1.68,2.04 q -1.16,1.44 -2.64,3.76 -1.48,2.28 -1.48,2.68 0,0.04 0.04,0.04 0.4,0 3.08,-0.56 z" />
      <path
         id="path12068"
         style=""
         d="m 172.46445,945.00063 q 0,-1.92 -0.48,-3.12 -0.48,-1.2 -1.28,-1.2 -0.88,0 -2.52,0.88 -1.6,0.88 -2.4,1.8 -1,1.12 -1.4,1.12 -0.32,0 -0.92,-0.6 -0.68,-0.68 -0.68,-6.28 0,-4.72 0.56,-5.08 0.4,-0.24 4.88,-0.44 4.48,-0.2 5.72,-0.48 1.16,-0.28 1.92,-0.28 0.96,0 0.96,0.56 0,0.64 -3.28,1.56 -3.24,0.92 -5.48,0.92 l -0.64,0 q -2.72,0 -2.72,2 0,0.32 0.16,1.04 0.2,0.68 0.2,1.48 0,0.36 -0.08,0.92 l -0.24,1.24 1.36,-0.84 q 2.48,-1.56 4.8,-1.56 0.84,0 1.24,0.2 1.08,0.48 1.84,2.4 0.76,1.88 0.76,4.08 0,0.92 -0.2,2 -0.84,4.48 -3,6.52 -2.12,2.04 -5.96,2.04 -1.28,0 -1.8,-0.28 -0.52,-0.24 -1.36,-1.28 -1.6,-1.96 -1.6,-3.36 0,-1 0.28,-1 0.2,0 0.64,0.92 0.8,1.48 1.96,2.08 1.2,0.6 3.28,0.6 1.84,0 2.84,-0.84 1.04,-0.88 1.88,-3.2 0.76,-2.04 0.76,-4.52 z" />
      <path
         id="path12070"
         style=""
         d="m 179.2282,928.12063 q 0,-1.84 1.2,-2.92 1.2,-1.12 2.72,-1.12 1.72,0 2.92,1.36 1.24,1.32 1.24,2.68 0,1.64 -1.84,2.88 -1.84,1.24 -3.04,1.24 -1.36,0 -2.28,-1.24 -0.92,-1.28 -0.92,-2.88 z m 2.72,-0.4 q 0,0.72 0.24,1.12 0.24,0.4 0.44,0.44 0.24,0.04 0.56,0.04 0.56,0 0.96,-0.24 0.44,-0.28 0.44,-0.68 0,-0.52 -0.84,-1.16 -0.8,-0.64 -1.28,-0.64 -0.52,0 -0.52,1.12 z" />
    </g>
    <path
       style="fill:url(#linearGradient6453);fill-opacity:1;fill-rule:evenodd;stroke:none;stroke-width:1px;stroke-linecap:butt;stroke-linejoin:miter;stroke-opacity:1"
       d="m -126.59597,472.14128 63.639596,-63.63959 -21.2132,-21.2132 63.6396,7.0711 7.0711,63.6396 -21.2132,-21.2132 -63.6396,63.63959 z"
       id="path6449" />
    <g
       id="flowRoot16617"
       style="font-style:normal;font-variant:normal;font-weight:normal;font-stretch:normal;font-size:40px;line-height:125%;font-family:Purisa;-inkscape-font-specification:Purisa;text-align:center;letter-spacing:0px;word-spacing:0px;text-anchor:middle;fill:#000000;fill-opacity:1;stroke:none;stroke-width:1px;stroke-linecap:butt;stroke-linejoin:miter;stroke-opacity:1"
       transform="translate(-311.15344,-250.03832)">
      <path
         id="path11987"
         style=""
         d="m 780.11246,1125.7063 q -1.32,0 -2.76,0.32 -1.44,0.32 -1.88,0.32 -1,0 -1.72,-0.36 -0.68,-0.36 -0.68,-0.92 0,-0.68 0.88,-0.92 0.92,-0.28 4.8,-0.88 7.88,-1.2 15.08,-2.6 4.44,-0.84 5.76,-0.84 1.24,0 2.52,0.52 1.28,0.52 1.28,1.16 0,0.6 -1.04,1.04 -1.04,0.4 -2.76,0.4 -2.68,0 -5.72,0.72 l -3.08,0.72 0.6,3.36 q 0.44,3.12 1.04,11.96 0.64,8.8 0.76,9.84 0.12,1.04 0.12,1.56 0,1.24 -1.08,1.24 -1.04,0 -1.56,-2.6 -0.48,-2.6 -0.92,-10.2 -0.8,-12.96 -2.08,-14.32 -0.32,-0.32 -1.04,-0.32 -0.32,0 -2.76,0.4 -2.4,0.4 -3.76,0.4 z" />
      <path
         id="path11989"
         style=""
         d="m 808.35371,1147.0663 q 0,-3.2 -0.8,-12.88 -0.76,-9.72 -0.76,-13.4 0,-2.12 0.24,-2.56 0.48,-0.84 0.92,-0.84 0.72,0 0.92,1.4 0.24,1.4 0.64,7.08 0.32,4.56 0.56,7.64 l 0.36,4.72 0.72,-1.56 q 0.8,-1.8 3.92,-4.72 3.12,-2.92 4.2,-2.92 1,0 2.2,1.12 1.2,1.12 1.56,2.4 0.32,1.08 0.32,9.72 0,6.24 -0.12,7.4 -0.12,1.12 -0.76,1.12 -0.64,0 -0.84,-1.16 -0.16,-1.16 -0.32,-6.68 -0.24,-7.72 -0.96,-9.88 l -0.64,-2 -2.32,2.16 q -1.84,1.76 -3.4,4 -1.52,2.24 -2.08,3.96 -0.36,1.24 -0.6,3.96 -0.24,2.72 -0.6,4.48 -0.32,1.76 -0.96,1.76 -0.28,0 -0.68,-0.32 -0.72,-0.6 -0.72,-4 z" />
      <path
         id="path11991"
         style=""
         d="m 848.75809,1141.9063 q 0.2,0 0.2,0.32 0,0.72 -1.08,2.32 -1.04,1.6 -2.24,2.64 -4.2,3.72 -8.4,3.72 -1.6,0 -3.2,-0.72 -1.56,-0.76 -2.92,-2.12 -1.36,-1.36 -2.2,-3.64 -0.84,-2.28 -0.84,-5.08 0,-1.72 0.4,-2.92 0.8,-2.44 3.4,-5.16 2.64,-2.72 4.96,-2.72 0.64,0 1.92,0.12 1.92,0.16 2.68,0.4 0.8,0.24 1.8,1 1.28,0.96 2.2,2.48 0.96,1.48 0.96,2.48 0,1.28 -1,1.96 -1,0.64 -3.88,1.28 -3.72,0.84 -7.36,1.04 l -3.72,0.2 0,1.6 q 0,2.96 2.76,5.6 2.08,2 4.32,2 1.72,0 3.64,-1.04 1.96,-1.08 3.32,-2.36 1.36,-1.28 2.6,-2.32 1.24,-1.08 1.68,-1.08 z m -6.44,-9.76 q -1.24,-1.12 -1.88,-1.4 -0.6,-0.32 -1.6,-0.32 -2,0 -3,0.4 -0.96,0.36 -1.96,1.52 -3.04,3.48 -3.04,4.64 0,0.52 0.96,0.52 3.64,0 10.32,-1.52 2,-0.48 2,-1.68 0,-0.56 -1.8,-2.16 z" />
      <path
         id="path11993"
         style=""
         d="m 880.70496,1124.1863 q -0.24,-2.56 -0.24,-5.64 0,-3.08 0.16,-4.68 0.16,-1.64 0.4,-2.08 0.24,-0.44 0.68,-0.44 0.4,0 0.64,0.36 0.24,0.4 1.44,18.52 1.24,18.12 1.24,18.84 0,0.52 -0.24,0.72 -0.24,0.16 -0.8,0.16 -0.96,0 -1.24,-1.36 -0.28,-1.4 -0.8,-8.68 -0.64,-8.8 -1.24,-15.72 z" />
      <path
         id="path11995"
         style=""
         d="m 911.25809,1141.9063 q 0.2,0 0.2,0.32 0,0.72 -1.08,2.32 -1.04,1.6 -2.24,2.64 -4.2,3.72 -8.4,3.72 -1.6,0 -3.2,-0.72 -1.56,-0.76 -2.92,-2.12 -1.36,-1.36 -2.2,-3.64 -0.84,-2.28 -0.84,-5.08 0,-1.72 0.4,-2.92 0.8,-2.44 3.4,-5.16 2.64,-2.72 4.96,-2.72 0.64,0 1.92,0.12 1.92,0.16 2.68,0.4 0.8,0.24 1.8,1 1.28,0.96 2.2,2.48 0.96,1.48 0.96,2.48 0,1.28 -1,1.96 -1,0.64 -3.88,1.28 -3.72,0.84 -7.36,1.04 l -3.72,0.2 0,1.6 q 0,2.96 2.76,5.6 2.08,2 4.32,2 1.72,0 3.64,-1.04 1.96,-1.08 3.32,-2.36 1.36,-1.28 2.6,-2.32 1.24,-1.08 1.68,-1.08 z m -6.44,-9.76 q -1.24,-1.12 -1.88,-1.4 -0.6,-0.32 -1.6,-0.32 -2,0 -3,0.4 -0.96,0.36 -1.96,1.52 -3.04,3.48 -3.04,4.64 0,0.52 0.96,0.52 3.64,0 10.32,-1.52 2,-0.48 2,-1.68 0,-0.56 -1.8,-2.16 z" />
      <path
         id="path11997"
         style=""
         d="m 922.14559,1132.5063 q -0.48,0 -2.04,0.44 -1.52,0.4 -2.44,0.4 -1.76,0 -1.76,-1.12 0,-0.44 0.64,-0.8 0.68,-0.36 2.6,-0.92 l 3.24,-0.96 0.08,-3.48 q 0.08,-3.72 0.56,-8.2 0.36,-3.32 0.64,-4.2 0.28,-0.88 1.24,-1.84 0.8,-0.8 1.28,-1.04 0.52,-0.24 1.44,-0.24 0.68,0 2.88,0.2 1.68,0.16 2.4,0.48 0.72,0.28 1.64,1.2 1.36,1.36 1.36,2.48 0,0.8 -0.64,1.68 -0.6,0.84 -0.92,0.84 -0.48,0 -0.48,-1.36 0,-1.28 -0.72,-1.96 -0.68,-0.72 -2.68,-1.36 -1.32,-0.4 -2.04,-0.4 -1.72,0 -2.68,2 -0.36,0.8 -0.68,4.6 -0.28,3.76 -0.28,6.92 0,2.28 0.16,2.88 0.2,0.56 1,0.56 0.48,0 2,-0.28 1.52,-0.28 2.52,-0.28 0.56,0 0.92,0.2 0.36,0.16 0.36,0.4 0,0.68 -3.44,1.72 l -3.44,1 -0.12,6.36 q 0,0.48 -0.04,1.32 0,0.8 0,1.12 0,3 0.28,4.64 0.28,1.64 0.56,2.36 0.28,0.72 0.28,1.56 0,1.2 -1.12,1.2 -2.12,0 -2.12,-11.16 0,-6.68 -0.24,-6.92 -0.04,-0.04 -0.2,-0.04 z" />
      <path
         id="path11999"
         style=""
         d="m 947.50746,1122.7063 q 0,-1.48 -0.28,-3.76 -0.28,-2.28 -0.28,-3.8 0,-0.76 0.04,-1 0.12,-0.64 0.44,-1 0.36,-0.4 0.72,-0.4 0.48,0 0.68,0.44 0.12,0.28 0.36,2.96 0.24,2.68 0.44,5.24 0.2,2.56 0.28,2.64 0.04,0.04 0.12,0.04 0.32,0 1.84,-0.32 1.56,-0.36 2.56,-0.36 2,0 2,0.88 0,0.88 -4.4,1.96 l -2,0.48 0.24,6.76 q 0.2,5.96 0.76,11.16 0.56,5.16 0.56,5.84 0,1.24 -0.92,1.24 -0.72,0 -1.2,-1.28 -0.44,-1.28 -0.44,-3.32 0,-1.48 -0.12,-3 -0.12,-1.56 -0.44,-4.8 -0.28,-3.28 -0.56,-6.72 -0.12,-1.84 -0.2,-2.84 -0.04,-1 -0.12,-1.48 -0.08,-0.48 -0.12,-0.56 -0.04,-0.12 -0.16,-0.12 -0.64,0 -3.08,0.44 -2.44,0.44 -3.04,0.44 -1.16,0 -1.16,-0.96 0,-0.68 1.44,-1.16 1.48,-0.48 3.32,-0.84 1.84,-0.4 2.28,-0.68 0.44,-0.32 0.44,-2.12 z" />
      <path
         id="path12001"
         style=""
         d="m 966.16871,1141.1063 q -0.6,0 -2.56,-1.44 -1.96,-1.48 -1.96,-3 0,-1.44 2.04,-3.96 2.04,-2.56 4.92,-3.28 1.32,-0.36 3.48,-0.36 0.92,0 1.36,0.24 0.44,0.24 1.2,1.08 1.24,1.4 1.24,1.92 0,0.48 -0.52,0.48 -0.64,0 -1.08,-0.44 -0.44,-0.48 -1.08,-0.96 -0.64,-0.48 -1.72,-0.48 -1.4,0 -3,0.76 -1.6,0.76 -2.84,2.12 -1.76,1.88 -1.76,2.56 0,0.68 1.04,1.64 1.04,0.92 3.48,1.76 3.84,1.32 5.2,2.48 1.36,1.16 1.36,3.12 0,1.84 -0.64,3.36 -0.44,1.16 -1.88,2.6 -1.44,1.44 -2.84,1.44 -1.08,0 -2.8,-0.36 -1.72,-0.32 -2.6,-0.76 -0.72,-0.36 -1.32,-1.4 -0.6,-1.08 -0.6,-1.92 0,-0.44 0.2,-0.76 0.24,-0.36 0.56,-0.36 0.6,0 1.12,1.12 0.48,1 1.92,1.8 1.48,0.8 2.76,0.8 1.72,0 3.04,-2.04 1.32,-2.08 1.32,-3.24 0,-0.28 -0.16,-0.68 -0.12,-0.44 -0.68,-1.04 -0.56,-0.6 -1.44,-0.92 -0.84,-0.28 -1.96,-0.76 -1.12,-0.48 -1.88,-0.8 -0.72,-0.32 -0.92,-0.32 z" />
      <path
         id="path12003"
         style=""
         d="m 983.17621,1127.7063 q 0.56,-0.48 0.96,-0.48 0.84,0 1.2,2.68 0.4,2.64 0.72,10.2 0.16,3.52 0.16,6.36 0,2.84 -0.24,3.12 -0.48,0.6 -1.2,0.6 -1,0 -1.24,-0.84 -0.2,-0.52 -0.6,-8.08 -0.4,-7.6 -0.4,-10.56 0,-2.48 0.64,-3 z m -0.24,-9.4 q 0,-0.56 0.44,-1.12 0.48,-0.56 0.84,-0.56 0.4,0 1.08,0.56 0.72,0.52 0.72,1.36 0,0.6 -0.36,1.04 -0.32,0.4 -0.88,0.4 -0.64,0 -1.24,-0.48 -0.6,-0.48 -0.6,-1.2 z" />
      <path
         id="path12005"
         style=""
         d="m 1015.35,1150.9063 q 0,0.88 -0.36,1.36 -0.32,0.52 -0.6,0.6 -0.24,0.12 -0.44,0.12 -0.52,0 -0.88,-0.36 -0.36,-0.32 -0.56,-1.2 -0.2,-0.84 -0.28,-1.28 -0.04,-0.44 -0.16,-1.64 -0.28,-4.04 -0.64,-4.04 -0.44,0 -1.4,1.16 -4.48,5.28 -9.44,5.28 -1.48004,0 -2.96004,-0.56 -5.12,-1.92 -5.12,-7.84 0,-2.56 0.84,-4.88 0.88,-2.36 2.2,-3.96 1.36,-1.6 2.72,-2.68 1.36,-1.08 2.60004,-1.52 1.56,-0.6 2.16,-0.6 1.04,0 3.48,1.36 2.48,1.36 3.44,2.64 1.08,1.44 1.64,1.44 0.04,0 0.04,0 0,-0.04 0.04,-0.04 0.44,-0.28 0.44,-10.44 0,-10.04 0.48,-11.4 0.52,-1.24 1.56,-1.24 l 1.08,0 -0.32,16.44 q -0.12,6.12 -0.12,10.92 0,6.52 0.28,9.32 0.28,2.8 0.28,3.04 z m -9.36,-17.72 q -2.36,-1.56 -3.28,-1.56 -0.8,0 -3.60004,2.72 -2.8,2.72 -3.32,4 -0.4,0.96 -0.4,3.48 0,3.08 0.52,4 0.4,0.72 1.92,1.56 1.56,0.84 3.08004,0.84 2.72,0 6.88,-4 3.28,-3.16 3.28,-4.12 0,-1.32 -1.68,-3.52 -1.64,-2.2 -3.4,-3.4 z" />
      <path
         id="path12007"
         style=""
         d="m 1041.0237,1141.9063 q 0.2,0 0.2,0.32 0,0.72 -1.08,2.32 -1.04,1.6 -2.24,2.64 -4.2,3.72 -8.4,3.72 -1.6,0 -3.2,-0.72 -1.56,-0.76 -2.92,-2.12 -1.36,-1.36 -2.2,-3.64 -0.84,-2.28 -0.84,-5.08 0,-1.72 0.4,-2.92 0.8,-2.44 3.4,-5.16 2.64,-2.72 4.96,-2.72 0.64,0 1.92,0.12 1.92,0.16 2.68,0.4 0.8,0.24 1.8,1 1.28,0.96 2.2,2.48 0.96,1.48 0.96,2.48 0,1.28 -1,1.96 -1,0.64 -3.88,1.28 -3.72,0.84 -7.36,1.04 l -3.72,0.2 0,1.6 q 0,2.96 2.76,5.6 2.08,2 4.32,2 1.72,0 3.64,-1.04 1.96,-1.08 3.32,-2.36 1.36,-1.28 2.6,-2.32 1.24,-1.08 1.68,-1.08 z m -6.44,-9.76 q -1.24,-1.12 -1.88,-1.4 -0.6,-0.32 -1.6,-0.32 -2,0 -3,0.4 -0.96,0.36 -1.96,1.52 -3.04,3.48 -3.04,4.64 0,0.52 0.96,0.52 3.64,0 10.32,-1.52 2,-0.48 2,-1.68 0,-0.56 -1.8,-2.16 z" />
      <path
         id="path12009"
         style=""
         d="m 1083.3306,1130.5863 q -1.84,0 -3.92,0.76 -2.04,0.76 -3.64,1.56 -1.6,0.76 -2.32,0.76 -0.48,0 -0.48,-0.4 0,-0.56 0.24,-0.96 0.24,-0.4 0.88,-0.76 0.64,-0.36 1.2,-0.6 0.6,-0.24 1.88,-0.68 1.28,-0.48 2.2,-0.88 2.16,-0.84 3.64,-0.84 2.64,0 4.12,2.88 0.72,1.4 0.84,2.6 0.12,1.16 0.2,6.6 0.04,3.04 0.12,5.12 0.08,2.04 0.16,2.6 l 0.08,0.52 q 0,0.56 -0.52,1.2 -0.48,0.64 -0.72,0.64 -0.8,0 -1.24,-2.52 -0.44,-2.56 -0.48,-2.56 -0.12,0 -0.36,0.44 -0.8,1.32 -3.24,2.92 -2.4,1.56 -4.04,1.56 -1,0 -2.36,-0.36 -1.32,-0.4 -1.92,-0.84 -0.44,-0.36 -0.76,-1.44 -0.28,-1.08 -0.28,-2.2 0,-1.68 0.88,-2.88 0.92,-1.24 3.24,-2.52 2.52,-1.48 4.88,-1.48 0.96,0 1.6,0.32 0.64,0.32 0.96,0.68 0.32,0.32 0.52,0.32 0.2,0 0.76,0.44 0.6,0.4 0.64,0.4 0.16,0 0.16,-0.88 0,-5.36 -0.76,-7.44 -0.72,-2.08 -2.16,-2.08 z m 1.8,12.4 q 0,-0.16 -0.12,-0.36 -0.08,-0.24 -0.4,-0.52 -0.28,-0.32 -0.76,-0.56 -0.44,-0.28 -1.24,-0.44 -0.8,-0.2 -1.8,-0.2 -1.72,0 -3.04,0.6 -1.28,0.6 -1.92,1.52 -0.64,0.92 -0.96,1.72 -0.28,0.76 -0.28,1.36 0,1 0.16,1.36 0.2,0.36 0.92,0.76 0.88,0.44 1.6,0.44 1.36,0 3.36,-0.96 2.04,-1 2.04,-1.44 0,-0.32 1.2,-1.52 1.24,-1.24 1.24,-1.76 z" />
      <path
         id="path12011"
         style=""
         d="m 1098.3562,1141.1063 q -0.6,0 -2.56,-1.44 -1.96,-1.48 -1.96,-3 0,-1.44 2.04,-3.96 2.04,-2.56 4.92,-3.28 1.32,-0.36 3.48,-0.36 0.92,0 1.36,0.24 0.44,0.24 1.2,1.08 1.24,1.4 1.24,1.92 0,0.48 -0.52,0.48 -0.64,0 -1.08,-0.44 -0.44,-0.48 -1.08,-0.96 -0.64,-0.48 -1.72,-0.48 -1.4,0 -3,0.76 -1.6,0.76 -2.84,2.12 -1.76,1.88 -1.76,2.56 0,0.68 1.04,1.64 1.04,0.92 3.48,1.76 3.84,1.32 5.2,2.48 1.36,1.16 1.36,3.12 0,1.84 -0.64,3.36 -0.44,1.16 -1.88,2.6 -1.44,1.44 -2.84,1.44 -1.08,0 -2.8,-0.36 -1.72,-0.32 -2.6,-0.76 -0.72,-0.36 -1.32,-1.4 -0.6,-1.08 -0.6,-1.92 0,-0.44 0.2,-0.76 0.24,-0.36 0.56,-0.36 0.6,0 1.12,1.12 0.48,1 1.92,1.8 1.48,0.8 2.76,0.8 1.72,0 3.04,-2.04 1.32,-2.08 1.32,-3.24 0,-0.28 -0.16,-0.68 -0.12,-0.44 -0.68,-1.04 -0.56,-0.6 -1.44,-0.92 -0.84,-0.28 -1.96,-0.76 -1.12,-0.48 -1.88,-0.8 -0.72,-0.32 -0.92,-0.32 z" />
      <path
         id="path12013"
         style=""
         d="m 789.17652,1191.1063 q -0.6,0 -2.56,-1.44 -1.96,-1.48 -1.96,-3 0,-1.44 2.04,-3.96 2.04,-2.56 4.92,-3.28 1.32,-0.36 3.48,-0.36 0.92,0 1.36,0.24 0.44,0.24 1.2,1.08 1.24,1.4 1.24,1.92 0,0.48 -0.52,0.48 -0.64,0 -1.08,-0.44 -0.44,-0.48 -1.08,-0.96 -0.64,-0.48 -1.72,-0.48 -1.4,0 -3,0.76 -1.6,0.76 -2.84,2.12 -1.76,1.88 -1.76,2.56 0,0.68 1.04,1.64 1.04,0.92 3.48,1.76 3.84,1.32 5.2,2.48 1.36,1.16 1.36,3.12 0,1.84 -0.64,3.36 -0.44,1.16 -1.88,2.6 -1.44,1.44 -2.84,1.44 -1.08,0 -2.8,-0.36 -1.72,-0.32 -2.6,-0.76 -0.72,-0.36 -1.32,-1.4 -0.6,-1.08 -0.6,-1.92 0,-0.44 0.2,-0.76 0.24,-0.36 0.56,-0.36 0.6,0 1.12,1.12 0.48,1 1.92,1.8 1.48,0.8 2.76,0.8 1.72,0 3.04,-2.04 1.32,-2.08 1.32,-3.24 0,-0.28 -0.16,-0.68 -0.12,-0.44 -0.68,-1.04 -0.56,-0.6 -1.44,-0.92 -0.84,-0.28 -1.96,-0.76 -1.12,-0.48 -1.88,-0.8 -0.72,-0.32 -0.92,-0.32 z" />
      <path
         id="path12015"
         style=""
         d="m 824.34402,1191.9063 q 0.2,0 0.2,0.32 0,0.72 -1.08,2.32 -1.04,1.6 -2.24,2.64 -4.2,3.72 -8.4,3.72 -1.6,0 -3.2,-0.72 -1.56,-0.76 -2.92,-2.12 -1.36,-1.36 -2.2,-3.64 -0.84,-2.28 -0.84,-5.08 0,-1.72 0.4,-2.92 0.8,-2.44 3.4,-5.16 2.64,-2.72 4.96,-2.72 0.64,0 1.92,0.12 1.92,0.16 2.68,0.4 0.8,0.24 1.8,1 1.28,0.96 2.2,2.48 0.96,1.48 0.96,2.48 0,1.28 -1,1.96 -1,0.64 -3.88,1.28 -3.72,0.84 -7.36,1.04 l -3.72,0.2 0,1.6 q 0,2.96 2.76,5.6 2.08,2 4.32,2 1.72,0 3.64,-1.04 1.96,-1.08 3.32,-2.36 1.36,-1.28 2.6,-2.32 1.24,-1.08 1.68,-1.08 z m -6.44,-9.76 q -1.24,-1.12 -1.88,-1.4 -0.6,-0.32 -1.6,-0.32 -2,0 -3,0.4 -0.96,0.36 -1.96,1.52 -3.04,3.48 -3.04,4.64 0,0.52 0.96,0.52 3.64,0 10.32,-1.52 2,-0.48 2,-1.68 0,-0.56 -1.8,-2.16 z" />
      <path
         id="path12017"
         style=""
         d="m 849.03152,1191.9063 q 0.2,0 0.2,0.32 0,0.72 -1.08,2.32 -1.04,1.6 -2.24,2.64 -4.2,3.72 -8.4,3.72 -1.6,0 -3.2,-0.72 -1.56,-0.76 -2.92,-2.12 -1.36,-1.36 -2.2,-3.64 -0.84,-2.28 -0.84,-5.08 0,-1.72 0.4,-2.92 0.8,-2.44 3.4,-5.16 2.64,-2.72 4.96,-2.72 0.64,0 1.92,0.12 1.92,0.16 2.68,0.4 0.8,0.24 1.8,1 1.28,0.96 2.2,2.48 0.96,1.48 0.96,2.48 0,1.28 -1,1.96 -1,0.64 -3.88,1.28 -3.72,0.84 -7.36,1.04 l -3.72,0.2 0,1.6 q 0,2.96 2.76,5.6 2.08,2 4.32,2 1.72,0 3.64,-1.04 1.96,-1.08 3.32,-2.36 1.36,-1.28 2.6,-2.32 1.24,-1.08 1.68,-1.08 z m -6.44,-9.76 q -1.24,-1.12 -1.88,-1.4 -0.6,-0.32 -1.6,-0.32 -2,0 -3,0.4 -0.96,0.36 -1.96,1.52 -3.04,3.48 -3.04,4.64 0,0.52 0.96,0.52 3.64,0 10.32,-1.52 2,-0.48 2,-1.68 0,-0.56 -1.8,-2.16 z" />
      <path
         id="path12019"
         style=""
         d="m 856.03902,1178.8663 q 0,-1.36 0.8,-1.36 0.52,0 0.76,1.2 0.24,1.16 0.88,6.96 0.8,6.48 0.84,6.56 0.04,0.04 0.32,-0.76 0.32,-0.84 0.84,-2.48 0.8,-2.64 1.36,-3.8 0.56,-1.2 2,-3.28 2.92,-4.04 4.52,-4.04 1.04,0 1.96,1.4 1.24,1.84 1.52,3.64 0.28,1.8 0.4,8.52 0.08,4.32 0.08,5.12 0,2 -0.16,2.92 -0.12,0.88 -0.4,1.08 -0.24,0.24 -0.88,0.28 -0.36,0 -0.48,-0.32 -0.12,-0.28 -0.12,-1.36 0,-0.6 0.08,-2.56 0.08,-2 0.08,-3.36 0,-3.4 -0.28,-6.64 -0.24,-3.28 -0.6,-4.2 -0.2,-0.52 -0.64,-1.08 -0.44,-0.56 -0.84,-0.56 -0.84,0 -2.68,2.88 -1.84,2.84 -3.16,6 -1.24,2.88 -1.68,4.44 -0.4,1.52 -0.68,4.16 -0.44,4.08 -0.64,4.08 -0.32,0 -0.92,-0.68 -0.44,-0.44 -0.6,-1.88 -0.16,-1.48 -0.44,-5.8 -0.28,-4.36 -0.76,-8.8 -0.48,-4.6 -0.48,-6.28 z" />
      <path
         id="path12021"
         style=""
         d="m 910.54402,1182.5063 q -0.48,0 -2.04,0.44 -1.52,0.4 -2.44,0.4 -1.76,0 -1.76,-1.12 0,-0.44 0.64,-0.8 0.68,-0.36 2.6,-0.92 l 3.24,-0.96 0.08,-3.48 q 0.08,-3.72 0.56,-8.2 0.36,-3.32 0.64,-4.2 0.28,-0.88 1.24,-1.84 0.8,-0.8 1.28,-1.04 0.52,-0.24 1.44,-0.24 0.68,0 2.88,0.2 1.68,0.16 2.4,0.48 0.72,0.28 1.64,1.2 1.36,1.36 1.36,2.48 0,0.8 -0.64,1.68 -0.6,0.84 -0.92,0.84 -0.48,0 -0.48,-1.36 0,-1.28 -0.72,-1.96 -0.68,-0.72 -2.68,-1.36 -1.32,-0.4 -2.04,-0.4 -1.72,0 -2.68,2 -0.36,0.8 -0.68,4.6 -0.28,3.76 -0.28,6.92 0,2.28 0.16,2.88 0.2,0.56 1,0.56 0.48,0 2,-0.28 1.52,-0.28 2.52,-0.28 0.56,0 0.92,0.2 0.36,0.16 0.36,0.4 0,0.68 -3.44,1.72 l -3.44,1 -0.12,6.36 q 0,0.48 -0.04,1.32 0,0.8 0,1.12 0,3 0.28,4.64 0.28,1.64 0.56,2.36 0.28,0.72 0.28,1.56 0,1.2 -1.12,1.2 -2.12,0 -2.12,-11.16 0,-6.68 -0.24,-6.92 -0.04,-0.04 -0.2,-0.04 z" />
      <path
         id="path12023"
         style=""
         d="m 943.1059,1181.0663 q 0.68,0 1.2,0.44 0.52,0.4 0.52,0.68 0,0.48 -1.52,1.08 -2.48,1 -5.08,4.84 -2.56,3.8 -3.12,7.36 -0.64,4.04 -1.04,5.28 -0.4,1.28 -1.04,1.28 -0.56,0 -0.88,-0.4 -0.28,-0.4 -0.4,-0.88 -0.08,-0.48 -0.2,-1.76 -0.04,-0.24 -0.04,-0.36 -0.96,-10.08 -0.96,-15.92 0,-2.08 0.16,-2.56 0.44,-1.28 1.12,-1.28 0.64,0 0.64,1.08 0,1.8 0.56,5.8 0.56,4 0.84,4 0.36,0 1.48,-2.2 1.4,-2.6 3.72,-4.52 2.36,-1.96 4.04,-1.96 z" />
      <path
         id="path12025"
         style=""
         d="m 953.68152,1182.5463 q 3.12,-2.92 5.24,-3.84 2.16,-0.96 5.44,-0.96 4.96,0 6.2,2.96 0.76,1.76 0.76,4.32 0,4.24 -1.88,8.6 -1.88,4.32 -4.64,6 -2.68,1.64 -5.64,1.64 -4.12,0 -6.6,-2.84 -1.72,-2 -2.24,-3.36 -0.52,-1.4 -0.52,-3.96 0,-4.84 3.88,-8.56 z m 6.44,16.44 q 3.36,0 6.08,-4.6 2.76,-4.64 2.76,-10.48 0,-0.88 -0.2,-1.32 -0.2,-0.44 -0.72,-0.88 -1.48,-1.24 -3.16,-1.24 -0.28,0 -0.64,0.08 -0.32,0.04 -1.08,0.16 -0.76,0.08 -1.8,0.2 -1.4,0.2 -2.24,0.64 -0.8,0.4 -2.04,1.56 -2.36,2.24 -3.36,4.16 -1,1.88 -1,4.12 0,3.32 2.04,5.44 2.08,2.12 5.36,2.16 z" />
      <path
         id="path12027"
         style=""
         d="m 979.33715,1180.3863 q 0,-2.32 0.64,-2.32 0.52,0 1.12,3.64 0.64,3.64 0.88,3.64 0.08,0 0.28,-0.48 0.2,-0.52 0.44,-1.12 0.24,-0.64 0.4,-0.8 0.4,-0.52 1.08,-1.96 0.84,-1.72 1.28,-2.08 0.44,-0.4 1.56,-0.4 1.24,0 2.72,1.72 0.96,1.12 1.28,2.08 0.36,0.92 0.76,3.36 l 0.64,3.76 0.68,-2.4 q 1,-3.48 2.88,-6 1.88,-2.52 3.48,-2.52 0.99995,0 1.83995,1.16 0.84,1.12 1.2,2.88 0.36,1.64 0.36,7.24 0,4.2 -0.04,6.48 -0.04,2.28 -0.2,3.32 -0.12,1 -0.24,1.16 -0.12,0.2 -0.44,0.24 -0.12,0.04 -0.28,0.04 -0.36,0 -0.44,-1.12 -0.08,-1.12 -0.12,-6.28 0,-12.6 -1.91995,-12.6 -1.04,0 -2.72,3.44 -1.4,2.84 -2.36,6.92 -0.96,4.08 -1.16,8.24 -0.04,1 -0.24,1.36 -0.16,0.36 -0.56,0.36 -0.48,0 -0.64,-0.84 -0.12,-0.8 -0.28,-4.32 -0.28,-6.48 -0.8,-9.08 -0.52,-2.64 -1.92,-4.76 -1.04,-1.48 -1.52,-1.48 -0.56,0 -1.24,1.4 -0.68,1.36 -2.24,5.24 -0.72,1.88 -0.72,3.44 0,0.92 -0.36,2.04 -0.32,1.08 -0.44,5.4 -0.08,4.04 -0.32,4.6 -0.16,0.48 -0.64,0.48 -0.64,0 -0.88,-1.92 -0.2,-1.92 -0.2,-7.68 0,-4.64 -0.32,-8.52 -0.28,-3.88 -0.28,-4.96 z" />
      <path
         id="path12029"
         style=""
         d="m 1042.5465,1172.7063 q 0,-1.48 -0.28,-3.76 -0.28,-2.28 -0.28,-3.8 0,-0.76 0.04,-1 0.12,-0.64 0.44,-1 0.36,-0.4 0.72,-0.4 0.48,0 0.68,0.44 0.12,0.28 0.36,2.96 0.24,2.68 0.44,5.24 0.2,2.56 0.28,2.64 0.04,0.04 0.12,0.04 0.32,0 1.84,-0.32 1.56,-0.36 2.56,-0.36 2,0 2,0.88 0,0.88 -4.4,1.96 l -2,0.48 0.24,6.76 q 0.2,5.96 0.76,11.16 0.56,5.16 0.56,5.84 0,1.24 -0.92,1.24 -0.72,0 -1.2,-1.28 -0.44,-1.28 -0.44,-3.32 0,-1.48 -0.12,-3 -0.12,-1.56 -0.44,-4.8 -0.28,-3.28 -0.56,-6.72 -0.12,-1.84 -0.2,-2.84 -0.04,-1 -0.12,-1.48 -0.08,-0.48 -0.12,-0.56 -0.04,-0.12 -0.16,-0.12 -0.64,0 -3.08,0.44 -2.44,0.44 -3.04,0.44 -1.16,0 -1.16,-0.96 0,-0.68 1.44,-1.16 1.48,-0.48 3.32,-0.84 1.84,-0.4 2.28,-0.68 0.44,-0.32 0.44,-2.12 z" />
      <path
         id="path12031"
         style=""
         d="m 1057.7678,1197.0663 q 0,-3.2 -0.8,-12.88 -0.76,-9.72 -0.76,-13.4 0,-2.12 0.24,-2.56 0.48,-0.84 0.92,-0.84 0.72,0 0.92,1.4 0.24,1.4 0.64,7.08 0.32,4.56 0.56,7.64 l 0.36,4.72 0.72,-1.56 q 0.8,-1.8 3.92,-4.72 3.12,-2.92 4.2,-2.92 1,0 2.2,1.12 1.2,1.12 1.56,2.4 0.32,1.08 0.32,9.72 0,6.24 -0.12,7.4 -0.12,1.12 -0.76,1.12 -0.64,0 -0.84,-1.16 -0.16,-1.16 -0.32,-6.68 -0.24,-7.72 -0.96,-9.88 l -0.64,-2 -2.32,2.16 q -1.84,1.76 -3.4,4 -1.52,2.24 -2.08,3.96 -0.36,1.24 -0.6,3.96 -0.24,2.72 -0.6,4.48 -0.32,1.76 -0.96,1.76 -0.28,0 -0.68,-0.32 -0.72,-0.6 -0.72,-4 z" />
      <path
         id="path12033"
         style=""
         d="m 1098.1721,1191.9063 q 0.2,0 0.2,0.32 0,0.72 -1.08,2.32 -1.04,1.6 -2.24,2.64 -4.2,3.72 -8.4,3.72 -1.6,0 -3.2,-0.72 -1.56,-0.76 -2.92,-2.12 -1.36,-1.36 -2.2,-3.64 -0.84,-2.28 -0.84,-5.08 0,-1.72 0.4,-2.92 0.8,-2.44 3.4,-5.16 2.64,-2.72 4.96,-2.72 0.64,0 1.92,0.12 1.92,0.16 2.68,0.4 0.8,0.24 1.8,1 1.28,0.96 2.2,2.48 0.96,1.48 0.96,2.48 0,1.28 -1,1.96 -1,0.64 -3.88,1.28 -3.72,0.84 -7.36,1.04 l -3.72,0.2 0,1.6 q 0,2.96 2.76,5.6 2.08,2 4.32,2 1.72,0 3.64,-1.04 1.96,-1.08 3.32,-2.36 1.36,-1.28 2.6,-2.32 1.24,-1.08 1.68,-1.08 z m -6.44,-9.76 q -1.24,-1.12 -1.88,-1.4 -0.6,-0.32 -1.6,-0.32 -2,0 -3,0.4 -0.96,0.36 -1.96,1.52 -3.04,3.48 -3.04,4.64 0,0.52 0.96,0.52 3.64,0 10.32,-1.52 2,-0.48 2,-1.68 0,-0.56 -1.8,-2.16 z" />
      <path
         id="path12035"
         style=""
         d="m 906.34809,1231.0663 q 0.68,0 1.2,0.44 0.52,0.4 0.52,0.68 0,0.48 -1.52,1.08 -2.48,1 -5.08,4.84 -2.56,3.8 -3.12,7.36 -0.64,4.04 -1.04,5.28 -0.4,1.28 -1.04,1.28 -0.56,0 -0.88,-0.4 -0.28,-0.4 -0.4,-0.88 -0.08,-0.48 -0.2,-1.76 -0.04,-0.24 -0.04,-0.36 -0.96,-10.08 -0.96,-15.92 0,-2.08 0.16,-2.56 0.44,-1.28 1.12,-1.28 0.64,0 0.64,1.08 0,1.8 0.56,5.8 0.56,4 0.84,4 0.36,0 1.48,-2.2 1.4,-2.6 3.72,-4.52 2.36,-1.96 4.04,-1.96 z" />
      <path
         id="path12037"
         style=""
         d="m 915.36371,1227.7063 q 0.56,-0.48 0.96,-0.48 0.84,0 1.2,2.68 0.4,2.64 0.72,10.2 0.16,3.52 0.16,6.36 0,2.84 -0.24,3.12 -0.48,0.6 -1.2,0.6 -1,0 -1.24,-0.84 -0.2,-0.52 -0.6,-8.08 -0.4,-7.6 -0.4,-10.56 0,-2.48 0.64,-3 z m -0.24,-9.4 q 0,-0.56 0.44,-1.12 0.48,-0.56 0.84,-0.56 0.4,0 1.08,0.56 0.72,0.52 0.72,1.36 0,0.6 -0.36,1.04 -0.32,0.4 -0.88,0.4 -0.64,0 -1.24,-0.48 -0.6,-0.48 -0.6,-1.2 z" />
      <path
         id="path12039"
         style=""
         d="m 942.37746,1258.0663 q 0.36,0 0.64,-0.08 0.32,-0.04 0.52,-0.16 0.2,-0.12 0.36,-0.24 0.16,-0.12 0.24,-0.32 0.08,-0.16 0.12,-0.32 0.08,-0.12 0.08,-0.32 0,-0.16 0,-0.28 0,-0.08 0,-0.2 l 0,-0.12 q 0,-3.84 -0.52,-7.28 l -0.56,-3.48 q -0.28,-4.08 -0.56,-4.08 -0.16,0 -0.6,0.72 -1,1.48 -3.24,3.32 -2.24,1.84 -3.72,2.4 -1.68,0.68 -3.8,0.68 -1.28,0 -2.04,-0.32 -0.72,-0.32 -1.92,-1.36 -1.16,-1.04 -1.64,-1.84 -0.48,-0.8 -0.76,-2.28 -0.28,-1.48 -0.28,-2.52 0,-0.76 0.12,-1.12 0.28,-1.08 1.48,-3.36 1.2,-2.28 2.2,-3.56 0.84,-1.12 3.12,-2.6 2.32,-1.52 4.08,-2.08 1.84,-0.6 4.2,-0.6 2.96,0 4.92,1.04 1.96,1 1.96,3.12 0,1.2 -0.6,2.96 -0.56,1.76 -0.56,3.08 0,1.44 0.92,13.24 l 0.6,8.28 -1.4,1.12 q -1.12,0.92 -2.28,0.92 -2.12,0 -5.16,-1.08 -3.04,-1.04 -5.24,-2.44 -2.2,-1.36 -2.2,-2.24 0,-1.04 1.08,-2.56 1.12,-1.52 1.88,-1.52 0.88,0 0.88,0.6 0,0.36 -0.36,1.08 -0.36,0.72 -0.36,1.4 0,1.12 1.48,1.96 1.48,0.84 2.52,0.84 0.6,0 1.96,0.8 1.4,0.8 2.44,0.8 z m -15.2,-18.16 q 0,2.32 1.2,4.24 1.2,1.92 3,1.92 2.44,0 5.24,-2.2 2.84,-2.24 4.6,-5.56 0.96,-1.88 1.64,-4.28 0.72,-2.44 0.72,-3.84 0,-0.8 -0.28,-0.96 -0.88,-0.48 -2.92,-0.48 -1.84,0 -3.16,0.4 -3.48,1 -6.76,4.68 -3.28,3.68 -3.28,6.08 z" />
      <path
         id="path12041"
         style=""
         d="m 953.82246,1247.0663 q 0,-3.2 -0.8,-12.88 -0.76,-9.72 -0.76,-13.4 0,-2.12 0.24,-2.56 0.48,-0.84 0.92,-0.84 0.72,0 0.92,1.4 0.24,1.4 0.64,7.08 0.32,4.56 0.56,7.64 l 0.36,4.72 0.72,-1.56 q 0.8,-1.8 3.92,-4.72 3.12,-2.92 4.2,-2.92 1,0 2.2,1.12 1.2,1.12 1.56,2.4 0.32,1.08 0.32,9.72 0,6.24 -0.12,7.4 -0.12,1.12 -0.76,1.12 -0.64,0 -0.84,-1.16 -0.16,-1.16 -0.32,-6.68 -0.24,-7.72 -0.96,-9.88 l -0.64,-2 -2.32,2.16 q -1.84,1.76 -3.4,4 -1.52,2.24 -2.08,3.96 -0.36,1.24 -0.6,3.96 -0.24,2.72 -0.6,4.48 -0.32,1.76 -0.96,1.76 -0.28,0 -0.68,-0.32 -0.72,-0.6 -0.72,-4 z" />
      <path
         id="path12043"
         style=""
         d="m 980.86684,1222.7063 q 0,-1.48 -0.28,-3.76 -0.28,-2.28 -0.28,-3.8 0,-0.76 0.04,-1 0.12,-0.64 0.44,-1 0.36,-0.4 0.72,-0.4 0.48,0 0.68,0.44 0.12,0.28 0.36,2.96 0.24,2.68 0.44,5.24 0.2,2.56 0.28,2.64 0.04,0.04 0.12,0.04 0.32,0 1.84,-0.32 1.56,-0.36 2.56,-0.36 2,0 2,0.88 0,0.88 -4.4,1.96 l -2,0.48 0.24,6.76 q 0.2,5.96 0.76,11.16 0.56,5.16 0.56,5.84 0,1.24 -0.92,1.24 -0.72,0 -1.2,-1.28 -0.44,-1.28 -0.44,-3.32 0,-1.48 -0.12,-3 -0.12,-1.56 -0.44,-4.8 -0.28,-3.28 -0.56,-6.72 -0.12,-1.84 -0.2,-2.84 -0.04,-1 -0.12,-1.48 -0.08,-0.48 -0.12,-0.56 -0.04,-0.12 -0.16,-0.12 -0.64,0 -3.08,0.44 -2.44,0.44 -3.04,0.44 -1.16,0 -1.16,-0.96 0,-0.68 1.44,-1.16 1.48,-0.48 3.32,-0.84 1.84,-0.4 2.28,-0.68 0.44,-0.32 0.44,-2.12 z" />
    </g>
    <g
       id="flowRoot16625"
       style="font-style:normal;font-variant:normal;font-weight:normal;font-stretch:normal;font-size:40px;line-height:125%;font-family:Purisa;-inkscape-font-specification:Purisa;text-align:center;letter-spacing:0px;word-spacing:0px;text-anchor:middle;fill:#000000;fill-opacity:1;stroke:none;stroke-width:1px;stroke-linecap:butt;stroke-linejoin:miter;stroke-opacity:1"
       transform="translate(-590.25237,-457.44489)">
      <path
         id="path11962"
         style=""
         d="m 992.50406,939.70626 q -1.32,0 -2.76,0.32 -1.44,0.32 -1.88,0.32 -1,0 -1.72,-0.36 -0.68,-0.36 -0.68,-0.92 0,-0.68 0.88,-0.92 0.92,-0.28 4.8,-0.88 7.88,-1.2 15.08004,-2.6 4.44,-0.84 5.76,-0.84 1.24,0 2.52,0.52 1.28,0.52 1.28,1.16 0,0.6 -1.04,1.04 -1.04,0.4 -2.76,0.4 -2.68,0 -5.72,0.72 l -3.08,0.72 0.6,3.36 q 0.44,3.12 1.04,11.96 0.64,8.8 0.76,9.84 0.12,1.04 0.12,1.56 0,1.24 -1.08,1.24 -1.04,0 -1.56,-2.6 -0.48,-2.6 -0.92,-10.2 -0.8,-12.96 -2.08,-14.32 -0.32004,-0.32 -1.04004,-0.32 -0.32,0 -2.76,0.4 -2.4,0.4 -3.76,0.4 z" />
      <path
         id="path11964"
         style=""
         d="m 1020.7453,961.06626 q 0,-3.2 -0.8,-12.88 -0.76,-9.72 -0.76,-13.4 0,-2.12 0.24,-2.56 0.48,-0.84 0.92,-0.84 0.72,0 0.92,1.4 0.24,1.4 0.64,7.08 0.32,4.56 0.56,7.64 l 0.36,4.72 0.72,-1.56 q 0.8,-1.8 3.92,-4.72 3.12,-2.92 4.2,-2.92 1,0 2.2,1.12 1.2,1.12 1.56,2.4 0.32,1.08 0.32,9.72 0,6.24 -0.12,7.4 -0.12,1.12 -0.76,1.12 -0.64,0 -0.84,-1.16 -0.16,-1.16 -0.32,-6.68 -0.24,-7.72 -0.96,-9.88 l -0.64,-2 -2.32,2.16 q -1.84,1.76 -3.4,4 -1.52,2.24 -2.08,3.96 -0.36,1.24 -0.6,3.96 -0.24,2.72 -0.6,4.48 -0.32,1.76 -0.96,1.76 -0.28,0 -0.68,-0.32 -0.72,-0.6 -0.72,-4 z" />
      <path
         id="path11966"
         style=""
         d="m 1061.1497,955.90626 q 0.2,0 0.2,0.32 0,0.72 -1.08,2.32 -1.04,1.6 -2.24,2.64 -4.2,3.72 -8.4,3.72 -1.6,0 -3.2,-0.72 -1.56,-0.76 -2.92,-2.12 -1.36,-1.36 -2.2,-3.64 -0.84,-2.28 -0.84,-5.08 0,-1.72 0.4,-2.92 0.8,-2.44 3.4,-5.16 2.64,-2.72 4.96,-2.72 0.64,0 1.92,0.12 1.92,0.16 2.68,0.4 0.8,0.24 1.8,1 1.28,0.96 2.2,2.48 0.96,1.48 0.96,2.48 0,1.28 -1,1.96 -1,0.64 -3.88,1.28 -3.72,0.84 -7.36,1.04 l -3.72,0.2 0,1.6 q 0,2.96 2.76,5.6 2.08,2 4.32,2 1.72,0 3.64,-1.04 1.96,-1.08 3.32,-2.36 1.36,-1.28 2.6,-2.32 1.24,-1.08 1.68,-1.08 z m -6.44,-9.76 q -1.24,-1.12 -1.88,-1.4 -0.6,-0.32 -1.6,-0.32 -2,0 -3,0.4 -0.96,0.36 -1.96,1.52 -3.04,3.48 -3.04,4.64 0,0.52 0.96,0.52 3.64,0 10.32,-1.52 2,-0.48 2,-1.68 0,-0.56 -1.8,-2.16 z" />
      <path
         id="path11968"
         style=""
         d="m 1105.5366,945.06626 q 0.68,0 1.2,0.44 0.52,0.4 0.52,0.68 0,0.48 -1.52,1.08 -2.48,1 -5.08,4.84 -2.56,3.8 -3.12,7.36 -0.64,4.04 -1.04,5.28 -0.4,1.28 -1.04,1.28 -0.56,0 -0.88,-0.4 -0.28,-0.4 -0.4,-0.88 -0.08,-0.48 -0.2,-1.76 -0.04,-0.24 -0.04,-0.36 -0.96,-10.08 -0.96,-15.92 0,-2.08 0.16,-2.56 0.44,-1.28 1.12,-1.28 0.64,0 0.64,1.08 0,1.8 0.56,5.8 0.56,4 0.84,4 0.36,0 1.48,-2.2 1.4,-2.6 3.72,-4.52 2.36,-1.96 4.04,-1.96 z" />
      <path
         id="path11970"
         style=""
         d="m 1114.5522,941.70626 q 0.56,-0.48 0.96,-0.48 0.84,0 1.2,2.68 0.4,2.64 0.72,10.2 0.16,3.52 0.16,6.36 0,2.84 -0.24,3.12 -0.48,0.6 -1.2,0.6 -1,0 -1.24,-0.84 -0.2,-0.52 -0.6,-8.08 -0.4,-7.6 -0.4,-10.56 0,-2.48 0.64,-3 z m -0.24,-9.4 q 0,-0.56 0.44,-1.12 0.48,-0.56 0.84,-0.56 0.4,0 1.08,0.56 0.72,0.52 0.72,1.36 0,0.6 -0.36,1.04 -0.32,0.4 -0.88,0.4 -0.64,0 -1.24,-0.48 -0.6,-0.48 -0.6,-1.2 z" />
      <path
         id="path11972"
         style=""
         d="m 1141.5659,972.06626 q 0.36,0 0.64,-0.08 0.32,-0.04 0.52,-0.16 0.2,-0.12 0.36,-0.24 0.16,-0.12 0.24,-0.32 0.08,-0.16 0.12,-0.32 0.08,-0.12 0.08,-0.32 0,-0.16 0,-0.28 0,-0.08 0,-0.2 l 0,-0.12 q 0,-3.84 -0.52,-7.28 l -0.56,-3.48 q -0.28,-4.08 -0.56,-4.08 -0.16,0 -0.6,0.72 -1,1.48 -3.24,3.32 -2.24,1.84 -3.72,2.4 -1.68,0.68 -3.8,0.68 -1.28,0 -2.04,-0.32 -0.72,-0.32 -1.92,-1.36 -1.16,-1.04 -1.64,-1.84 -0.48,-0.8 -0.76,-2.28 -0.28,-1.48 -0.28,-2.52 0,-0.76 0.12,-1.12 0.28,-1.08 1.48,-3.36 1.2,-2.28 2.2,-3.56 0.84,-1.12 3.12,-2.6 2.32,-1.52 4.08,-2.08 1.84,-0.6 4.2,-0.6 2.96,0 4.92,1.04 1.96,1 1.96,3.12 0,1.2 -0.6,2.96 -0.56,1.76 -0.56,3.08 0,1.44 0.92,13.24 l 0.6,8.28 -1.4,1.12 q -1.12,0.92 -2.28,0.92 -2.12,0 -5.16,-1.08 -3.04,-1.04 -5.24,-2.44 -2.2,-1.36 -2.2,-2.24 0,-1.04 1.08,-2.56 1.12,-1.52 1.88,-1.52 0.88,0 0.88,0.6 0,0.36 -0.36,1.08 -0.36,0.72 -0.36,1.4 0,1.12 1.48,1.96 1.48,0.84 2.52,0.84 0.6,0 1.96,0.8 1.4,0.8 2.44,0.8 z m -15.2,-18.16 q 0,2.32 1.2,4.24 1.2,1.92 3,1.92 2.44,0 5.24,-2.2 2.84,-2.24 4.6,-5.56 0.96,-1.88 1.64,-4.28 0.72,-2.44 0.72,-3.84 0,-0.8 -0.28,-0.96 -0.88,-0.48 -2.92,-0.48 -1.84,0 -3.16,0.4 -3.48,1 -6.76,4.68 -3.28,3.68 -3.28,6.08 z" />
      <path
         id="path11974"
         style=""
         d="m 1153.0109,961.06626 q 0,-3.2 -0.8,-12.88 -0.76,-9.72 -0.76,-13.4 0,-2.12 0.24,-2.56 0.48,-0.84 0.92,-0.84 0.72,0 0.92,1.4 0.24,1.4 0.64,7.08 0.32,4.56 0.56,7.64 l 0.36,4.72 0.72,-1.56 q 0.8,-1.8 3.92,-4.72 3.12,-2.92 4.2,-2.92 1,0 2.2,1.12 1.2,1.12 1.56,2.4 0.32,1.08 0.32,9.72 0,6.24 -0.12,7.4 -0.12,1.12 -0.76,1.12 -0.64,0 -0.84,-1.16 -0.16,-1.16 -0.32,-6.68 -0.24,-7.72 -0.96,-9.88 l -0.64,-2 -2.32,2.16 q -1.84,1.76 -3.4,4 -1.52,2.24 -2.08,3.96 -0.36,1.24 -0.6,3.96 -0.24,2.72 -0.6,4.48 -0.32,1.76 -0.96,1.76 -0.28,0 -0.68,-0.32 -0.72,-0.6 -0.72,-4 z" />
      <path
         id="path11976"
         style=""
         d="m 1180.0553,936.70626 q 0,-1.48 -0.28,-3.76 -0.28,-2.28 -0.28,-3.8 0,-0.76 0.04,-1 0.12,-0.64 0.44,-1 0.36,-0.4 0.72,-0.4 0.48,0 0.68,0.44 0.12,0.28 0.36,2.96 0.24,2.68 0.44,5.24 0.2,2.56 0.28,2.64 0.04,0.04 0.12,0.04 0.32,0 1.84,-0.32 1.56,-0.36 2.56,-0.36 2,0 2,0.88 0,0.88 -4.4,1.96 l -2,0.48 0.24,6.76 q 0.2,5.96 0.76,11.16 0.56,5.16 0.56,5.84 0,1.24 -0.92,1.24 -0.72,0 -1.2,-1.28 -0.44,-1.28 -0.44,-3.32 0,-1.48 -0.12,-3 -0.12,-1.56 -0.44,-4.8 -0.28,-3.28 -0.56,-6.72 -0.12,-1.84 -0.2,-2.84 -0.04,-1 -0.12,-1.48 -0.08,-0.48 -0.12,-0.56 -0.04,-0.12 -0.16,-0.12 -0.64,0 -3.08,0.44 -2.44,0.44 -3.04,0.44 -1.16,0 -1.16,-0.96 0,-0.68 1.44,-1.16 1.48,-0.48 3.32,-0.84 1.84,-0.4 2.28,-0.68 0.44,-0.32 0.44,-2.12 z" />
      <path
         id="path11978"
         style=""
         d="m 1052.7791,1005.1063 q -0.6,0 -2.56,-1.44 -1.96,-1.48 -1.96,-3 0,-1.44004 2.04,-3.96004 2.04,-2.56 4.92,-3.28 1.32,-0.36 3.48,-0.36 0.92,0 1.36,0.24 0.44,0.24 1.2,1.08 1.24,1.4 1.24,1.92 0,0.48 -0.52,0.48 -0.64,0 -1.08,-0.44 -0.44,-0.48 -1.08,-0.96 -0.64,-0.48 -1.72,-0.48 -1.4,0 -3,0.76 -1.6,0.76 -2.84,2.12 -1.76,1.88 -1.76,2.56004 0,0.68 1.04,1.64 1.04,0.92 3.48,1.76 3.84,1.32 5.2,2.48 1.36,1.16 1.36,3.12 0,1.84 -0.64,3.36 -0.44,1.16 -1.88,2.6 -1.44,1.44 -2.84,1.44 -1.08,0 -2.8,-0.36 -1.72,-0.32 -2.6,-0.76 -0.72,-0.36 -1.32,-1.4 -0.6,-1.08 -0.6,-1.92 0,-0.44 0.2,-0.76 0.24,-0.36 0.56,-0.36 0.6,0 1.12,1.12 0.48,1 1.92,1.8 1.48,0.8 2.76,0.8 1.72,0 3.04,-2.04 1.32,-2.08 1.32,-3.24 0,-0.28 -0.16,-0.68 -0.12,-0.44 -0.68,-1.04 -0.56,-0.6 -1.44,-0.92 -0.84,-0.28 -1.96,-0.76 -1.12,-0.48 -1.88,-0.8 -0.72,-0.32 -0.92,-0.32 z" />
      <path
         id="path11980"
         style=""
         d="m 1069.7866,991.70626 q 0.56,-0.48 0.96,-0.48 0.84,0 1.2,2.68 0.4,2.64 0.72,10.20004 0.16,3.52 0.16,6.36 0,2.84 -0.24,3.12 -0.48,0.6 -1.2,0.6 -1,0 -1.24,-0.84 -0.2,-0.52 -0.6,-8.08 -0.4,-7.60004 -0.4,-10.56004 0,-2.48 0.64,-3 z m -0.24,-9.4 q 0,-0.56 0.44,-1.12 0.48,-0.56 0.84,-0.56 0.4,0 1.08,0.56 0.72,0.52 0.72,1.36 0,0.6 -0.36,1.04 -0.32,0.4 -0.88,0.4 -0.64,0 -1.24,-0.48 -0.6,-0.48 -0.6,-1.2 z" />
      <path
         id="path11982"
         style=""
         d="m 1101.9603,1014.9063 q 0,0.88 -0.36,1.36 -0.32,0.52 -0.6,0.6 -0.24,0.12 -0.44,0.12 -0.52,0 -0.88,-0.36 -0.36,-0.32 -0.56,-1.2 -0.2,-0.84 -0.28,-1.28 -0.04,-0.44 -0.16,-1.64 -0.28,-4.04 -0.64,-4.04 -0.44,0 -1.4,1.16 -4.48,5.28 -9.44,5.28 -1.48,0 -2.96,-0.56 -5.12,-1.92 -5.12,-7.84 0,-2.56 0.84,-4.88 0.88,-2.36004 2.2,-3.96004 1.36,-1.6 2.72,-2.68 1.36,-1.08 2.6,-1.52 1.56,-0.6 2.16,-0.6 1.04,0 3.48,1.36 2.48,1.36 3.44,2.64 1.08,1.44 1.64,1.44 0.04,0 0.04,0 0,-0.04 0.04,-0.04 0.44,-0.28 0.44,-10.44 0,-10.04 0.48,-11.4 0.52,-1.24 1.56,-1.24 l 1.08,0 -0.32,16.44 q -0.12,6.12 -0.12,10.92004 0,6.52 0.28,9.32 0.28,2.8 0.28,3.04 z m -9.36,-17.72004 q -2.36,-1.56 -3.28,-1.56 -0.8,0 -3.6,2.72 -2.8,2.72004 -3.32,4.00004 -0.4,0.96 -0.4,3.48 0,3.08 0.52,4 0.4,0.72 1.92,1.56 1.56,0.84 3.08,0.84 2.72,0 6.88,-4 3.28,-3.16 3.28,-4.12 0,-1.32 -1.68,-3.52 -1.64,-2.20004 -3.4,-3.40004 z" />
      <path
         id="path11984"
         style=""
         d="m 1127.6341,1005.9063 q 0.2,0 0.2,0.32 0,0.72 -1.08,2.32 -1.04,1.6 -2.24,2.64 -4.2,3.72 -8.4,3.72 -1.6,0 -3.2,-0.72 -1.56,-0.76 -2.92,-2.12 -1.36,-1.36 -2.2,-3.64 -0.84,-2.28 -0.84,-5.08 0,-1.72 0.4,-2.92 0.8,-2.44004 3.4,-5.16004 2.64,-2.72 4.96,-2.72 0.64,0 1.92,0.12 1.92,0.16 2.68,0.4 0.8,0.24 1.8,1 1.28,0.96 2.2,2.48 0.96,1.48 0.96,2.48 0,1.28004 -1,1.96004 -1,0.64 -3.88,1.28 -3.72,0.84 -7.36,1.04 l -3.72,0.2 0,1.6 q 0,2.96 2.76,5.6 2.08,2 4.32,2 1.72,0 3.64,-1.04 1.96,-1.08 3.32,-2.36 1.36,-1.28 2.6,-2.32 1.24,-1.08 1.68,-1.08 z m -6.44,-9.76004 q -1.24,-1.12 -1.88,-1.4 -0.6,-0.32 -1.6,-0.32 -2,0 -3,0.4 -0.96,0.36 -1.96,1.52 -3.04,3.48 -3.04,4.64004 0,0.52 0.96,0.52 3.64,0 10.32,-1.52004 2,-0.48 2,-1.68 0,-0.56 -1.8,-2.16 z" />
    </g>
  </g>
</svg>
