<?xml version="1.0" encoding="UTF-8" standalone="no"?>
<svg
   xmlns:osb="http://www.openswatchbook.org/uri/2009/osb"
   xmlns:dc="http://purl.org/dc/elements/1.1/"
   xmlns:cc="http://creativecommons.org/ns#"
   xmlns:rdf="http://www.w3.org/1999/02/22-rdf-syntax-ns#"
   xmlns:svg="http://www.w3.org/2000/svg"
   xmlns="http://www.w3.org/2000/svg"
   xmlns:xlink="http://www.w3.org/1999/xlink"
   version="1.1"
   id="svg17388"
   viewBox="0 0 1631.745 1125.9638"
   height="317.772mm"
   width="460.51468mm">
  <defs
     id="defs17390">
    <linearGradient
       y2="351.71454"
       x2="4180.9253"
       y1="351.71454"
       x1="4019.4543"
       gradientTransform="translate(-22,1174)"
       gradientUnits="userSpaceOnUse"
       id="linearGradient5145"
       xlink:href="#red" />
    <linearGradient
       gradientTransform="matrix(0.94220181,-0.33504593,0.33504593,0.94220181,22036.144,-3611.4569)"
       osb:paint="solid"
       id="red">
      <stop
         id="stop5548"
         offset="0"
         style="stop-color:#e31616;stop-opacity:1;" />
    </linearGradient>
    <linearGradient
       y2="381.53329"
       x2="4081.2812"
       y1="381.53329"
       x1="3983.3206"
       gradientTransform="translate(-22,1174)"
       gradientUnits="userSpaceOnUse"
       id="linearGradient5147"
       xlink:href="#side" />
    <linearGradient
       gradientTransform="matrix(0.9422018,-0.33504593,0.33504593,0.9422018,5215.8889,-2083.0982)"
       osb:paint="solid"
       id="side">
      <stop
         id="stop5530"
         offset="0"
         style="stop-color:#265998;stop-opacity:1;" />
    </linearGradient>
    <linearGradient
       y2="364.30023"
       x2="4139.792"
       y1="364.30023"
       x1="4005.9314"
       gradientTransform="translate(-22,1174)"
       gradientUnits="userSpaceOnUse"
       id="linearGradient5149"
       xlink:href="#top" />
    <linearGradient
       gradientTransform="matrix(0.9422018,-0.33504593,0.33504593,0.9422018,5203.2038,-2086.3603)"
       osb:paint="solid"
       id="top">
      <stop
         id="stop5590"
         offset="0"
         style="stop-color:#f9d455;stop-opacity:1;" />
    </linearGradient>
    <marker
       style="overflow:visible"
       id="marker5109"
       refX="0"
       refY="0"
       orient="auto">
      <path
         transform="matrix(-0.8,0,0,-0.8,-10,0)"
         style="fill:#000000;fill-opacity:1;fill-rule:evenodd;stroke:#000000;stroke-width:1pt;stroke-opacity:1"
         d="M 0,0 5,-5 -12.5,0 5,5 0,0 Z"
         id="path5111" />
    </marker>
    <marker
       style="overflow:visible"
       id="marker5097"
       refX="0"
       refY="0"
       orient="auto">
      <path
         transform="matrix(-0.8,0,0,-0.8,-10,0)"
         style="fill:#000000;fill-opacity:1;fill-rule:evenodd;stroke:#000000;stroke-width:1pt;stroke-opacity:1"
         d="M 0,0 5,-5 -12.5,0 5,5 0,0 Z"
         id="path5099" />
    </marker>
    <marker
       style="overflow:visible"
       id="marker5092"
       refX="0"
       refY="0"
       orient="auto">
      <path
         transform="matrix(-0.8,0,0,-0.8,-10,0)"
         style="fill:#000000;fill-opacity:1;fill-rule:evenodd;stroke:#000000;stroke-width:1pt;stroke-opacity:1"
         d="M 0,0 5,-5 -12.5,0 5,5 0,0 Z"
         id="path4839" />
    </marker>
    <marker
       orient="auto"
       refY="0"
       refX="0"
       id="marker4780"
       style="overflow:visible">
      <path
         id="path4782"
         d="M 0,0 5,-5 -12.5,0 5,5 0,0 Z"
         style="fill:#000000;fill-opacity:1;fill-rule:evenodd;stroke:#000000;stroke-width:1pt;stroke-opacity:1"
         transform="matrix(-0.8,0,0,-0.8,-10,0)" />
    </marker>
    <marker
       orient="auto"
       refY="0"
       refX="0"
       id="marker17490"
       style="overflow:visible">
      <path
         id="path17492"
         d="M 0,0 5,-5 -12.5,0 5,5 0,0 Z"
         style="fill:#000000;fill-opacity:1;fill-rule:evenodd;stroke:#000000;stroke-width:1pt;stroke-opacity:1"
         transform="matrix(-0.8,0,0,-0.8,-10,0)" />
    </marker>
    <marker
       style="overflow:visible"
       id="marker16832"
       refX="0"
       refY="0"
       orient="auto">
      <path
         transform="matrix(-0.8,0,0,-0.8,-10,0)"
         style="fill:#000000;fill-opacity:1;fill-rule:evenodd;stroke:#000000;stroke-width:1pt;stroke-opacity:1"
         d="M 0,0 5,-5 -12.5,0 5,5 0,0 Z"
         id="path16834" />
    </marker>
    <marker
       orient="auto"
       refY="0"
       refX="0"
       id="marker4796"
       style="overflow:visible">
      <path
         id="path4798"
         d="M 0,0 5,-5 -12.5,0 5,5 0,0 Z"
         style="fill:#000000;fill-opacity:1;fill-rule:evenodd;stroke:#000000;stroke-width:1pt;stroke-opacity:1"
         transform="matrix(-0.8,0,0,-0.8,-10,0)" />
    </marker>
    <marker
       style="overflow:visible"
       id="marker4792"
       refX="0"
       refY="0"
       orient="auto">
      <path
         transform="matrix(-0.8,0,0,-0.8,-10,0)"
         style="fill:#000000;fill-opacity:1;fill-rule:evenodd;stroke:#000000;stroke-width:1pt;stroke-opacity:1"
         d="M 0,0 5,-5 -12.5,0 5,5 0,0 Z"
         id="path4794" />
    </marker>
    <marker
       orient="auto"
       refY="0"
       refX="0"
       id="marker4788"
       style="overflow:visible">
      <path
         id="path4790"
         d="M 0,0 5,-5 -12.5,0 5,5 0,0 Z"
         style="fill:#000000;fill-opacity:1;fill-rule:evenodd;stroke:#000000;stroke-width:1pt;stroke-opacity:1"
         transform="matrix(-0.8,0,0,-0.8,-10,0)" />
    </marker>
    <marker
       style="overflow:visible"
       id="marker4784"
       refX="0"
       refY="0"
       orient="auto">
      <path
         transform="matrix(-0.8,0,0,-0.8,-10,0)"
         style="fill:#000000;fill-opacity:1;fill-rule:evenodd;stroke:#000000;stroke-width:1pt;stroke-opacity:1"
         d="M 0,0 5,-5 -12.5,0 5,5 0,0 Z"
         id="path4786" />
    </marker>
    <linearGradient
       y2="1092.722"
       x2="1934.082"
       y1="1092.722"
       x1="1734.1537"
       gradientTransform="translate(-1056.6091,-1049.9915)"
       gradientUnits="userSpaceOnUse"
       id="linearGradient4768"
       xlink:href="#side" />
    <marker
       orient="auto"
       refY="0"
       refX="0"
       id="marker4826"
       style="overflow:visible">
      <path
         id="path4828"
         d="M 0,0 5,-5 -12.5,0 5,5 0,0 Z"
         style="fill:#000000;fill-opacity:1;fill-rule:evenodd;stroke:#000000;stroke-width:1pt;stroke-opacity:1"
         transform="matrix(-0.8,0,0,-0.8,-10,0)" />
    </marker>
    <marker
       style="overflow:visible"
       id="marker4810"
       refX="0"
       refY="0"
       orient="auto">
      <path
         transform="matrix(-0.8,0,0,-0.8,-10,0)"
         style="fill:#000000;fill-opacity:1;fill-rule:evenodd;stroke:#000000;stroke-width:1pt;stroke-opacity:1"
         d="M 0,0 5,-5 -12.5,0 5,5 0,0 Z"
         id="path4812" />
    </marker>
    <linearGradient
       y2="1092.722"
       x2="1934.082"
       y1="1092.722"
       x1="1734.1537"
       gradientTransform="translate(-1202.1397,-421.15012)"
       gradientUnits="userSpaceOnUse"
       id="linearGradient4766"
       xlink:href="#side" />
    <linearGradient
       y2="1092.722"
       x2="1934.082"
       y1="1092.722"
       x1="1734.1537"
       gradientTransform="translate(-1056.6091,-1149.9917)"
       gradientUnits="userSpaceOnUse"
       id="linearGradient4764"
       xlink:href="#side" />
    <marker
       style="overflow:visible"
       id="marker6311"
       refX="0"
       refY="0"
       orient="auto">
      <path
         transform="matrix(-0.8,0,0,-0.8,-10,0)"
         style="fill:#000000;fill-opacity:1;fill-rule:evenodd;stroke:#000000;stroke-width:1pt;stroke-opacity:1"
         d="M 0,0 5,-5 -12.5,0 5,5 0,0 Z"
         id="path6313" />
    </marker>
    <marker
       style="overflow:visible"
       id="marker4822"
       refX="0"
       refY="0"
       orient="auto">
      <path
         transform="matrix(-0.8,0,0,-0.8,-10,0)"
         style="fill:#000000;fill-opacity:1;fill-rule:evenodd;stroke:#000000;stroke-width:1pt;stroke-opacity:1"
         d="M 0,0 5,-5 -12.5,0 5,5 0,0 Z"
         id="path4824" />
    </marker>
    <marker
       style="overflow:visible"
       id="marker5101"
       refX="0"
       refY="0"
       orient="auto">
      <path
         transform="matrix(-0.8,0,0,-0.8,-10,0)"
         style="fill:#000000;fill-opacity:1;fill-rule:evenodd;stroke:#000000;stroke-width:1pt;stroke-opacity:1"
         d="M 0,0 5,-5 -12.5,0 5,5 0,0 Z"
         id="path5103" />
    </marker>
    <marker
       style="overflow:visible"
       id="marker4818"
       refX="0"
       refY="0"
       orient="auto">
      <path
         transform="matrix(-0.8,0,0,-0.8,-10,0)"
         style="fill:#000000;fill-opacity:1;fill-rule:evenodd;stroke:#000000;stroke-width:1pt;stroke-opacity:1"
         d="M 0,0 5,-5 -12.5,0 5,5 0,0 Z"
         id="path4820" />
    </marker>
    <linearGradient
       gradientTransform="translate(-4017.3935,-241.55872)"
       y2="364.30023"
       x2="4139.792"
       y1="364.30023"
       x1="4005.9314"
       gradientUnits="userSpaceOnUse"
       id="linearGradient4762"
       xlink:href="#top" />
    <marker
       orient="auto"
       refY="0"
       refX="0"
       id="marker5113"
       style="overflow:visible">
      <path
         id="path5115"
         d="M 0,0 5,-5 -12.5,0 5,5 0,0 Z"
         style="fill:#000000;fill-opacity:1;fill-rule:evenodd;stroke:#000000;stroke-width:1pt;stroke-opacity:1"
         transform="matrix(-0.8,0,0,-0.8,-10,0)" />
    </marker>
    <linearGradient
       gradientTransform="translate(-4017.3935,-241.55872)"
       y2="381.53329"
       x2="4081.2812"
       y1="381.53329"
       x1="3983.3206"
       gradientUnits="userSpaceOnUse"
       id="linearGradient4760"
       xlink:href="#side" />
    <linearGradient
       gradientTransform="translate(-4017.3935,-241.55872)"
       y2="351.71454"
       x2="4180.9253"
       y1="351.71454"
       x1="4019.4543"
       gradientUnits="userSpaceOnUse"
       id="linearGradient4758"
       xlink:href="#red" />
    <linearGradient
       y2="1092.722"
       x2="1934.082"
       y1="1092.722"
       x1="1734.1537"
       gradientTransform="translate(-1202.1397,-321.15012)"
       gradientUnits="userSpaceOnUse"
       id="linearGradient4756"
       xlink:href="#side" />
  </defs>
  <metadata
     id="metadata17393">
    <rdf:RDF>
      <cc:Work
         rdf:about="">
        <dc:format>image/svg+xml</dc:format>
        <dc:type
           rdf:resource="http://purl.org/dc/dcmitype/StillImage" />
        <dc:title></dc:title>
      </cc:Work>
    </rdf:RDF>
  </metadata>
  <g
     transform="translate(875.87253,173.47682)"
     id="layer1">
    <path
       id="rect4676"
       d="m -738.32361,531.94226 100,0 0,200 -100,0 z"
       style="fill:url(#red);fill-opacity:1;stroke:none;stroke-width:1;stroke-linecap:round;stroke-linejoin:round;stroke-miterlimit:4;stroke-dasharray:none;stroke-dashoffset:0;stroke-opacity:1" />
    <path
       id="rect4678"
       d="m 532.01404,738.32361 199.92834,0 0,66.4967 -199.92834,0 z"
       style="fill:url(#linearGradient4756);fill-opacity:1;stroke:none;stroke-width:1;stroke-linecap:round;stroke-linejoin:round;stroke-miterlimit:4;stroke-dasharray:none;stroke-dashoffset:0;stroke-opacity:1"
       transform="matrix(0,1,-1,0,0,0)" />
    <path
       style="fill:none;fill-rule:evenodd;stroke:#000000;stroke-width:1px;stroke-linecap:butt;stroke-linejoin:miter;stroke-opacity:1"
       d="M -232.85795,-2.5658236 7.8104461,415.92858"
       id="path4680" />
    <path
       style="fill:url(#linearGradient4758);fill-opacity:1;fill-rule:evenodd;stroke:none;stroke-width:1px;stroke-linecap:butt;stroke-linejoin:miter;stroke-opacity:1"
       d="m -54.539454,-54.167426 43.2856,33.7927 103.517,136.082106 -89.0588999,-13.1698 z"
       id="path4682" />
    <path
       style="fill:url(#linearGradient4760);fill-opacity:1;fill-rule:evenodd;stroke:none;stroke-width:1px;stroke-linecap:butt;stroke-linejoin:miter;stroke-opacity:1"
       d="M -46.494654,28.321676 -23.536154,154.00688 3.2504461,102.61768 -54.539454,-54.167526 Z"
       id="path4684" />
    <path
       style="fill:none;fill-rule:evenodd;stroke:#000000;stroke-width:1px;stroke-linecap:butt;stroke-linejoin:miter;stroke-opacity:1;marker-end:url(#marker5113)"
       d="M -638.32365,731.94228 -213.05895,32.789476 -54.539454,-54.167426"
       id="path4686" />
    <path
       style="fill:url(#linearGradient4762);fill-opacity:1;fill-rule:evenodd;stroke:none;stroke-width:1px;stroke-linecap:butt;stroke-linejoin:miter;stroke-opacity:1"
       d="m 92.263146,115.70738 -34.3779,44.2141 -81.4214,-5.9146 26.7866001,-51.3892 z"
       id="path4696" />
    <path
       style="fill:none;fill-rule:evenodd;stroke:#000000;stroke-width:1;stroke-linecap:butt;stroke-linejoin:miter;stroke-miterlimit:4;stroke-dasharray:1, 1;stroke-dashoffset:0;stroke-opacity:1;marker-end:url(#marker4818)"
       d="m -638.32365,531.94228 508.2237,-355.9406 133.3041961,-73.4641"
       id="path4688" />
    <path
       style="fill:none;fill-rule:evenodd;stroke:#000000;stroke-width:1px;stroke-linecap:butt;stroke-linejoin:miter;stroke-opacity:1;marker-end:url(#marker5101)"
       d="M -738.32366,731.94228 -172.89445,101.25858 -46.494654,28.321676"
       id="path4690" />
    <path
       style="fill:none;fill-rule:evenodd;stroke:#000000;stroke-width:1;stroke-linecap:butt;stroke-linejoin:miter;stroke-miterlimit:4;stroke-dasharray:1, 1;stroke-dashoffset:0;stroke-opacity:1;marker-end:url(#marker4822)"
       d="M -738.32366,532.01398 -100.75475,227.14628 92.263046,115.70738"
       id="path4692" />
    <path
       style="fill:none;fill-rule:evenodd;stroke:#000000;stroke-width:1;stroke-linecap:butt;stroke-linejoin:miter;stroke-miterlimit:4;stroke-dasharray:1, 1;stroke-dashoffset:0;stroke-opacity:1;marker-end:url(#marker6311)"
       d="m -804.82026,532.01398 712.945906,-285.948 149.7596,-86.1445"
       id="path4694" />
    <path
       id="path4698"
       d="m -540.33105,175.41688 208.1415,360.5117"
       style="fill:none;fill-rule:evenodd;stroke:#000000;stroke-width:1px;stroke-linecap:butt;stroke-linejoin:miter;stroke-opacity:1" />
    <path
       id="rect4700"
       d="m 677.54492,-90.516762 199.92835,0 0,66.496704 -199.92835,0 z"
       style="fill:url(#linearGradient4764);fill-opacity:1;stroke:none;stroke-width:1;stroke-linecap:round;stroke-linejoin:round;stroke-miterlimit:4;stroke-dasharray:none;stroke-dashoffset:0;stroke-opacity:1"
       transform="matrix(0.50369753,0.86388008,-0.86388008,0.50369753,0,0)" />
    <path
       id="rect4702"
       d="m -75.980309,677.54492 100,0 0,200 -100,0 z"
       style="fill:url(#red);fill-opacity:1;stroke:none;stroke-width:1;stroke-linecap:round;stroke-linejoin:round;stroke-miterlimit:4;stroke-dasharray:none;stroke-dashoffset:0;stroke-opacity:1"
       transform="matrix(0.86388008,-0.50369753,0.50369753,0.86388008,0,0)" />
    <path
       id="rect4704"
       d="m 532.01404,638.32361 199.92834,0 0,66.4967 -199.92834,0 z"
       style="opacity:0.40100002;fill:url(#linearGradient4766);fill-opacity:1;stroke:none;stroke-width:1;stroke-linecap:round;stroke-linejoin:round;stroke-miterlimit:4;stroke-dasharray:none;stroke-dashoffset:0;stroke-opacity:1"
       transform="matrix(0,1,-1,0,0,0)" />
    <path
       style="fill:none;fill-rule:evenodd;stroke:#000000;stroke-width:1;stroke-linecap:butt;stroke-linejoin:miter;stroke-miterlimit:4;stroke-dasharray:1, 1;stroke-dashoffset:0;stroke-opacity:1;marker-end:url(#marker4810)"
       d="m -703.82025,534.01398 591.0655,-327.8677 89.218596,-52.1394"
       id="path4706" />
    <path
       style="fill:none;fill-rule:evenodd;stroke:#000000;stroke-width:1px;stroke-linecap:butt;stroke-linejoin:miter;stroke-opacity:1;marker-end:url(#marker4826)"
       d="M -704.82035,731.94228 -185.28155,80.164076 -11.254054,-20.375126"
       id="path4708" />
    <path
       id="rect4710"
       d="m 677.54492,9.4834814 199.92835,0 0,66.4967046 -199.92835,0 z"
       style="opacity:0.45199998;fill:url(#linearGradient4768);fill-opacity:1;stroke:none;stroke-width:1;stroke-linecap:round;stroke-linejoin:round;stroke-miterlimit:4;stroke-dasharray:none;stroke-dashoffset:0;stroke-opacity:1"
       transform="matrix(0.50369753,0.86388008,-0.86388008,0.50369753,0,0)" />
    <path
       style="fill:none;fill-rule:evenodd;stroke:#000000;stroke-width:1;stroke-linecap:butt;stroke-linejoin:miter;stroke-miterlimit:4;stroke-dasharray:2, 4;stroke-dashoffset:0;stroke-opacity:1;marker-end:url(#marker4784)"
       d="M 275.63982,623.58858 207.54462,315.38078 92.263146,115.70738"
       id="path4720" />
    <path
       style="fill:none;fill-rule:evenodd;stroke:#000000;stroke-width:1;stroke-linecap:butt;stroke-linejoin:miter;stroke-miterlimit:4;stroke-dasharray:2, 4;stroke-dashoffset:0;stroke-opacity:1;marker-end:url(#marker4788)"
       d="M 362.02782,573.21888 146.77245,351.34278 3.2042461,102.53758"
       id="path4722" />
    <path
       style="fill:none;fill-rule:evenodd;stroke:#000000;stroke-width:1;stroke-linecap:butt;stroke-linejoin:miter;stroke-miterlimit:4;stroke-dasharray:2, 4;stroke-dashoffset:0;stroke-opacity:1;marker-end:url(#marker4792)"
       d="M 333.08522,590.09448 166.70185,339.96328 57.885246,159.92148"
       id="path4724" />
    <path
       style="fill:none;fill-rule:evenodd;stroke:#000000;stroke-width:1;stroke-linecap:butt;stroke-linejoin:miter;stroke-miterlimit:4;stroke-dasharray:2, 4;stroke-dashoffset:0;stroke-opacity:1;marker-end:url(#marker4796)"
       d="M 419.47332,539.72448 104.37325,375.55238 -23.536154,154.00688"
       id="path4726" />
    <g
       id="flowRoot4728"
       style="font-style:normal;font-variant:normal;font-weight:normal;font-stretch:normal;font-size:40px;line-height:125%;font-family:Purisa;-inkscape-font-specification:Purisa;letter-spacing:0px;word-spacing:0px;fill:#000000;fill-opacity:1;stroke:none;stroke-width:1px;stroke-linecap:butt;stroke-linejoin:miter;stroke-opacity:1"
       transform="translate(-4306.8356,-160.66473)">
      <path
         id="path18257"
         style="font-style:normal;font-variant:normal;font-weight:normal;font-stretch:normal;font-size:40px;font-family:Purisa;-inkscape-font-specification:Purisa"
         d="m 3913.4393,923.10079 q 1.28,0 3.12,-0.32 1.88,-0.36 3.08,-0.36 0.52,0 0.72,0.04 1.4,0.2 2,0.28 0.6,0.08 1.64,0.32 1.08,0.2 1.52,0.44 0.48,0.24 1.12,0.68 0.64,0.4 0.92,0.96 0.28,0.52 0.48,1.32 0.2,0.8 0.2,1.8 0,1.76 -0.48,3.68 -0.48,1.88 -0.96,1.88 -0.52,0 -0.52,0.76 0,0.92 -2.4,3.12 -2.4,2.2 -3.76,2.48 -1.64,0.44 -1.88,0.88 -0.28,0.52 -2.6,0.52 l -2.36,0 0.4,7.2 q 0.16,2.76 0.16,4.84 0,2.56 -0.44,3.2 -0.68,0.8 -1.16,0.8 -0.88,0 -1.12,-1.8 -0.4,-3.08 -1,-11.68 -0.6,-8.6 -0.6,-11.56 l 0,-4.28 -1.2,0.84 q -0.8,0.56 -1.4,0.56 -0.24,0 -0.52,-0.28 -0.24,-0.28 -0.24,-0.68 0,-1.12 2.28,-3.52 1.28,-1.36 1.92,-1.8 0.64,-0.44 1.32,-0.44 0.2,0 0.68,0.08 0.48,0.04 1.08,0.04 z m 8.72,3 q -2.08,-0.48 -2.92,-0.48 -0.8,0 -3.68,0.6 -2.12,0.44 -2.64,1.08 -0.52,0.64 -0.52,2.92 0,2.32 0.28,5.04 0.28,2.72 0.6,3.08 0.16,0.2 0.92,0.2 1.28,0 3.44,-0.56 2.16,-0.6 3.48,-1.32 0.8,-0.44 1.36,-1.04 0.56,-0.64 0.6,-1.12 0.12,-0.88 1.4,-2.56 1.32,-1.72 1.32,-2.8 0,-2.24 -3.64,-3.04 z" />
      <path
         id="path18259"
         style="font-style:normal;font-variant:normal;font-weight:normal;font-stretch:normal;font-size:40px;font-family:Purisa;-inkscape-font-specification:Purisa"
         d="m 3953.0149,946.30079 q 0.2,0 0.2,0.32 0,0.72 -1.08,2.32 -1.04,1.6 -2.24,2.64 -4.2,3.72 -8.4,3.72 -1.6,0 -3.2,-0.72 -1.56,-0.76 -2.92,-2.12 -1.36,-1.36 -2.2,-3.64 -0.84,-2.28 -0.84,-5.08 0,-1.72 0.4,-2.92 0.8,-2.44 3.4,-5.16 2.64,-2.72 4.96,-2.72 0.64,0 1.92,0.12 1.92,0.16 2.68,0.4 0.8,0.24 1.8,1 1.28,0.96 2.2,2.48 0.96,1.48 0.96,2.48 0,1.28 -1,1.96 -1,0.64 -3.88,1.28 -3.72,0.84 -7.36,1.04 l -3.72,0.2 0,1.6 q 0,2.96 2.76,5.6 2.08,2 4.32,2 1.72,0 3.64,-1.04 1.96,-1.08 3.32,-2.36 1.36,-1.28 2.6,-2.32 1.24,-1.08 1.68,-1.08 z m -6.44,-9.76 q -1.24,-1.12 -1.88,-1.4 -0.6,-0.32 -1.6,-0.32 -2,0 -3,0.4 -0.96,0.36 -1.96,1.52 -3.04,3.48 -3.04,4.64 0,0.52 0.96,0.52 3.64,0 10.32,-1.52 2,-0.48 2,-1.68 0,-0.56 -1.8,-2.16 z" />
      <path
         id="path18261"
         style="font-style:normal;font-variant:normal;font-weight:normal;font-stretch:normal;font-size:40px;font-family:Purisa;-inkscape-font-specification:Purisa"
         d="m 3971.5424,935.46079 q 0.68,0 1.2,0.44 0.52,0.4 0.52,0.68 0,0.48 -1.52,1.08 -2.48,1 -5.08,4.84 -2.56,3.8 -3.12,7.36 -0.64,4.04 -1.04,5.28 -0.4,1.28 -1.04,1.28 -0.56,0 -0.88,-0.4 -0.28,-0.4 -0.4,-0.88 -0.08,-0.48 -0.2,-1.76 -0.04,-0.24 -0.04,-0.36 -0.96,-10.08 -0.96,-15.92 0,-2.08 0.16,-2.56 0.44,-1.28 1.12,-1.28 0.64,0 0.64,1.08 0,1.8 0.56,5.8 0.56,4 0.84,4 0.36,0 1.48,-2.2 1.4,-2.6 3.72,-4.52 2.36,-1.96 4.04,-1.96 z" />
      <path
         id="path18263"
         style="font-style:normal;font-variant:normal;font-weight:normal;font-stretch:normal;font-size:40px;font-family:Purisa;-inkscape-font-specification:Purisa"
         d="m 3983.238,945.50079 q -0.6,0 -2.56,-1.44 -1.96,-1.48 -1.96,-3 0,-1.44 2.04,-3.96 2.04,-2.56 4.92,-3.28 1.32,-0.36 3.48,-0.36 0.92,0 1.36,0.24 0.44,0.24 1.2,1.08 1.24,1.4 1.24,1.92 0,0.48 -0.52,0.48 -0.64,0 -1.08,-0.44 -0.44,-0.48 -1.08,-0.96 -0.64,-0.48 -1.72,-0.48 -1.4,0 -3,0.76 -1.6,0.76 -2.84,2.12 -1.76,1.88 -1.76,2.56 0,0.68 1.04,1.64 1.04,0.92 3.48,1.76 3.84,1.32 5.2,2.48 1.36,1.16 1.36,3.12 0,1.84 -0.64,3.36 -0.44,1.16 -1.88,2.6 -1.44,1.44 -2.84,1.44 -1.08,0 -2.8,-0.36 -1.72,-0.32 -2.6,-0.76 -0.72,-0.36 -1.32,-1.4 -0.6,-1.08 -0.6,-1.92 0,-0.44 0.2,-0.76 0.24,-0.36 0.56,-0.36 0.6,0 1.12,1.12 0.48,1 1.92,1.8 1.48,0.8 2.76,0.8 1.72,0 3.04,-2.04 1.32,-2.08 1.32,-3.24 0,-0.28 -0.16,-0.68 -0.12,-0.44 -0.68,-1.04 -0.56,-0.6 -1.44,-0.92 -0.84,-0.28 -1.96,-0.76 -1.12,-0.48 -1.88,-0.8 -0.72,-0.32 -0.92,-0.32 z" />
      <path
         id="path18265"
         style="font-style:normal;font-variant:normal;font-weight:normal;font-stretch:normal;font-size:40px;font-family:Purisa;-inkscape-font-specification:Purisa"
         d="m 3999.2055,936.14079 q 1.12,-1 1.12,-1.72 0,-0.72 0.44,-1.72 0.48,-1.04 1.36,-1.04 0.56,0 0.96,0.64 0.44,0.6 0.92,0.6 0.36,0 2.96,-0.6 2.6,-0.64 4.56,-0.64 1.64,0 3.64,0.44 4.16,0.96 4.16,5.16 0,3.2 -2.48,8.52 -1.64,3.52 -4,5.44 -2.36,1.88 -5.04,1.88 -0.76,0 -1.16,-0.08 l -1.84,-0.28 0.44,2.16 q 1.44,6.8 1.44,8.52 0,0.8 -0.28,1.04 -0.28,0.28 -0.96,0.28 -0.72,0 -1.04,-0.36 -0.28,-0.32 -0.6,-1.4 -1.56,-5.6 -2.52,-16.72 -0.44,-5.48 -0.76,-6.68 -0.28,-1.24 -1.16,-1.24 -1.28,0 -1.28,-0.76 0,-0.44 1.12,-1.44 z m 5.96,13.28 q 0.6,0 1.4,0.52 0.8,0.48 1.36,0.48 1.6,0 3.68,-2.04 2.08,-2.08 3.52,-5 1.48,-2.92 1.48,-5.2 0,-1.24 -0.56,-2.24 -0.52,-1 -0.92,-1.12 -0.68,-0.28 -2.36,-0.28 -3.72,0 -6.6,0.92 l -2.68,0.88 0.08,2.56 q 0.08,2.56 0.44,6.52 0.2,2.36 0.44,3.16 0.24,0.8 0.72,0.84 z" />
      <path
         id="path18267"
         style="font-style:normal;font-variant:normal;font-weight:normal;font-stretch:normal;font-size:40px;font-family:Purisa;-inkscape-font-specification:Purisa"
         d="m 4044.5774,946.30079 q 0.2,0 0.2,0.32 0,0.72 -1.08,2.32 -1.04,1.6 -2.24,2.64 -4.2,3.72 -8.4,3.72 -1.6,0 -3.2,-0.72 -1.56,-0.76 -2.92,-2.12 -1.36,-1.36 -2.2,-3.64 -0.84,-2.28 -0.84,-5.08 0,-1.72 0.4,-2.92 0.8,-2.44 3.4,-5.16 2.64,-2.72 4.96,-2.72 0.64,0 1.92,0.12 1.92,0.16 2.68,0.4 0.8,0.24 1.8,1 1.28,0.96 2.2,2.48 0.96,1.48 0.96,2.48 0,1.28 -1,1.96 -1,0.64 -3.88,1.28 -3.72,0.84 -7.36,1.04 l -3.72,0.2 0,1.6 q 0,2.96 2.76,5.6 2.08,2 4.32,2 1.72,0 3.64,-1.04 1.96,-1.08 3.32,-2.36 1.36,-1.28 2.6,-2.32 1.24,-1.08 1.68,-1.08 z m -6.44,-9.76 q -1.24,-1.12 -1.88,-1.4 -0.6,-0.32 -1.6,-0.32 -2,0 -3,0.4 -0.96,0.36 -1.96,1.52 -3.04,3.48 -3.04,4.64 0,0.52 0.96,0.52 3.64,0 10.32,-1.52 2,-0.48 2,-1.68 0,-0.56 -1.8,-2.16 z" />
      <path
         id="path18269"
         style="font-style:normal;font-variant:normal;font-weight:normal;font-stretch:normal;font-size:40px;font-family:Purisa;-inkscape-font-specification:Purisa"
         d="m 4066.7449,938.82079 q 0,0.68 -0.32,1.12 -0.28,0.44 -0.68,0.44 -0.76,0 -0.96,-1.16 -0.08,-0.92 -1.32,-2.32 -0.52,-0.56 -0.84,-0.8 -0.32,-0.24 -1.52,-0.52 -1.16,-0.28 -3.08,-0.28 -1.56,0 -2.4,0.56 -0.8,0.56 -2,2.28 -2.88,4.08 -2.88,7.36 0,1.68 0.36,2.84 0.36,1.12 0.68,1.52 0.36,0.36 1.16,1.16 1.16,1.12 1.76,1.44 0.64,0.28 1.76,0.28 3.48,0 7.6,-4.72 2.16,-2.4 3.12,-2.4 0.52,0 0.52,0.76 0,0.72 -1.92,3.08 -1.88,2.36 -3.24,3.32 -3.16,2.28 -5.64,2.28 -1.8,0 -3.96,-1.08 -2.2,-1.08 -3.2,-2.92 -0.96,-1.84 -1.16,-5.36 -0.12,-1.36 -0.12,-2.16 0,-1.56 1.08,-3.56 1.12,-2.16 3.24,-4.16 2.16,-2 3.72,-2.44 1.2,-0.28 2.6,-0.28 3.04,0 5.32,1.96 2.32,1.92 2.32,3.76 z" />
      <path
         id="path18271"
         style="font-style:normal;font-variant:normal;font-weight:normal;font-stretch:normal;font-size:40px;font-family:Purisa;-inkscape-font-specification:Purisa"
         d="m 4078.6393,927.10079 q 0,-1.48 -0.28,-3.76 -0.28,-2.28 -0.28,-3.8 0,-0.76 0.04,-1 0.12,-0.64 0.44,-1 0.36,-0.4 0.72,-0.4 0.48,0 0.68,0.44 0.12,0.28 0.36,2.96 0.24,2.68 0.44,5.24 0.2,2.56 0.28,2.64 0.04,0.04 0.12,0.04 0.32,0 1.84,-0.32 1.56,-0.36 2.56,-0.36 2,0 2,0.88 0,0.88 -4.4,1.96 l -2,0.48 0.24,6.76 q 0.2,5.96 0.76,11.16 0.56,5.16 0.56,5.84 0,1.24 -0.92,1.24 -0.72,0 -1.2,-1.28 -0.44,-1.28 -0.44,-3.32 0,-1.48 -0.12,-3 -0.12,-1.56 -0.44,-4.8 -0.28,-3.28 -0.56,-6.72 -0.12,-1.84 -0.2,-2.84 -0.04,-1 -0.12,-1.48 -0.08,-0.48 -0.12,-0.56 -0.04,-0.12 -0.16,-0.12 -0.64,0 -3.08,0.44 -2.44,0.44 -3.04,0.44 -1.16,0 -1.16,-0.96 0,-0.68 1.44,-1.16 1.48,-0.48 3.32,-0.84 1.84,-0.4 2.28,-0.68 0.44,-0.32 0.44,-2.12 z" />
      <path
         id="path18273"
         style="font-style:normal;font-variant:normal;font-weight:normal;font-stretch:normal;font-size:40px;font-family:Purisa;-inkscape-font-specification:Purisa"
         d="m 4094.6205,932.10079 q 0.56,-0.48 0.96,-0.48 0.84,0 1.2,2.68 0.4,2.64 0.72,10.2 0.16,3.52 0.16,6.36 0,2.84 -0.24,3.12 -0.48,0.6 -1.2,0.6 -1,0 -1.24,-0.84 -0.2,-0.52 -0.6,-8.08 -0.4,-7.6 -0.4,-10.56 0,-2.48 0.64,-3 z m -0.24,-9.4 q 0,-0.56 0.44,-1.12 0.48,-0.56 0.84,-0.56 0.4,0 1.08,0.56 0.72,0.52 0.72,1.36 0,0.6 -0.36,1.04 -0.32,0.4 -0.88,0.4 -0.64,0 -1.24,-0.48 -0.6,-0.48 -0.6,-1.2 z" />
      <path
         id="path18275"
         style="font-style:normal;font-variant:normal;font-weight:normal;font-stretch:normal;font-size:40px;font-family:Purisa;-inkscape-font-specification:Purisa"
         d="m 4119.8743,935.42079 q 0,-0.92 0.56,-1.84 0.6,-0.92 1.36,-0.92 0.88,0 0.88,1.04 0,1.88 -4.96,15.4 -1,2.76 -2.56,5.08 -1.56,2.32 -2.4,2.32 -0.64,0 -1.24,-0.72 -0.56,-0.72 -1.16,-2.32 -0.6,-1.6 -1.04,-3.04 -0.44,-1.44 -1.2,-4.04 -0.72,-2.64 -1.2,-4.16 -2.36,-7.84 -2.36,-8.84 0,-0.36 0.32,-0.36 0.24,0 0.4,0.04 1.16,0.2 2.88,5.16 1.76,4.96 3.12,9.84 1.36,4.88 1.56,4.88 0.44,0 1.88,-2.96 1.48,-2.96 2.24,-5.44 0.56,-1.76 1.36,-3.96 0.8,-2.24 1.16,-3.4 0.4,-1.16 0.4,-1.76 z" />
      <path
         id="path18277"
         style="font-style:normal;font-variant:normal;font-weight:normal;font-stretch:normal;font-size:40px;font-family:Purisa;-inkscape-font-specification:Purisa"
         d="m 4147.468,946.30079 q 0.2,0 0.2,0.32 0,0.72 -1.08,2.32 -1.04,1.6 -2.24,2.64 -4.2,3.72 -8.4,3.72 -1.6,0 -3.2,-0.72 -1.56,-0.76 -2.92,-2.12 -1.36,-1.36 -2.2,-3.64 -0.84,-2.28 -0.84,-5.08 0,-1.72 0.4,-2.92 0.8,-2.44 3.4,-5.16 2.64,-2.72 4.96,-2.72 0.64,0 1.92,0.12 1.92,0.16 2.68,0.4 0.8,0.24 1.8,1 1.28,0.96 2.2,2.48 0.96,1.48 0.96,2.48 0,1.28 -1,1.96 -1,0.64 -3.88,1.28 -3.72,0.84 -7.36,1.04 l -3.72,0.2 0,1.6 q 0,2.96 2.76,5.6 2.08,2 4.32,2 1.72,0 3.64,-1.04 1.96,-1.08 3.32,-2.36 1.36,-1.28 2.6,-2.32 1.24,-1.08 1.68,-1.08 z m -6.44,-9.76 q -1.24,-1.12 -1.88,-1.4 -0.6,-0.32 -1.6,-0.32 -2,0 -3,0.4 -0.96,0.36 -1.96,1.52 -3.04,3.48 -3.04,4.64 0,0.52 0.96,0.52 3.64,0 10.32,-1.52 2,-0.48 2,-1.68 0,-0.56 -1.8,-2.16 z" />
      <path
         id="path18279"
         style="font-style:normal;font-variant:normal;font-weight:normal;font-stretch:normal;font-size:40px;font-family:Purisa;-inkscape-font-specification:Purisa"
         d="m 4194.3349,959.38079 q 0,0.6 -0.48,0.84 -0.48,0.28 -0.96,0.28 -1.32,0 -3.48,-2.56 -2.16,-2.52 -4.04,-6.2 -1.88,-3.68 -2.44,-6.64 -0.32,-1.48 -0.32,-2.28 0,-1.16 0.48,-3.28 0.48,-2.12 2.12,-8.52 0.72,-2.92 1.56,-4.68 0.88,-1.76 2.32,-3.28 1.84,-1.92 3.12,-1.92 0.6,0 0.6,0.6 0,0.72 -1.6,3.2 -1.68,2.72 -3.4,8.6 -1.72,5.84 -1.72,9.52 0,2 0.36,3.28 0.36,1.28 1.64,3.72 2.08,4.04 4.24,6.16 2,1.92 2,3.16 z" />
      <path
         id="path18281"
         style="font-style:normal;font-variant:normal;font-weight:normal;font-stretch:normal;font-size:40px;font-family:Purisa;-inkscape-font-specification:Purisa"
         d="m 4210.6705,927.10079 q 0,-1.48 -0.28,-3.76 -0.28,-2.28 -0.28,-3.8 0,-0.76 0.04,-1 0.12,-0.64 0.44,-1 0.36,-0.4 0.72,-0.4 0.48,0 0.68,0.44 0.12,0.28 0.36,2.96 0.24,2.68 0.44,5.24 0.2,2.56 0.28,2.64 0.04,0.04 0.12,0.04 0.32,0 1.84,-0.32 1.56,-0.36 2.56,-0.36 2,0 2,0.88 0,0.88 -4.4,1.96 l -2,0.48 0.24,6.76 q 0.2,5.96 0.76,11.16 0.56,5.16 0.56,5.84 0,1.24 -0.92,1.24 -0.72,0 -1.2,-1.28 -0.44,-1.28 -0.44,-3.32 0,-1.48 -0.12,-3 -0.12,-1.56 -0.44,-4.8 -0.28,-3.28 -0.56,-6.72 -0.12,-1.84 -0.2,-2.84 -0.04,-1 -0.12,-1.48 -0.08,-0.48 -0.12,-0.56 -0.04,-0.12 -0.16,-0.12 -0.64,0 -3.08,0.44 -2.44,0.44 -3.04,0.44 -1.16,0 -1.16,-0.96 0,-0.68 1.44,-1.16 1.48,-0.48 3.32,-0.84 1.84,-0.4 2.28,-0.68 0.44,-0.32 0.44,-2.12 z" />
      <path
         id="path18283"
         style="font-style:normal;font-variant:normal;font-weight:normal;font-stretch:normal;font-size:40px;font-family:Purisa;-inkscape-font-specification:Purisa"
         d="m 4225.8918,951.46079 q 0,-3.2 -0.8,-12.88 -0.76,-9.72 -0.76,-13.4 0,-2.12 0.24,-2.56 0.48,-0.84 0.92,-0.84 0.72,0 0.92,1.4 0.24,1.4 0.64,7.08 0.32,4.56 0.56,7.64 l 0.36,4.72 0.72,-1.56 q 0.8,-1.8 3.92,-4.72 3.12,-2.92 4.2,-2.92 1,0 2.2,1.12 1.2,1.12 1.56,2.4 0.32,1.08 0.32,9.72 0,6.24 -0.12,7.4 -0.12,1.12 -0.76,1.12 -0.64,0 -0.84,-1.16 -0.16,-1.16 -0.32,-6.68 -0.24,-7.72 -0.96,-9.88 l -0.64,-2 -2.32,2.16 q -1.84,1.76 -3.4,4 -1.52,2.24 -2.08,3.96 -0.36,1.24 -0.6,3.96 -0.24,2.72 -0.6,4.48 -0.32,1.76 -0.96,1.76 -0.28,0 -0.68,-0.32 -0.72,-0.6 -0.72,-4 z" />
      <path
         id="path18285"
         style="font-style:normal;font-variant:normal;font-weight:normal;font-stretch:normal;font-size:40px;font-family:Purisa;-inkscape-font-specification:Purisa"
         d="m 4260.1362,935.46079 q 0.68,0 1.2,0.44 0.52,0.4 0.52,0.68 0,0.48 -1.52,1.08 -2.48,1 -5.08,4.84 -2.56,3.8 -3.12,7.36 -0.64,4.04 -1.04,5.28 -0.4,1.28 -1.04,1.28 -0.56,0 -0.88,-0.4 -0.28,-0.4 -0.4,-0.88 -0.08,-0.48 -0.2,-1.76 -0.04,-0.24 -0.04,-0.36 -0.96,-10.08 -0.96,-15.92 0,-2.08 0.16,-2.56 0.44,-1.28 1.12,-1.28 0.64,0 0.64,1.08 0,1.8 0.56,5.8 0.56,4 0.84,4 0.36,0 1.48,-2.2 1.4,-2.6 3.72,-4.52 2.36,-1.96 4.04,-1.96 z" />
      <path
         id="path18287"
         style="font-style:normal;font-variant:normal;font-weight:normal;font-stretch:normal;font-size:40px;font-family:Purisa;-inkscape-font-specification:Purisa"
         d="m 4287.3118,946.30079 q 0.2,0 0.2,0.32 0,0.72 -1.08,2.32 -1.04,1.6 -2.24,2.64 -4.2,3.72 -8.4,3.72 -1.6,0 -3.2,-0.72 -1.56,-0.76 -2.92,-2.12 -1.36,-1.36 -2.2,-3.64 -0.84,-2.28 -0.84,-5.08 0,-1.72 0.4,-2.92 0.8,-2.44 3.4,-5.16 2.64,-2.72 4.96,-2.72 0.64,0 1.92,0.12 1.92,0.16 2.68,0.4 0.8,0.24 1.8,1 1.28,0.96 2.2,2.48 0.96,1.48 0.96,2.48 0,1.28 -1,1.96 -1,0.64 -3.88,1.28 -3.72,0.84 -7.36,1.04 l -3.72,0.2 0,1.6 q 0,2.96 2.76,5.6 2.08,2 4.32,2 1.72,0 3.64,-1.04 1.96,-1.08 3.32,-2.36 1.36,-1.28 2.6,-2.32 1.24,-1.08 1.68,-1.08 z m -6.44,-9.76 q -1.24,-1.12 -1.88,-1.4 -0.6,-0.32 -1.6,-0.32 -2,0 -3,0.4 -0.96,0.36 -1.96,1.52 -3.04,3.48 -3.04,4.64 0,0.52 0.96,0.52 3.64,0 10.32,-1.52 2,-0.48 2,-1.68 0,-0.56 -1.8,-2.16 z" />
      <path
         id="path18289"
         style="font-style:normal;font-variant:normal;font-weight:normal;font-stretch:normal;font-size:40px;font-family:Purisa;-inkscape-font-specification:Purisa"
         d="m 4311.9993,946.30079 q 0.2,0 0.2,0.32 0,0.72 -1.08,2.32 -1.04,1.6 -2.24,2.64 -4.2,3.72 -8.4,3.72 -1.6,0 -3.2,-0.72 -1.56,-0.76 -2.92,-2.12 -1.36,-1.36 -2.2,-3.64 -0.84,-2.28 -0.84,-5.08 0,-1.72 0.4,-2.92 0.8,-2.44 3.4,-5.16 2.64,-2.72 4.96,-2.72 0.64,0 1.92,0.12 1.92,0.16 2.68,0.4 0.8,0.24 1.8,1 1.28,0.96 2.2,2.48 0.96,1.48 0.96,2.48 0,1.28 -1,1.96 -1,0.64 -3.88,1.28 -3.72,0.84 -7.36,1.04 l -3.72,0.2 0,1.6 q 0,2.96 2.76,5.6 2.08,2 4.32,2 1.72,0 3.64,-1.04 1.96,-1.08 3.32,-2.36 1.36,-1.28 2.6,-2.32 1.24,-1.08 1.68,-1.08 z m -6.44,-9.76 q -1.24,-1.12 -1.88,-1.4 -0.6,-0.32 -1.6,-0.32 -2,0 -3,0.4 -0.96,0.36 -1.96,1.52 -3.04,3.48 -3.04,4.64 0,0.52 0.96,0.52 3.64,0 10.32,-1.52 2,-0.48 2,-1.68 0,-0.56 -1.8,-2.16 z" />
      <path
         id="path18291"
         style="font-style:normal;font-variant:normal;font-weight:normal;font-stretch:normal;font-size:40px;font-family:Purisa;-inkscape-font-specification:Purisa"
         d="m 4323.1268,937.02079 q 3.52,-0.36 11.8,-0.36 6.84,0 9.08,0.24 2.24,0.24 2.76,1.08 0.44,0.68 0.44,1.16 0,1.08 -3,1.48 -2.96,0.4 -11.88,0.6 l -13.64,0.32 0.2,-2.04 q 0.16,-1.4 0.8,-1.8 0.64,-0.4 3.44,-0.68 z" />
      <path
         id="path18293"
         style="font-style:normal;font-variant:normal;font-weight:normal;font-stretch:normal;font-size:40px;font-family:Purisa;-inkscape-font-specification:Purisa"
         d="m 4354.7524,936.14079 q 1.12,-1 1.12,-1.72 0,-0.72 0.44,-1.72 0.48,-1.04 1.36,-1.04 0.56,0 0.96,0.64 0.44,0.6 0.92,0.6 0.36,0 2.96,-0.6 2.6,-0.64 4.56,-0.64 1.64,0 3.64,0.44 4.16,0.96 4.16,5.16 0,3.2 -2.48,8.52 -1.64,3.52 -4,5.44 -2.36,1.88 -5.04,1.88 -0.76,0 -1.16,-0.08 l -1.84,-0.28 0.44,2.16 q 1.44,6.8 1.44,8.52 0,0.8 -0.28,1.04 -0.28,0.28 -0.96,0.28 -0.72,0 -1.04,-0.36 -0.28,-0.32 -0.6,-1.4 -1.56,-5.6 -2.52,-16.72 -0.44,-5.48 -0.76,-6.68 -0.28,-1.24 -1.16,-1.24 -1.28,0 -1.28,-0.76 0,-0.44 1.12,-1.44 z m 5.96,13.28 q 0.6,0 1.4,0.52 0.8,0.48 1.36,0.48 1.6,0 3.68,-2.04 2.08,-2.08 3.52,-5 1.48,-2.92 1.48,-5.2 0,-1.24 -0.56,-2.24 -0.52,-1 -0.92,-1.12 -0.68,-0.28 -2.36,-0.28 -3.72,0 -6.6,0.92 l -2.68,0.88 0.08,2.56 q 0.08,2.56 0.44,6.52 0.2,2.36 0.44,3.16 0.24,0.8 0.72,0.84 z" />
      <path
         id="path18295"
         style="font-style:normal;font-variant:normal;font-weight:normal;font-stretch:normal;font-size:40px;font-family:Purisa;-inkscape-font-specification:Purisa"
         d="m 4383.5243,936.94079 q 3.12,-2.92 5.24,-3.84 2.16,-0.96 5.44,-0.96 4.96,0 6.2,2.96 0.76,1.76 0.76,4.32 0,4.24 -1.88,8.6 -1.88,4.32 -4.64,6 -2.68,1.64 -5.64,1.64 -4.12,0 -6.6,-2.84 -1.72,-2 -2.24,-3.36 -0.52,-1.4 -0.52,-3.96 0,-4.84 3.88,-8.56 z m 6.44,16.44 q 3.36,0 6.08,-4.6 2.76,-4.64 2.76,-10.48 0,-0.88 -0.2,-1.32 -0.2,-0.44 -0.72,-0.88 -1.48,-1.24 -3.16,-1.24 -0.28,0 -0.64,0.08 -0.32,0.04 -1.08,0.16 -0.76,0.08 -1.8,0.2 -1.4,0.2 -2.24,0.64 -0.8,0.4 -2.04,1.56 -2.36,2.24 -3.36,4.16 -1,1.88 -1,4.12 0,3.32 2.04,5.44 2.08,2.12 5.36,2.16 z" />
      <path
         id="path18297"
         style="font-style:normal;font-variant:normal;font-weight:normal;font-stretch:normal;font-size:40px;font-family:Purisa;-inkscape-font-specification:Purisa"
         d="m 4407.9799,932.10079 q 0.56,-0.48 0.96,-0.48 0.84,0 1.2,2.68 0.4,2.64 0.72,10.2 0.16,3.52 0.16,6.36 0,2.84 -0.24,3.12 -0.48,0.6 -1.2,0.6 -1,0 -1.24,-0.84 -0.2,-0.52 -0.6,-8.08 -0.4,-7.6 -0.4,-10.56 0,-2.48 0.64,-3 z m -0.24,-9.4 q 0,-0.56 0.44,-1.12 0.48,-0.56 0.84,-0.56 0.4,0 1.08,0.56 0.72,0.52 0.72,1.36 0,0.6 -0.36,1.04 -0.32,0.4 -0.88,0.4 -0.64,0 -1.24,-0.48 -0.6,-0.48 -0.6,-1.2 z" />
      <path
         id="path18299"
         style="font-style:normal;font-variant:normal;font-weight:normal;font-stretch:normal;font-size:40px;font-family:Purisa;-inkscape-font-specification:Purisa"
         d="m 4419.5537,933.26079 q 0,-1.36 0.8,-1.36 0.52,0 0.76,1.2 0.24,1.16 0.88,6.96 0.8,6.48 0.84,6.56 0.04,0.04 0.32,-0.76 0.32,-0.84 0.84,-2.48 0.8,-2.64 1.36,-3.8 0.56,-1.2 2,-3.28 2.92,-4.04 4.52,-4.04 1.04,0 1.96,1.4 1.24,1.84 1.52,3.64 0.28,1.8 0.4,8.52 0.08,4.32 0.08,5.12 0,2 -0.16,2.92 -0.12,0.88 -0.4,1.08 -0.24,0.24 -0.88,0.28 -0.36,0 -0.48,-0.32 -0.12,-0.28 -0.12,-1.36 0,-0.6 0.08,-2.56 0.08,-2 0.08,-3.36 0,-3.4 -0.28,-6.64 -0.24,-3.28 -0.6,-4.2 -0.2,-0.52 -0.64,-1.08 -0.44,-0.56 -0.84,-0.56 -0.84,0 -2.68,2.88 -1.84,2.84 -3.16,6 -1.24,2.88 -1.68,4.44 -0.4,1.52 -0.68,4.16 -0.44,4.08 -0.64,4.08 -0.32,0 -0.92,-0.68 -0.44,-0.44 -0.6,-1.88 -0.16,-1.48 -0.44,-5.8 -0.28,-4.36 -0.76,-8.8 -0.48,-4.6 -0.48,-6.28 z" />
      <path
         id="path18301"
         style="font-style:normal;font-variant:normal;font-weight:normal;font-stretch:normal;font-size:40px;font-family:Purisa;-inkscape-font-specification:Purisa"
         d="m 4448.6393,927.10079 q 0,-1.48 -0.28,-3.76 -0.28,-2.28 -0.28,-3.8 0,-0.76 0.04,-1 0.12,-0.64 0.44,-1 0.36,-0.4 0.72,-0.4 0.48,0 0.68,0.44 0.12,0.28 0.36,2.96 0.24,2.68 0.44,5.24 0.2,2.56 0.28,2.64 0.04,0.04 0.12,0.04 0.32,0 1.84,-0.32 1.56,-0.36 2.56,-0.36 2,0 2,0.88 0,0.88 -4.4,1.96 l -2,0.48 0.24,6.76 q 0.2,5.96 0.76,11.16 0.56,5.16 0.56,5.84 0,1.24 -0.92,1.24 -0.72,0 -1.2,-1.28 -0.44,-1.28 -0.44,-3.32 0,-1.48 -0.12,-3 -0.12,-1.56 -0.44,-4.8 -0.28,-3.28 -0.56,-6.72 -0.12,-1.84 -0.2,-2.84 -0.04,-1 -0.12,-1.48 -0.08,-0.48 -0.12,-0.56 -0.04,-0.12 -0.16,-0.12 -0.64,0 -3.08,0.44 -2.44,0.44 -3.04,0.44 -1.16,0 -1.16,-0.96 0,-0.68 1.44,-1.16 1.48,-0.48 3.32,-0.84 1.84,-0.4 2.28,-0.68 0.44,-0.32 0.44,-2.12 z" />
      <path
         id="path18303"
         style="font-style:normal;font-variant:normal;font-weight:normal;font-stretch:normal;font-size:40px;font-family:Purisa;-inkscape-font-specification:Purisa"
         d="m 4468.1405,922.26079 q 0,-0.84 0.92,-0.84 1.64,0 4.16,2.8 2.52,2.76 3.4,5.72 1.32,4.2 1.32,11.48 0,4.52 -0.64,7.04 -0.72,2.84 -1.68,5.04 -0.96,2.2 -1.92,3.88 -0.96,1.68 -1.32,2.64 -0.56,1.56 -1.96,1.56 -0.6,0 -1.2,-0.2 -0.56,-0.16 -0.56,-0.44 0,-1 2.32,-5.48 1.12,-2.12 1.68,-3.44 0.6,-1.36 1.24,-4.48 0.68,-3.16 0.68,-6.88 0,-3.28 -0.56,-6.16 -0.52,-2.88 -1.28,-4.64 -0.72,-1.76 -1.56,-3.08 -0.8,-1.32 -1.32,-1.84 -0.48,-0.52 -0.6,-0.56 -0.44,-0.16 -0.8,-0.84 -0.32,-0.68 -0.32,-1.28 z" />
    </g>
    <g
       id="text4736"
       style="font-style:normal;font-weight:normal;font-size:16.25px;line-height:125%;font-family:sans-serif;letter-spacing:0px;word-spacing:0px;fill:#000000;fill-opacity:1;stroke:none;stroke-width:1px;stroke-linecap:butt;stroke-linejoin:miter;stroke-opacity:1">
      <path
         id="path18306"
         style="font-style:normal;font-variant:normal;font-weight:normal;font-stretch:normal;font-size:40px;font-family:Purisa;-inkscape-font-specification:Purisa"
         d="m -797.96627,270.00344 q -1.32,0 -2.76,0.32 -1.44,0.32 -1.88,0.32 -1,0 -1.72,-0.36 -0.68,-0.36 -0.68,-0.92 0,-0.68 0.88,-0.92 0.92,-0.28 4.8,-0.88 7.88,-1.2 15.08,-2.6 4.44,-0.84 5.76,-0.84 1.24,0 2.52,0.52 1.28,0.52 1.28,1.16 0,0.6 -1.04,1.04 -1.04,0.4 -2.76,0.4 -2.68,0 -5.72,0.72 l -3.08,0.72 0.6,3.36 q 0.44,3.12 1.04,11.96 0.64,8.8 0.76,9.84 0.12,1.04 0.12,1.56 0,1.24 -1.08,1.24 -1.04,0 -1.56,-2.6 -0.48,-2.6 -0.92,-10.2 -0.8,-12.96 -2.08,-14.32 -0.32,-0.32 -1.04,-0.32 -0.32,0 -2.76,0.4 -2.4,0.4 -3.76,0.4 z" />
      <path
         id="path18308"
         style="font-style:normal;font-variant:normal;font-weight:normal;font-stretch:normal;font-size:40px;font-family:Purisa;-inkscape-font-specification:Purisa"
         d="m -769.72502,291.36344 q 0,-3.2 -0.8,-12.88 -0.76,-9.72 -0.76,-13.4 0,-2.12 0.24,-2.56 0.48,-0.84 0.92,-0.84 0.72,0 0.92,1.4 0.24,1.4 0.64,7.08 0.32,4.56 0.56,7.64 l 0.36,4.72 0.72,-1.56 q 0.8,-1.8 3.92,-4.72 3.12,-2.92 4.2,-2.92 1,0 2.2,1.12 1.2,1.12 1.56,2.4 0.32,1.08 0.32,9.72 0,6.24 -0.12,7.4 -0.12,1.12 -0.76,1.12 -0.64,0 -0.84,-1.16 -0.16,-1.16 -0.32,-6.68 -0.24,-7.72 -0.96,-9.88 l -0.64,-2 -2.32,2.16 q -1.84,1.76 -3.4,4 -1.52,2.24 -2.08,3.96 -0.36,1.24 -0.6,3.96 -0.24,2.72 -0.6,4.48 -0.32,1.76 -0.96,1.76 -0.28,0 -0.68,-0.32 -0.72,-0.6 -0.72,-4 z" />
      <path
         id="path18310"
         style="font-style:normal;font-variant:normal;font-weight:normal;font-stretch:normal;font-size:40px;font-family:Purisa;-inkscape-font-specification:Purisa"
         d="m -729.32065,286.20344 q 0.2,0 0.2,0.32 0,0.72 -1.08,2.32 -1.04,1.6 -2.24,2.64 -4.2,3.72 -8.4,3.72 -1.6,0 -3.2,-0.72 -1.56,-0.76 -2.92,-2.12 -1.36,-1.36 -2.2,-3.64 -0.84,-2.28 -0.84,-5.08 0,-1.72 0.4,-2.92 0.8,-2.44 3.4,-5.16 2.64,-2.72 4.96,-2.72 0.64,0 1.92,0.12 1.92,0.16 2.68,0.4 0.8,0.24 1.8,1 1.28,0.96 2.2,2.48 0.96,1.48 0.96,2.48 0,1.28 -1,1.96 -1,0.64 -3.88,1.28 -3.72,0.84 -7.36,1.04 l -3.72,0.2 0,1.6 q 0,2.96 2.76,5.6 2.08,2 4.32,2 1.72,0 3.64,-1.04 1.96,-1.08 3.32,-2.36 1.36,-1.28 2.6,-2.32 1.24,-1.08 1.68,-1.08 z m -6.44,-9.76 q -1.24,-1.12 -1.88,-1.4 -0.6,-0.32 -1.6,-0.32 -2,0 -3,0.4 -0.96,0.36 -1.96,1.52 -3.04,3.48 -3.04,4.64 0,0.52 0.96,0.52 3.64,0 10.32,-1.52 2,-0.48 2,-1.68 0,-0.56 -1.8,-2.16 z" />
      <path
         id="path18312"
         style="font-style:normal;font-variant:normal;font-weight:normal;font-stretch:normal;font-size:40px;font-family:Purisa;-inkscape-font-specification:Purisa"
         d="m -692.57377,276.80344 q -0.48,0 -2.04,0.44 -1.52,0.4 -2.44,0.4 -1.76,0 -1.76,-1.12 0,-0.44 0.64,-0.8 0.68,-0.36 2.6,-0.92 l 3.24,-0.96 0.08,-3.48 q 0.08,-3.72 0.56,-8.2 0.36,-3.32 0.64,-4.2 0.28,-0.88 1.24,-1.84 0.8,-0.8 1.28,-1.04 0.52,-0.24 1.44,-0.24 0.68,0 2.88,0.2 1.68,0.16 2.4,0.48 0.72,0.28 1.64,1.2 1.36,1.36 1.36,2.48 0,0.8 -0.64,1.68 -0.6,0.84 -0.92,0.84 -0.48,0 -0.48,-1.36 0,-1.28 -0.72,-1.96 -0.68,-0.72 -2.68,-1.36 -1.32,-0.4 -2.04,-0.4 -1.72,0 -2.68,2 -0.36,0.8 -0.68,4.6 -0.28,3.76 -0.28,6.92 0,2.28 0.16,2.88 0.2,0.56 1,0.56 0.48,0 2,-0.28 1.52,-0.28 2.52,-0.28 0.56,0 0.92,0.2 0.36,0.16 0.36,0.4 0,0.68 -3.44,1.72 l -3.44,1 -0.12,6.36 q 0,0.48 -0.04,1.32 0,0.8 0,1.12 0,3 0.28,4.64 0.28,1.64 0.56,2.36 0.28,0.72 0.28,1.56 0,1.2 -1.12,1.2 -2.12,0 -2.12,-11.16 0,-6.68 -0.24,-6.92 -0.04,-0.04 -0.2,-0.04 z" />
      <path
         id="path18314"
         style="font-style:normal;font-variant:normal;font-weight:normal;font-stretch:normal;font-size:40px;font-family:Purisa;-inkscape-font-specification:Purisa"
         d="m -670.4519,276.84344 q 3.12,-2.92 5.24,-3.84 2.16,-0.96 5.44,-0.96 4.96,0 6.2,2.96 0.76,1.76 0.76,4.32 0,4.24 -1.88,8.6 -1.88,4.32 -4.64,6 -2.68,1.64 -5.64,1.64 -4.12,0 -6.6,-2.84 -1.72,-2 -2.24,-3.36 -0.52,-1.4 -0.52,-3.96 0,-4.84 3.88,-8.56 z m 6.44,16.44 q 3.36,0 6.08,-4.6 2.76,-4.64 2.76,-10.48 0,-0.88 -0.2,-1.32 -0.2,-0.44 -0.72,-0.88 -1.48,-1.24 -3.16,-1.24 -0.28,0 -0.64,0.08 -0.32,0.04 -1.08,0.16 -0.76,0.08 -1.8,0.2 -1.4,0.2 -2.24,0.64 -0.8,0.4 -2.04,1.56 -2.36,2.24 -3.36,4.16 -1,1.88 -1,4.12 0,3.32 2.04,5.44 2.08,2.12 5.36,2.16 z" />
      <path
         id="path18316"
         style="font-style:normal;font-variant:normal;font-weight:normal;font-stretch:normal;font-size:40px;font-family:Purisa;-inkscape-font-specification:Purisa"
         d="m -630.35627,278.72344 q 0,0.68 -0.32,1.12 -0.28,0.44 -0.68,0.44 -0.76,0 -0.96,-1.16 -0.08,-0.92 -1.32,-2.32 -0.52,-0.56 -0.84,-0.8 -0.32,-0.24 -1.52,-0.52 -1.16,-0.28 -3.08,-0.28 -1.56,0 -2.4,0.56 -0.8,0.56 -2,2.28 -2.88,4.08 -2.88,7.36 0,1.68 0.36,2.84 0.36,1.12 0.68,1.52 0.36,0.36 1.16,1.16 1.16,1.12 1.76,1.44 0.64,0.28 1.76,0.28 3.48,0 7.6,-4.72 2.16,-2.4 3.12,-2.4 0.52,0 0.52,0.76 0,0.72 -1.92,3.08 -1.88,2.36 -3.24,3.32 -3.16,2.28 -5.64,2.28 -1.8,0 -3.96,-1.08 -2.2,-1.08 -3.2,-2.92 -0.96,-1.84 -1.16,-5.36 -0.12,-1.36 -0.12,-2.16 0,-1.56 1.08,-3.56 1.12,-2.16 3.24,-4.16 2.16,-2 3.72,-2.44 1.2,-0.28 2.6,-0.28 3.04,0 5.32,1.96 2.32,1.92 2.32,3.76 z" />
      <path
         id="path18318"
         style="font-style:normal;font-variant:normal;font-weight:normal;font-stretch:normal;font-size:40px;font-family:Purisa;-inkscape-font-specification:Purisa"
         d="m -613.3419,274.88344 q -1.84,0 -3.92,0.76 -2.04,0.76 -3.64,1.56 -1.6,0.76 -2.32,0.76 -0.48,0 -0.48,-0.4 0,-0.56 0.24,-0.96 0.24,-0.4 0.88,-0.76 0.64,-0.36 1.2,-0.6 0.6,-0.24 1.88,-0.68 1.28,-0.48 2.2,-0.88 2.16,-0.84 3.64,-0.84 2.64,0 4.12,2.88 0.72,1.4 0.84,2.6 0.12,1.16 0.2,6.6 0.04,3.04 0.12,5.12 0.08,2.04 0.16,2.6 l 0.08,0.52 q 0,0.56 -0.52,1.2 -0.48,0.64 -0.72,0.64 -0.8,0 -1.24,-2.52 -0.44,-2.56 -0.48,-2.56 -0.12,0 -0.36,0.44 -0.8,1.32 -3.24,2.92 -2.4,1.56 -4.04,1.56 -1,0 -2.36,-0.36 -1.32,-0.4 -1.92,-0.84 -0.44,-0.36 -0.76,-1.44 -0.28,-1.08 -0.28,-2.2 0,-1.68 0.88,-2.88 0.92,-1.24 3.24,-2.52 2.52,-1.48 4.88,-1.48 0.96,0 1.6,0.32 0.64,0.32 0.96,0.68 0.32,0.32 0.52,0.32 0.2,0 0.76,0.44 0.6,0.4 0.64,0.4 0.16,0 0.16,-0.88 0,-5.36 -0.76,-7.44 -0.72,-2.08 -2.16,-2.08 z m 1.8,12.4 q 0,-0.16 -0.12,-0.36 -0.08,-0.24 -0.4,-0.52 -0.28,-0.32 -0.76,-0.56 -0.44,-0.28 -1.24,-0.44 -0.8,-0.2 -1.8,-0.2 -1.72,0 -3.04,0.6 -1.28,0.6 -1.92,1.52 -0.64,0.92 -0.96,1.72 -0.28,0.76 -0.28,1.36 0,1 0.16,1.36 0.2,0.36 0.92,0.76 0.88,0.44 1.6,0.44 1.36,0 3.36,-0.96 2.04,-1 2.04,-1.44 0,-0.32 1.2,-1.52 1.24,-1.24 1.24,-1.76 z" />
      <path
         id="path18320"
         style="font-style:normal;font-variant:normal;font-weight:normal;font-stretch:normal;font-size:40px;font-family:Purisa;-inkscape-font-specification:Purisa"
         d="m -601.43627,268.48344 q -0.24,-2.56 -0.24,-5.64 0,-3.08 0.16,-4.68 0.16,-1.64 0.4,-2.08 0.24,-0.44 0.68,-0.44 0.4,0 0.64,0.36 0.24,0.4 1.44,18.52 1.24,18.12 1.24,18.84 0,0.52 -0.24,0.72 -0.24,0.16 -0.8,0.16 -0.96,0 -1.24,-1.36 -0.28,-1.4 -0.8,-8.68 -0.64,-8.8 -1.24,-15.72 z" />
      <path
         id="path18322"
         style="font-style:normal;font-variant:normal;font-weight:normal;font-stretch:normal;font-size:40px;font-family:Purisa;-inkscape-font-specification:Purisa"
         d="m -564.22377,276.04344 q 1.12,-1 1.12,-1.72 0,-0.72 0.44,-1.72 0.48,-1.04 1.36,-1.04 0.56,0 0.96,0.64 0.44,0.6 0.92,0.6 0.36,0 2.96,-0.6 2.6,-0.64 4.56,-0.64 1.64,0 3.64,0.44 4.16,0.96 4.16,5.16 0,3.2 -2.48,8.52 -1.64,3.52 -4,5.44 -2.36,1.88 -5.04,1.88 -0.76,0 -1.16,-0.08 l -1.84,-0.28 0.44,2.16 q 1.44,6.8 1.44,8.52 0,0.8 -0.28,1.04 -0.28,0.28 -0.96,0.28 -0.72,0 -1.04,-0.36 -0.28,-0.32 -0.6,-1.4 -1.56,-5.6 -2.52,-16.72 -0.44,-5.48 -0.76,-6.68 -0.28,-1.24 -1.16,-1.24 -1.28,0 -1.28,-0.76 0,-0.44 1.12,-1.44 z m 5.96,13.28 q 0.6,0 1.4,0.52 0.8,0.48 1.36,0.48 1.6,0 3.68,-2.04 2.08,-2.08 3.52,-5 1.48,-2.92 1.48,-5.2 0,-1.24 -0.56,-2.24 -0.52,-1 -0.92,-1.12 -0.68,-0.28 -2.36,-0.28 -3.72,0 -6.6,0.92 l -2.68,0.88 0.08,2.56 q 0.08,2.56 0.44,6.52 0.2,2.36 0.44,3.16 0.24,0.8 0.72,0.84 z" />
      <path
         id="path18324"
         style="font-style:normal;font-variant:normal;font-weight:normal;font-stretch:normal;font-size:40px;font-family:Purisa;-inkscape-font-specification:Purisa"
         d="m -535.4519,276.84344 q 3.12,-2.92 5.24,-3.84 2.16,-0.96 5.44,-0.96 4.96,0 6.2,2.96 0.76,1.76 0.76,4.32 0,4.24 -1.88,8.6 -1.88,4.32 -4.64,6 -2.68,1.64 -5.64,1.64 -4.12,0 -6.6,-2.84 -1.72,-2 -2.24,-3.36 -0.52,-1.4 -0.52,-3.96 0,-4.84 3.88,-8.56 z m 6.44,16.44 q 3.36,0 6.08,-4.6 2.76,-4.64 2.76,-10.48 0,-0.88 -0.2,-1.32 -0.2,-0.44 -0.72,-0.88 -1.48,-1.24 -3.16,-1.24 -0.28,0 -0.64,0.08 -0.32,0.04 -1.08,0.16 -0.76,0.08 -1.8,0.2 -1.4,0.2 -2.24,0.64 -0.8,0.4 -2.04,1.56 -2.36,2.24 -3.36,4.16 -1,1.88 -1,4.12 0,3.32 2.04,5.44 2.08,2.12 5.36,2.16 z" />
      <path
         id="path18326"
         style="font-style:normal;font-variant:normal;font-weight:normal;font-stretch:normal;font-size:40px;font-family:Purisa;-inkscape-font-specification:Purisa"
         d="m -510.99627,272.00344 q 0.56,-0.48 0.96,-0.48 0.84,0 1.2,2.68 0.4,2.64 0.72,10.2 0.16,3.52 0.16,6.36 0,2.84 -0.24,3.12 -0.48,0.6 -1.2,0.6 -1,0 -1.24,-0.84 -0.2,-0.52 -0.6,-8.08 -0.4,-7.6 -0.4,-10.56 0,-2.48 0.64,-3 z m -0.24,-9.4 q 0,-0.56 0.44,-1.12 0.48,-0.56 0.84,-0.56 0.4,0 1.08,0.56 0.72,0.52 0.72,1.36 0,0.6 -0.36,1.04 -0.32,0.4 -0.88,0.4 -0.64,0 -1.24,-0.48 -0.6,-0.48 -0.6,-1.2 z" />
      <path
         id="path18328"
         style="font-style:normal;font-variant:normal;font-weight:normal;font-stretch:normal;font-size:40px;font-family:Purisa;-inkscape-font-specification:Purisa"
         d="m -499.42252,273.16344 q 0,-1.36 0.8,-1.36 0.52,0 0.76,1.2 0.24,1.16 0.88,6.96 0.8,6.48 0.84,6.56 0.04,0.04 0.32,-0.76 0.32,-0.84 0.84,-2.48 0.8,-2.64 1.36,-3.8 0.56,-1.2 2,-3.28 2.92,-4.04 4.52,-4.04 1.04,0 1.96,1.4 1.24,1.84 1.52,3.64 0.28,1.8 0.4,8.52 0.08,4.32 0.08,5.12 0,2 -0.16,2.92 -0.12,0.88 -0.4,1.08 -0.24,0.24 -0.88,0.28 -0.36,0 -0.48,-0.32 -0.12,-0.28 -0.12,-1.36 0,-0.6 0.08,-2.56 0.08,-2 0.08,-3.36 0,-3.4 -0.28,-6.64 -0.24,-3.28 -0.6,-4.2 -0.2,-0.52 -0.64,-1.08 -0.44,-0.56 -0.84,-0.56 -0.84,0 -2.68,2.88 -1.84,2.84 -3.16,6 -1.24,2.88 -1.68,4.44 -0.4,1.52 -0.68,4.16 -0.44,4.08 -0.64,4.08 -0.32,0 -0.92,-0.68 -0.44,-0.44 -0.6,-1.88 -0.16,-1.48 -0.44,-5.8 -0.28,-4.36 -0.76,-8.8 -0.48,-4.6 -0.48,-6.28 z" />
      <path
         id="path18330"
         style="font-style:normal;font-variant:normal;font-weight:normal;font-stretch:normal;font-size:40px;font-family:Purisa;-inkscape-font-specification:Purisa"
         d="m -470.3369,267.00344 q 0,-1.48 -0.28,-3.76 -0.28,-2.28 -0.28,-3.8 0,-0.76 0.04,-1 0.12,-0.64 0.44,-1 0.36,-0.4 0.72,-0.4 0.48,0 0.68,0.44 0.12,0.28 0.36,2.96 0.24,2.68 0.44,5.24 0.2,2.56 0.28,2.64 0.04,0.04 0.12,0.04 0.32,0 1.84,-0.32 1.56,-0.36 2.56,-0.36 2,0 2,0.88 0,0.88 -4.4,1.96 l -2,0.48 0.24,6.76 q 0.2,5.96 0.76,11.16 0.56,5.16 0.56,5.84 0,1.24 -0.92,1.24 -0.72,0 -1.2,-1.28 -0.44,-1.28 -0.44,-3.32 0,-1.48 -0.12,-3 -0.12,-1.56 -0.44,-4.8 -0.28,-3.28 -0.56,-6.72 -0.12,-1.84 -0.2,-2.84 -0.04,-1 -0.12,-1.48 -0.08,-0.48 -0.12,-0.56 -0.04,-0.12 -0.16,-0.12 -0.64,0 -3.08,0.44 -2.44,0.44 -3.04,0.44 -1.16,0 -1.16,-0.96 0,-0.68 1.44,-1.16 1.48,-0.48 3.32,-0.84 1.84,-0.4 2.28,-0.68 0.44,-0.32 0.44,-2.12 z" />
      <path
         id="path18332"
         style="font-style:normal;font-variant:normal;font-weight:normal;font-stretch:normal;font-size:40px;font-family:Purisa;-inkscape-font-specification:Purisa"
         d="m -453.43565,294.16344 q 0,-1.44 2,-3.52 2.04,-2.12 2.72,-2.12 0.84,0 0.84,-0.64 0,-0.24 0.28,-0.44 0.32,-0.2 0.72,-0.2 0.4,0 0.68,0.2 0.28,0.2 0.28,0.44 0,0.64 1.16,0.64 1.04,0 1.72,1 0.72,1 0.72,2.36 0,2.2 -2.08,4.4 -2.08,2.24 -4.68,2.24 -2.24,0 -3.32,-1.56 -1.04,-1.56 -1.04,-2.8 z m 5.16,0.16 q 0.72,0 1.4,-0.64 0.72,-0.64 0.72,-0.92 0,-0.2 -0.52,-0.2 -0.96,0 -1.56,0.4 -0.6,0.4 -0.6,0.92 0,0.44 0.56,0.44 z" />
    </g>
    <path
       style="fill:none;fill-rule:evenodd;stroke:#000000;stroke-width:5.80000019;stroke-linecap:butt;stroke-linejoin:miter;stroke-miterlimit:4;stroke-dasharray:none;stroke-opacity:1;marker-end:url(#marker16832)"
       d="m -608.39345,317.80348 c 7,2 142.9558,51.6408 142.9558,51.6408"
       id="path4740" />
    <g
       id="text4742"
       style="font-style:normal;font-weight:normal;font-size:16.25px;line-height:125%;font-family:sans-serif;letter-spacing:0px;word-spacing:0px;fill:#000000;fill-opacity:1;stroke:none;stroke-width:1px;stroke-linecap:butt;stroke-linejoin:miter;stroke-opacity:1">
      <path
         id="path18335"
         style="font-style:normal;font-variant:normal;font-weight:normal;font-stretch:normal;font-size:40px;font-family:Purisa;-inkscape-font-specification:Purisa"
         d="m -631.57052,41.955722 q -1.32,0 -2.76,0.32 -1.44,0.32 -1.88,0.32 -1,0 -1.72,-0.36 -0.68,-0.36 -0.68,-0.92 0,-0.68 0.88,-0.92 0.92,-0.28 4.8,-0.88 7.88,-1.2 15.08,-2.6 4.44,-0.84 5.76,-0.84 1.24,0 2.52,0.52 1.28,0.52 1.28,1.16 0,0.6 -1.04,1.04 -1.04,0.4 -2.76,0.4 -2.68,0 -5.72,0.72 l -3.08,0.72 0.6,3.36 q 0.44,3.12 1.04,11.96 0.64,8.8 0.76,9.84 0.12,1.04 0.12,1.56 0,1.24 -1.08,1.24 -1.04,0 -1.56,-2.6 -0.48,-2.6 -0.92,-10.2 -0.8,-12.96 -2.08,-14.32 -0.32,-0.32 -1.04,-0.32 -0.32,0 -2.76,0.4 -2.4,0.4 -3.76,0.4 z" />
      <path
         id="path18337"
         style="font-style:normal;font-variant:normal;font-weight:normal;font-stretch:normal;font-size:40px;font-family:Purisa;-inkscape-font-specification:Purisa"
         d="m -603.32927,63.315722 q 0,-3.2 -0.8,-12.88 -0.76,-9.72 -0.76,-13.4 0,-2.12 0.24,-2.56 0.48,-0.84 0.92,-0.84 0.72,0 0.92,1.4 0.24,1.4 0.64,7.08 0.32,4.56 0.56,7.64 l 0.36,4.72 0.72,-1.56 q 0.8,-1.8 3.92,-4.72 3.12,-2.92 4.2,-2.92 1,0 2.2,1.12 1.2,1.12 1.56,2.4 0.32,1.08 0.32,9.72 0,6.24 -0.12,7.4 -0.12,1.12 -0.76,1.12 -0.64,0 -0.84,-1.16 -0.16,-1.16 -0.32,-6.68 -0.24,-7.72 -0.96,-9.88 l -0.64,-2 -2.32,2.16 q -1.84,1.76 -3.4,4 -1.52,2.24 -2.08,3.96 -0.36,1.24 -0.6,3.96 -0.24,2.72 -0.6,4.48 -0.32,1.76 -0.96,1.76 -0.28,0 -0.68,-0.32 -0.72,-0.6 -0.72,-4 z" />
      <path
         id="path18339"
         style="font-style:normal;font-variant:normal;font-weight:normal;font-stretch:normal;font-size:40px;font-family:Purisa;-inkscape-font-specification:Purisa"
         d="m -562.9249,58.155722 q 0.2,0 0.2,0.32 0,0.72 -1.08,2.32 -1.04,1.6 -2.24,2.64 -4.2,3.72 -8.4,3.72 -1.6,0 -3.2,-0.72 -1.56,-0.76 -2.92,-2.12 -1.36,-1.36 -2.2,-3.64 -0.84,-2.28 -0.84,-5.08 0,-1.72 0.4,-2.92 0.8,-2.44 3.4,-5.16 2.64,-2.72 4.96,-2.72 0.64,0 1.92,0.12 1.92,0.16 2.68,0.4 0.8,0.24 1.8,1 1.28,0.96 2.2,2.48 0.96,1.48 0.96,2.48 0,1.28 -1,1.96 -1,0.64 -3.88,1.28 -3.72,0.84 -7.36,1.04 l -3.72,0.2 0,1.6 q 0,2.96 2.76,5.6 2.08,2 4.32,2 1.72,0 3.64,-1.04 1.96,-1.08 3.32,-2.36 1.36,-1.28 2.6,-2.32 1.24,-1.08 1.68,-1.08 z m -6.44,-9.76 q -1.24,-1.12 -1.88,-1.4 -0.6,-0.32 -1.6,-0.32 -2,0 -3,0.4 -0.96,0.36 -1.96,1.52 -3.04,3.48 -3.04,4.64 0,0.52 0.96,0.52 3.64,0 10.32,-1.52 2,-0.48 2,-1.68 0,-0.56 -1.8,-2.16 z" />
      <path
         id="path18341"
         style="font-style:normal;font-variant:normal;font-weight:normal;font-stretch:normal;font-size:40px;font-family:Purisa;-inkscape-font-specification:Purisa"
         d="m -525.93802,34.955722 q 1.28,0 3.12,-0.32 1.88,-0.36 3.08,-0.36 0.52,0 0.72,0.04 1.4,0.2 2,0.28 0.6,0.08 1.64,0.32 1.08,0.2 1.52,0.44 0.48,0.24 1.12,0.68 0.64,0.4 0.92,0.96 0.28,0.52 0.48,1.32 0.2,0.8 0.2,1.8 0,1.76 -0.48,3.68 -0.48,1.88 -0.96,1.88 -0.52,0 -0.52,0.76 0,0.92 -2.4,3.12 -2.4,2.2 -3.76,2.48 -1.64,0.44 -1.88,0.88 -0.28,0.52 -2.6,0.52 l -2.36,0 0.4,7.2 q 0.16,2.76 0.16,4.84 0,2.56 -0.44,3.2 -0.68,0.8 -1.16,0.8 -0.88,0 -1.12,-1.8 -0.4,-3.08 -1,-11.68 -0.6,-8.6 -0.6,-11.56 l 0,-4.28 -1.2,0.84 q -0.8,0.56 -1.4,0.56 -0.24,0 -0.52,-0.28 -0.24,-0.28 -0.24,-0.68 0,-1.12 2.28,-3.52 1.28,-1.36 1.92,-1.8 0.64,-0.44 1.32,-0.44 0.2,0 0.68,0.08 0.48,0.04 1.08,0.04 z m 8.72,3 q -2.08,-0.48 -2.92,-0.48 -0.8,0 -3.68,0.6 -2.12,0.44 -2.64,1.08 -0.52,0.64 -0.52,2.92 0,2.32 0.28,5.04 0.28,2.72 0.6,3.08 0.16,0.2 0.92,0.2 1.28,0 3.44,-0.56 2.16,-0.6 3.48,-1.32 0.8,-0.44 1.36,-1.04 0.56,-0.64 0.6,-1.12 0.12,-0.88 1.4,-2.56 1.32,-1.72 1.32,-2.8 0,-2.24 -3.64,-3.04 z" />
      <path
         id="path18343"
         style="font-style:normal;font-variant:normal;font-weight:normal;font-stretch:normal;font-size:40px;font-family:Purisa;-inkscape-font-specification:Purisa"
         d="m -492.5224,47.315722 q 0.68,0 1.2,0.44 0.52,0.4 0.52,0.68 0,0.48 -1.52,1.08 -2.48,1 -5.08,4.84 -2.56,3.8 -3.12,7.36 -0.64,4.04 -1.04,5.28 -0.4,1.28 -1.04,1.28 -0.56,0 -0.88,-0.4 -0.28,-0.4 -0.4,-0.88 -0.08,-0.48 -0.2,-1.76 -0.04,-0.24 -0.04,-0.36 -0.96,-10.08 -0.96,-15.92 0,-2.08 0.16,-2.56 0.44,-1.28 1.12,-1.28 0.64,0 0.64,1.08 0,1.8 0.56,5.8 0.56,4 0.84,4 0.36,0 1.48,-2.2 1.4,-2.6 3.72,-4.52 2.36,-1.96 4.04,-1.96 z" />
      <path
         id="path18345"
         style="font-style:normal;font-variant:normal;font-weight:normal;font-stretch:normal;font-size:40px;font-family:Purisa;-inkscape-font-specification:Purisa"
         d="m -481.94677,48.795722 q 3.12,-2.92 5.24,-3.84 2.16,-0.96 5.44,-0.96 4.96,0 6.2,2.96 0.76,1.76 0.76,4.32 0,4.24 -1.88,8.6 -1.88,4.32 -4.64,6 -2.68,1.64 -5.64,1.64 -4.12,0 -6.6,-2.84 -1.72,-2 -2.24,-3.36 -0.52,-1.4 -0.52,-3.96 0,-4.84 3.88,-8.56 z m 6.44,16.44 q 3.36,0 6.08,-4.6 2.76,-4.64 2.76,-10.48 0,-0.88 -0.2,-1.32 -0.2,-0.44 -0.72,-0.88 -1.48,-1.24 -3.16,-1.24 -0.28,0 -0.64,0.08 -0.32,0.04 -1.08,0.16 -0.76,0.08 -1.8,0.2 -1.4,0.2 -2.24,0.64 -0.8,0.4 -2.04,1.56 -2.36,2.24 -3.36,4.16 -1,1.88 -1,4.12 0,3.32 2.04,5.44 2.08,2.12 5.36,2.16 z" />
      <path
         id="path18347"
         style="font-style:normal;font-variant:normal;font-weight:normal;font-stretch:normal;font-size:40px;font-family:Purisa;-inkscape-font-specification:Purisa"
         d="m -450.33115,56.395722 q -1.6,-6.68 -1.6,-11.24 0,-0.64 0.16,-0.8 0.16,-0.16 0.6,-0.16 l 0.08,0 q 0.68,0 0.88,0.6 0.24,0.56 0.88,3.88 1.8,9.32 1.8,15.32 0,0.96 -0.08,3.12 -0.12,2.76 -0.28,4.24 -0.16,1.52 -0.48,2.68 -0.32,1.16 -1.04,1.6 -0.68,0.44 -1.6,0.64 -0.92,0.2 -2.56,0.2 -1.96,0 -3.24,-0.4 -1.28,-0.4 -1.28,-1 0,-0.44 -0.6,-0.68 -0.6,-0.16 -0.6,-2.44 0,-1.6 0.4,-2.6 0.4,-0.96 0.88,-0.96 0.92,0 0.96,2.56 0,1.8 0.32,2.28 0.2,0.28 1.56,0.52 1.4,0.24 2.72,0.24 1.2,0 1.52,-0.24 1.08,-0.76 1.08,-8.72 0,-6.72 -0.48,-8.64 z m -2.52,-20.08 q -0.48,-0.52 -0.48,-1.12 0,-0.6 0.48,-1.04 0.52,-0.44 0.88,-0.44 0.16,0 0.4,0.12 0.24,0.12 0.48,0.52 0.28,0.4 0.28,0.96 0,0.6 -0.24,1.08 -0.2,0.44 -0.56,0.44 -0.72,-0.04 -1.24,-0.52 z" />
      <path
         id="path18349"
         style="font-style:normal;font-variant:normal;font-weight:normal;font-stretch:normal;font-size:40px;font-family:Purisa;-inkscape-font-specification:Purisa"
         d="m -420.65927,58.155722 q 0.2,0 0.2,0.32 0,0.72 -1.08,2.32 -1.04,1.6 -2.24,2.64 -4.2,3.72 -8.4,3.72 -1.6,0 -3.2,-0.72 -1.56,-0.76 -2.92,-2.12 -1.36,-1.36 -2.2,-3.64 -0.84,-2.28 -0.84,-5.08 0,-1.72 0.4,-2.92 0.8,-2.44 3.4,-5.16 2.64,-2.72 4.96,-2.72 0.64,0 1.92,0.12 1.92,0.16 2.68,0.4 0.8,0.24 1.8,1 1.28,0.96 2.2,2.48 0.96,1.48 0.96,2.48 0,1.28 -1,1.96 -1,0.64 -3.88,1.28 -3.72,0.84 -7.36,1.04 l -3.72,0.2 0,1.6 q 0,2.96 2.76,5.6 2.08,2 4.32,2 1.72,0 3.64,-1.04 1.96,-1.08 3.32,-2.36 1.36,-1.28 2.6,-2.32 1.24,-1.08 1.68,-1.08 z m -6.44,-9.76 q -1.24,-1.12 -1.88,-1.4 -0.6,-0.32 -1.6,-0.32 -2,0 -3,0.4 -0.96,0.36 -1.96,1.52 -3.04,3.48 -3.04,4.64 0,0.52 0.96,0.52 3.64,0 10.32,-1.52 2,-0.48 2,-1.68 0,-0.56 -1.8,-2.16 z" />
      <path
         id="path18351"
         style="font-style:normal;font-variant:normal;font-weight:normal;font-stretch:normal;font-size:40px;font-family:Purisa;-inkscape-font-specification:Purisa"
         d="m -398.49177,50.675722 q 0,0.68 -0.32,1.12 -0.28,0.44 -0.68,0.44 -0.76,0 -0.96,-1.16 -0.08,-0.92 -1.32,-2.32 -0.52,-0.56 -0.84,-0.8 -0.32,-0.24 -1.52,-0.52 -1.16,-0.28 -3.08,-0.28 -1.56,0 -2.4,0.56 -0.8,0.56 -2,2.28 -2.88,4.08 -2.88,7.36 0,1.68 0.36,2.84 0.36,1.12 0.68,1.52 0.36,0.36 1.16,1.16 1.16,1.12 1.76,1.44 0.64,0.28 1.76,0.28 3.48,0 7.6,-4.72 2.16,-2.4 3.12,-2.4 0.52,0 0.52,0.76 0,0.72 -1.92,3.08 -1.88,2.36 -3.24,3.32 -3.16,2.28 -5.64,2.28 -1.8,0 -3.96,-1.08 -2.2,-1.08 -3.2,-2.92 -0.96,-1.84 -1.16,-5.36 -0.12,-1.36 -0.12,-2.16 0,-1.56 1.08,-3.56 1.12,-2.16 3.24,-4.16 2.16,-2 3.72,-2.44 1.2,-0.28 2.6,-0.28 3.04,0 5.32,1.96 2.32,1.92 2.32,3.76 z" />
      <path
         id="path18353"
         style="font-style:normal;font-variant:normal;font-weight:normal;font-stretch:normal;font-size:40px;font-family:Purisa;-inkscape-font-specification:Purisa"
         d="m -386.5974,38.955722 q 0,-1.48 -0.28,-3.76 -0.28,-2.28 -0.28,-3.8 0,-0.76 0.04,-1 0.12,-0.64 0.44,-1 0.36,-0.4 0.72,-0.4 0.48,0 0.68,0.44 0.12,0.28 0.36,2.96 0.24,2.68 0.44,5.24 0.2,2.56 0.28,2.64 0.04,0.04 0.12,0.04 0.32,0 1.84,-0.32 1.56,-0.36 2.56,-0.36 2,0 2,0.88 0,0.88 -4.4,1.96 l -2,0.48 0.24,6.76 q 0.2,5.96 0.76,11.16 0.56,5.16 0.56,5.84 0,1.24 -0.92,1.24 -0.72,0 -1.2,-1.28 -0.44,-1.28 -0.44,-3.32 0,-1.48 -0.12,-3 -0.12,-1.56 -0.44,-4.8 -0.28,-3.28 -0.56,-6.72 -0.12,-1.84 -0.2,-2.84 -0.04,-1 -0.12,-1.48 -0.08,-0.48 -0.12,-0.56 -0.04,-0.12 -0.16,-0.12 -0.64,0 -3.08,0.44 -2.44,0.44 -3.04,0.44 -1.16,0 -1.16,-0.96 0,-0.68 1.44,-1.16 1.48,-0.48 3.32,-0.84 1.84,-0.4 2.28,-0.68 0.44,-0.32 0.44,-2.12 z" />
      <path
         id="path18355"
         style="font-style:normal;font-variant:normal;font-weight:normal;font-stretch:normal;font-size:40px;font-family:Purisa;-inkscape-font-specification:Purisa"
         d="m -370.61615,43.955722 q 0.56,-0.48 0.96,-0.48 0.84,0 1.2,2.68 0.4,2.64 0.72,10.2 0.16,3.52 0.16,6.36 0,2.84 -0.24,3.12 -0.48,0.6 -1.2,0.6 -1,0 -1.24,-0.84 -0.2,-0.52 -0.6,-8.08 -0.4,-7.6 -0.4,-10.56 0,-2.48 0.64,-3 z m -0.24,-9.4 q 0,-0.56 0.44,-1.12 0.48,-0.56 0.84,-0.56 0.4,0 1.08,0.56 0.72,0.52 0.72,1.36 0,0.6 -0.36,1.04 -0.32,0.4 -0.88,0.4 -0.64,0 -1.24,-0.48 -0.6,-0.48 -0.6,-1.2 z" />
      <path
         id="path18357"
         style="font-style:normal;font-variant:normal;font-weight:normal;font-stretch:normal;font-size:40px;font-family:Purisa;-inkscape-font-specification:Purisa"
         d="m -357.9624,48.795722 q 3.12,-2.92 5.24,-3.84 2.16,-0.96 5.44,-0.96 4.96,0 6.2,2.96 0.76,1.76 0.76,4.32 0,4.24 -1.88,8.6 -1.88,4.32 -4.64,6 -2.68,1.64 -5.64,1.64 -4.12,0 -6.6,-2.84 -1.72,-2 -2.24,-3.36 -0.52,-1.4 -0.52,-3.96 0,-4.84 3.88,-8.56 z m 6.44,16.44 q 3.36,0 6.08,-4.6 2.76,-4.64 2.76,-10.48 0,-0.88 -0.2,-1.32 -0.2,-0.44 -0.72,-0.88 -1.48,-1.24 -3.16,-1.24 -0.28,0 -0.64,0.08 -0.32,0.04 -1.08,0.16 -0.76,0.08 -1.8,0.2 -1.4,0.2 -2.24,0.64 -0.8,0.4 -2.04,1.56 -2.36,2.24 -3.36,4.16 -1,1.88 -1,4.12 0,3.32 2.04,5.44 2.08,2.12 5.36,2.16 z" />
      <path
         id="path18359"
         style="font-style:normal;font-variant:normal;font-weight:normal;font-stretch:normal;font-size:40px;font-family:Purisa;-inkscape-font-specification:Purisa"
         d="m -333.02677,45.115722 q 0,-1.36 0.8,-1.36 0.52,0 0.76,1.2 0.24,1.16 0.88,6.96 0.8,6.48 0.84,6.56 0.04,0.04 0.32,-0.76 0.32,-0.84 0.84,-2.48 0.8,-2.64 1.36,-3.8 0.56,-1.2 2,-3.28 2.92,-4.04 4.52,-4.04 1.04,0 1.96,1.4 1.24,1.84 1.52,3.64 0.28,1.8 0.4,8.52 0.08,4.32 0.08,5.12 0,2 -0.16,2.92 -0.12,0.88 -0.4,1.08 -0.24,0.24 -0.88,0.28 -0.36,0 -0.48,-0.32 -0.12,-0.28 -0.12,-1.36 0,-0.6 0.08,-2.56 0.08,-2 0.08,-3.36 0,-3.4 -0.28,-6.64 -0.24,-3.28 -0.6,-4.2 -0.2,-0.52 -0.64,-1.08 -0.44,-0.56 -0.84,-0.56 -0.84,0 -2.68,2.88 -1.84,2.84 -3.16,6 -1.24,2.88 -1.68,4.44 -0.4,1.52 -0.68,4.16 -0.44,4.08 -0.64,4.08 -0.32,0 -0.92,-0.68 -0.44,-0.44 -0.6,-1.88 -0.16,-1.48 -0.44,-5.8 -0.28,-4.36 -0.76,-8.8 -0.48,-4.6 -0.48,-6.28 z" />
    </g>
    <path
       id="path4746"
       d="m -472.28775,24.341576 c 21.5417,-76.525002 90.4485,-126.734006 202.6602,-52.363302"
       style="fill:none;fill-rule:evenodd;stroke:#000000;stroke-width:5.80000019;stroke-linecap:butt;stroke-linejoin:miter;stroke-miterlimit:4;stroke-dasharray:none;stroke-opacity:1;marker-end:url(#marker17490)" />
    <path
       style="fill:none;fill-rule:evenodd;stroke:#000000;stroke-width:5.80000019;stroke-linecap:butt;stroke-linejoin:miter;stroke-miterlimit:4;stroke-dasharray:none;stroke-opacity:1;marker-end:url(#marker4780)"
       d="m 192.34225,38.285176 c 157.36877,-133.247401 399.42147,-93.031702 425.38267,82.776904 12.9806,87.9042 7.551,200.4467 -56.6918,297.3762 -64.2428,96.9293 -159.9616,79.0641 -158.7284,-32.501 1.2332,-111.5651 109.9807,-132.5716 181.4519,-24.7827 71.4712,107.7889 103.6652,227.5803 97.6363,330.608 -12.0577,206.05542 -238.1745,191.5429 -566.59147,149.4385"
       id="path4748" />
    <g
       id="text4750"
       style="font-style:normal;font-weight:normal;font-size:16.25px;line-height:125%;font-family:sans-serif;letter-spacing:0px;word-spacing:0px;fill:#000000;fill-opacity:1;stroke:none;stroke-width:1px;stroke-linecap:butt;stroke-linejoin:miter;stroke-opacity:1">
      <path
         id="path18362"
         style="font-style:normal;font-variant:normal;font-weight:normal;font-stretch:normal;font-size:40px;font-family:Purisa;-inkscape-font-specification:Purisa"
         d="m 200.55835,73.705234 q -1.32,0 -2.76,0.32 -1.44,0.32 -1.88,0.32 -1,0 -1.72,-0.36 -0.68,-0.36 -0.68,-0.92 0,-0.68 0.88,-0.92 0.92,-0.28 4.8,-0.88 7.88,-1.2 15.08,-2.6 4.44,-0.84 5.76,-0.84 1.24,0 2.52,0.52 1.28,0.52 1.28,1.16 0,0.6 -1.04,1.04 -1.04,0.4 -2.76,0.4 -2.68,0 -5.72,0.72 l -3.08,0.72 0.6,3.36 q 0.44,3.12 1.04,11.96 0.64,8.8 0.76,9.84 0.12,1.04 0.12,1.56 0,1.239996 -1.08,1.239996 -1.04,0 -1.56,-2.599996 -0.48,-2.6 -0.92,-10.2 -0.8,-12.96 -2.08,-14.32 -0.32,-0.32 -1.04,-0.32 -0.32,0 -2.76,0.4 -2.4,0.4 -3.76,0.4 z" />
      <path
         id="path18364"
         style="font-style:normal;font-variant:normal;font-weight:normal;font-stretch:normal;font-size:40px;font-family:Purisa;-inkscape-font-specification:Purisa"
         d="m 228.7996,95.065234 q 0,-3.2 -0.8,-12.88 -0.76,-9.72 -0.76,-13.4 0,-2.12 0.24,-2.56 0.48,-0.84 0.92,-0.84 0.72,0 0.92,1.4 0.24,1.4 0.64,7.08 0.32,4.56 0.56,7.64 l 0.36,4.72 0.72,-1.56 q 0.8,-1.8 3.92,-4.72 3.12,-2.92 4.2,-2.92 1,0 2.2,1.12 1.2,1.12 1.56,2.4 0.32,1.08 0.32,9.72 0,6.24 -0.12,7.4 -0.12,1.12 -0.76,1.12 -0.64,0 -0.84,-1.16 -0.16,-1.16 -0.32,-6.68 -0.24,-7.72 -0.96,-9.88 l -0.64,-2 -2.32,2.16 q -1.84,1.76 -3.4,4 -1.52,2.24 -2.08,3.96 -0.36,1.24 -0.6,3.96 -0.24,2.72 -0.6,4.48 -0.32,1.76 -0.96,1.76 -0.28,0 -0.68,-0.32 -0.72,-0.6 -0.72,-4 z" />
      <path
         id="path18366"
         style="font-style:normal;font-variant:normal;font-weight:normal;font-stretch:normal;font-size:40px;font-family:Purisa;-inkscape-font-specification:Purisa"
         d="m 269.20398,89.905234 q 0.2,0 0.2,0.32 0,0.72 -1.08,2.32 -1.04,1.6 -2.24,2.64 -4.2,3.72 -8.4,3.72 -1.6,0 -3.2,-0.72 -1.56,-0.76 -2.92,-2.12 -1.36,-1.36 -2.2,-3.64 -0.84,-2.28 -0.84,-5.08 0,-1.72 0.4,-2.92 0.8,-2.44 3.4,-5.16 2.64,-2.72 4.96,-2.72 0.64,0 1.92,0.12 1.92,0.16 2.68,0.4 0.8,0.24 1.8,1 1.28,0.96 2.2,2.48 0.96,1.48 0.96,2.48 0,1.28 -1,1.96 -1,0.64 -3.88,1.28 -3.72,0.84 -7.36,1.04 l -3.72,0.2 0,1.6 q 0,2.96 2.76,5.6 2.08,2 4.32,2 1.72,0 3.64,-1.04 1.96,-1.08 3.32,-2.36 1.36,-1.28 2.6,-2.32 1.24,-1.08 1.68,-1.08 z m -6.44,-9.76 q -1.24,-1.12 -1.88,-1.4 -0.6,-0.32 -1.6,-0.32 -2,0 -3,0.4 -0.96,0.36 -1.96,1.52 -3.04,3.48 -3.04,4.64 0,0.52 0.96,0.52 3.64,0 10.32,-1.52 2,-0.48 2,-1.68 0,-0.56 -1.8,-2.16 z" />
      <path
         id="path18368"
         style="font-style:normal;font-variant:normal;font-weight:normal;font-stretch:normal;font-size:40px;font-family:Purisa;-inkscape-font-specification:Purisa"
         d="m 301.59085,75.705234 q 0.56,-0.48 0.96,-0.48 0.84,0 1.2,2.68 0.4,2.64 0.72,10.2 0.16,3.52 0.16,6.36 0,2.84 -0.24,3.12 -0.48,0.6 -1.2,0.6 -1,0 -1.24,-0.84 -0.2,-0.52 -0.6,-8.08 -0.4,-7.6 -0.4,-10.56 0,-2.48 0.64,-3 z m -0.24,-9.4 q 0,-0.56 0.44,-1.12 0.48,-0.56 0.84,-0.56 0.4,0 1.08,0.56 0.72,0.52 0.72,1.36 0,0.6 -0.36,1.04 -0.32,0.4 -0.88,0.4 -0.64,0 -1.24,-0.48 -0.6,-0.48 -0.6,-1.2 z" />
      <path
         id="path18370"
         style="font-style:normal;font-variant:normal;font-weight:normal;font-stretch:normal;font-size:40px;font-family:Purisa;-inkscape-font-specification:Purisa"
         d="m 313.8846,78.385234 q 0,-2.32 0.64,-2.32 0.52,0 1.12,3.64 0.64,3.64 0.88,3.64 0.08,0 0.28,-0.48 0.2,-0.52 0.44,-1.12 0.24,-0.64 0.4,-0.8 0.4,-0.52 1.08,-1.96 0.84,-1.72 1.28,-2.08 0.44,-0.4 1.56,-0.4 1.24,0 2.72,1.72 0.96,1.12 1.28,2.08 0.36,0.92 0.76,3.36 l 0.64,3.76 0.68,-2.4 q 1,-3.48 2.88,-6 1.88,-2.52 3.48,-2.52 1,0 1.84,1.16 0.84,1.12 1.2,2.88 0.36,1.64 0.36,7.24 0,4.2 -0.04,6.48 -0.04,2.28 -0.2,3.32 -0.12,1 -0.24,1.16 -0.12,0.2 -0.44,0.24 -0.12,0.04 -0.28,0.04 -0.36,0 -0.44,-1.12 -0.08,-1.12 -0.12,-6.28 0,-12.6 -1.92,-12.6 -1.04,0 -2.72,3.44 -1.4,2.84 -2.36,6.92 -0.96,4.08 -1.16,8.24 -0.04,1 -0.24,1.36 -0.16,0.36 -0.56,0.36 -0.48,0 -0.64,-0.84 -0.12,-0.8 -0.28,-4.32 -0.28,-6.48 -0.8,-9.08 -0.52,-2.64 -1.92,-4.76 -1.04,-1.48 -1.52,-1.48 -0.56,0 -1.24,1.4 -0.68,1.36 -2.24,5.24 -0.72,1.88 -0.72,3.44 0,0.92 -0.36,2.04 -0.32,1.08 -0.44,5.4 -0.08,4.039996 -0.32,4.599996 -0.16,0.48 -0.64,0.48 -0.64,0 -0.88,-1.919996 -0.2,-1.92 -0.2,-7.68 0,-4.64 -0.32,-8.52 -0.28,-3.88 -0.28,-4.96 z" />
      <path
         id="path18372"
         style="font-style:normal;font-variant:normal;font-weight:normal;font-stretch:normal;font-size:40px;font-family:Purisa;-inkscape-font-specification:Purisa"
         d="m 356.3546,78.585234 q -1.84,0 -3.92,0.76 -2.04,0.76 -3.64,1.56 -1.6,0.76 -2.32,0.76 -0.48,0 -0.48,-0.4 0,-0.56 0.24,-0.96 0.24,-0.4 0.88,-0.76 0.64,-0.36 1.2,-0.6 0.6,-0.24 1.88,-0.68 1.28,-0.48 2.2,-0.88 2.16,-0.84 3.64,-0.84 2.64,0 4.12,2.88 0.72,1.4 0.84,2.6 0.12,1.16 0.2,6.6 0.04,3.04 0.12,5.12 0.08,2.04 0.16,2.6 l 0.08,0.52 q 0,0.56 -0.52,1.2 -0.48,0.64 -0.72,0.64 -0.8,0 -1.24,-2.52 -0.44,-2.56 -0.48,-2.56 -0.12,0 -0.36,0.44 -0.8,1.32 -3.24,2.92 -2.4,1.56 -4.04,1.56 -1,0 -2.36,-0.36 -1.32,-0.4 -1.92,-0.84 -0.44,-0.36 -0.76,-1.44 -0.28,-1.08 -0.28,-2.2 0,-1.68 0.88,-2.88 0.92,-1.24 3.24,-2.52 2.52,-1.48 4.88,-1.48 0.96,0 1.6,0.32 0.64,0.32 0.96,0.68 0.32,0.32 0.52,0.32 0.2,0 0.76,0.44 0.6,0.4 0.64,0.4 0.16,0 0.16,-0.88 0,-5.36 -0.76,-7.44 -0.72,-2.08 -2.16,-2.08 z m 1.8,12.4 q 0,-0.16 -0.12,-0.36 -0.08,-0.24 -0.4,-0.52 -0.28,-0.32 -0.76,-0.56 -0.44,-0.28 -1.24,-0.44 -0.8,-0.2 -1.8,-0.2 -1.72,0 -3.04,0.6 -1.28,0.6 -1.92,1.52 -0.64,0.92 -0.96,1.72 -0.28,0.76 -0.28,1.36 0,1 0.16,1.36 0.2,0.36 0.92,0.76 0.88,0.44 1.6,0.44 1.36,0 3.36,-0.96 2.04,-1 2.04,-1.44 0,-0.32 1.2,-1.52 1.24,-1.24 1.24,-1.76 z" />
      <path
         id="path18374"
         style="font-style:normal;font-variant:normal;font-weight:normal;font-stretch:normal;font-size:40px;font-family:Purisa;-inkscape-font-specification:Purisa"
         d="m 384.62023,106.06523 q 0.36,0 0.64,-0.08 0.32,-0.04 0.52,-0.16 0.2,-0.12 0.36,-0.24 0.16,-0.12 0.24,-0.32 0.08,-0.16 0.12,-0.32 0.08,-0.12 0.08,-0.32 0,-0.16 0,-0.28 0,-0.08 0,-0.2 l 0,-0.12 q 0,-3.84 -0.52,-7.279996 l -0.56,-3.48 q -0.28,-4.08 -0.56,-4.08 -0.16,0 -0.6,0.72 -1,1.48 -3.24,3.32 -2.24,1.84 -3.72,2.4 -1.68,0.68 -3.8,0.68 -1.28,0 -2.04,-0.32 -0.72,-0.32 -1.92,-1.36 -1.16,-1.04 -1.64,-1.84 -0.48,-0.8 -0.76,-2.28 -0.28,-1.48 -0.28,-2.52 0,-0.76 0.12,-1.12 0.28,-1.08 1.48,-3.36 1.2,-2.28 2.2,-3.56 0.84,-1.12 3.12,-2.6 2.32,-1.52 4.08,-2.08 1.84,-0.6 4.2,-0.6 2.96,0 4.92,1.04 1.96,1 1.96,3.12 0,1.2 -0.6,2.96 -0.56,1.76 -0.56,3.08 0,1.44 0.92,13.24 l 0.6,8.279996 -1.4,1.12 q -1.12,0.92 -2.28,0.92 -2.12,0 -5.16,-1.08 -3.04,-1.04 -5.24,-2.44 -2.2,-1.36 -2.2,-2.24 0,-1.04 1.08,-2.56 1.12,-1.519996 1.88,-1.519996 0.88,0 0.88,0.6 0,0.36 -0.36,1.079996 -0.36,0.72 -0.36,1.4 0,1.12 1.48,1.96 1.48,0.84 2.52,0.84 0.6,0 1.96,0.8 1.4,0.8 2.44,0.8 z m -15.2,-18.159996 q 0,2.32 1.2,4.24 1.2,1.92 3,1.92 2.44,0 5.24,-2.2 2.84,-2.24 4.6,-5.56 0.96,-1.88 1.64,-4.28 0.72,-2.44 0.72,-3.84 0,-0.8 -0.28,-0.96 -0.88,-0.48 -2.92,-0.48 -1.84,0 -3.16,0.4 -3.48,1 -6.76,4.68 -3.28,3.68 -3.28,6.08 z" />
      <path
         id="path18376"
         style="font-style:normal;font-variant:normal;font-weight:normal;font-stretch:normal;font-size:40px;font-family:Purisa;-inkscape-font-specification:Purisa"
         d="m 414.98523,89.905234 q 0.2,0 0.2,0.32 0,0.72 -1.08,2.32 -1.04,1.6 -2.24,2.64 -4.2,3.72 -8.4,3.72 -1.6,0 -3.2,-0.72 -1.56,-0.76 -2.92,-2.12 -1.36,-1.36 -2.2,-3.64 -0.84,-2.28 -0.84,-5.08 0,-1.72 0.4,-2.92 0.8,-2.44 3.4,-5.16 2.64,-2.72 4.96,-2.72 0.64,0 1.92,0.12 1.92,0.16 2.68,0.4 0.8,0.24 1.8,1 1.28,0.96 2.2,2.48 0.96,1.48 0.96,2.48 0,1.28 -1,1.96 -1,0.64 -3.88,1.28 -3.72,0.84 -7.36,1.04 l -3.72,0.2 0,1.6 q 0,2.96 2.76,5.6 2.08,2 4.32,2 1.72,0 3.64,-1.04 1.96,-1.08 3.32,-2.36 1.36,-1.28 2.6,-2.32 1.24,-1.08 1.68,-1.08 z m -6.44,-9.76 q -1.24,-1.12 -1.88,-1.4 -0.6,-0.32 -1.6,-0.32 -2,0 -3,0.4 -0.96,0.36 -1.96,1.52 -3.04,3.48 -3.04,4.64 0,0.52 0.96,0.52 3.64,0 10.32,-1.52 2,-0.48 2,-1.68 0,-0.56 -1.8,-2.16 z" />
      <path
         id="path18378"
         style="font-style:normal;font-variant:normal;font-weight:normal;font-stretch:normal;font-size:40px;font-family:Purisa;-inkscape-font-specification:Purisa"
         d="m 447.3721,75.705234 q 0.56,-0.48 0.96,-0.48 0.84,0 1.2,2.68 0.4,2.64 0.72,10.2 0.16,3.52 0.16,6.36 0,2.84 -0.24,3.12 -0.48,0.6 -1.2,0.6 -1,0 -1.24,-0.84 -0.2,-0.52 -0.6,-8.08 -0.4,-7.6 -0.4,-10.56 0,-2.48 0.64,-3 z m -0.24,-9.4 q 0,-0.56 0.44,-1.12 0.48,-0.56 0.84,-0.56 0.4,0 1.08,0.56 0.72,0.52 0.72,1.36 0,0.6 -0.36,1.04 -0.32,0.4 -0.88,0.4 -0.64,0 -1.24,-0.48 -0.6,-0.48 -0.6,-1.2 z" />
      <path
         id="path18380"
         style="font-style:normal;font-variant:normal;font-weight:normal;font-stretch:normal;font-size:40px;font-family:Purisa;-inkscape-font-specification:Purisa"
         d="m 461.14585,89.105234 q -0.6,0 -2.56,-1.44 -1.96,-1.48 -1.96,-3 0,-1.44 2.04,-3.96 2.04,-2.56 4.92,-3.28 1.32,-0.36 3.48,-0.36 0.92,0 1.36,0.24 0.44,0.24 1.2,1.08 1.24,1.4 1.24,1.92 0,0.48 -0.52,0.48 -0.64,0 -1.08,-0.44 -0.44,-0.48 -1.08,-0.96 -0.64,-0.48 -1.72,-0.48 -1.4,0 -3,0.76 -1.6,0.76 -2.84,2.12 -1.76,1.88 -1.76,2.56 0,0.68 1.04,1.64 1.04,0.92 3.48,1.76 3.84,1.32 5.2,2.48 1.36,1.16 1.36,3.12 0,1.84 -0.64,3.36 -0.44,1.16 -1.88,2.6 -1.44,1.439996 -2.84,1.439996 -1.08,0 -2.8,-0.36 -1.72,-0.32 -2.6,-0.759996 -0.72,-0.36 -1.32,-1.4 -0.6,-1.08 -0.6,-1.92 0,-0.44 0.2,-0.76 0.24,-0.36 0.56,-0.36 0.6,0 1.12,1.12 0.48,1 1.92,1.8 1.48,0.8 2.76,0.8 1.72,0 3.04,-2.04 1.32,-2.08 1.32,-3.24 0,-0.28 -0.16,-0.68 -0.12,-0.44 -0.68,-1.04 -0.56,-0.6 -1.44,-0.92 -0.84,-0.28 -1.96,-0.76 -1.12,-0.48 -1.88,-0.8 -0.72,-0.32 -0.92,-0.32 z" />
      <path
         id="path18382"
         style="font-style:normal;font-variant:normal;font-weight:normal;font-stretch:normal;font-size:40px;font-family:Purisa;-inkscape-font-specification:Purisa"
         d="m 200.63835,130.50523 q -0.48,0 -2.04,0.44 -1.52,0.4 -2.44,0.4 -1.76,0 -1.76,-1.12 0,-0.44 0.64,-0.8 0.68,-0.36 2.6,-0.92 l 3.24,-0.96 0.08,-3.48 q 0.08,-3.72 0.56,-8.2 0.36,-3.32 0.64,-4.2 0.28,-0.88 1.24,-1.84 0.8,-0.8 1.28,-1.04 0.52,-0.24 1.44,-0.24 0.68,0 2.88,0.2 1.68,0.16 2.4,0.48 0.72,0.28 1.64,1.2 1.36,1.36 1.36,2.48 0,0.8 -0.64,1.68 -0.6,0.84 -0.92,0.84 -0.48,0 -0.48,-1.36 0,-1.28 -0.72,-1.96 -0.68,-0.72 -2.68,-1.36 -1.32,-0.4 -2.04,-0.4 -1.72,0 -2.68,2 -0.36,0.8 -0.68,4.6 -0.28,3.76 -0.28,6.92 0,2.28 0.16,2.88 0.2,0.56 1,0.56 0.48,0 2,-0.28 1.52,-0.28 2.52,-0.28 0.56,0 0.92,0.2 0.36,0.16 0.36,0.4 0,0.68 -3.44,1.72 l -3.44,1 -0.12,6.36 q 0,0.48 -0.04,1.32 0,0.8 0,1.12 0,3 0.28,4.64 0.28,1.64 0.56,2.36 0.28,0.72 0.28,1.56 0,1.2 -1.12,1.2 -2.12,0 -2.12,-11.16 0,-6.68 -0.24,-6.92 -0.04,-0.04 -0.2,-0.04 z m 20.16,-8.32 q -0.24,-2.56 -0.24,-5.64 0,-3.08 0.16,-4.68 0.16,-1.64 0.4,-2.08 0.24,-0.44 0.68,-0.44 0.4,0 0.64,0.36 0.24,0.4 1.44,18.52 1.24,18.12 1.24,18.84 0,0.52 -0.24,0.72 -0.24,0.16 -0.8,0.16 -0.96,0 -1.24,-1.36 -0.28,-1.4 -0.8,-8.68 -0.64,-8.8 -1.24,-15.72 z" />
      <path
         id="path18384"
         style="font-style:normal;font-variant:normal;font-weight:normal;font-stretch:normal;font-size:40px;font-family:Purisa;-inkscape-font-specification:Purisa"
         d="m 233.23148,125.70523 q 0.56,-0.48 0.96,-0.48 0.84,0 1.2,2.68 0.4,2.64 0.72,10.2 0.16,3.52 0.16,6.36 0,2.84 -0.24,3.12 -0.48,0.6 -1.2,0.6 -1,0 -1.24,-0.84 -0.2,-0.52 -0.6,-8.08 -0.4,-7.6 -0.4,-10.56 0,-2.48 0.64,-3 z m -0.24,-9.4 q 0,-0.56 0.44,-1.12 0.48,-0.56 0.84,-0.56 0.4,0 1.08,0.56 0.72,0.52 0.72,1.36 0,0.6 -0.36,1.04 -0.32,0.4 -0.88,0.4 -0.64,0 -1.24,-0.48 -0.6,-0.48 -0.6,-1.2 z" />
      <path
         id="path18386"
         style="font-style:normal;font-variant:normal;font-weight:normal;font-stretch:normal;font-size:40px;font-family:Purisa;-inkscape-font-specification:Purisa"
         d="m 243.28523,129.74523 q 1.12,-1 1.12,-1.72 0,-0.72 0.44,-1.72 0.48,-1.04 1.36,-1.04 0.56,0 0.96,0.64 0.44,0.6 0.92,0.6 0.36,0 2.96,-0.6 2.6,-0.64 4.56,-0.64 1.64,0 3.64,0.44 4.16,0.96 4.16,5.16 0,3.2 -2.48,8.52 -1.64,3.52 -4,5.44 -2.36,1.88 -5.04,1.88 -0.76,0 -1.16,-0.08 l -1.84,-0.28 0.44,2.16 q 1.44,6.8 1.44,8.52 0,0.8 -0.28,1.04 -0.28,0.28 -0.96,0.28 -0.72,0 -1.04,-0.36 -0.28,-0.32 -0.6,-1.4 -1.56,-5.6 -2.52,-16.72 -0.44,-5.48 -0.76,-6.68 -0.28,-1.24 -1.16,-1.24 -1.28,0 -1.28,-0.76 0,-0.44 1.12,-1.44 z m 5.96,13.28 q 0.6,0 1.4,0.52 0.8,0.48 1.36,0.48 1.6,0 3.68,-2.04 2.08,-2.08 3.52,-5 1.48,-2.92 1.48,-5.2 0,-1.24 -0.56,-2.24 -0.52,-1 -0.92,-1.12 -0.68,-0.28 -2.36,-0.28 -3.72,0 -6.6,0.92 l -2.68,0.88 0.08,2.56 q 0.08,2.56 0.44,6.52 0.2,2.36 0.44,3.16 0.24,0.8 0.72,0.84 z" />
      <path
         id="path18388"
         style="font-style:normal;font-variant:normal;font-weight:normal;font-stretch:normal;font-size:40px;font-family:Purisa;-inkscape-font-specification:Purisa"
         d="m 269.4571,129.74523 q 1.12,-1 1.12,-1.72 0,-0.72 0.44,-1.72 0.48,-1.04 1.36,-1.04 0.56,0 0.96,0.64 0.44,0.6 0.92,0.6 0.36,0 2.96,-0.6 2.6,-0.64 4.56,-0.64 1.64,0 3.64,0.44 4.16,0.96 4.16,5.16 0,3.2 -2.48,8.52 -1.64,3.52 -4,5.44 -2.36,1.88 -5.04,1.88 -0.76,0 -1.16,-0.08 l -1.84,-0.28 0.44,2.16 q 1.44,6.8 1.44,8.52 0,0.8 -0.28,1.04 -0.28,0.28 -0.96,0.28 -0.72,0 -1.04,-0.36 -0.28,-0.32 -0.6,-1.4 -1.56,-5.6 -2.52,-16.72 -0.44,-5.48 -0.76,-6.68 -0.28,-1.24 -1.16,-1.24 -1.28,0 -1.28,-0.76 0,-0.44 1.12,-1.44 z m 5.96,13.28 q 0.6,0 1.4,0.52 0.8,0.48 1.36,0.48 1.6,0 3.68,-2.04 2.08,-2.08 3.52,-5 1.48,-2.92 1.48,-5.2 0,-1.24 -0.56,-2.24 -0.52,-1 -0.92,-1.12 -0.68,-0.28 -2.36,-0.28 -3.72,0 -6.6,0.92 l -2.68,0.88 0.08,2.56 q 0.08,2.56 0.44,6.52 0.2,2.36 0.44,3.16 0.24,0.8 0.72,0.84 z" />
      <path
         id="path18390"
         style="font-style:normal;font-variant:normal;font-weight:normal;font-stretch:normal;font-size:40px;font-family:Purisa;-inkscape-font-specification:Purisa"
         d="m 314.82898,139.90523 q 0.2,0 0.2,0.32 0,0.72 -1.08,2.32 -1.04,1.6 -2.24,2.64 -4.2,3.72 -8.4,3.72 -1.6,0 -3.2,-0.72 -1.56,-0.76 -2.92,-2.12 -1.36,-1.36 -2.2,-3.64 -0.84,-2.28 -0.84,-5.08 0,-1.72 0.4,-2.92 0.8,-2.44 3.4,-5.16 2.64,-2.72 4.96,-2.72 0.64,0 1.92,0.12 1.92,0.16 2.68,0.4 0.8,0.24 1.8,1 1.28,0.96 2.2,2.48 0.96,1.48 0.96,2.48 0,1.28 -1,1.96 -1,0.64 -3.88,1.28 -3.72,0.84 -7.36,1.04 l -3.72,0.2 0,1.6 q 0,2.96 2.76,5.6 2.08,2 4.32,2 1.72,0 3.64,-1.04 1.96,-1.08 3.32,-2.36 1.36,-1.28 2.6,-2.32 1.24,-1.08 1.68,-1.08 z m -6.44,-9.76 q -1.24,-1.12 -1.88,-1.4 -0.6,-0.32 -1.6,-0.32 -2,0 -3,0.4 -0.96,0.36 -1.96,1.52 -3.04,3.48 -3.04,4.64 0,0.52 0.96,0.52 3.64,0 10.32,-1.52 2,-0.48 2,-1.68 0,-0.56 -1.8,-2.16 z" />
      <path
         id="path18392"
         style="font-style:normal;font-variant:normal;font-weight:normal;font-stretch:normal;font-size:40px;font-family:Purisa;-inkscape-font-specification:Purisa"
         d="m 342.43648,148.90523 q 0,0.88 -0.36,1.36 -0.32,0.52 -0.6,0.6 -0.24,0.12 -0.44,0.12 -0.52,0 -0.88,-0.36 -0.36,-0.32 -0.56,-1.2 -0.2,-0.84 -0.28,-1.28 -0.04,-0.44 -0.16,-1.64 -0.28,-4.04 -0.64,-4.04 -0.44,0 -1.4,1.16 -4.48,5.28 -9.44,5.28 -1.48,0 -2.96,-0.56 -5.12,-1.92 -5.12,-7.84 0,-2.56 0.84,-4.88 0.88,-2.36 2.2,-3.96 1.36,-1.6 2.72,-2.68 1.36,-1.08 2.6,-1.52 1.56,-0.6 2.16,-0.6 1.04,0 3.48,1.36 2.48,1.36 3.44,2.64 1.08,1.44 1.64,1.44 0.04,0 0.04,0 0,-0.04 0.04,-0.04 0.44,-0.28 0.44,-10.44 0,-10.04 0.48,-11.4 0.52,-1.24 1.56,-1.24 l 1.08,0 -0.32,16.44 q -0.12,6.12 -0.12,10.92 0,6.52 0.28,9.32 0.28,2.8 0.28,3.04 z m -9.36,-17.72 q -2.36,-1.56 -3.28,-1.56 -0.8,0 -3.6,2.72 -2.8,2.72 -3.32,4 -0.4,0.96 -0.4,3.48 0,3.08 0.52,4 0.4,0.72 1.92,1.56 1.56,0.84 3.08,0.84 2.72,0 6.88,-4 3.28,-3.16 3.28,-4.12 0,-1.32 -1.68,-3.52 -1.64,-2.2 -3.4,-3.4 z" />
      <path
         id="path18394"
         style="font-style:normal;font-variant:normal;font-weight:normal;font-stretch:normal;font-size:40px;font-family:Purisa;-inkscape-font-specification:Purisa"
         d="m 385.7296,128.58523 q -1.84,0 -3.92,0.76 -2.04,0.76 -3.64,1.56 -1.6,0.76 -2.32,0.76 -0.48,0 -0.48,-0.4 0,-0.56 0.24,-0.96 0.24,-0.4 0.88,-0.76 0.64,-0.36 1.2,-0.6 0.6,-0.24 1.88,-0.68 1.28,-0.48 2.2,-0.88 2.16,-0.84 3.64,-0.84 2.64,0 4.12,2.88 0.72,1.4 0.84,2.6 0.12,1.16 0.2,6.6 0.04,3.04 0.12,5.12 0.08,2.04 0.16,2.6 l 0.08,0.52 q 0,0.56 -0.52,1.2 -0.48,0.64 -0.72,0.64 -0.8,0 -1.24,-2.52 -0.44,-2.56 -0.48,-2.56 -0.12,0 -0.36,0.44 -0.8,1.32 -3.24,2.92 -2.4,1.56 -4.04,1.56 -1,0 -2.36,-0.36 -1.32,-0.4 -1.92,-0.84 -0.44,-0.36 -0.76,-1.44 -0.28,-1.08 -0.28,-2.2 0,-1.68 0.88,-2.88 0.92,-1.24 3.24,-2.52 2.52,-1.48 4.88,-1.48 0.96,0 1.6,0.32 0.64,0.32 0.96,0.68 0.32,0.32 0.52,0.32 0.2,0 0.76,0.44 0.6,0.4 0.64,0.4 0.16,0 0.16,-0.88 0,-5.36 -0.76,-7.44 -0.72,-2.08 -2.16,-2.08 z m 1.8,12.4 q 0,-0.16 -0.12,-0.36 -0.08,-0.24 -0.4,-0.52 -0.28,-0.32 -0.76,-0.56 -0.44,-0.28 -1.24,-0.44 -0.8,-0.2 -1.8,-0.2 -1.72,0 -3.04,0.6 -1.28,0.6 -1.92,1.52 -0.64,0.92 -0.96,1.72 -0.28,0.76 -0.28,1.36 0,1 0.16,1.36 0.2,0.36 0.92,0.76 0.88,0.44 1.6,0.44 1.36,0 3.36,-0.96 2.04,-1 2.04,-1.44 0,-0.32 1.2,-1.52 1.24,-1.24 1.24,-1.76 z" />
      <path
         id="path18396"
         style="font-style:normal;font-variant:normal;font-weight:normal;font-stretch:normal;font-size:40px;font-family:Purisa;-inkscape-font-specification:Purisa"
         d="m 410.07523,129.06523 q 0.68,0 1.2,0.44 0.52,0.4 0.52,0.68 0,0.48 -1.52,1.08 -2.48,1 -5.08,4.84 -2.56,3.8 -3.12,7.36 -0.64,4.04 -1.04,5.28 -0.4,1.28 -1.04,1.28 -0.56,0 -0.88,-0.4 -0.28,-0.4 -0.4,-0.88 -0.08,-0.48 -0.2,-1.76 -0.04,-0.24 -0.04,-0.36 -0.96,-10.08 -0.96,-15.92 0,-2.08 0.16,-2.56 0.44,-1.28 1.12,-1.28 0.64,0 0.64,1.08 0,1.8 0.56,5.8 0.56,4 0.84,4 0.36,0 1.48,-2.2 1.4,-2.6 3.72,-4.52 2.36,-1.96 4.04,-1.96 z" />
      <path
         id="path18398"
         style="font-style:normal;font-variant:normal;font-weight:normal;font-stretch:normal;font-size:40px;font-family:Purisa;-inkscape-font-specification:Purisa"
         d="m 420.65085,130.54523 q 3.12,-2.92 5.24,-3.84 2.16,-0.96 5.44,-0.96 4.96,0 6.2,2.96 0.76,1.76 0.76,4.32 0,4.24 -1.88,8.6 -1.88,4.32 -4.64,6 -2.68,1.64 -5.64,1.64 -4.12,0 -6.6,-2.84 -1.72,-2 -2.24,-3.36 -0.52,-1.4 -0.52,-3.96 0,-4.84 3.88,-8.56 z m 6.44,16.44 q 3.36,0 6.08,-4.6 2.76,-4.64 2.76,-10.48 0,-0.88 -0.2,-1.32 -0.2,-0.44 -0.72,-0.88 -1.48,-1.24 -3.16,-1.24 -0.28,0 -0.64,0.08 -0.32,0.04 -1.08,0.16 -0.76,0.08 -1.8,0.2 -1.4,0.2 -2.24,0.64 -0.8,0.4 -2.04,1.56 -2.36,2.24 -3.36,4.16 -1,1.88 -1,4.12 0,3.32 2.04,5.44 2.08,2.12 5.36,2.16 z" />
      <path
         id="path18400"
         style="font-style:normal;font-variant:normal;font-weight:normal;font-stretch:normal;font-size:40px;font-family:Purisa;-inkscape-font-specification:Purisa"
         d="m 443.58648,134.42523 q 0,-7.48 1.12,-7.48 0.2,0 0.4,0.08 0.24,0.08 0.56,0.6 0.32,0.48 0.32,1.36 0,0.4 -0.08,1.36 -0.08,0.92 -0.08,2.08 0,3.24 0.36,7.88 0.36,4.64 0.76,6.08 0.4,1.56 1.36,1.56 0.92,0 2.8,-1.64 2.32,-2.04 4.44,-6.36 2.16,-4.32 3,-8.64 0.8,-4.24 1.32,-4.52 0.4,-0.28 0.84,-0.28 0.96,0 0.96,1.12 0,0.6 -0.6,4.72 -0.56,4.08 -0.56,5.88 0,2.52 1,6.28 1.04,3.72 1.04,4.24 0,0.4 -0.32,0.64 -0.32,0.24 -0.56,0.28 -0.2,0.08 -0.32,0.08 -0.72,0 -1.44,-2.04 -0.68,-2.04 -1.24,-4.08 -0.52,-2.04 -0.92,-2.04 -0.08,0 -0.16,0.04 -0.08,0.04 -0.2,0.16 -0.08,0.08 -0.16,0.2 -0.08,0.12 -0.24,0.32 -0.12,0.2 -0.24,0.36 -0.08,0.16 -0.28,0.48 -0.2,0.32 -0.32,0.52 -1.76,2.76 -3.92,4.6 -2.12,1.84 -3.6,1.84 -1.68,0 -2.52,-0.76 -0.84,-0.72 -1.36,-2.64 -0.48,-1.92 -0.88,-6.08 -0.28,-2.64 -0.28,-6.2 z" />
      <path
         id="path18402"
         style="font-style:normal;font-variant:normal;font-weight:normal;font-stretch:normal;font-size:40px;font-family:Purisa;-inkscape-font-specification:Purisa"
         d="m 469.80523,126.86523 q 0,-1.36 0.8,-1.36 0.52,0 0.76,1.2 0.24,1.16 0.88,6.96 0.8,6.48 0.84,6.56 0.04,0.04 0.32,-0.76 0.32,-0.84 0.84,-2.48 0.8,-2.64 1.36,-3.8 0.56,-1.2 2,-3.28 2.92,-4.04 4.52,-4.04 1.04,0 1.96,1.4 1.24,1.84 1.52,3.64 0.28,1.8 0.4,8.52 0.08,4.32 0.08,5.12 0,2 -0.16,2.92 -0.12,0.88 -0.4,1.08 -0.24,0.24 -0.88,0.28 -0.36,0 -0.48,-0.32 -0.12,-0.28 -0.12,-1.36 0,-0.6 0.08,-2.56 0.08,-2 0.08,-3.36 0,-3.4 -0.28,-6.64 -0.24,-3.28 -0.6,-4.2 -0.2,-0.52 -0.64,-1.08 -0.44,-0.56 -0.84,-0.56 -0.84,0 -2.68,2.88 -1.84,2.84 -3.16,6 -1.24,2.88 -1.68,4.44 -0.4,1.52 -0.68,4.16 -0.44,4.08 -0.64,4.08 -0.32,0 -0.92,-0.68 -0.44,-0.44 -0.6,-1.88 -0.16,-1.48 -0.44,-5.8 -0.28,-4.36 -0.76,-8.8 -0.48,-4.6 -0.48,-6.28 z" />
      <path
         id="path18404"
         style="font-style:normal;font-variant:normal;font-weight:normal;font-stretch:normal;font-size:40px;font-family:Purisa;-inkscape-font-specification:Purisa"
         d="m 515.17085,148.90523 q 0,0.88 -0.36,1.36 -0.32,0.52 -0.6,0.6 -0.24,0.12 -0.44,0.12 -0.52,0 -0.88,-0.36 -0.36,-0.32 -0.56,-1.2 -0.2,-0.84 -0.28,-1.28 -0.04,-0.44 -0.16,-1.64 -0.28,-4.04 -0.64,-4.04 -0.44,0 -1.4,1.16 -4.48,5.28 -9.44,5.28 -1.48,0 -2.96,-0.56 -5.12,-1.92 -5.12,-7.84 0,-2.56 0.84,-4.88 0.88,-2.36 2.2,-3.96 1.36,-1.6 2.72,-2.68 1.36,-1.08 2.6,-1.52 1.56,-0.6 2.16,-0.6 1.04,0 3.48,1.36 2.48,1.36 3.44,2.64 1.08,1.44 1.64,1.44 0.04,0 0.04,0 0,-0.04 0.04,-0.04 0.44,-0.28 0.44,-10.44 0,-10.04 0.48,-11.4 0.52,-1.24 1.56,-1.24 l 1.08,0 -0.32,16.44 q -0.12,6.12 -0.12,10.92 0,6.52 0.28,9.32 0.28,2.8 0.28,3.04 z m -9.36,-17.72 q -2.36,-1.56 -3.28,-1.56 -0.8,0 -3.6,2.72 -2.8,2.72 -3.32,4 -0.4,0.96 -0.4,3.48 0,3.08 0.52,4 0.4,0.72 1.92,1.56 1.56,0.84 3.08,0.84 2.72,0 6.88,-4 3.28,-3.16 3.28,-4.12 0,-1.32 -1.68,-3.52 -1.64,-2.2 -3.4,-3.4 z" />
      <path
         id="path18406"
         style="font-style:normal;font-variant:normal;font-weight:normal;font-stretch:normal;font-size:40px;font-family:Purisa;-inkscape-font-specification:Purisa"
         d="m 526.6446,144.98523 q -0.32,1.2 -0.8,1.92 -0.48,0.68 -0.84,0.88 -0.32,0.16 -0.64,0.16 -0.6,0 -1,-0.72 -0.4,-0.72 -0.4,-1.6 0,-0.76 0.32,-1.28 0.36,-0.52 1,-0.52 0.64,0 2.36,1.16 z m 11.8,0.44 q -0.32,1.16 -0.8,1.88 -0.48,0.72 -0.84,0.92 -0.36,0.16 -0.64,0.16 -0.64,0 -1.04,-0.68 -0.36,-0.72 -0.36,-1.64 0,-0.76 0.32,-1.28 0.36,-0.52 1,-0.52 0.72,0 2.36,1.16 z m -6,-0.2 q -0.32,1.16 -0.8,1.88 -0.48,0.72 -0.84,0.92 -0.36,0.16 -0.64,0.16 -0.64,0 -1.04,-0.68 -0.36,-0.72 -0.36,-1.64 0,-0.76 0.32,-1.28 0.36,-0.52 1,-0.52 0.64,0 2.36,1.16 z" />
    </g>
    <path
       id="path4776"
       d="M 405.81042,203.43418 9.1420461,429.92858"
       style="fill:none;fill-rule:evenodd;stroke:#000000;stroke-width:1px;stroke-linecap:butt;stroke-linejoin:miter;stroke-opacity:1" />
    <path
       style="fill:none;fill-rule:evenodd;stroke:#000000;stroke-width:1px;stroke-linecap:butt;stroke-linejoin:miter;stroke-opacity:1"
       d="M 378.48232,345.43558 118.34085,521.94728"
       id="path4804" />
    <path
       id="path4830"
       d="M 376.34342,796.30258 189.32825,327.04368 -11.253854,-20.374726"
       style="fill:none;fill-rule:evenodd;stroke:#000000;stroke-width:1;stroke-linecap:butt;stroke-linejoin:miter;stroke-miterlimit:4;stroke-dasharray:6, 6;stroke-dashoffset:0;stroke-opacity:1;marker-end:url(#marker5092)" />
    <path
       id="path5095"
       d="M 520.17662,712.43848 141.31545,353.61828 -46.494654,28.321676"
       style="fill:none;fill-rule:evenodd;stroke:#000000;stroke-width:1;stroke-linecap:butt;stroke-linejoin:miter;stroke-miterlimit:4;stroke-dasharray:6, 6;stroke-dashoffset:0;stroke-opacity:1;marker-end:url(#marker5097)" />
    <path
       id="path5107"
       d="M 433.78812,762.80788 171.44715,337.25288 -54.539454,-54.167526"
       style="fill:none;fill-rule:evenodd;stroke:#000000;stroke-width:1;stroke-linecap:butt;stroke-linejoin:miter;stroke-miterlimit:4;stroke-dasharray:6, 6;stroke-dashoffset:0;stroke-opacity:1;marker-end:url(#marker5109)" />
    <g
       transform="matrix(-1.0225794,-0.37309222,0.37309222,-1.0225794,3428.5422,3575.2341)"
       id="g5140">
      <path
         style="fill:url(#linearGradient5145);fill-opacity:1;fill-rule:evenodd;stroke:none;stroke-width:1px;stroke-linecap:butt;stroke-linejoin:miter;stroke-opacity:1"
         d="m 3940.854,1361.3913 43.2856,33.7927 103.517,136.0821 -89.0589,-13.1698 z"
         id="path5134" />
      <path
         style="fill:url(#linearGradient5147);fill-opacity:1;fill-rule:evenodd;stroke:none;stroke-width:1px;stroke-linecap:butt;stroke-linejoin:miter;stroke-opacity:1"
         d="m 3948.8988,1443.8804 22.9585,125.6852 26.7866,-51.3892 -57.7899,-156.7852 z"
         id="path5136" />
      <path
         style="fill:url(#linearGradient5149);fill-opacity:1;fill-rule:evenodd;stroke:none;stroke-width:1px;stroke-linecap:butt;stroke-linejoin:miter;stroke-opacity:1"
         d="m 4087.6566,1531.2661 -34.3779,44.2141 -81.4214,-5.9146 26.7866,-51.3892 z"
         id="path5138" />
    </g>
  </g>
</svg>
