<?xml version="1.0" encoding="UTF-8" standalone="no"?>
<svg
   xmlns:osb="http://www.openswatchbook.org/uri/2009/osb"
   xmlns:dc="http://purl.org/dc/elements/1.1/"
   xmlns:cc="http://creativecommons.org/ns#"
   xmlns:rdf="http://www.w3.org/1999/02/22-rdf-syntax-ns#"
   xmlns:svg="http://www.w3.org/2000/svg"
   xmlns="http://www.w3.org/2000/svg"
   xmlns:xlink="http://www.w3.org/1999/xlink"
   version="1.1"
   id="svg6496"
   viewBox="0 0 383.24103 530.75643"
   height="149.79126mm"
   width="108.15913mm">
  <defs
     id="defs6498">
    <linearGradient
       gradientUnits="userSpaceOnUse"
       y2="83.11602"
       x2="611.9483"
       y1="83.11602"
       x1="410"
       id="linearGradient5594"
       xlink:href="#top"
       gradientTransform="translate(-1143.3869,468.50909)" />
    <linearGradient
       gradientTransform="matrix(0.9422018,-0.33504593,0.33504593,0.9422018,5203.2038,-2086.3603)"
       osb:paint="solid"
       id="top">
      <stop
         id="stop5590"
         offset="0"
         style="stop-color:#f9d455;stop-opacity:1;" />
    </linearGradient>
    <linearGradient
       gradientUnits="userSpaceOnUse"
       y2="228.18353"
       x2="611.9483"
       y1="228.18353"
       x1="560"
       id="linearGradient5532"
       xlink:href="#side"
       gradientTransform="translate(-1143.3869,468.50909)" />
    <linearGradient
       gradientTransform="matrix(0.9422018,-0.33504593,0.33504593,0.9422018,5215.8889,-2083.0982)"
       osb:paint="solid"
       id="side">
      <stop
         id="stop5530"
         offset="0"
         style="stop-color:#265998;stop-opacity:1;" />
    </linearGradient>
    <linearGradient
       gradientUnits="userSpaceOnUse"
       y2="229.88882"
       x2="560"
       y1="229.88882"
       x1="410"
       id="linearGradient5550"
       xlink:href="#red"
       gradientTransform="translate(-1143.3869,468.50909)" />
    <linearGradient
       gradientTransform="matrix(0.94220181,-0.33504593,0.33504593,0.94220181,28770.064,1039.4447)"
       osb:paint="solid"
       id="red">
      <stop
         id="stop5548"
         offset="0"
         style="stop-color:#e31616;stop-opacity:1;" />
    </linearGradient>
  </defs>
  <metadata
     id="metadata6501">
    <rdf:RDF>
      <cc:Work
         rdf:about="">
        <dc:format>image/svg+xml</dc:format>
        <dc:type
           rdf:resource="http://purl.org/dc/dcmitype/StillImage" />
        <dc:title></dc:title>
      </cc:Work>
    </rdf:RDF>
  </metadata>
  <g
     transform="translate(5.681603,-69.841103)"
     id="layer1">
    <g
       style="fill:#2a7f27;fill-opacity:1;stroke:none;stroke-width:1;stroke-linecap:round;stroke-linejoin:round;stroke-miterlimit:4;stroke-dasharray:none;stroke-dashoffset:0;stroke-opacity:1"
       id="g4158">
      <path
         points="225.75698,455.1053 277.70532,344.67418 149.1954,285.14544 75.756971,349.59647 "
         d="M 75.756971,349.59647 225.75698,455.1053 277.70532,344.67418 149.1954,285.14544 Z"
         style="fill:#afafde;fill-rule:evenodd;stroke:none;stroke-width:1px;stroke-linecap:butt;stroke-linejoin:round;stroke-opacity:1"
         id="path4168" />
      <path
         points="75.756971,349.59647 149.1954,285.14544 149.1954,128.94254 75.756971,150.35925 "
         d="m 75.756971,150.35925 0,199.23722 73.438429,-64.45103 0,-156.2029 z"
         style="fill:#353564;fill-rule:evenodd;stroke:none;stroke-width:1px;stroke-linecap:butt;stroke-linejoin:round;stroke-opacity:1"
         id="path4160" />
      <path
         points="277.70532,146.94867 277.70532,344.67418 149.1954,285.14544 149.1954,128.94254 "
         d="m 149.1954,128.94254 128.50992,18.00613 0,197.72551 -128.50992,-59.52874 z"
         style="fill:#e9e9ff;fill-rule:evenodd;stroke:none;stroke-width:1px;stroke-linecap:butt;stroke-linejoin:round;stroke-opacity:1"
         id="path4170" />
      <path
         points="225.75698,182.97641 277.70532,146.94867 149.1954,128.94254 75.756971,150.35925 "
         d="M 75.756971,150.35925 225.75698,182.97641 277.70532,146.94867 149.1954,128.94254 Z"
         style="fill:url(#linearGradient5594);fill-opacity:1;fill-rule:evenodd;stroke:none;stroke-width:1px;stroke-linecap:butt;stroke-linejoin:round;stroke-opacity:1"
         id="path4162" />
      <path
         points="225.75698,455.1053 277.70532,344.67418 277.70532,146.94867 225.75698,182.97641 "
         d="m 225.75698,182.97641 0,272.12889 51.94834,-110.43112 0,-197.72551 z"
         style="fill:url(#linearGradient5532);fill-opacity:1;fill-rule:evenodd;stroke:none;stroke-width:1px;stroke-linecap:butt;stroke-linejoin:round;stroke-opacity:1"
         id="path4166" />
      <path
         points="225.75698,182.97641 225.75698,455.1053 75.756971,349.59647 75.756971,150.35925 "
         d="m 75.756971,150.35925 150.000009,32.61716 0,272.12889 L 75.756971,349.59647 Z"
         style="fill:url(#linearGradient5550);fill-opacity:1;fill-rule:evenodd;stroke:none;stroke-width:1px;stroke-linecap:butt;stroke-linejoin:round;stroke-opacity:1"
         id="path4164" />
    </g>
    <g
       id="text4172"
       style="font-style:normal;font-variant:normal;font-weight:normal;font-stretch:normal;font-size:40px;line-height:125%;font-family:Purisa;-inkscape-font-specification:Purisa;letter-spacing:0px;word-spacing:0px;fill:#000000;fill-opacity:1;stroke:none;stroke-width:1px;stroke-linecap:butt;stroke-linejoin:miter;stroke-opacity:1">
      <path
         id="path7087"
         style=""
         d="m 72.464539,488.09142 q 1.28,0 3.12,-0.32 1.88,-0.36 3.08,-0.36 0.52,0 0.72,0.04 1.4,0.2 2,0.28 0.6,0.08 1.64,0.32 1.08,0.2 1.52,0.44 0.48,0.24 1.12,0.68 0.64,0.4 0.92,0.96 0.28,0.52 0.48,1.32 0.2,0.8 0.2,1.8 0,1.76 -0.48,3.68 -0.48,1.88 -0.96,1.88 -0.52,0 -0.52,0.76 0,0.92 -2.4,3.12 -2.4,2.2 -3.76,2.48 -1.64,0.44 -1.88,0.88 -0.28,0.52 -2.6,0.52 l -2.36,0 0.4,7.2 q 0.16,2.76 0.16,4.84 0,2.56 -0.44,3.2 -0.68,0.8 -1.16,0.8 -0.88,0 -1.12,-1.8 -0.4,-3.08 -1,-11.68 -0.6,-8.6 -0.6,-11.56 l 0,-4.28 -1.2,0.84 q -0.8,0.56 -1.4,0.56 -0.24,0 -0.52,-0.28 -0.24,-0.28 -0.24,-0.68 0,-1.12 2.28,-3.52 1.28,-1.36 1.92,-1.8 0.64,-0.44 1.32,-0.44 0.2,0 0.68,0.08 0.48,0.04 1.08,0.04 z m 8.72,3 q -2.08,-0.48 -2.92,-0.48 -0.8,0 -3.68,0.6 -2.12,0.44 -2.64,1.08 -0.52,0.64 -0.52,2.92 0,2.32 0.28,5.04 0.28,2.72 0.6,3.08 0.16,0.2 0.92,0.2 1.28,0 3.44,-0.56 2.16,-0.6 3.48,-1.32 0.8,-0.44 1.36,-1.04 0.56,-0.64 0.6,-1.12 0.12,-0.88 1.4,-2.56 1.32,-1.72 1.32,-2.8 0,-2.24 -3.64,-3.04 z" />
      <path
         id="path7089"
         style=""
         d="m 112.04016,511.29142 q 0.2,0 0.2,0.32 0,0.72 -1.08,2.32 -1.04,1.6 -2.24,2.64 -4.2,3.72 -8.4,3.72 -1.599996,0 -3.199996,-0.72 -1.56,-0.76 -2.92,-2.12 -1.36,-1.36 -2.2,-3.64 -0.84,-2.28 -0.84,-5.08 0,-1.72 0.4,-2.92 0.8,-2.44 3.4,-5.16 2.64,-2.72 4.959996,-2.72 0.64,0 1.92,0.12 1.92,0.16 2.68,0.4 0.8,0.24 1.8,1 1.28,0.96 2.2,2.48 0.96,1.48 0.96,2.48 0,1.28 -1,1.96 -1,0.64 -3.88,1.28 -3.72,0.84 -7.359996,1.04 l -3.72,0.2 0,1.6 q 0,2.96 2.76,5.6 2.08,2 4.319996,2 1.72,0 3.64,-1.04 1.96,-1.08 3.32,-2.36 1.36,-1.28 2.6,-2.32 1.24,-1.08 1.68,-1.08 z m -6.44,-9.76 q -1.24,-1.12 -1.88,-1.4 -0.6,-0.32 -1.6,-0.32 -2,0 -2.999996,0.4 -0.96,0.36 -1.96,1.52 -3.04,3.48 -3.04,4.64 0,0.52 0.96,0.52 3.64,0 10.319996,-1.52 2,-0.48 2,-1.68 0,-0.56 -1.8,-2.16 z" />
      <path
         id="path7091"
         style=""
         d="m 130.56766,500.45142 q 0.68,0 1.2,0.44 0.52,0.4 0.52,0.68 0,0.48 -1.52,1.08 -2.48,1 -5.08,4.84 -2.56,3.8 -3.12,7.36 -0.64,4.04 -1.04,5.28 -0.4,1.28 -1.04,1.28 -0.56,0 -0.88,-0.4 -0.28,-0.4 -0.4,-0.88 -0.08,-0.48 -0.2,-1.76 -0.04,-0.24 -0.04,-0.36 -0.96,-10.08 -0.96,-15.92 0,-2.08 0.16,-2.56 0.44,-1.28 1.12,-1.28 0.64,0 0.64,1.08 0,1.8 0.56,5.8 0.56,4 0.84,4 0.36,0 1.48,-2.2 1.4,-2.6 3.72,-4.52 2.36,-1.96 4.04,-1.96 z" />
      <path
         id="path7093"
         style=""
         d="m 142.26329,510.49142 q -0.6,0 -2.56,-1.44 -1.96,-1.48 -1.96,-3 0,-1.44 2.04,-3.96 2.04,-2.56 4.92,-3.28 1.32,-0.36 3.48,-0.36 0.92,0 1.36,0.24 0.44,0.24 1.2,1.08 1.24,1.4 1.24,1.92 0,0.48 -0.52,0.48 -0.64,0 -1.08,-0.44 -0.44,-0.48 -1.08,-0.96 -0.64,-0.48 -1.72,-0.48 -1.4,0 -3,0.76 -1.6,0.76 -2.84,2.12 -1.76,1.88 -1.76,2.56 0,0.68 1.04,1.64 1.04,0.92 3.48,1.76 3.84,1.32 5.2,2.48 1.36,1.16 1.36,3.12 0,1.84 -0.64,3.36 -0.44,1.16 -1.88,2.6 -1.44,1.44 -2.84,1.44 -1.08,0 -2.8,-0.36 -1.72,-0.32 -2.6,-0.76 -0.72,-0.36 -1.32,-1.4 -0.6,-1.08 -0.6,-1.92 0,-0.44 0.2,-0.76 0.24,-0.36 0.56,-0.36 0.6,0 1.12,1.12 0.48,1 1.92,1.8 1.48,0.8 2.76,0.8 1.72,0 3.04,-2.04 1.32,-2.08 1.32,-3.24 0,-0.28 -0.16,-0.68 -0.12,-0.44 -0.68,-1.04 -0.56,-0.6 -1.44,-0.92 -0.84,-0.28 -1.96,-0.76 -1.12,-0.48 -1.88,-0.8 -0.72,-0.32 -0.92,-0.32 z" />
      <path
         id="path7095"
         style=""
         d="m 158.23079,501.13142 q 1.12,-1 1.12,-1.72 0,-0.72 0.44,-1.72 0.48,-1.04 1.36,-1.04 0.56,0 0.96,0.64 0.44,0.6 0.92,0.6 0.36,0 2.96,-0.6 2.6,-0.64 4.56,-0.64 1.64,0 3.64,0.44 4.16,0.96 4.16,5.16 0,3.2 -2.48,8.52 -1.64,3.52 -4,5.44 -2.36,1.88 -5.04,1.88 -0.76,0 -1.16,-0.08 l -1.84,-0.28 0.44,2.16 q 1.44,6.8 1.44,8.52 0,0.8 -0.28,1.04 -0.28,0.28 -0.96,0.28 -0.72,0 -1.04,-0.36 -0.28,-0.32 -0.6,-1.4 -1.56,-5.6 -2.52,-16.72 -0.44,-5.48 -0.76,-6.68 -0.28,-1.24 -1.16,-1.24 -1.28,0 -1.28,-0.76 0,-0.44 1.12,-1.44 z m 5.96,13.28 q 0.6,0 1.4,0.52 0.8,0.48 1.36,0.48 1.6,0 3.68,-2.04 2.08,-2.08 3.52,-5 1.48,-2.92 1.48,-5.2 0,-1.24 -0.56,-2.24 -0.52,-1 -0.92,-1.12 -0.68,-0.28 -2.36,-0.28 -3.72,0 -6.6,0.92 l -2.68,0.88 0.08,2.56 q 0.08,2.56 0.44,6.52 0.2,2.36 0.44,3.16 0.24,0.8 0.72,0.84 z" />
      <path
         id="path7097"
         style=""
         d="m 203.60266,511.29142 q 0.2,0 0.2,0.32 0,0.72 -1.08,2.32 -1.04,1.6 -2.24,2.64 -4.2,3.72 -8.4,3.72 -1.6,0 -3.2,-0.72 -1.56,-0.76 -2.92,-2.12 -1.36,-1.36 -2.2,-3.64 -0.84,-2.28 -0.84,-5.08 0,-1.72 0.4,-2.92 0.8,-2.44 3.4,-5.16 2.64,-2.72 4.96,-2.72 0.64,0 1.92,0.12 1.92,0.16 2.68,0.4 0.8,0.24 1.8,1 1.28,0.96 2.2,2.48 0.96,1.48 0.96,2.48 0,1.28 -1,1.96 -1,0.64 -3.88,1.28 -3.72,0.84 -7.36,1.04 l -3.72,0.2 0,1.6 q 0,2.96 2.76,5.6 2.08,2 4.32,2 1.72,0 3.64,-1.04 1.96,-1.08 3.32,-2.36 1.36,-1.28 2.6,-2.32 1.24,-1.08 1.68,-1.08 z m -6.44,-9.76 q -1.24,-1.12 -1.88,-1.4 -0.6,-0.32 -1.6,-0.32 -2,0 -3,0.4 -0.96,0.36 -1.96,1.52 -3.04,3.48 -3.04,4.64 0,0.52 0.96,0.52 3.64,0 10.32,-1.52 2,-0.48 2,-1.68 0,-0.56 -1.8,-2.16 z" />
      <path
         id="path7099"
         style=""
         d="m 225.77016,503.81142 q 0,0.68 -0.32,1.12 -0.28,0.44 -0.68,0.44 -0.76,0 -0.96,-1.16 -0.08,-0.92 -1.32,-2.32 -0.52,-0.56 -0.84,-0.8 -0.32,-0.24 -1.52,-0.52 -1.16,-0.28 -3.08,-0.28 -1.56,0 -2.4,0.56 -0.8,0.56 -2,2.28 -2.88,4.08 -2.88,7.36 0,1.68 0.36,2.84 0.36,1.12 0.68,1.52 0.36,0.36 1.16,1.16 1.16,1.12 1.76,1.44 0.64,0.28 1.76,0.28 3.48,0 7.6,-4.72 2.16,-2.4 3.12,-2.4 0.52,0 0.52,0.76 0,0.72 -1.92,3.08 -1.88,2.36 -3.24,3.32 -3.16,2.28 -5.64,2.28 -1.8,0 -3.96,-1.08 -2.2,-1.08 -3.2,-2.92 -0.96,-1.84 -1.16,-5.36 -0.12,-1.36 -0.12,-2.16 0,-1.56 1.08,-3.56 1.12,-2.16 3.24,-4.16 2.16,-2 3.72,-2.44 1.2,-0.28 2.6,-0.28 3.04,0 5.32,1.96 2.32,1.92 2.32,3.76 z" />
      <path
         id="path7101"
         style=""
         d="m 237.66454,492.09142 q 0,-1.48 -0.28,-3.76 -0.28,-2.28 -0.28,-3.8 0,-0.76 0.04,-1 0.12,-0.64 0.44,-1 0.36,-0.4 0.72,-0.4 0.48,0 0.68,0.44 0.12,0.28 0.36,2.96 0.24,2.68 0.44,5.24 0.2,2.56 0.28,2.64 0.04,0.04 0.12,0.04 0.32,0 1.84,-0.32 1.56,-0.36 2.56,-0.36 2,0 2,0.88 0,0.88 -4.4,1.96 l -2,0.48 0.24,6.76 q 0.2,5.96 0.76,11.16 0.56,5.16 0.56,5.84 0,1.24 -0.92,1.24 -0.72,0 -1.2,-1.28 -0.44,-1.28 -0.44,-3.32 0,-1.48 -0.12,-3 -0.12,-1.56 -0.44,-4.8 -0.28,-3.28 -0.56,-6.72 -0.12,-1.84 -0.2,-2.84 -0.04,-1 -0.12,-1.48 -0.08,-0.48 -0.12,-0.56 -0.04,-0.12 -0.16,-0.12 -0.64,0 -3.08,0.44 -2.44,0.44 -3.04,0.44 -1.16,0 -1.16,-0.96 0,-0.68 1.44,-1.16 1.48,-0.48 3.32,-0.84 1.84,-0.4 2.28,-0.68 0.44,-0.32 0.44,-2.12 z" />
      <path
         id="path7103"
         style=""
         d="m 253.64579,497.09142 q 0.56,-0.48 0.96,-0.48 0.84,0 1.2,2.68 0.4,2.64 0.72,10.2 0.16,3.52 0.16,6.36 0,2.84 -0.24,3.12 -0.48,0.6 -1.2,0.6 -1,0 -1.24,-0.84 -0.2,-0.52 -0.6,-8.08 -0.4,-7.6 -0.4,-10.56 0,-2.48 0.64,-3 z m -0.24,-9.4 q 0,-0.56 0.44,-1.12 0.48,-0.56 0.84,-0.56 0.4,0 1.08,0.56 0.72,0.52 0.72,1.36 0,0.6 -0.36,1.04 -0.32,0.4 -0.88,0.4 -0.64,0 -1.24,-0.48 -0.6,-0.48 -0.6,-1.2 z" />
      <path
         id="path7105"
         style=""
         d="m 278.89954,500.41142 q 0,-0.92 0.56,-1.84 0.6,-0.92 1.36,-0.92 0.88,0 0.88,1.04 0,1.88 -4.96,15.4 -1,2.76 -2.56,5.08 -1.56,2.32 -2.4,2.32 -0.64,0 -1.24,-0.72 -0.56,-0.72 -1.16,-2.32 -0.6,-1.6 -1.04,-3.04 -0.44,-1.44 -1.2,-4.04 -0.72,-2.64 -1.2,-4.16 -2.36,-7.84 -2.36,-8.84 0,-0.36 0.32,-0.36 0.24,0 0.4,0.04 1.16,0.2 2.88,5.16 1.76,4.96 3.12,9.84 1.36,4.88 1.56,4.88 0.44,0 1.88,-2.96 1.48,-2.96 2.24,-5.44 0.56,-1.76 1.36,-3.96 0.8,-2.24 1.16,-3.4 0.4,-1.16 0.4,-1.76 z" />
      <path
         id="path7107"
         style=""
         d="m 306.49329,511.29142 q 0.2,0 0.2,0.32 0,0.72 -1.08,2.32 -1.04,1.6 -2.24,2.64 -4.2,3.72 -8.4,3.72 -1.6,0 -3.2,-0.72 -1.56,-0.76 -2.92,-2.12 -1.36,-1.36 -2.2,-3.64 -0.84,-2.28 -0.84,-5.08 0,-1.72 0.4,-2.92 0.8,-2.44 3.4,-5.16 2.64,-2.72 4.96,-2.72 0.64,0 1.92,0.12 1.92,0.16 2.68,0.4 0.8,0.24 1.8,1 1.28,0.96 2.2,2.48 0.96,1.48 0.96,2.48 0,1.28 -1,1.96 -1,0.64 -3.88,1.28 -3.72,0.84 -7.36,1.04 l -3.72,0.2 0,1.6 q 0,2.96 2.76,5.6 2.08,2 4.32,2 1.72,0 3.64,-1.04 1.96,-1.08 3.32,-2.36 1.36,-1.28 2.6,-2.32 1.24,-1.08 1.68,-1.08 z m -6.44,-9.76 q -1.24,-1.12 -1.88,-1.4 -0.6,-0.32 -1.6,-0.32 -2,0 -3,0.4 -0.96,0.36 -1.96,1.52 -3.04,3.48 -3.04,4.64 0,0.52 0.96,0.52 3.64,0 10.32,-1.52 2,-0.48 2,-1.68 0,-0.56 -1.8,-2.16 z" />
    </g>
  </g>
</svg>
