<?xml version="1.0" encoding="UTF-8" standalone="no"?>
<svg
   xmlns:osb="http://www.openswatchbook.org/uri/2009/osb"
   xmlns:dc="http://purl.org/dc/elements/1.1/"
   xmlns:cc="http://creativecommons.org/ns#"
   xmlns:rdf="http://www.w3.org/1999/02/22-rdf-syntax-ns#"
   xmlns:svg="http://www.w3.org/2000/svg"
   xmlns="http://www.w3.org/2000/svg"
   xmlns:xlink="http://www.w3.org/1999/xlink"
   version="1.1"
   id="svg7212"
   viewBox="0 0 692.23226 622.08585"
   height="175.56645mm"
   width="195.36333mm">
  <defs
     id="defs7214">
    <linearGradient
       y2="1102.3622"
       x2="120"
       y1="972.36218"
       x1="120"
       gradientTransform="matrix(0.70710678,-0.70710678,0.70710678,0.70710678,-502.09133,-306.81243)"
       gradientUnits="userSpaceOnUse"
       id="linearGradient4234"
       xlink:href="#blue_gradient-2" />
    <linearGradient
       osb:paint="gradient"
       id="blue_gradient-2">
      <stop
         id="stop4206"
         offset="0"
         style="stop-color:#2a7fff;stop-opacity:1;" />
      <stop
         id="stop4208"
         offset="1"
         style="stop-color:#2a7fff;stop-opacity:0;" />
    </linearGradient>
    <linearGradient
       y2="1102.3622"
       x2="120"
       y1="972.36218"
       x1="120"
       gradientTransform="matrix(0,-1,1,0,-734.25506,265.39612)"
       gradientUnits="userSpaceOnUse"
       id="linearGradient4222"
       xlink:href="#blue_gradient-2" />
    <linearGradient
       gradientUnits="userSpaceOnUse"
       y2="567.36218"
       x2="580"
       y1="567.36218"
       x1="380"
       id="linearGradient5536"
       xlink:href="#side"
       gradientTransform="translate(-1.8928571,-426.96608)" />
    <linearGradient
       gradientTransform="matrix(0.9422018,-0.33504593,0.33504593,0.9422018,5215.8889,-2083.0982)"
       osb:paint="solid"
       id="side">
      <stop
         id="stop5530"
         offset="0"
         style="stop-color:#265998;stop-opacity:1;" />
    </linearGradient>
    <linearGradient
       gradientTransform="translate(-2.3928571,-726.96605)"
       gradientUnits="userSpaceOnUse"
       y2="1102.3622"
       x2="120"
       y1="972.36218"
       x1="120"
       id="linearGradient4210"
       xlink:href="#blue_gradient-2" />
    <linearGradient
       gradientTransform="matrix(0.94220181,-0.33504593,0.33504593,0.94220181,28768.171,612.47864)"
       osb:paint="solid"
       id="red">
      <stop
         id="stop5548"
         offset="0"
         style="stop-color:#e31616;stop-opacity:1;" />
    </linearGradient>
    <linearGradient
       gradientUnits="userSpaceOnUse"
       y2="567.76062"
       x2="191.01016"
       y1="567.76062"
       x1="50"
       id="linearGradient5596"
       xlink:href="#top"
       gradientTransform="translate(-1.8928571,-426.96608)" />
    <linearGradient
       gradientTransform="matrix(0.9422018,-0.33504593,0.33504593,0.9422018,5203.2038,-2086.3603)"
       osb:paint="solid"
       id="top">
      <stop
         id="stop5590"
         offset="0"
         style="stop-color:#f9d455;stop-opacity:1;" />
    </linearGradient>
  </defs>
  <metadata
     id="metadata7217">
    <rdf:RDF>
      <cc:Work
         rdf:about="">
        <dc:format>image/svg+xml</dc:format>
        <dc:type
           rdf:resource="http://purl.org/dc/dcmitype/StillImage" />
        <dc:title></dc:title>
      </cc:Work>
    </rdf:RDF>
  </metadata>
  <g
     transform="translate(43.258995,-24.176438)"
     id="layer1">
    <rect
       ry="0"
       y="95.396111"
       x="48.107143"
       height="90.796883"
       width="141.01016"
       id="rect4176"
       style="fill:url(#linearGradient5596);fill-opacity:1;stroke:none;stroke-width:1;stroke-linecap:round;stroke-linejoin:round;stroke-miterlimit:4;stroke-dasharray:none;stroke-dashoffset:0;stroke-opacity:1" />
    <path
       style="fill:none;fill-rule:evenodd;stroke:#000000;stroke-width:1;stroke-linecap:butt;stroke-linejoin:miter;stroke-miterlimit:4;stroke-dasharray:3, 1;stroke-dashoffset:0;stroke-opacity:1"
       d="m 187.60714,95.396153 0,329.999967"
       id="path4194" />
    <path
       style="fill:none;fill-rule:evenodd;stroke:#000000;stroke-width:1;stroke-linecap:butt;stroke-linejoin:miter;stroke-miterlimit:4;stroke-dasharray:3, 1;stroke-dashoffset:0;stroke-opacity:1"
       d="m 47.607143,95.396153 0,329.999967"
       id="path4196" />
    <path
       style="fill:none;fill-rule:evenodd;stroke:#000000;stroke-width:1px;stroke-linecap:butt;stroke-linejoin:miter;stroke-opacity:1"
       d="m 217.60573,315.89612 -189.997267,0.5"
       id="path4198" />
    <rect
       style="fill:url(#red);fill-opacity:1;stroke:none;stroke-width:1;stroke-linecap:round;stroke-linejoin:round;stroke-miterlimit:4;stroke-dasharray:none;stroke-dashoffset:0;stroke-opacity:1"
       id="rect4200"
       width="140"
       height="200"
       x="47.607143"
       y="375.39615"
       ry="0" />
    <path
       id="path4202"
       d="m 97.607143,245.39615 0,90 -30,0 49.999997,40 50,-40 -30,0 0,-90 z"
       style="fill:url(#linearGradient4210);fill-opacity:1;fill-rule:evenodd;stroke:none;stroke-width:1px;stroke-linecap:butt;stroke-linejoin:miter;stroke-opacity:1" />
    <rect
       style="fill:url(#linearGradient5536);fill-opacity:1;stroke:none;stroke-width:1;stroke-linecap:round;stroke-linejoin:round;stroke-miterlimit:4;stroke-dasharray:none;stroke-dashoffset:0;stroke-opacity:1"
       id="rect4218"
       width="200"
       height="90"
       x="378.10715"
       y="95.396111"
       ry="0" />
    <path
       id="path4212"
       d="m 78.107143,185.39612 329.999977,0"
       style="fill:none;fill-rule:evenodd;stroke:#000000;stroke-width:1;stroke-linecap:butt;stroke-linejoin:miter;stroke-miterlimit:4;stroke-dasharray:3, 1;stroke-dashoffset:0;stroke-opacity:1" />
    <path
       id="path4214"
       d="m 78.107163,95.896133 329.999977,0"
       style="fill:none;fill-rule:evenodd;stroke:#000000;stroke-width:1;stroke-linecap:butt;stroke-linejoin:miter;stroke-miterlimit:4;stroke-dasharray:3, 1;stroke-dashoffset:0;stroke-opacity:1" />
    <path
       style="fill:url(#linearGradient4222);fill-opacity:1;fill-rule:evenodd;stroke:none;stroke-width:1px;stroke-linecap:butt;stroke-linejoin:miter;stroke-opacity:1"
       d="m 238.10714,165.39612 90,0 0,30 40,-50 -40,-49.999987 0,29.999987 -90,0 z"
       id="path4220" />
    <path
       style="fill:none;fill-rule:evenodd;stroke:#000000;stroke-width:1;stroke-linecap:butt;stroke-linejoin:miter;stroke-miterlimit:4;stroke-dasharray:3, 1;stroke-dashoffset:0;stroke-opacity:1"
       d="m 188.10714,95.396133 230,229.999987"
       id="path4226" />
    <path
       id="path4228"
       d="m 48.107143,185.39612 259.999997,260"
       style="fill:none;fill-rule:evenodd;stroke:#000000;stroke-width:1;stroke-linecap:butt;stroke-linejoin:miter;stroke-miterlimit:4;stroke-dasharray:3, 1;stroke-dashoffset:0;stroke-opacity:1" />
    <path
       style="fill:none;fill-rule:evenodd;stroke:#000000;stroke-width:1px;stroke-linecap:butt;stroke-linejoin:miter;stroke-opacity:1"
       d="M 382.10194,260.69421 248.10714,395.39612"
       id="path4230" />
    <path
       id="path4232"
       d="m 256.18325,310.04078 63.63961,63.63962 -21.2132,21.2132 63.63961,-7.07107 7.07107,-63.63961 -21.2132,21.2132 -63.63962,-63.63961 z"
       style="fill:url(#linearGradient4234);fill-opacity:1;fill-rule:evenodd;stroke:none;stroke-width:1px;stroke-linecap:butt;stroke-linejoin:miter;stroke-opacity:1" />
    <g
       id="flowRoot4238"
       style="font-style:normal;font-variant:normal;font-weight:normal;font-stretch:normal;font-size:40px;line-height:125%;font-family:Purisa;-inkscape-font-specification:Purisa;letter-spacing:0px;word-spacing:0px;fill:#000000;fill-opacity:1;stroke:none;stroke-width:1px;stroke-linecap:butt;stroke-linejoin:miter;stroke-opacity:1"
       transform="matrix(9.7030239,0,0,5.6457607,-3353.0046,-4175.1415)">
      <path
         id="path7835"
         style=""
         d="m 390.83641,838.72641 q 0,-0.96 0.24,-1.6 0.24,-0.64 0.44,-0.8 0.24,-0.16 0.4,-0.16 0.32,0 1.44,0.8 1.16,0.76 1.16,1 -0.12,0.32 -0.32,0.84 -0.16,0.48 -0.84,1.32 -0.64,0.8 -1.36,0.8 -1.16,0 -1.16,-2.2 z m -3.08,-25.96 q 0,0.72 1,2.52 1,1.8 1.64,1.8 0.84,0 1.52,-1 0.72,-1.04 0.72,-1.48 0,-0.36 -0.76,-0.36 -0.72,0 -0.72,-0.52 0,-0.52 0.56,-0.88 0.6,-0.4 1.04,-0.4 0.48,0 0.92,0.6 0.48,0.56 0.48,1.56 0,1.24 -0.76,2.48 -0.72,1.24 -2.4,1.24 -1.56,0 -3.28,-1.8 -1.68,-1.84 -1.68,-3.84 0,-2.12 2.36,-4.16 2.36,-2.04 4.52,-2.04 2.28,0 4.08,2.36 1.84,2.36 1.84,5.08 0,3.16 -4,8.32 l -1.4,1.84 0.04,3 q 0,0.2 0,0.56 0.04,0.36 0.04,0.52 0,2.76 -0.8,2.76 -0.64,0 -0.92,-0.92 -0.24,-0.96 -0.24,-3.36 0,-2.48 0.36,-3.64 0.4,-1.16 1.92,-2.56 1.44,-1.28 2.28,-3.2 0.88,-1.92 0.88,-3.76 0,-1.28 -0.4,-2.2 -0.32,-0.88 -1.56,-1.88 -1.2,-1 -2.04,-1 -1.4,0 -3.32,1.6 -1.92,1.56 -1.92,2.76 z" />
    </g>
  </g>
</svg>
