<?xml version="1.0" encoding="UTF-8" standalone="no"?>
<svg xmlns:osb="http://www.openswatchbook.org/uri/2009/osb" xmlns:dc="http://purl.org/dc/elements/1.1/" xmlns:cc="http://creativecommons.org/ns#" xmlns:rdf="http://www.w3.org/1999/02/22-rdf-syntax-ns#" xmlns:svg="http://www.w3.org/2000/svg" xmlns="http://www.w3.org/2000/svg" version="1.1" id="svg12238" viewBox="0 0 347.01735 421.42647" height="118.93591mm" width="97.936005mm">
  <defs id="defs12240">
    <linearGradient gradientTransform="matrix(0.9422018,-0.33504593,0.33504593,0.9422018,3124.7407,-2166.6369)" osb:paint="solid" id="top">
      <stop id="stop5590" offset="0" style="stop-color:#f9d455;stop-opacity:1;"/>
    </linearGradient>
    <linearGradient gradientTransform="matrix(0.94220181,-0.33504593,0.33504593,0.94220181,26691.601,959.16807)" osb:paint="solid" id="red">
      <stop id="stop5548" offset="0" style="stop-color:#e31616;stop-opacity:1;"/>
    </linearGradient>
    <linearGradient gradientTransform="matrix(0.9422018,-0.33504593,0.33504593,0.9422018,3137.4258,-2163.3748)" osb:paint="solid" id="side">
      <stop id="stop5530" offset="0" style="stop-color:#265998;stop-opacity:1;"/>
    </linearGradient>
  </defs>
  <metadata id="metadata12243">
    <rdf:RDF>
      <cc:Work rdf:about="">
        <dc:format>image/svg+xml</dc:format>
        <dc:type rdf:resource="http://purl.org/dc/dcmitype/StillImage"/>
        <dc:title/>
      </cc:Work>
    </rdf:RDF>
  </metadata>
  <g transform="translate(-195.06275,-93.077545)" id="layer1">
    <path style="fill:url(#side);fill-rule:evenodd;stroke:none;stroke-width:1px;stroke-linecap:butt;stroke-linejoin:miter;stroke-opacity:1" d="m 348.07817,422.25108 -64.9909,-36.277 -2.343,-163.8412 66.9964,38.1798 z" id="path26573"/>
    <path style="fill:url(#red);fill-rule:evenodd;stroke:none;stroke-width:1px;stroke-linecap:butt;stroke-linejoin:miter;stroke-opacity:1" d="m 347.74067,260.31268 99.2567,-58.0985 2.0598,158.5125 -100.9869,61.5191 z" id="path26575"/>
    <path style="fill:url(#top);fill-rule:evenodd;stroke:none;stroke-width:1px;stroke-linecap:butt;stroke-linejoin:miter;stroke-opacity:1" d="m 446.99737,202.21418 -68.0544,-38.2705 -98.1987,58.1892 66.9964,38.1798 z" id="path26577"/>
    <path id="circle26579" d="m 383.36864,260.9086 a 36.211906,36.211906 0 0 1 -36.2119,36.21191 36.211906,36.211906 0 0 1 -36.21191,-36.21191 36.211906,36.211906 0 0 1 36.21191,-36.21191 36.211906,36.211906 0 0 1 36.2119,36.21191 z" style="opacity:1;fill:none;fill-opacity:1;stroke:#000000;stroke-width:1;stroke-linecap:round;stroke-linejoin:round;stroke-miterlimit:4;stroke-dasharray:8, 4;stroke-dashoffset:0;stroke-opacity:1"/>
    <g id="text26581" style="font-style:normal;font-variant:normal;font-weight:normal;font-stretch:normal;font-size:40px;line-height:125%;font-family:Purisa;-inkscape-font-specification:Purisa;letter-spacing:0px;word-spacing:0px;fill:#000000;fill-opacity:1;stroke:none;stroke-width:1px;stroke-linecap:butt;stroke-linejoin:miter;stroke-opacity:1">
      <path id="path12828" d="m 355.73736,274.83272 q -0.32,0 -0.6,-0.24 -0.28,-0.24 -0.28,-0.68 0,-0.44 0.2,-0.76 0.24,-0.36 0.84,-1 0.6,-0.68 1.12,-1.4 l 1.32,-1.76 q 0.28,-0.36 1,-1.6 0.72,-1.28 1.36,-2.12 0.68,-0.88 1.2,-0.88 0.84,0 1.12,2.56 0.24,2.16 0.48,8.52 0.24,6.32 0.24,10.48 0,2.64 -0.12,2.92 -0.32,0.68 -0.72,0.68 -0.56,0 -1.04,-1.4 -0.52,-1.48 -0.52,-10 -0.04,-8.64 -0.48,-8.64 -0.32,0 -1.28,1.36 -0.96,1.32 -2.08,2.64 -1.08,1.32 -1.76,1.32 z"/>
      <path id="path12830" d="m 390.55986,286.27272 q 1.56,0 2.24,0.16 0.72,0.16 0.84,0.4 0.16,0.2 0.16,0.72 0,0.64 -0.68,0.72 -0.64,0.08 -3.04,0.2 -2.4,0.12 -5.08,0.64 -1.88,0.36 -4.04,0.64 -2.16,0.32 -3.16,0.48 -1,0.2 -1.28,0.48 -0.32,0.28 -0.88,0.28 -0.64,0 -1.2,-0.36 -0.52,-0.36 -0.52,-0.84 0,-0.52 1.32,-2.24 1.32,-1.76 2.48,-2.76 1.44,-1.2 4,-6.32 2.6,-5.16 2.6,-8.4 0,-1.32 -0.76,-1.8 -0.72,-0.48 -2.52,-0.48 -4.32,0 -8.68,4.4 -2.72,2.64 -2.88,2.64 -0.2,0 -0.2,-1.36 0,-1.4 1.04,-1.96 1.08,-0.52 1.08,-1.08 0,-0.2 0.16,-0.44 0.2,-0.28 0.56,-0.56 0.4,-0.32 0.72,-0.56 0.36,-0.28 0.96,-0.68 0.6,-0.44 0.96,-0.72 0.8,-0.68 2.6,-1.36 1.84,-0.72 4,-0.72 3.64,0 4.72,2 0.44,0.76 0.44,2.56 0,3.28 -1.2,6.36 -0.88,2.08 -3.24,5.92 -2.32,3.8 -3.48,4.88 -0.44,0.44 -0.44,0.56 0,0.04 0.16,0.04 0.04,0 2,-0.36 1.96,-0.36 4.88,-0.72 2.96,-0.36 5.36,-0.36 z"/>
      <path id="path12832" d="m 404.97924,270.71272 q 0,-0.48 1.44,-1.96 1.44,-1.52 3.32,-2.84 1.88,-1.36 2.84,-1.36 1.4,0 3.04,2.12 1.64,2.08 1.64,5.64 0,5.08 -3.44,11.4 -1.4,2.6 -2.88,3.96 -1.44,1.32 -3.44,1.88 -0.92,0.24 -1.68,0.24 -2.84,0 -4.48,-3.56 -0.88,-1.8 -0.88,-2.68 0,-1.76 2.24,-6.92 2.28,-5.2 2.28,-5.92 z m 10.08,1.04 q 0,-4.12 -2.6,-4.12 -1.08,0 -2.12,0.68 -2.12,1.4 -4.6,6.8 -2.44,5.36 -2.44,8.72 0,1.44 0.92,2.48 0.96,1.04 2.28,1.04 0.88,0 1.6,-0.4 0.72,-0.44 1.96,-1.6 2.04,-1.96 2.04,-2.56 0,-0.32 0.72,-1.88 0.76,-1.56 1.48,-4.04 0.76,-2.52 0.76,-5.12 z"/>
      <path id="path12834" d="m 420.91736,262.35272 q 0,-1.84 1.2,-2.92 1.2,-1.12 2.72,-1.12 1.72,0 2.92,1.36 1.24,1.32 1.24,2.68 0,1.64 -1.84,2.88 -1.84,1.24 -3.04,1.24 -1.36,0 -2.28,-1.24 -0.92,-1.28 -0.92,-2.88 z m 2.72,-0.4 q 0,0.72 0.24,1.12 0.24,0.4 0.44,0.44 0.24,0.04 0.56,0.04 0.56,0 0.96,-0.24 0.44,-0.28 0.44,-0.68 0,-0.52 -0.84,-1.16 -0.8,-0.64 -1.28,-0.64 -0.52,0 -0.52,1.12 z"/>
    </g>
    <g id="text26585" style="font-style:normal;font-variant:normal;font-weight:normal;font-stretch:normal;font-size:40px;line-height:125%;font-family:Purisa;-inkscape-font-specification:Purisa;letter-spacing:0px;word-spacing:0px;fill:#000000;fill-opacity:1;stroke:none;stroke-width:1px;stroke-linecap:butt;stroke-linejoin:miter;stroke-opacity:1">
      <path id="path12837" d="m 266.8089,278.40401 q -0.32,0 -0.6,-0.24 -0.28,-0.24 -0.28,-0.68 0,-0.44 0.2,-0.76 0.24,-0.36 0.84,-1 0.6,-0.68 1.12,-1.4 l 1.32,-1.76 q 0.28,-0.36 1,-1.6 0.72,-1.28 1.36,-2.12 0.68,-0.88 1.2,-0.88 0.84,0 1.12,2.56 0.24,2.16 0.48,8.52 0.24,6.32 0.24,10.48 0,2.64 -0.12,2.92 -0.32,0.68 -0.72,0.68 -0.56,0 -1.04,-1.4 -0.52,-1.48 -0.52,-10 -0.04,-8.64 -0.48,-8.64 -0.32,0 -1.28,1.36 -0.96,1.32 -2.08,2.64 -1.08,1.32 -1.76,1.32 z"/>
      <path id="path12839" d="m 301.6314,289.84401 q 1.56,0 2.24,0.16 0.72,0.16 0.84,0.4 0.16,0.2 0.16,0.72 0,0.64 -0.68,0.72 -0.64,0.08 -3.04,0.2 -2.4,0.12 -5.08,0.64 -1.88,0.36 -4.04,0.64 -2.16,0.32 -3.16,0.48 -1,0.2 -1.28,0.48 -0.32,0.28 -0.88,0.28 -0.64,0 -1.2,-0.36 -0.52,-0.36 -0.52,-0.84 0,-0.52 1.32,-2.24 1.32,-1.76 2.48,-2.76 1.44,-1.2 4,-6.32 2.6,-5.16 2.6,-8.4 0,-1.32 -0.76,-1.8 -0.72,-0.48 -2.52,-0.48 -4.32,0 -8.68,4.4 -2.72,2.64 -2.88,2.64 -0.2,0 -0.2,-1.36 0,-1.4 1.04,-1.96 1.08,-0.52 1.08,-1.08 0,-0.2 0.16,-0.44 0.2,-0.28 0.56,-0.56 0.4,-0.32 0.72,-0.56 0.36,-0.28 0.96,-0.68 0.6,-0.44 0.96,-0.72 0.8,-0.68 2.6,-1.36 1.84,-0.72 4,-0.72 3.64,0 4.72,2 0.44,0.76 0.44,2.56 0,3.28 -1.2,6.36 -0.88,2.08 -3.24,5.92 -2.32,3.8 -3.48,4.88 -0.44,0.44 -0.44,0.56 0,0.04 0.16,0.04 0.04,0 2,-0.36 1.96,-0.36 4.88,-0.72 2.96,-0.36 5.36,-0.36 z"/>
      <path id="path12841" d="m 316.05077,274.28401 q 0,-0.48 1.44,-1.96 1.44,-1.52 3.32,-2.84 1.88,-1.36 2.84,-1.36 1.4,0 3.04,2.12 1.64,2.08 1.64,5.64 0,5.08 -3.44,11.4 -1.4,2.6 -2.88,3.96 -1.44,1.32 -3.44,1.88 -0.92,0.24 -1.68,0.24 -2.84,0 -4.48,-3.56 -0.88,-1.8 -0.88,-2.68 0,-1.76 2.24,-6.92 2.28,-5.2 2.28,-5.92 z m 10.08,1.04 q 0,-4.12 -2.6,-4.12 -1.08,0 -2.12,0.68 -2.12,1.4 -4.6,6.8 -2.44,5.36 -2.44,8.72 0,1.44 0.92,2.48 0.96,1.04 2.28,1.04 0.88,0 1.6,-0.4 0.72,-0.44 1.96,-1.6 2.04,-1.96 2.04,-2.56 0,-0.32 0.72,-1.88 0.76,-1.56 1.48,-4.04 0.76,-2.52 0.76,-5.12 z"/>
      <path id="path12843" d="m 331.9889,265.92401 q 0,-1.84 1.2,-2.92 1.2,-1.12 2.72,-1.12 1.72,0 2.92,1.36 1.24,1.32 1.24,2.68 0,1.64 -1.84,2.88 -1.84,1.24 -3.04,1.24 -1.36,0 -2.28,-1.24 -0.92,-1.28 -0.92,-2.88 z m 2.72,-0.4 q 0,0.72 0.24,1.12 0.24,0.4 0.44,0.44 0.24,0.04 0.56,0.04 0.56,0 0.96,-0.24 0.44,-0.28 0.44,-0.68 0,-0.52 -0.84,-1.16 -0.8,-0.64 -1.28,-0.64 -0.52,0 -0.52,1.12 z"/>
    </g>
    <g id="text26589" style="font-style:normal;font-variant:normal;font-weight:normal;font-stretch:normal;font-size:40px;line-height:125%;font-family:Purisa;-inkscape-font-specification:Purisa;letter-spacing:0px;word-spacing:0px;fill:#000000;fill-opacity:1;stroke:none;stroke-width:1px;stroke-linecap:butt;stroke-linejoin:miter;stroke-opacity:1">
      <path id="path12846" d="m 319.30865,216.97556 q -0.32,0 -0.6,-0.24 -0.28,-0.24 -0.28,-0.68 0,-0.44 0.2,-0.76 0.24,-0.36 0.84,-1 0.6,-0.68 1.12,-1.4 l 1.32,-1.76 q 0.28,-0.36 1,-1.6 0.72,-1.28 1.36,-2.12 0.68,-0.88 1.2,-0.88 0.84,0 1.12,2.56 0.24,2.16 0.48,8.52 0.24,6.32 0.24,10.48 0,2.64 -0.12,2.92 -0.32,0.68 -0.72,0.68 -0.56,0 -1.04,-1.4 -0.52,-1.48 -0.52,-10 -0.04,-8.64 -0.48,-8.64 -0.32,0 -1.28,1.36 -0.96,1.32 -2.08,2.64 -1.08,1.32 -1.76,1.32 z"/>
      <path id="path12848" d="m 354.13115,228.41556 q 1.56,0 2.24,0.16 0.72,0.16 0.84,0.4 0.16,0.2 0.16,0.72 0,0.64 -0.68,0.72 -0.64,0.08 -3.04,0.2 -2.4,0.12 -5.08,0.64 -1.88,0.36 -4.04,0.64 -2.16,0.32 -3.16,0.48 -1,0.2 -1.28,0.48 -0.32,0.28 -0.88,0.28 -0.64,0 -1.2,-0.36 -0.52,-0.36 -0.52,-0.84 0,-0.52 1.32,-2.24 1.32,-1.76 2.48,-2.76 1.44,-1.2 4,-6.32 2.6,-5.16 2.6,-8.4 0,-1.32 -0.76,-1.8 -0.72,-0.48 -2.52,-0.48 -4.32,0 -8.68,4.4 -2.72,2.64 -2.88,2.64 -0.2,0 -0.2,-1.36 0,-1.4 1.04,-1.96 1.08,-0.52 1.08,-1.08 0,-0.2 0.16,-0.44 0.2,-0.28 0.56,-0.56 0.4,-0.32 0.72,-0.56 0.36,-0.28 0.96,-0.68 0.6,-0.44 0.96,-0.72 0.8,-0.68 2.6,-1.36 1.84,-0.72 4,-0.72 3.64,0 4.72,2 0.44,0.76 0.44,2.56 0,3.28 -1.2,6.36 -0.88,2.08 -3.24,5.92 -2.32,3.8 -3.48,4.88 -0.44,0.44 -0.44,0.56 0,0.04 0.16,0.04 0.04,0 2,-0.36 1.96,-0.36 4.88,-0.72 2.96,-0.36 5.36,-0.36 z"/>
      <path id="path12850" d="m 368.55053,212.85556 q 0,-0.48 1.44,-1.96 1.44,-1.52 3.32,-2.84 1.88,-1.36 2.84,-1.36 1.4,0 3.04,2.12 1.64,2.08 1.64,5.64 0,5.08 -3.44,11.4 -1.4,2.6 -2.88,3.96 -1.44,1.32 -3.44,1.88 -0.92,0.24 -1.68,0.24 -2.84,0 -4.48,-3.56 -0.88,-1.8 -0.88,-2.68 0,-1.76 2.24,-6.92 2.28,-5.2 2.28,-5.92 z m 10.08,1.04 q 0,-4.12 -2.6,-4.12 -1.08,0 -2.12,0.68 -2.12,1.4 -4.6,6.8 -2.44,5.36 -2.44,8.72 0,1.44 0.92,2.48 0.96,1.04 2.28,1.04 0.88,0 1.6,-0.4 0.72,-0.44 1.96,-1.6 2.04,-1.96 2.04,-2.56 0,-0.32 0.72,-1.88 0.76,-1.56 1.48,-4.04 0.76,-2.52 0.76,-5.12 z"/>
      <path id="path12852" d="m 384.48865,204.49556 q 0,-1.84 1.2,-2.92 1.2,-1.12 2.72,-1.12 1.72,0 2.92,1.36 1.24,1.32 1.24,2.68 0,1.64 -1.84,2.88 -1.84,1.24 -3.04,1.24 -1.36,0 -2.28,-1.24 -0.92,-1.28 -0.92,-2.88 z m 2.72,-0.4 q 0,0.72 0.24,1.12 0.24,0.4 0.44,0.44 0.24,0.04 0.56,0.04 0.56,0 0.96,-0.24 0.44,-0.28 0.44,-0.68 0,-0.52 -0.84,-1.16 -0.8,-0.64 -1.28,-0.64 -0.52,0 -0.52,1.12 z"/>
    </g>
    <g id="text26593" style="font-style:normal;font-variant:normal;font-weight:normal;font-stretch:normal;font-size:40px;line-height:125%;font-family:Purisa;-inkscape-font-specification:Purisa;letter-spacing:0px;word-spacing:0px;fill:#000000;fill-opacity:1;stroke:none;stroke-width:1px;stroke-linecap:butt;stroke-linejoin:miter;stroke-opacity:1">
      <path id="path12855" d="m 285.10708,435.99789 q 0.04,0 0.24,-0.12 0.2,-0.16 0.52,-0.32 0.36,-0.16 0.76,-0.16 0.64,0 1.08,0.36 0.48,0.32 0.48,0.88 0,0.88 -1.32,1.68 -1.32,0.76 -5,2.16 -2.4,0.92 -3.44,0.92 -0.64,0 -1.72,-0.32 -1.16,-0.32 -1.6,-0.68 -0.44,-0.36 -0.44,-0.92 0,-0.6 0.32,-0.8 0.32,-0.2 1.24,-0.2 1.4,0 3.56,-0.92 l 2,-0.92 -0.36,-7.48 q -0.36,-7.48 -0.36,-11.84 l 0,-4.28 -1.16,0.32 q -1.96,0.56 -3.8,0.56 -2.32,0 -2.32,-0.88 0,-0.52 1.4,-1.12 1.4,-0.64 3.56,-1.32 2.2,-0.68 2.8,-0.92 0.44,-0.2 2.6,-0.2 2.76,0 3.52,0.28 0.28,0.12 0.52,0.52 0.24,0.4 0.24,0.76 0,0.72 -0.68,1.08 -0.68,0.32 -2.64,0.56 l -1.2,0.16 0.08,6.96 q 0.28,16.2 1.12,16.2 z"/>
      <path id="path12857" d="m 300.26271,431.27789 q -0.6,0 -2.56,-1.44 -1.96,-1.48 -1.96,-3 0,-1.44 2.04,-3.96 2.04,-2.56 4.92,-3.28 1.32,-0.36 3.48,-0.36 0.92,0 1.36,0.24 0.44,0.24 1.2,1.08 1.24,1.4 1.24,1.92 0,0.48 -0.52,0.48 -0.64,0 -1.08,-0.44 -0.44,-0.48 -1.08,-0.96 -0.64,-0.48 -1.72,-0.48 -1.4,0 -3,0.76 -1.6,0.76 -2.84,2.12 -1.76,1.88 -1.76,2.56 0,0.68 1.04,1.64 1.04,0.92 3.48,1.76 3.84,1.32 5.2,2.48 1.36,1.16 1.36,3.12 0,1.84 -0.64,3.36 -0.44,1.16 -1.88,2.6 -1.44,1.44 -2.84,1.44 -1.08,0 -2.8,-0.36 -1.72,-0.32 -2.6,-0.76 -0.72,-0.36 -1.32,-1.4 -0.6,-1.08 -0.6,-1.92 0,-0.44 0.2,-0.76 0.24,-0.36 0.56,-0.36 0.6,0 1.12,1.12 0.48,1 1.92,1.8 1.48,0.8 2.76,0.8 1.72,0 3.04,-2.04 1.32,-2.08 1.32,-3.24 0,-0.28 -0.16,-0.68 -0.12,-0.44 -0.68,-1.04 -0.56,-0.6 -1.44,-0.92 -0.84,-0.28 -1.96,-0.76 -1.12,-0.48 -1.88,-0.8 -0.72,-0.32 -0.92,-0.32 z"/>
      <path id="path12859" d="m 318.83021,422.71789 q 3.12,-2.92 5.24,-3.84 2.16,-0.96 5.44,-0.96 4.96,0 6.2,2.96 0.76,1.76 0.76,4.32 0,4.24 -1.88,8.6 -1.88,4.32 -4.64,6 -2.68,1.64 -5.64,1.64 -4.12,0 -6.6,-2.84 -1.72,-2 -2.24,-3.36 -0.52,-1.4 -0.52,-3.96 0,-4.84 3.88,-8.56 z m 6.44,16.44 q 3.36,0 6.08,-4.6 2.76,-4.64 2.76,-10.48 0,-0.88 -0.2,-1.32 -0.2,-0.44 -0.72,-0.88 -1.48,-1.24 -3.16,-1.24 -0.28,0 -0.64,0.08 -0.32,0.04 -1.08,0.16 -0.76,0.08 -1.8,0.2 -1.4,0.2 -2.24,0.64 -0.8,0.4 -2.04,1.56 -2.36,2.24 -3.36,4.16 -1,1.88 -1,4.12 0,3.32 2.04,5.44 2.08,2.12 5.36,2.16 z"/>
      <path id="path12861" d="m 344.48583,420.55789 q 0,-2.32 0.64,-2.32 0.52,0 1.12,3.64 0.64,3.64 0.88,3.64 0.08,0 0.28,-0.48 0.2,-0.52 0.44,-1.12 0.24,-0.64 0.4,-0.8 0.4,-0.52 1.08,-1.96 0.84,-1.72 1.28,-2.08 0.44,-0.4 1.56,-0.4 1.24,0 2.72,1.72 0.96,1.12 1.28,2.08 0.36,0.92 0.76,3.36 l 0.64,3.76 0.68,-2.4 q 1,-3.48 2.88,-6 1.88,-2.52 3.48,-2.52 1,0 1.84,1.16 0.84,1.12 1.2,2.88 0.36,1.64 0.36,7.24 0,4.2 -0.04,6.48 -0.04,2.28 -0.2,3.32 -0.12,1 -0.24,1.16 -0.12,0.2 -0.44,0.24 -0.12,0.04 -0.28,0.04 -0.36,0 -0.44,-1.12 -0.08,-1.12 -0.12,-6.28 0,-12.6 -1.92,-12.6 -1.04,0 -2.72,3.44 -1.4,2.84 -2.36,6.92 -0.96,4.08 -1.16,8.24 -0.04,1 -0.24,1.36 -0.16,0.36 -0.56,0.36 -0.48,0 -0.64,-0.84 -0.12,-0.8 -0.28,-4.32 -0.28,-6.48 -0.8,-9.08 -0.52,-2.64 -1.92,-4.76 -1.04,-1.48 -1.52,-1.48 -0.56,0 -1.24,1.4 -0.68,1.36 -2.24,5.24 -0.72,1.88 -0.72,3.44 0,0.92 -0.36,2.04 -0.32,1.08 -0.44,5.4 -0.08,4.04 -0.32,4.6 -0.16,0.48 -0.64,0.48 -0.64,0 -0.88,-1.92 -0.2,-1.92 -0.2,-7.68 0,-4.64 -0.32,-8.52 -0.28,-3.88 -0.28,-4.96 z"/>
      <path id="path12863" d="m 395.19583,432.07789 q 0.2,0 0.2,0.32 0,0.72 -1.08,2.32 -1.04,1.6 -2.24,2.64 -4.2,3.72 -8.4,3.72 -1.6,0 -3.2,-0.72 -1.56,-0.76 -2.92,-2.12 -1.36,-1.36 -2.2,-3.64 -0.84,-2.28 -0.84,-5.08 0,-1.72 0.4,-2.92 0.8,-2.44 3.4,-5.16 2.64,-2.72 4.96,-2.72 0.64,0 1.92,0.12 1.92,0.16 2.68,0.4 0.8,0.24 1.8,1 1.28,0.96 2.2,2.48 0.96,1.48 0.96,2.48 0,1.28 -1,1.96 -1,0.64 -3.88,1.28 -3.72,0.84 -7.36,1.04 l -3.72,0.2 0,1.6 q 0,2.96 2.76,5.6 2.08,2 4.32,2 1.72,0 3.64,-1.04 1.96,-1.08 3.32,-2.36 1.36,-1.28 2.6,-2.32 1.24,-1.08 1.68,-1.08 z m -6.44,-9.76 q -1.24,-1.12 -1.88,-1.4 -0.6,-0.32 -1.6,-0.32 -2,0 -3,0.4 -0.96,0.36 -1.96,1.52 -3.04,3.48 -3.04,4.64 0,0.52 0.96,0.52 3.64,0 10.32,-1.52 2,-0.48 2,-1.68 0,-0.56 -1.8,-2.16 z"/>
      <path id="path12865" d="m 406.52333,412.87789 q 0,-1.48 -0.28,-3.76 -0.28,-2.28 -0.28,-3.8 0,-0.76 0.04,-1 0.12,-0.64 0.44,-1 0.36,-0.4 0.72,-0.4 0.48,0 0.68,0.44 0.12,0.28 0.36,2.96 0.24,2.68 0.44,5.24 0.2,2.56 0.28,2.64 0.04,0.04 0.12,0.04 0.32,0 1.84,-0.32 1.56,-0.36 2.56,-0.36 2,0 2,0.88 0,0.88 -4.4,1.96 l -2,0.48 0.24,6.76 q 0.2,5.96 0.76,11.16 0.56,5.16 0.56,5.84 0,1.24 -0.92,1.24 -0.72,0 -1.2,-1.28 -0.44,-1.28 -0.44,-3.32 0,-1.48 -0.12,-3 -0.12,-1.56 -0.44,-4.8 -0.28,-3.28 -0.56,-6.72 -0.12,-1.84 -0.2,-2.84 -0.04,-1 -0.12,-1.48 -0.08,-0.48 -0.12,-0.56 -0.04,-0.12 -0.16,-0.12 -0.64,0 -3.08,0.44 -2.44,0.44 -3.04,0.44 -1.16,0 -1.16,-0.96 0,-0.68 1.44,-1.16 1.48,-0.48 3.32,-0.84 1.84,-0.4 2.28,-0.68 0.44,-0.32 0.44,-2.12 z"/>
      <path id="path12867" d="m 434.50458,421.23789 q 0.68,0 1.2,0.44 0.52,0.4 0.52,0.68 0,0.48 -1.52,1.08 -2.48,1 -5.08,4.84 -2.56,3.8 -3.12,7.36 -0.64,4.04 -1.04,5.28 -0.4,1.28 -1.04,1.28 -0.56,0 -0.88,-0.4 -0.28,-0.4 -0.4,-0.88 -0.08,-0.48 -0.2,-1.76 -0.04,-0.24 -0.04,-0.36 -0.96,-10.08 -0.96,-15.92 0,-2.08 0.16,-2.56 0.44,-1.28 1.12,-1.28 0.64,0 0.64,1.08 0,1.8 0.56,5.8 0.56,4 0.84,4 0.36,0 1.48,-2.2 1.4,-2.6 3.72,-4.52 2.36,-1.96 4.04,-1.96 z"/>
      <path id="path12869" d="m 443.52021,417.87789 q 0.56,-0.48 0.96,-0.48 0.84,0 1.2,2.68 0.4,2.64 0.72,10.2 0.16,3.52 0.16,6.36 0,2.84 -0.24,3.12 -0.48,0.6 -1.2,0.6 -1,0 -1.24,-0.84 -0.2,-0.52 -0.6,-8.08 -0.4,-7.6 -0.4,-10.56 0,-2.48 0.64,-3 z m -0.24,-9.4 q 0,-0.56 0.44,-1.12 0.48,-0.56 0.84,-0.56 0.4,0 1.08,0.56 0.72,0.52 0.72,1.36 0,0.6 -0.36,1.04 -0.32,0.4 -0.88,0.4 -0.64,0 -1.24,-0.48 -0.6,-0.48 -0.6,-1.2 z"/>
      <path id="path12871" d="m 470.25396,424.59789 q 0,0.68 -0.32,1.12 -0.28,0.44 -0.68,0.44 -0.76,0 -0.96,-1.16 -0.08,-0.92 -1.32,-2.32 -0.52,-0.56 -0.84,-0.8 -0.32,-0.24 -1.52,-0.52 -1.16,-0.28 -3.08,-0.28 -1.56,0 -2.4,0.56 -0.8,0.56 -2,2.28 -2.88,4.08 -2.88,7.36 0,1.68 0.36,2.84 0.36,1.12 0.68,1.52 0.36,0.36 1.16,1.16 1.16,1.12 1.76,1.44 0.64,0.28 1.76,0.28 3.48,0 7.6,-4.72 2.16,-2.4 3.12,-2.4 0.52,0 0.52,0.76 0,0.72 -1.92,3.08 -1.88,2.36 -3.24,3.32 -3.16,2.28 -5.64,2.28 -1.8,0 -3.96,-1.08 -2.2,-1.08 -3.2,-2.92 -0.96,-1.84 -1.16,-5.36 -0.12,-1.36 -0.12,-2.16 0,-1.56 1.08,-3.56 1.12,-2.16 3.24,-4.16 2.16,-2 3.72,-2.44 1.2,-0.28 2.6,-0.28 3.04,0 5.32,1.96 2.32,1.92 2.32,3.76 z"/>
    </g>
  </g>
</svg>